<svg width="87" height="78" viewBox="0 0 87 78" fill="none" xmlns="http://www.w3.org/2000/svg">
<path d="M76.4849 46.974C77.2029 46.3084 78.1696 45.9377 79.1749 45.9425C80.1801 45.9473 81.1428 46.3272 81.8536 46.9996C82.5645 47.6721 82.9661 48.5827 82.9712 49.5336C82.9762 50.4846 82.5844 51.399 81.8808 52.0782L58.6787 74.0261C57.9607 74.6917 56.994 75.0623 55.9887 75.0575C54.9835 75.0527 54.0208 74.6728 53.31 74.0004C52.5991 73.328 52.1975 72.4174 52.1924 71.4664C52.1874 70.5155 52.5792 69.6011 53.2828 68.9219L76.4849 46.974Z" stroke="#F6F6F6" stroke-width="2" stroke-miterlimit="10"/>
<path d="M76.0609 47.375L75.3864 46.737C74.8682 46.2453 74.2524 45.8552 73.5745 45.5891C72.8966 45.3229 72.1699 45.1859 71.4359 45.1859C70.7019 45.1859 69.9752 45.3229 69.2973 45.5891C68.6194 45.8552 68.0036 46.2453 67.4854 46.737L53.0322 60.4088C52.5125 60.8991 52.1001 61.4815 51.8188 62.1228C51.5374 62.764 51.3926 63.4515 51.3926 64.1458C51.3926 64.8401 51.5374 65.5276 51.8188 66.1688C52.1001 66.8101 52.5125 67.3925 53.0322 67.8828L53.7067 68.5208" stroke="#F6F6F6" stroke-width="2" stroke-miterlimit="10"/>
<path d="M81.4568 52.4792L82.1313 53.1172C82.6496 53.6073 83.0608 54.1891 83.3413 54.8296C83.6218 55.47 83.7662 56.1564 83.7662 56.8496C83.7662 57.5428 83.6218 58.2293 83.3413 58.8697C83.0608 59.5101 82.6496 60.092 82.1313 60.582L67.6782 74.263C67.1601 74.7533 66.545 75.1422 65.868 75.4076C65.191 75.6729 64.4653 75.8095 63.7325 75.8095C62.9997 75.8095 62.274 75.6729 61.597 75.4076C60.92 75.1422 60.3049 74.7533 59.7868 74.263L59.1123 73.625" stroke="#F6F6F6" stroke-width="2" stroke-miterlimit="10"/>
<path d="M75.2897 53.2083C74.472 53.2083 73.6877 53.5156 73.1095 54.0626C72.5312 54.6096 72.2064 55.3514 72.2064 56.125C72.2064 56.8985 71.8815 57.6404 71.3033 58.1874C70.7251 58.7344 69.9408 59.0417 69.123 59.0417C68.3053 59.0417 67.521 59.349 66.9428 59.8959C66.3646 60.4429 66.0397 61.1848 66.0397 61.9583C66.0397 62.7319 65.7149 63.4737 65.1366 64.0207C64.5584 64.5677 63.7741 64.875 62.9564 64.875C62.1386 64.875 61.3544 65.1823 60.7761 65.7293C60.1979 66.2762 59.873 67.0181 59.873 67.7917" stroke="#F6F6F6" stroke-width="2" stroke-miterlimit="10"/>
<g clip-path="url(#clip0_619_373)">
<path d="M42.623 22.2396C42.623 21.7561 42.8261 21.2924 43.1875 20.9506C43.5489 20.6087 44.039 20.4167 44.5501 20.4167H74.6126C75.1237 20.4167 75.6139 20.6087 75.9753 20.9506C76.3367 21.2924 76.5397 21.7561 76.5397 22.2396C76.5397 22.723 76.3367 23.1867 75.9753 23.5286C75.6139 23.8704 75.1237 24.0625 74.6126 24.0625H44.5501C44.039 24.0625 43.5489 23.8704 43.1875 23.5286C42.8261 23.1867 42.623 22.723 42.623 22.2396V22.2396Z" stroke="#F6F6F6" stroke-width="2" stroke-miterlimit="10"/>
<path d="M74.4003 24.0625L73.2922 32.0833H45.8794L44.7617 24.0625" stroke="#F6F6F6" stroke-width="2" stroke-miterlimit="10"/>
<path d="M56.4977 6.56252H54.9561V8.02085H56.4977V6.56252Z" fill="#F6F6F6"/>
<path d="M64.2057 5.83333H62.6641V7.29166H64.2057V5.83333Z" fill="#F6F6F6"/>
<path d="M61.1227 8.75002H59.5811V10.2083H61.1227V8.75002Z" fill="#F6F6F6"/>
<path d="M47.248 20.4166V16.0416" stroke="#F6F6F6" stroke-width="2" stroke-miterlimit="10"/>
<path d="M71.915 16.0416V20.4166" stroke="#F6F6F6" stroke-width="2" stroke-miterlimit="10"/>
<path d="M59.6777 16.0416H46.8626C46.3515 16.0416 45.8614 15.8496 45.5 15.5077C45.1386 15.1659 44.9355 14.7022 44.9355 14.2187C44.9355 13.7353 45.1386 13.2716 45.5 12.9297C45.8614 12.5879 46.3515 12.3958 46.8626 12.3958H72.3001C72.8112 12.3958 73.3014 12.5879 73.6628 12.9297C74.0242 13.2716 74.2272 13.7353 74.2272 14.2187C74.2272 14.7022 74.0242 15.1659 73.6628 15.5077C73.3014 15.8496 72.8112 16.0416 72.3001 16.0416H64.1197" stroke="#F6F6F6" stroke-width="2" stroke-miterlimit="10"/>
<path d="M71.9147 12.3958V12.0312C71.9147 6.99999 66.3936 2.91666 59.5814 2.91666C52.7691 2.91666 47.248 6.99999 47.248 12.0312V12.3958" stroke="#F6F6F6" stroke-width="2" stroke-miterlimit="10"/>
<path d="M53.415 12.3958C54.4121 12.3952 55.3787 12.7204 56.1515 13.3164L61.8942 17.7552L67.6369 13.3164C68.4097 12.7204 69.3763 12.3952 70.3734 12.3958" stroke="#F6F6F6" stroke-width="2" stroke-miterlimit="10"/>
</g>
<g clip-path="url(#clip1_619_373)">
<path d="M9.7168 58.7916H27.446" stroke="#F6F6F6" stroke-width="2" stroke-miterlimit="10"/>
<path d="M20.2575 34.1549L16.8369 58.7916" stroke="#F6F6F6" stroke-width="2" stroke-miterlimit="10"/>
<path d="M8.40625 49.3125L11.0271 68.2708H26.1354L28.7562 49.3125" stroke="#F6F6F6" stroke-width="2" stroke-miterlimit="10"/>
<path d="M7.01855 45.6666H30.1436V49.3125H7.01855V45.6666Z" stroke="#F6F6F6" stroke-width="2" stroke-miterlimit="10"/>
<path d="M28.6022 45.6666V44.9374C28.6022 43.3903 27.9525 41.9066 26.796 40.8126C25.6396 39.7187 24.071 39.1041 22.4355 39.1041H14.7272C13.0917 39.1041 11.5232 39.7187 10.3667 40.8126C9.21025 41.9066 8.56055 43.3903 8.56055 44.9374V45.6666" stroke="#F6F6F6" stroke-width="2" stroke-miterlimit="10"/>
</g>
<defs>
<clipPath id="clip0_619_373">
<rect width="37" height="35" fill="white" transform="translate(41.0811)"/>
</clipPath>
<clipPath id="clip1_619_373">
<rect width="37" height="35" fill="white" transform="translate(0.0810547 34)"/>
</clipPath>
</defs>
</svg>
