<svg width="52" height="52" viewBox="0 0 52 52" fill="none" xmlns="http://www.w3.org/2000/svg">
<rect width="52" height="52" rx="10.7368" fill="#F20707" fill-opacity="0.19"/>
<rect x="8.5" y="8.5" width="35" height="35" rx="12" fill="#F20707"/>
<path d="M26 19C22.1325 19 19 22.1325 19 26C19 29.8675 22.1325 33 26 33C29.8675 33 33 29.8675 33 26C33 22.1325 29.8675 19 26 19ZM29.5 28.5095L28.5095 29.5L26 26.9905L23.4905 29.5L22.5 28.5095L25.0095 26L22.5 23.4905L23.4905 22.5L26 25.0095L28.5095 22.5L29.5 23.4905L26.9905 26L29.5 28.5095Z" fill="white"/>
</svg>
