<svg width="25" height="24" viewBox="0 0 25 24" fill="none" xmlns="http://www.w3.org/2000/svg">
<path d="M9.12088 19.947C8.29288 19.947 7.62165 19.2757 7.62165 18.4477C7.62165 17.6197 8.29288 16.9485 9.12088 16.9485C9.94889 16.9485 10.6201 17.6197 10.6201 18.4477C10.6201 19.2757 9.94889 19.947 9.12088 19.947Z" fill="#00BF63"/>
<path d="M14.5183 19.947C13.6903 19.947 13.0191 19.2757 13.0191 18.4477C13.0191 17.6197 13.6903 16.9485 14.5183 16.9485C15.3463 16.9485 16.0176 17.6197 16.0176 18.4477C16.0176 19.2757 15.3463 19.947 14.5183 19.947Z" fill="#00BF63"/>
<path d="M6.42227 15.7491C6.42227 15.9082 6.48545 16.0607 6.59791 16.1732C6.71038 16.2856 6.86291 16.3488 7.02196 16.3488H15.6695C16.0748 16.3489 16.4682 16.2121 16.786 15.9607C17.1038 15.7093 17.3274 15.3579 17.4206 14.9635L17.6425 13.95L19.3457 6.24996L19.6035 5.08656C19.6385 4.93069 19.6102 4.7673 19.5247 4.63235C19.4392 4.49739 19.3036 4.40191 19.1478 4.36692C18.9919 4.33193 18.8285 4.36029 18.6936 4.44577C18.5586 4.53124 18.4631 4.66682 18.4281 4.82269L18.1343 6.15401L16.4132 13.95L16.2512 14.6937C16.2185 14.8234 16.1436 14.9385 16.0383 15.021C15.933 15.1035 15.8033 15.1487 15.6695 15.1494H7.02196C6.86291 15.1494 6.71038 15.2126 6.59791 15.3251C6.48545 15.4375 6.42227 15.5901 6.42227 15.7491Z" fill="#00BF63"/>
<path d="M5.29491 8.4269L6.44033 12.6248C6.54601 13.0051 6.77315 13.3405 7.08712 13.5797C7.4011 13.819 7.78469 13.9491 8.17944 13.9501L16.7371 14.07L18.1389 6.15406C18.1389 6.15406 18.1732 6.15454 18.0564 6.15406H7.03403C6.75706 6.15351 6.48371 6.21692 6.23527 6.33935C5.98683 6.46177 5.77001 6.6399 5.6017 6.85986C5.43339 7.07982 5.31814 7.33567 5.26493 7.60748C5.21172 7.87928 5.22198 8.15971 5.29491 8.4269Z" fill="#00BF63"/>
</svg>
