<svg width="24" height="24" viewBox="0 0 24 24" fill="none" xmlns="http://www.w3.org/2000/svg">
<path d="M10.4919 7.7C10.6254 7.56667 10.6254 7.36667 10.4919 7.23333L7.35596 4.1C7.22251 3.96667 7.02234 3.96667 6.8889 4.1L5.82132 5.16667L9.42438 8.76667L10.4919 7.7ZM10.6254 13.3667C8.99068 11.7333 8.22336 10.0667 8.79051 9.43333L5.15409 5.83333L4.48686 6.5C3.98644 7 3.88635 7.73333 4.11988 8.7C5.12073 12.4 11.5929 18.8667 15.296 19.8667C15.6296 19.9667 15.9299 20 16.1968 20C16.7306 20 17.1643 19.8333 17.4645 19.5L18.1651 18.8L14.5621 15.2333C13.9282 15.7667 12.2268 15 10.6254 13.3667ZM19.8999 16.6333L16.7639 13.5C16.6305 13.3667 16.4303 13.3667 16.2969 13.5L15.2293 14.5667L18.8323 18.1667L19.8999 17.1C20.0334 16.9667 20.0334 16.7667 19.8999 16.6333Z" fill="#00BF63"/>
</svg>
