<svg width="35" height="36" viewBox="0 0 35 36" fill="none" xmlns="http://www.w3.org/2000/svg">
<rect y="0.5" width="35" height="35" rx="12" fill="#F20707"/>
<path d="M22.4154 16.2136L22.1803 23.329C22.1603 23.9384 21.9036 24.516 21.4647 24.9392C21.0258 25.3625 20.4392 25.598 19.8295 25.5958H15.3629C14.7536 25.598 14.1673 25.3628 13.7285 24.9401C13.2896 24.5174 13.0327 23.9403 13.012 23.3314L12.777 16.2136C12.7718 16.0577 12.8288 15.9062 12.9354 15.7923C13.042 15.6785 13.1894 15.6116 13.3453 15.6065C13.5011 15.6013 13.6527 15.6583 13.7665 15.7649C13.8804 15.8715 13.9472 16.0189 13.9524 16.1748L14.1875 23.292C14.1992 23.5958 14.3282 23.8833 14.5473 24.094C14.7665 24.3048 15.0588 24.4224 15.3629 24.4222H19.8295C20.1339 24.4224 20.4266 24.3044 20.6458 24.0932C20.8651 23.8819 20.9938 23.5939 21.0049 23.2896L21.24 16.1748C21.2451 16.0189 21.312 15.8715 21.4258 15.7649C21.5397 15.6583 21.6912 15.6013 21.8471 15.6065C22.003 15.6116 22.1504 15.6785 22.257 15.7923C22.3636 15.9062 22.4206 16.0577 22.4154 16.2136ZM23.193 13.8457C23.193 14.0016 23.131 14.1511 23.0208 14.2613C22.9106 14.3715 22.7611 14.4334 22.6052 14.4334H12.5877C12.4318 14.4334 12.2824 14.3715 12.1721 14.2613C12.0619 14.1511 12 14.0016 12 13.8457C12 13.6898 12.0619 13.5403 12.1721 13.4301C12.2824 13.3199 12.4318 13.258 12.5877 13.258H14.4096C14.5958 13.2585 14.7756 13.1897 14.9139 13.065C15.0521 12.9403 15.1391 12.7686 15.1578 12.5833C15.2011 12.1487 15.4048 11.7458 15.729 11.4531C16.0532 11.1604 16.4747 10.9989 16.9115 11H18.2809C18.7176 10.9989 19.1392 11.1604 19.4634 11.4531C19.7876 11.7458 19.9912 12.1487 20.0346 12.5833C20.0533 12.7686 20.1402 12.9403 20.2785 13.065C20.4168 13.1897 20.5965 13.2585 20.7828 13.258H22.6047C22.7605 13.258 22.91 13.3199 23.0202 13.4301C23.1305 13.5403 23.1924 13.6898 23.1924 13.8457H23.193ZM16.178 13.258H19.0155C18.9383 13.0815 18.8878 12.8945 18.8656 12.7032C18.8511 12.5583 18.7833 12.424 18.6753 12.3263C18.5674 12.2286 18.4271 12.1744 18.2815 12.1743H16.9121C16.7665 12.1744 16.6261 12.2286 16.5182 12.3263C16.4103 12.424 16.3425 12.5583 16.3279 12.7032C16.3056 12.8946 16.2555 13.0816 16.178 13.258ZM16.7699 22.1624V17.158C16.7699 17.0022 16.7079 16.8527 16.5977 16.7425C16.4875 16.6323 16.338 16.5703 16.1822 16.5703C16.0263 16.5703 15.8768 16.6323 15.7666 16.7425C15.6564 16.8527 15.5944 17.0022 15.5944 17.158V22.1648C15.5944 22.3206 15.6564 22.4701 15.7666 22.5803C15.8768 22.6905 16.0263 22.7525 16.1822 22.7525C16.338 22.7525 16.4875 22.6905 16.5977 22.5803C16.7079 22.4701 16.7699 22.3206 16.7699 22.1648V22.1624ZM19.5991 22.1624V17.158C19.5991 17.0022 19.5372 16.8527 19.427 16.7425C19.3168 16.6323 19.1673 16.5703 19.0114 16.5703C18.8555 16.5703 18.706 16.6323 18.5958 16.7425C18.4856 16.8527 18.4237 17.0022 18.4237 17.158V22.1648C18.4237 22.3206 18.4856 22.4701 18.5958 22.5803C18.706 22.6905 18.8555 22.7525 19.0114 22.7525C19.1673 22.7525 19.3168 22.6905 19.427 22.5803C19.5372 22.4701 19.5991 22.3206 19.5991 22.1648V22.1624Z" fill="white"/>
</svg>
