<svg width="214" height="235" viewBox="0 0 214 235" fill="none" xmlns="http://www.w3.org/2000/svg">
<path d="M110.343 212.882C165.773 212.882 210.709 217.761 210.709 223.779C210.709 229.796 165.773 234.675 110.343 234.675C54.9123 234.675 9.97705 229.797 9.97705 223.779C9.97705 217.76 54.9114 212.882 110.343 212.882Z" fill="#FAFAFA"/>
<path d="M147.566 176.139C146.526 140.411 159.378 105.894 179.039 82.1854" stroke="#091A50" stroke-width="1.04178" stroke-miterlimit="10"/>
<path d="M159.537 105.294C161.406 86.7054 147.166 97.0065 175.168 81.1619C179.61 78.6582 174.114 82.3404 168.125 96.0805C165.958 101.253 158.161 115.843 154.18 129.398C148.325 148.886 154.232 136.587 151.89 117.427C151.148 108.623 148.992 100.363 155.248 93.7144C158.221 97.6719 159.582 102.733 159.537 105.294Z" fill="#14653E"/>
<path d="M189.837 77.6574C190.868 75.3141 191.039 71.8159 191.123 68.6459C197.112 65.7575 202.81 65.146 205.592 65.7293C195.657 71.5899 192.956 78.7967 187.655 86.7117C172.702 107.994 157.649 118.016 150.566 142.665C155.925 121.429 158.067 118.018 166.576 97.7402C171.189 86.6078 178.715 75.202 189.442 69.5018C190.197 72.1541 190.332 74.9445 189.837 77.6574Z" fill="#7ED957"/>
<path d="M51.5263 215.689C49.2987 179.565 32.3932 171.145 21.7119 162.114" stroke="#091A50" stroke-width="0.733715" stroke-miterlimit="10"/>
<path d="M28.9418 172.397C26.4453 172.247 23.9601 172.837 21.797 174.092C21.2173 171.598 21.5062 167.9 20.3223 163.782C26.6295 167.94 29.8587 167.599 40.9866 180.385C34.8699 174.122 24.4639 180.426 22.1543 175.223C23.9198 173.952 26.9767 172.302 28.9418 172.397Z" fill="#089E56"/>
<path d="M20.6383 156.368C19.3367 156.158 17.6423 156.737 15.7766 157.489C14.7609 155.095 14.3626 152.484 14.6182 149.896C16.7655 152.569 19.1198 153.502 21.6226 154.516C35.071 159.894 33.7075 170.825 41.9251 181.462C26.9564 164.087 20.8634 168.18 16.1202 158.254C17.4525 157.271 19.0024 156.624 20.6383 156.368Z" fill="#7ED957"/>
<path d="M51.5262 215.688C52.4376 184.417 41.1876 154.206 23.9795 133.454" stroke="#091A50" stroke-width="0.911447" stroke-miterlimit="10"/>
<path d="M41.0486 153.682C39.4135 137.413 51.8766 146.429 27.3678 132.561C23.4796 130.374 28.2902 133.593 33.531 145.618C35.4277 150.146 42.2518 162.916 45.7344 174.779C50.8595 191.837 45.6888 181.068 47.7396 164.298C48.3894 156.593 50.2752 149.363 44.8002 143.544C42.2007 147.016 41.0095 151.441 41.0486 153.682Z" fill="#14653E"/>
<path d="M14.53 129.491C13.6268 127.44 13.4782 124.378 13.4044 121.604C8.16264 119.075 3.1752 118.54 0.740723 119.052C9.43229 124.181 11.8011 130.488 16.4404 137.416C29.5279 156.044 42.7029 164.815 48.9016 186.39C44.2113 167.805 42.3392 164.817 34.8881 147.069C30.8513 137.326 24.2643 127.343 14.8754 122.354C14.2146 124.675 14.0964 127.117 14.53 129.491Z" fill="#7ED957"/>
<path d="M175.589 136.869V212.459C175.591 213.361 175.408 214.255 175.053 215.085C174.698 215.914 174.177 216.663 173.522 217.285C173.506 217.304 173.488 217.321 173.469 217.337C172.235 218.496 170.605 219.14 168.912 219.137H51.6997C50.0069 219.14 48.3767 218.496 47.1425 217.337C47.1236 217.321 47.1059 217.304 47.0896 217.285C46.435 216.663 45.9141 215.914 45.5587 215.085C45.2032 214.255 45.0208 213.361 45.0225 212.459V136.869C45.0228 134.788 45.4757 132.731 46.3498 130.843C47.2239 128.954 48.4983 127.278 50.0847 125.931L102.882 81.1072C104.955 79.3469 107.586 78.3805 110.305 78.3805C113.024 78.3805 115.655 79.3469 117.728 81.1072L170.525 125.931C172.112 127.278 173.387 128.954 174.261 130.843C175.135 132.731 175.589 134.787 175.589 136.869Z" fill="#089E56"/>
<path d="M91.393 35.4693C90.3625 35.9735 89.5276 36.8044 89.0184 37.8325C88.5092 38.8605 88.3542 40.0281 88.5776 41.1535C88.801 42.2788 89.3902 43.2987 90.2535 44.0543C91.1168 44.8099 92.2058 45.2588 93.3508 45.3311C93.8605 45.3736 94.3489 45.5543 94.7635 45.8538C95.178 46.1534 95.5029 46.5604 95.7032 47.031L108.008 74.9021C108.949 77.0068 109.165 79.3642 108.622 81.6049C108.079 83.8455 106.808 85.8427 105.008 87.2832C105.445 87.732 105.855 88.2065 106.235 88.7042C108.338 87.0542 109.831 84.7516 110.481 82.1592C111.131 79.5667 110.899 76.8318 109.823 74.3853L97.4131 46.2781C97.2036 45.8039 97.1268 45.2816 97.191 44.7671C97.2552 44.2526 97.458 43.7652 97.7777 43.3569C98.5056 42.4304 98.8974 41.2842 98.8889 40.1059C98.8805 38.9276 98.4722 37.7872 97.7309 36.8712C96.9897 35.9553 95.9595 35.3181 94.8089 35.0641C93.6583 34.8101 92.4555 34.9542 91.3976 35.4729L91.393 35.4693ZM95.0306 43.1929C94.4272 43.4594 93.7584 43.5409 93.1086 43.4273C92.4589 43.3136 91.8574 43.0098 91.3803 42.5544C90.9032 42.0989 90.5719 41.5121 90.4283 40.8684C90.2847 40.2246 90.3352 39.5526 90.5734 38.9376C90.8117 38.3225 91.227 37.7919 91.7668 37.4128C92.3066 37.0338 92.9467 36.8233 93.6062 36.8081C94.2656 36.7928 94.9148 36.9735 95.4715 37.3272C96.0283 37.6809 96.4677 38.1917 96.7341 38.7952C97.0904 39.6042 97.1112 40.5216 96.792 41.346C96.4729 42.1705 95.8388 42.8346 95.0306 43.1929Z" fill="#E54C38"/>
<path d="M92.9466 38.5853L90.9833 34.4628C89.7684 31.9427 88.29 23.9256 91.7808 18.7312C95.2534 13.5652 102.931 12.6729 111.26 20.2807C125.843 33.5988 137.14 51.876 148.659 53.4036C158.213 54.6723 162.661 47.1429 162.034 41.7699C161.478 37.0112 156.879 32.0666 148.454 33.4265C135.068 35.5876 130.145 53.8812 143.192 64.0284C155.637 73.7079 189.61 69.497 189.61 0.199707" stroke="#E54C38" stroke-width="1.82289" stroke-miterlimit="10"/>
<g opacity="0.5">
<path d="M146.808 74.8901L60.0469 90.6729L77.5221 186.738L164.283 170.955L146.808 74.8901Z" fill="#808080"/>
</g>
<g filter="url(#filter0_d_45_1422)">
<path d="M58.3652 86.7509L144.773 70.88L162.346 166.554L75.9381 182.425L58.3652 86.7509Z" fill="white"/>
</g>
<path d="M139.242 131.396L85.931 141.077C85.6777 141.123 85.4178 141.119 85.1662 141.065C84.9146 141.01 84.6762 140.907 84.4646 140.76C84.253 140.613 84.0723 140.427 83.933 140.21C83.7936 139.994 83.6982 139.752 83.6523 139.499L82.6497 133.994C82.6037 133.74 82.608 133.48 82.6625 133.229C82.7169 132.977 82.8204 132.739 82.967 132.527C83.1136 132.316 83.3004 132.135 83.5169 131.996C83.7333 131.856 83.9751 131.761 84.2284 131.715L137.54 122.034C137.793 121.988 138.053 121.992 138.305 122.046C138.556 122.101 138.795 122.204 139.006 122.351C139.218 122.497 139.398 122.684 139.538 122.901C139.677 123.117 139.773 123.359 139.818 123.612L140.821 129.117C140.914 129.629 140.8 130.156 140.504 130.583C140.208 131.011 139.754 131.303 139.242 131.396Z" fill="white"/>
<path d="M138.718 130.871L85.4061 140.553C85.1528 140.599 84.8929 140.594 84.6413 140.54C84.3897 140.485 84.1513 140.382 83.9397 140.235C83.7281 140.089 83.5474 139.902 83.4081 139.685C83.2687 139.469 83.1733 139.227 83.1274 138.974L82.1248 133.469C82.0788 133.215 82.0831 132.956 82.1376 132.704C82.192 132.452 82.2955 132.214 82.4421 132.002C82.5887 131.791 82.7755 131.61 82.992 131.471C83.2084 131.331 83.4502 131.236 83.7035 131.19L137.015 121.509C137.268 121.463 137.528 121.467 137.78 121.521C138.031 121.576 138.27 121.679 138.481 121.826C138.693 121.973 138.874 122.159 139.013 122.376C139.152 122.592 139.248 122.834 139.294 123.087L140.296 128.593C140.389 129.104 140.275 129.631 139.979 130.059C139.683 130.486 139.229 130.778 138.718 130.871Z" fill="#E7ECF3"/>
<path d="M141.798 145.466L88.4866 155.148C88.2333 155.194 87.9735 155.189 87.7219 155.135C87.4703 155.08 87.2319 154.977 87.0203 154.83C86.8086 154.684 86.628 154.497 86.4886 154.281C86.3493 154.064 86.2539 153.822 86.208 153.569L85.2054 148.064C85.1594 147.811 85.1637 147.551 85.2181 147.299C85.2726 147.048 85.376 146.809 85.5226 146.597C85.6692 146.386 85.8561 146.205 86.0725 146.066C86.289 145.927 86.5307 145.831 86.784 145.785L140.096 136.104C140.349 136.058 140.609 136.062 140.86 136.117C141.112 136.171 141.35 136.274 141.562 136.421C141.773 136.568 141.954 136.755 142.094 136.971C142.233 137.187 142.328 137.429 142.374 137.682L143.377 143.188C143.469 143.699 143.355 144.226 143.059 144.654C142.763 145.081 142.31 145.373 141.798 145.466Z" fill="white"/>
<path d="M141.274 144.941L87.9622 154.623C87.7089 154.669 87.4491 154.664 87.1975 154.61C86.9459 154.556 86.7074 154.452 86.4958 154.305C86.2842 154.159 86.1036 153.972 85.9642 153.756C85.8248 153.539 85.7295 153.297 85.6836 153.044L84.681 147.539C84.635 147.286 84.6393 147.026 84.6937 146.774C84.7482 146.523 84.8516 146.284 84.9982 146.073C85.1448 145.861 85.3317 145.68 85.5481 145.541C85.7645 145.402 86.0063 145.306 86.2596 145.26L139.571 135.579C139.824 135.533 140.084 135.537 140.336 135.592C140.587 135.646 140.826 135.75 141.037 135.896C141.249 136.043 141.43 136.23 141.569 136.446C141.708 136.663 141.804 136.904 141.85 137.158L142.852 142.663C142.945 143.174 142.831 143.702 142.535 144.129C142.239 144.556 141.785 144.848 141.274 144.941Z" fill="#E7ECF3"/>
<g opacity="0.5">
<path d="M144.354 159.536L91.0428 169.214C90.7895 169.26 90.5296 169.256 90.278 169.201C90.0264 169.147 89.788 169.043 89.5764 168.897C89.3648 168.75 89.1841 168.563 89.0448 168.347C88.9054 168.13 88.8101 167.889 88.7642 167.635L87.7616 162.13C87.7155 161.877 87.7198 161.617 87.7743 161.365C87.8287 161.114 87.9322 160.875 88.0788 160.664C88.2254 160.452 88.4122 160.272 88.6287 160.132C88.8451 159.993 89.0869 159.897 89.3402 159.852L142.652 150.17C142.905 150.124 143.165 150.128 143.416 150.183C143.668 150.237 143.906 150.341 144.118 150.487C144.33 150.634 144.51 150.821 144.65 151.037C144.789 151.254 144.884 151.495 144.93 151.749L145.933 157.254C145.979 157.507 145.976 157.768 145.921 158.02C145.867 158.272 145.764 158.511 145.617 158.723C145.47 158.935 145.283 159.116 145.067 159.255C144.85 159.395 144.608 159.49 144.354 159.536Z" fill="#000007"/>
</g>
<path d="M143.828 159.011L90.5169 168.689C90.2636 168.735 90.0038 168.731 89.7522 168.676C89.5005 168.622 89.2621 168.518 89.0505 168.372C88.8389 168.225 88.6583 168.038 88.5189 167.822C88.3795 167.605 88.2842 167.364 88.2383 167.11L87.2357 161.605C87.1897 161.352 87.194 161.092 87.2484 160.84C87.3028 160.589 87.4063 160.35 87.5529 160.139C87.6995 159.927 87.8864 159.747 88.1028 159.607C88.3192 159.468 88.561 159.373 88.8143 159.327L142.126 149.645C142.379 149.599 142.639 149.604 142.891 149.658C143.142 149.712 143.381 149.816 143.592 149.962C143.804 150.109 143.984 150.296 144.124 150.512C144.263 150.729 144.359 150.971 144.404 151.224L145.407 156.729C145.454 156.983 145.45 157.243 145.395 157.495C145.341 157.747 145.238 157.986 145.091 158.198C144.945 158.41 144.758 158.591 144.541 158.73C144.324 158.87 144.082 158.965 143.828 159.011Z" fill="#00BF63"/>
<path d="M121.642 113.089C124.637 104.986 120.496 95.989 112.393 92.9939C104.289 89.9989 95.2926 94.1399 92.2975 102.243C89.3025 110.346 93.4434 119.343 101.547 122.338C109.65 125.333 118.647 121.192 121.642 113.089Z" fill="#E54C38"/>
<path d="M120.49 112.033C122.897 104.569 118.797 96.5675 111.334 94.1606C103.87 91.7537 95.8681 95.8531 93.4611 103.317C91.0542 110.781 95.1536 118.782 102.617 121.189C110.081 123.596 118.083 119.497 120.49 112.033Z" fill="#E7ECF3"/>
<path d="M107.746 111.921C111.229 111.288 113.433 107.369 112.669 103.168C111.905 98.967 108.462 96.0752 104.979 96.7088C101.496 97.3424 99.2914 101.262 100.056 105.462C100.82 109.663 104.263 112.555 107.746 111.921Z" fill="#C6141C"/>
<path d="M107.942 113.035C104.586 113.594 101.401 114.913 98.6318 116.892C100.089 118.06 101.779 118.902 103.59 119.361C105.4 119.819 107.288 119.884 109.125 119.55C110.963 119.216 112.707 118.492 114.241 117.426C115.774 116.36 117.061 114.978 118.014 113.372C114.726 112.493 111.281 112.378 107.942 113.035Z" fill="#9F0610"/>
<path d="M89.1514 136.919L88.7205 136.997L88.6431 136.572L88.6326 136.574C88.5132 136.932 88.266 137.145 87.8912 137.213C87.2501 137.33 86.86 137.006 86.7211 136.243L86.4286 134.635L86.8569 134.557L87.137 136.096C87.2402 136.664 87.509 136.908 87.9435 136.829C88.1537 136.791 88.3122 136.683 88.419 136.504C88.5273 136.323 88.5586 136.108 88.5131 135.857L88.2311 134.307L88.662 134.228L89.1514 136.919ZM89.8432 136.693L89.7591 136.23C90.0253 136.361 90.2995 136.401 90.5815 136.349C90.9599 136.281 91.1261 136.12 91.0802 135.868C91.0671 135.796 91.0395 135.739 90.9973 135.696C90.9565 135.65 90.9046 135.614 90.8416 135.585C90.7802 135.557 90.7092 135.534 90.6285 135.518C90.5492 135.5 90.4636 135.482 90.3717 135.465C90.244 135.439 90.1303 135.411 90.0306 135.38C89.9323 135.347 89.8471 135.307 89.775 135.258C89.7043 135.208 89.6461 135.147 89.6006 135.076C89.5568 135.004 89.5255 134.916 89.5067 134.813C89.4837 134.687 89.4924 134.57 89.5327 134.464C89.5726 134.355 89.6349 134.26 89.7195 134.177C89.8037 134.093 89.9041 134.023 90.0207 133.968C90.139 133.912 90.2638 133.872 90.3952 133.848C90.6282 133.806 90.8439 133.808 91.0425 133.855L91.1219 134.291C90.9004 134.198 90.6608 134.174 90.4033 134.221C90.3228 134.236 90.2518 134.259 90.1905 134.29C90.1289 134.319 90.0775 134.355 90.0362 134.396C89.9967 134.438 89.9681 134.485 89.9505 134.537C89.9342 134.587 89.9312 134.64 89.9414 134.696C89.9542 134.766 89.9771 134.823 90.0102 134.865C90.0451 134.908 90.0904 134.943 90.1461 134.971C90.2019 134.999 90.2675 135.021 90.343 135.038C90.4185 135.055 90.5041 135.073 90.5998 135.092C90.7272 135.116 90.8426 135.144 90.9461 135.176C91.0493 135.206 91.1398 135.245 91.2175 135.294C91.2949 135.342 91.3583 135.402 91.4077 135.474C91.4588 135.546 91.4942 135.637 91.514 135.745C91.5382 135.879 91.5295 136 91.4877 136.109C91.4478 136.217 91.3847 136.313 91.2983 136.395C91.212 136.478 91.1078 136.547 90.9857 136.602C90.8635 136.656 90.7324 136.697 90.5923 136.722C90.3155 136.772 90.0658 136.763 89.8432 136.693ZM94.2471 134.714L92.3473 135.059C92.4088 135.357 92.5315 135.574 92.7153 135.709C92.899 135.844 93.1258 135.887 93.3956 135.837C93.6986 135.782 93.959 135.632 94.1766 135.386L94.2503 135.791C94.045 136.005 93.7479 136.148 93.3591 136.219C92.979 136.288 92.6581 136.22 92.3966 136.016C92.1348 135.811 91.9636 135.486 91.883 135.043C91.8068 134.624 91.8631 134.262 92.0518 133.956C92.2419 133.649 92.513 133.463 92.8651 133.399C93.2172 133.335 93.5103 133.399 93.7444 133.592C93.9785 133.784 94.1323 134.083 94.2059 134.488L94.2471 134.714ZM93.7392 134.429C93.6922 134.18 93.5965 133.998 93.4523 133.881C93.3097 133.764 93.1334 133.724 92.9231 133.763C92.72 133.8 92.5606 133.904 92.4452 134.075C92.3298 134.246 92.2767 134.452 92.2862 134.693L93.7392 134.429ZM96.1194 133.322C96.0336 133.278 95.9197 133.269 95.7778 133.295C95.5939 133.328 95.4555 133.443 95.3627 133.639C95.2716 133.835 95.2534 134.083 95.3078 134.382L95.5573 135.754L95.1264 135.832L94.637 133.141L95.0679 133.063L95.1688 133.617L95.1793 133.616C95.2062 133.415 95.2731 133.251 95.3801 133.123C95.4868 132.993 95.6181 132.914 95.774 132.886C95.8861 132.865 95.9742 132.862 96.0382 132.876L96.1194 133.322ZM99.2306 135.085L98.7997 135.164L98.5206 133.629C98.4167 133.058 98.1563 132.811 97.7394 132.887C97.524 132.926 97.3601 133.04 97.2478 133.228C97.137 133.415 97.1041 133.632 97.149 133.879L97.4282 135.413L96.9972 135.492L96.5078 132.801L96.9387 132.723L97.02 133.169L97.0305 133.168C97.1718 132.791 97.4352 132.567 97.8206 132.497C98.1149 132.444 98.3573 132.498 98.548 132.661C98.7383 132.822 98.8661 133.082 98.9314 133.441L99.2306 135.085ZM101.971 134.587L101.54 134.665L101.464 134.245L101.453 134.247C101.324 134.603 101.078 134.815 100.714 134.881C100.446 134.93 100.222 134.897 100.044 134.783C99.8677 134.668 99.7582 134.494 99.7155 134.259C99.624 133.756 99.8668 133.41 100.444 133.22L101.23 132.96C101.147 132.503 100.92 132.308 100.551 132.375C100.227 132.434 99.9544 132.598 99.7335 132.866L99.6532 132.424C99.8871 132.208 100.177 132.069 100.522 132.006C101.154 131.891 101.531 132.168 101.653 132.837L101.971 134.587ZM101.293 133.304L100.66 133.512C100.465 133.576 100.324 133.653 100.235 133.744C100.146 133.832 100.118 133.967 100.151 134.147C100.175 134.278 100.241 134.378 100.349 134.445C100.459 134.51 100.592 134.528 100.747 134.5C100.961 134.461 101.124 134.355 101.235 134.181C101.348 134.005 101.383 133.802 101.341 133.572L101.293 133.304ZM106.603 133.744L106.173 133.823L105.892 132.278C105.837 131.98 105.752 131.773 105.635 131.657C105.519 131.54 105.353 131.502 105.136 131.541C104.952 131.575 104.811 131.687 104.711 131.879C104.614 132.07 104.587 132.283 104.63 132.518L104.909 134.053L104.478 134.131L104.187 132.533C104.091 132.004 103.839 131.777 103.431 131.851C103.241 131.886 103.1 131.994 103.006 132.175C102.913 132.355 102.889 132.572 102.935 132.826L103.214 134.361L102.783 134.439L102.294 131.749L102.725 131.67L102.802 132.096L102.812 132.094C102.944 131.733 103.193 131.52 103.559 131.453C103.743 131.42 103.913 131.442 104.068 131.521C104.223 131.598 104.341 131.715 104.422 131.872C104.555 131.464 104.819 131.224 105.214 131.152C105.807 131.044 106.169 131.356 106.302 132.086L106.603 133.744ZM109.355 131.965L107.456 132.311C107.517 132.609 107.64 132.826 107.824 132.96C108.007 133.095 108.234 133.138 108.504 133.089C108.807 133.034 109.067 132.883 109.285 132.638L109.359 133.042C109.153 133.257 108.856 133.4 108.467 133.47C108.087 133.54 107.766 133.472 107.505 133.268C107.243 133.062 107.072 132.738 106.991 132.295C106.915 131.876 106.971 131.514 107.16 131.208C107.35 130.9 107.621 130.714 107.973 130.65C108.325 130.586 108.619 130.651 108.853 130.843C109.087 131.036 109.241 131.335 109.314 131.739L109.355 131.965ZM108.847 131.68C108.8 131.432 108.705 131.249 108.561 131.133C108.418 131.015 108.242 130.976 108.031 131.014C107.828 131.051 107.669 131.155 107.554 131.327C107.438 131.498 107.385 131.704 107.394 131.945L108.847 131.68Z" fill="#091A50"/>
<path d="M111.645 161.656L109.69 162.012L109.004 158.244L109.446 158.164L110.059 161.532L111.572 161.257L111.645 161.656ZM113.301 161.42C112.903 161.492 112.563 161.425 112.279 161.218C111.997 161.009 111.818 160.696 111.742 160.281C111.66 159.829 111.719 159.454 111.92 159.155C112.121 158.856 112.431 158.668 112.852 158.592C113.253 158.519 113.588 158.585 113.857 158.792C114.128 158.998 114.303 159.319 114.383 159.757C114.461 160.187 114.402 160.553 114.206 160.856C114.011 161.158 113.709 161.346 113.301 161.42ZM112.886 158.96C112.609 159.01 112.408 159.145 112.281 159.363C112.154 159.58 112.12 159.854 112.181 160.185C112.239 160.504 112.366 160.74 112.562 160.895C112.759 161.049 112.993 161.101 113.267 161.052C113.545 161.001 113.742 160.872 113.859 160.664C113.976 160.457 114.005 160.186 113.944 159.853C113.883 159.517 113.761 159.272 113.577 159.117C113.395 158.962 113.165 158.909 112.886 158.96ZM117.575 160.355C117.755 161.343 117.372 161.923 116.426 162.095C116.093 162.155 115.791 162.145 115.519 162.064L115.441 161.633C115.775 161.746 116.079 161.778 116.354 161.728C117.016 161.607 117.283 161.195 117.155 160.491L117.101 160.197L117.091 160.199C116.948 160.579 116.671 160.807 116.26 160.882C115.925 160.943 115.634 160.873 115.385 160.672C115.139 160.469 114.978 160.166 114.905 159.763C114.822 159.306 114.865 158.922 115.035 158.613C115.207 158.303 115.484 158.113 115.866 158.044C116.228 157.978 116.523 158.074 116.752 158.333L116.762 158.331L116.694 157.958L117.125 157.88L117.575 160.355ZM116.962 159.432L116.89 159.035C116.851 158.822 116.745 158.652 116.572 158.526C116.401 158.4 116.207 158.356 115.992 158.395C115.726 158.444 115.535 158.579 115.42 158.801C115.304 159.021 115.278 159.305 115.341 159.654C115.396 159.953 115.511 160.18 115.688 160.334C115.866 160.487 116.074 160.541 116.312 160.498C116.554 160.454 116.734 160.332 116.854 160.133C116.975 159.934 117.011 159.7 116.962 159.432ZM118.094 156.998C118.017 157.012 117.946 156.997 117.882 156.955C117.819 156.912 117.779 156.85 117.765 156.77C117.75 156.689 117.765 156.618 117.81 156.555C117.854 156.491 117.915 156.452 117.992 156.438C118.071 156.424 118.142 156.439 118.207 156.483C118.272 156.525 118.312 156.587 118.327 156.667C118.341 156.745 118.325 156.815 118.279 156.88C118.234 156.944 118.173 156.983 118.094 156.998ZM118.918 160.333L118.487 160.411L117.997 157.721L118.428 157.643L118.918 160.333ZM122.024 159.768L121.593 159.847L121.313 158.312C121.21 157.741 120.949 157.493 120.532 157.569C120.317 157.608 120.153 157.722 120.041 157.911C119.93 158.098 119.897 158.315 119.942 158.562L120.221 160.096L119.79 160.174L119.301 157.484L119.732 157.405L119.813 157.852L119.823 157.85C119.965 157.473 120.228 157.25 120.613 157.18C120.908 157.126 121.15 157.181 121.341 157.343C121.531 157.504 121.659 157.764 121.724 158.123L122.024 159.768Z" fill="#F2FFFF"/>
<path d="M91.9369 149.065C91.9879 149.345 91.9545 149.634 91.8411 149.896C91.7276 150.157 91.5392 150.379 91.2996 150.533C91.06 150.688 90.78 150.768 90.4951 150.763C90.2101 150.758 89.933 150.669 89.6987 150.507C89.4644 150.344 89.2835 150.116 89.1788 149.851C89.0741 149.586 89.0504 149.296 89.1107 149.017C89.171 148.739 89.3125 148.484 89.5174 148.286C89.7222 148.088 89.9813 147.955 90.2617 147.904C90.6377 147.836 91.0254 147.92 91.3396 148.137C91.6538 148.355 91.8686 148.689 91.9369 149.065Z" fill="#091A50"/>
<path d="M96.7577 148.193C96.8087 148.474 96.7753 148.763 96.6619 149.024C96.5484 149.286 96.36 149.508 96.1204 149.662C95.8808 149.816 95.6009 149.896 95.3159 149.892C95.0309 149.887 94.7538 149.798 94.5195 149.635C94.2852 149.473 94.1042 149.245 93.9996 148.98C93.8949 148.715 93.8712 148.425 93.9315 148.146C93.9918 147.868 94.1333 147.613 94.3382 147.415C94.543 147.217 94.8021 147.084 95.0825 147.033C95.4585 146.965 95.8462 147.049 96.1604 147.266C96.4746 147.484 96.6894 147.817 96.7577 148.193Z" fill="#091A50"/>
<path d="M101.576 147.314C101.627 147.594 101.593 147.883 101.48 148.145C101.366 148.406 101.178 148.628 100.938 148.783C100.699 148.937 100.419 149.017 100.134 149.012C99.8488 149.007 99.5716 148.918 99.3373 148.756C99.103 148.594 98.9221 148.365 98.8175 148.1C98.7128 147.835 98.6891 147.545 98.7494 147.267C98.8096 146.988 98.9512 146.734 99.156 146.535C99.3609 146.337 99.6199 146.204 99.9003 146.153C100.276 146.085 100.664 146.169 100.978 146.387C101.292 146.604 101.507 146.938 101.576 147.314Z" fill="#091A50"/>
<path d="M106.396 146.439C106.447 146.719 106.413 147.008 106.3 147.27C106.187 147.531 105.998 147.753 105.759 147.908C105.519 148.062 105.239 148.142 104.954 148.137C104.669 148.132 104.392 148.043 104.158 147.881C103.923 147.719 103.742 147.49 103.638 147.225C103.533 146.96 103.509 146.67 103.57 146.392C103.63 146.113 103.771 145.859 103.976 145.66C104.181 145.462 104.44 145.329 104.721 145.278C105.097 145.21 105.484 145.294 105.799 145.512C106.113 145.729 106.328 146.063 106.396 146.439Z" fill="#091A50"/>
<path d="M111.216 145.564C111.267 145.844 111.234 146.133 111.12 146.395C111.007 146.656 110.818 146.878 110.579 147.033C110.339 147.187 110.059 147.267 109.774 147.262C109.489 147.257 109.212 147.168 108.978 147.006C108.744 146.844 108.563 146.616 108.458 146.351C108.353 146.085 108.33 145.795 108.39 145.517C108.45 145.238 108.592 144.984 108.797 144.786C109.002 144.587 109.261 144.454 109.541 144.404C109.917 144.335 110.305 144.419 110.619 144.637C110.933 144.854 111.148 145.188 111.216 145.564Z" fill="#091A50"/>
<path d="M116.036 144.688C116.086 144.968 116.053 145.258 115.94 145.519C115.826 145.781 115.638 146.002 115.398 146.157C115.159 146.311 114.879 146.391 114.594 146.386C114.309 146.382 114.032 146.292 113.797 146.13C113.563 145.968 113.382 145.74 113.277 145.475C113.173 145.21 113.149 144.919 113.209 144.641C113.27 144.362 113.411 144.108 113.616 143.91C113.821 143.712 114.08 143.579 114.36 143.528C114.736 143.459 115.124 143.543 115.438 143.761C115.752 143.978 115.967 144.312 116.036 144.688Z" fill="#091A50"/>
<path d="M120.858 143.812C120.909 144.093 120.875 144.382 120.762 144.644C120.649 144.905 120.46 145.127 120.22 145.281C119.981 145.436 119.701 145.516 119.416 145.511C119.131 145.506 118.854 145.417 118.62 145.255C118.385 145.092 118.204 144.864 118.1 144.599C117.995 144.334 117.971 144.044 118.032 143.765C118.092 143.487 118.233 143.232 118.438 143.034C118.643 142.836 118.902 142.703 119.183 142.652C119.559 142.584 119.946 142.668 120.26 142.885C120.575 143.103 120.789 143.436 120.858 143.812Z" fill="#091A50"/>
<path d="M125.675 142.938C125.726 143.218 125.693 143.507 125.579 143.769C125.466 144.03 125.277 144.252 125.038 144.407C124.798 144.561 124.518 144.641 124.233 144.636C123.948 144.631 123.671 144.542 123.437 144.38C123.203 144.218 123.022 143.99 122.917 143.724C122.812 143.459 122.789 143.169 122.849 142.891C122.909 142.612 123.051 142.358 123.256 142.159C123.46 141.961 123.72 141.828 124 141.777C124.376 141.709 124.764 141.793 125.078 142.011C125.392 142.228 125.607 142.562 125.675 142.938Z" fill="#091A50"/>
<path d="M106.127 87.6324C106.794 88.5712 107.116 89.4854 106.85 89.675C106.584 89.8646 105.828 89.2566 105.161 88.3188C104.495 87.3809 104.172 86.4658 104.438 86.2762C104.705 86.0866 105.461 86.6946 106.127 87.6324Z" fill="#091A50"/>
<path d="M103.151 88.4253C100.958 89.4537 98.4705 89.6658 96.1356 89.0233C93.8007 88.3808 91.7717 86.9261 90.414 84.9208C90.1279 84.4707 89.9499 83.9605 89.8939 83.4302C89.8379 82.8998 89.9055 82.3637 90.0913 81.8638C90.2475 81.4052 90.2731 80.9122 90.1655 80.4398C90.0578 79.9675 89.821 79.5343 89.4816 79.1887L83.8306 73.4375C83.7764 73.3806 83.704 73.3446 83.6259 73.3359C83.5479 73.3272 83.4693 73.3463 83.4039 73.3899C83.3386 73.4334 83.2907 73.4987 83.2687 73.5741C83.2467 73.6494 83.252 73.7302 83.2837 73.802L84.8742 77.4041L87.7234 83.8571C88.9763 86.7548 91.3045 89.0533 94.218 90.2688C97.1315 91.4843 100.403 91.522 103.344 90.374C104.38 89.9529 105.352 89.389 106.232 88.6987C105.852 88.2013 105.442 87.7268 105.005 87.2778C104.432 87.728 103.81 88.1129 103.151 88.4253Z" fill="#E54C38"/>
<path d="M45.0229 142.28L103.727 167.084C105.808 167.963 108.045 168.417 110.305 168.417C112.565 168.417 114.802 167.963 116.884 167.084L175.588 142.28V190.349H45.0239L45.0229 142.28Z" fill="#DFDFDF"/>
<path d="M102.882 174.902L47.1415 222.223C47.1226 222.207 47.1049 222.189 47.0887 222.17C46.434 221.549 45.9131 220.8 45.5577 219.97C45.2022 219.141 45.0198 218.247 45.0215 217.344V141.754L101.004 173.826L102.882 174.902Z" fill="#089E56"/>
<path d="M175.587 141.755V217.344C175.589 218.247 175.406 219.141 175.051 219.971C174.696 220.8 174.175 221.549 173.52 222.171C173.504 222.19 173.486 222.207 173.467 222.223L117.728 174.902L119.605 173.827L175.587 141.755Z" fill="#089E56"/>
<path d="M175.587 142.28V217.869C175.589 218.772 175.406 219.666 175.051 220.496C174.696 221.325 174.175 222.074 173.52 222.696C173.504 222.715 173.486 222.732 173.467 222.748L117.728 175.427L119.605 174.352L175.587 142.28Z" fill="#089E56"/>
<path d="M102.882 175.427L47.1415 222.748C47.1226 222.732 47.1049 222.714 47.0887 222.695C46.434 222.074 45.9131 221.325 45.5577 220.495C45.2022 219.666 45.0198 218.772 45.0215 217.869V142.279L101.004 174.351L102.882 175.427Z" fill="#089E56"/>
<path d="M102.88 175.427L47.1398 222.748C47.1209 222.732 47.1032 222.715 47.0869 222.696L101.002 174.352L102.88 175.427Z" fill="#089E56"/>
<path d="M173.521 222.695C173.505 222.714 173.487 222.732 173.469 222.748L117.728 175.427L119.606 174.351L173.521 222.695Z" fill="#DFDFDF"/>
<path d="M173.468 222.224C172.233 223.382 170.603 224.026 168.91 224.023H51.6984C50.0055 224.026 48.3753 223.382 47.1411 222.224L102.882 174.902C104.954 173.142 107.585 172.175 110.304 172.175C113.024 172.175 115.655 173.142 117.727 174.902L173.468 222.224Z" fill="#14653E"/>
<path d="M173.468 222.748C172.233 223.906 170.603 224.55 168.91 224.547H51.6984C50.0055 224.55 48.3753 223.906 47.1411 222.748L102.882 175.426C104.954 173.666 107.585 172.699 110.304 172.699C113.024 172.699 115.655 173.666 117.727 175.426L173.468 222.748Z" fill="#089E56"/>
<path d="M79.6033 144.958C52.9653 132.255 12.0768 96.4093 12.5435 80.2257C12.8233 70.516 41.3225 77.0958 61.038 83.5206" stroke="#091A50" stroke-width="0.973426" stroke-miterlimit="10" stroke-dasharray="2.92 2.92"/>
<path d="M77.1401 142.856C52.3688 126.814 16.4586 85.9815 19.0134 69.9966C20.026 63.6593 32.3333 65.9652 45.9667 70.8324" stroke="#091A50" stroke-width="0.973426" stroke-miterlimit="10" stroke-dasharray="2.92 2.92"/>
<path d="M145.983 185.266C172.62 172.564 213.51 136.718 213.043 120.535C212.803 112.218 191.861 115.852 173.468 121.103" stroke="#091A50" stroke-width="0.973426" stroke-miterlimit="10" stroke-dasharray="2.92 2.92"/>
<path d="M148.449 183.162C173.22 167.12 209.13 126.287 206.575 110.302C205.563 103.965 193.256 106.271 179.623 111.138" stroke="#091A50" stroke-width="0.973426" stroke-miterlimit="10" stroke-dasharray="2.92 2.92"/>
<defs>
<filter id="filter0_d_45_1422" x="52.8966" y="68.1457" width="114.918" height="122.483" filterUnits="userSpaceOnUse" color-interpolation-filters="sRGB">
<feFlood flood-opacity="0" result="BackgroundImageFix"/>
<feColorMatrix in="SourceAlpha" type="matrix" values="0 0 0 0 0 0 0 0 0 0 0 0 0 0 0 0 0 0 127 0" result="hardAlpha"/>
<feOffset dy="2.73434"/>
<feGaussianBlur stdDeviation="2.73434"/>
<feColorMatrix type="matrix" values="0 0 0 0 0 0 0 0 0 0 0 0 0 0 0 0 0 0 0.161 0"/>
<feBlend mode="normal" in2="BackgroundImageFix" result="effect1_dropShadow_45_1422"/>
<feBlend mode="normal" in="SourceGraphic" in2="effect1_dropShadow_45_1422" result="shape"/>
</filter>
</defs>
</svg>
