<svg width="13" height="10" viewBox="0 0 13 10" fill="none" xmlns="http://www.w3.org/2000/svg">
<path d="M6.27461 1.66676L6.61737 1.98948L6.96012 1.66676C7.83406 0.843887 8.59976 0.5 9.29289 0.5C11.023 0.5 12.147 1.79602 12.1176 3.46757C12.1103 3.88245 11.9476 4.36156 11.6256 4.89462C11.3054 5.42464 10.8455 5.97837 10.2887 6.53383C9.2467 7.5731 7.90416 8.57987 6.61725 9.40763C5.32752 8.57966 3.97693 7.58207 2.9313 6.54801C2.37252 5.99541 1.91275 5.444 1.59521 4.91388C1.27625 4.38139 1.11816 3.89953 1.11816 3.47636C1.11816 1.80671 2.28718 0.5 4.02575 0.5C4.70808 0.5 5.38843 0.832364 6.27461 1.66676Z" stroke="#00BF63"/>
</svg>
