<svg width="16" height="16" viewBox="0 0 16 16" fill="none" xmlns="http://www.w3.org/2000/svg">
<path d="M3.24566 12.5C3.40062 12.0609 3.68797 11.6806 4.06811 11.4116C4.44826 11.1426 4.90248 10.9982 5.36816 10.9982C5.83385 10.9982 6.28807 11.1426 6.66821 11.4116C7.04836 11.6806 7.33571 12.0609 7.49066 12.5H15.1182V14H7.49066C7.33571 14.4392 7.04836 14.8194 6.66821 15.0884C6.28807 15.3574 5.83385 15.5018 5.36816 15.5018C4.90248 15.5018 4.44826 15.3574 4.06811 15.0884C3.68797 14.8194 3.40062 14.4392 3.24566 14H0.118164V12.5H3.24566ZM7.74566 7.25001C7.90062 6.81086 8.18797 6.43058 8.56811 6.1616C8.94826 5.89262 9.40248 5.74817 9.86816 5.74817C10.3338 5.74817 10.7881 5.89262 11.1682 6.1616C11.5484 6.43058 11.8357 6.81086 11.9907 7.25001H15.1182V8.75001H11.9907C11.8357 9.18916 11.5484 9.56943 11.1682 9.83842C10.7881 10.1074 10.3338 10.2518 9.86816 10.2518C9.40248 10.2518 8.94826 10.1074 8.56811 9.83842C8.18797 9.56943 7.90062 9.18916 7.74566 8.75001H0.118164V7.25001H7.74566ZM3.24566 2.00001C3.40062 1.56086 3.68797 1.18058 4.06811 0.911599C4.44826 0.642616 4.90248 0.498169 5.36816 0.498169C5.83385 0.498169 6.28807 0.642616 6.66821 0.911599C7.04836 1.18058 7.33571 1.56086 7.49066 2.00001H15.1182V3.50001H7.49066C7.33571 3.93916 7.04836 4.31943 6.66821 4.58841C6.28807 4.8574 5.83385 5.00184 5.36816 5.00184C4.90248 5.00184 4.44826 4.8574 4.06811 4.58841C3.68797 4.31943 3.40062 3.93916 3.24566 3.50001H0.118164V2.00001H3.24566Z" fill="#00BF63"/>
</svg>
