<svg width="275" height="257" viewBox="0 0 275 257" fill="none" xmlns="http://www.w3.org/2000/svg">
<path d="M137.678 97.9978C213.354 97.9978 274.703 133.418 274.703 177.111C274.703 220.805 213.354 256.225 137.678 256.225C62.001 256.225 0.652344 220.803 0.652344 177.111C0.652344 133.419 62.001 97.9978 137.678 97.9978Z" fill="#FAFAFA"/>
<path d="M109.324 237.057C135.42 237.057 156.575 224.845 156.575 209.78C156.575 194.715 135.42 182.502 109.324 182.502C83.2274 182.502 62.0723 194.715 62.0723 209.78C62.0723 224.845 83.2274 237.057 109.324 237.057Z" fill="#E0E0E0"/>
<path d="M243.697 175.65L238.154 172.451C238.154 172.451 236.799 160.586 237.698 151.397C238.966 138.484 247.307 122.944 257.253 126.596C267.198 130.248 252.695 143.393 249.464 154.345C246.233 165.297 243.697 175.65 243.697 175.65Z" fill="#7ED957"/>
<path d="M240.784 174.31C240.872 174.306 240.955 174.267 241.015 174.201C241.075 174.136 241.107 174.05 241.104 173.961C240.132 145.27 254.417 130.833 254.557 130.694C254.62 130.631 254.655 130.545 254.655 130.456C254.655 130.366 254.62 130.281 254.557 130.217C254.526 130.186 254.489 130.162 254.449 130.145C254.408 130.128 254.365 130.119 254.321 130.119C254.277 130.119 254.234 130.128 254.193 130.145C254.153 130.162 254.116 130.186 254.085 130.217C253.934 130.357 239.446 145.002 240.429 173.985C240.431 174.03 240.441 174.074 240.46 174.115C240.479 174.155 240.505 174.192 240.538 174.222C240.571 174.252 240.61 174.276 240.652 174.291C240.694 174.306 240.739 174.313 240.784 174.31Z" fill="white"/>
<path d="M247.18 177.642L243.236 175.363C243.047 169.185 244.179 163.038 246.558 157.333C250.047 148.725 258.655 141.577 262.995 143.077C267.334 144.577 267.223 147.654 265.105 150.883C262.988 154.111 250.129 161.802 247.18 177.642Z" fill="#00BF63"/>
<path d="M245.098 176.784C245.187 176.782 245.272 176.746 245.335 176.683C245.398 176.62 245.434 176.536 245.435 176.447C245.354 158.3 262.388 146.039 262.564 145.913C262.601 145.888 262.632 145.856 262.655 145.819C262.679 145.782 262.695 145.74 262.702 145.697C262.709 145.654 262.707 145.609 262.696 145.566C262.686 145.524 262.667 145.484 262.64 145.448C262.588 145.377 262.511 145.328 262.424 145.313C262.337 145.298 262.248 145.317 262.175 145.367C262.001 145.489 244.685 157.96 244.761 176.448C244.761 176.537 244.797 176.623 244.86 176.686C244.923 176.749 245.009 176.784 245.098 176.784Z" fill="white"/>
<path d="M38.6038 168.526L43.7225 165.071C43.7225 165.071 45.9737 151.694 43.8792 139.893C40.9362 123.34 29.4957 117.835 25.4242 119.582C21.3528 121.328 20.4805 126.253 28.0793 135.699C32.59 141.253 38.447 153.116 38.6038 168.526Z" fill="#7ED957"/>
<path d="M40.3599 161.895H40.3079C40.2556 161.892 40.2044 161.878 40.1579 161.853C40.1114 161.829 40.0706 161.795 40.0382 161.754C40.0057 161.712 39.9824 161.665 39.9696 161.614C39.9569 161.563 39.9551 161.51 39.9643 161.458C41.8136 145.873 35.2357 128.963 28.0763 122.233C28.0074 122.164 27.9687 122.07 27.9688 121.972C27.9688 121.874 28.0074 121.78 28.0763 121.71C28.1103 121.675 28.151 121.647 28.1959 121.628C28.2408 121.609 28.2891 121.599 28.3379 121.599C28.3867 121.599 28.435 121.609 28.4799 121.628C28.5248 121.647 28.5655 121.675 28.5995 121.71C35.8911 128.561 42.5929 145.754 40.7217 161.563C40.7107 161.653 40.6678 161.736 40.6009 161.797C40.534 161.857 40.4475 161.892 40.3572 161.895H40.3599Z" fill="white"/>
<path d="M25.2031 177.564C24.3892 178.053 22.0131 176.288 21.3586 175.866C20.2321 175.131 19.3145 174.117 18.6945 172.923C17.9992 171.569 17.7412 170.033 17.9562 168.526C18.0753 167.74 18.2483 166.962 18.4739 166.2C18.6772 165.438 18.8813 164.676 19.0554 163.908C19.3134 163.161 19.4124 162.369 19.3462 161.581C19.1192 160.032 17.7174 158.964 16.4377 158.051C15.0305 157.033 13.5293 155.69 13.5293 153.817C13.601 152.345 14.1643 150.94 15.1289 149.826C16.0011 148.663 17.0484 147.651 17.8332 146.436C18.4471 145.593 18.7604 144.569 18.7227 143.527C18.6217 142.885 18.3923 142.27 18.0483 141.718C17.2699 140.569 16.5815 139.361 15.9893 138.106C15.7022 137.469 15.6043 136.763 15.7074 136.072C15.8105 135.381 16.1102 134.735 16.5708 134.21C17.0209 133.86 17.5362 133.604 18.0864 133.456C18.6367 133.309 19.2109 133.272 19.7754 133.349C20.8441 133.456 21.8764 133.795 22.7996 134.344C25.8074 135.943 27.5747 139.433 30.7566 140.648C32.0178 141.012 33.2998 141.299 34.5956 141.508C35.2449 141.617 35.8644 141.86 36.4151 142.221C36.9658 142.582 37.4356 143.053 37.7948 143.605C38.9988 145.902 36.8988 148.8 37.7601 151.235C38.5276 153.399 40.6686 154.19 41.8781 156.127C42.3693 156.987 42.573 157.981 42.4596 158.965C42.3913 160.626 42.0188 162.261 41.3603 163.787C40.603 165.37 39.7482 166.904 38.801 168.382C38.801 168.382 25.3253 177.489 25.2031 177.564Z" fill="#00BF63"/>
<path d="M33.0665 172.745C32.9681 172.743 32.8744 172.702 32.806 172.631C32.7377 172.56 32.7002 172.465 32.7019 172.366C33.0273 157.639 25.7804 141.54 20.6508 136.887C20.5779 136.822 20.5339 136.73 20.5284 136.632C20.5229 136.534 20.5564 136.438 20.6216 136.364C20.6556 136.329 20.6963 136.301 20.7412 136.282C20.7861 136.263 20.8344 136.254 20.8832 136.254C20.932 136.254 20.9803 136.263 21.0252 136.282C21.0701 136.301 21.1108 136.329 21.1448 136.364C26.3783 141.073 33.7702 157.451 33.4384 172.38C33.4384 172.429 33.4287 172.477 33.41 172.521C33.3912 172.566 33.3637 172.607 33.3291 172.641C33.2944 172.674 33.2534 172.701 33.2083 172.719C33.1632 172.737 33.115 172.746 33.0665 172.745Z" fill="white"/>
<path d="M30.3508 154.799C30.3164 154.808 30.2804 154.808 30.246 154.799C26.7403 153.908 23.1482 153.398 19.5328 153.281C19.4838 153.281 19.4352 153.271 19.3901 153.252C19.3449 153.233 19.3041 153.205 19.2701 153.169C19.236 153.134 19.2095 153.092 19.192 153.046C19.1745 153.001 19.1664 152.952 19.1682 152.903C19.1667 152.853 19.1756 152.804 19.1942 152.758C19.2129 152.712 19.2409 152.671 19.2766 152.637C19.3122 152.602 19.3546 152.576 19.4011 152.559C19.4476 152.542 19.4971 152.535 19.5465 152.538C23.2251 152.653 26.8801 153.17 30.4465 154.079C30.5394 154.108 30.6175 154.171 30.6642 154.256C30.7108 154.341 30.7223 154.441 30.6962 154.535C30.6747 154.61 30.6294 154.677 30.5672 154.724C30.505 154.772 30.4291 154.798 30.3508 154.799Z" fill="white"/>
<path d="M167.431 158.398L165.226 157.122C164.859 156.884 164.553 156.562 164.334 156.183C164.114 155.804 163.988 155.379 163.964 154.941V63.3262C163.988 62.8897 164.114 62.465 164.332 62.0861C164.55 61.7073 164.854 61.385 165.22 61.1451L226.494 25.771C226.884 25.5732 227.315 25.4702 227.753 25.4702C228.19 25.4702 228.622 25.5732 229.012 25.771L231.217 27.047C231.584 27.2854 231.89 27.6073 232.109 27.9863C232.329 28.3653 232.455 28.7908 232.479 29.2281V120.843C232.455 121.28 232.329 121.704 232.111 122.083C231.893 122.462 231.589 122.784 231.223 123.024L169.949 158.405C169.559 158.603 169.127 158.706 168.689 158.705C168.252 158.703 167.82 158.598 167.431 158.398Z" fill="#455A64"/>
<path d="M232.484 29.0221C232.393 28.3704 231.868 28.1325 231.234 28.4989L169.954 63.8795C169.583 64.1119 169.277 64.4338 169.064 64.8155L164.335 62.0876C164.547 61.7027 164.853 61.3783 165.225 61.1451L226.499 25.771C226.889 25.5732 227.321 25.4702 227.758 25.4702C228.196 25.4702 228.627 25.5732 229.017 25.771L231.222 27.047C231.562 27.2659 231.851 27.5557 232.069 27.8966C232.287 28.2375 232.429 28.6214 232.484 29.0221Z" fill="#455A64"/>
<path d="M169.737 158.503C169.364 158.654 168.964 158.723 168.562 158.706C168.161 158.689 167.768 158.587 167.41 158.405L165.199 157.129C164.834 156.889 164.53 156.567 164.312 156.188C164.093 155.809 163.967 155.384 163.943 154.948V63.3262C163.958 62.8891 164.083 62.4628 164.308 62.0875L169.037 64.8155C168.807 65.1913 168.679 65.6203 168.665 66.0605V157.677C168.689 158.398 169.143 158.73 169.737 158.503Z" fill="#263238"/>
<path d="M168.689 66.0724V157.678C168.689 158.481 169.271 158.807 169.952 158.407L231.226 123.022C231.591 122.782 231.895 122.46 232.113 122.081C232.332 121.703 232.458 121.278 232.482 120.841V29.2262C232.482 28.4232 231.9 28.0978 231.226 28.4971L169.947 63.8794C169.579 64.1195 169.273 64.4435 169.055 64.8247C168.836 65.2059 168.711 65.6334 168.689 66.0724Z" fill="#233245"/>
<path d="M154.382 100.97C153.591 100.499 149.92 98.4104 149.729 98.3001C149.579 98.2109 149.452 98.0892 149.355 97.944C149.259 97.7988 149.197 97.6339 149.173 97.4614C149.149 97.2888 149.164 97.1131 149.217 96.9472C149.27 96.7813 149.359 96.6294 149.479 96.5027L163.971 80.9617L168.694 83.6723L154.211 99.2252C154.098 99.3463 154.011 99.4903 153.958 99.6476C153.904 99.8049 153.885 99.9718 153.902 100.137C153.918 100.302 153.97 100.462 154.053 100.606C154.137 100.749 154.25 100.874 154.385 100.97H154.382Z" fill="#455A64"/>
<path d="M168.691 83.6888L154.208 99.2245C154.047 99.3961 153.942 99.6126 153.907 99.8452C153.871 100.078 153.907 100.316 154.01 100.527C154.113 100.739 154.277 100.915 154.482 101.031C154.687 101.147 154.922 101.199 155.156 101.179L168.69 100.062L168.691 83.6888Z" fill="#37474F"/>
<path d="M200.588 55.7175C207.73 51.5941 213.517 54.9382 213.517 63.1859C213.517 71.4336 207.731 81.4549 200.588 85.5783C193.444 89.7017 187.658 86.3576 187.658 78.1163C187.658 69.875 193.444 59.8427 200.588 55.7175Z" fill="#E54C38"/>
<path d="M200.493 62.2068C202.82 60.8688 204.686 61.9507 204.686 64.6267C204.607 66.081 204.186 67.4962 203.458 68.7574C202.729 70.0185 201.714 71.0902 200.493 71.8855C198.167 73.2235 196.294 72.1416 196.294 69.4656C196.374 68.0108 196.796 66.5952 197.526 65.334C198.255 64.0728 199.272 63.0014 200.493 62.2068Z" fill="white"/>
<path d="M208.765 76.4711C208.765 72.0797 205.677 70.2942 201.872 72.4926L199.493 73.8652C197.489 75.1757 195.821 76.9391 194.623 79.0132C193.426 81.0873 192.733 83.414 192.601 85.8052V87.0092C193.319 87.239 194.069 87.3549 194.823 87.3528C196.864 87.2836 198.851 86.6822 200.587 85.6083C203.893 83.5718 206.69 80.8065 208.765 77.5238V76.4711Z" fill="white"/>
<path d="M192.398 126.404L208.776 116.947C209.474 116.546 210.039 116.871 210.039 117.676V122.951C210.015 123.389 209.888 123.814 209.669 124.193C209.449 124.572 209.144 124.894 208.776 125.132L192.398 134.59C191.699 134.991 191.135 134.665 191.135 133.861V128.585C191.159 128.148 191.286 127.722 191.505 127.343C191.724 126.964 192.03 126.642 192.398 126.404Z" fill="#E54C38"/>
<path d="M184.377 114.623L216.779 95.9067C217.611 95.4237 218.291 95.8156 218.291 96.779V98.7395C218.263 99.264 218.111 99.7745 217.849 100.229C217.586 100.684 217.22 101.071 216.779 101.357L184.359 120.074C183.528 120.557 182.853 120.165 182.853 119.202V117.259C182.879 116.731 183.031 116.216 183.296 115.758C183.561 115.299 183.931 114.911 184.376 114.624L184.377 114.623Z" fill="#FAFAFA"/>
<path d="M188.17 101.074C188.612 100.818 188.956 100.778 189.199 100.957C189.442 101.137 189.564 101.539 189.564 102.156C189.577 102.718 189.451 103.275 189.199 103.778C188.971 104.233 188.613 104.609 188.17 104.86L187.298 105.366V107.244C187.296 107.308 187.28 107.37 187.251 107.427C187.231 107.479 187.194 107.524 187.147 107.554L186.704 107.81C186.689 107.821 186.671 107.827 186.652 107.827C186.633 107.827 186.615 107.821 186.6 107.81C186.568 107.771 186.553 107.721 186.559 107.671V102.232C186.559 102.169 186.573 102.107 186.6 102.05C186.622 101.998 186.658 101.954 186.704 101.922L188.17 101.074ZM187.298 104.313L188.141 103.825C188.345 103.71 188.517 103.546 188.641 103.348C188.772 103.114 188.835 102.848 188.824 102.58C188.824 102.266 188.76 102.086 188.641 102.034C188.555 102.012 188.465 102.011 188.378 102.031C188.292 102.05 188.21 102.088 188.141 102.144L187.298 102.632V104.313Z" fill="#FAFAFA"/>
<path d="M192.003 98.8581C192.061 98.8235 192.108 98.8235 192.137 98.8581C192.174 98.9102 192.2 98.9695 192.212 99.0322L193.556 103.58V103.632C193.554 103.696 193.538 103.758 193.509 103.815C193.489 103.867 193.452 103.912 193.405 103.942L193.009 104.169C192.939 104.21 192.887 104.216 192.858 104.169C192.829 104.14 192.809 104.104 192.799 104.064L192.561 103.268L190.816 104.27L190.584 105.34C190.567 105.398 190.546 105.455 190.52 105.509C190.491 105.58 190.437 105.638 190.369 105.672L189.973 105.899C189.958 105.911 189.94 105.918 189.921 105.918C189.901 105.918 189.883 105.911 189.868 105.899C189.853 105.881 189.841 105.859 189.834 105.836C189.827 105.813 189.825 105.789 189.827 105.765C189.824 105.744 189.824 105.722 189.827 105.701L191.165 99.6055C191.181 99.5159 191.207 99.4283 191.241 99.3439C191.269 99.2826 191.316 99.2316 191.375 99.1981L192.003 98.8581ZM192.305 102.383L191.724 100.329L191.142 103.074L192.305 102.383Z" fill="#FAFAFA"/>
<path d="M195.591 96.6996C195.786 96.5768 196.007 96.503 196.236 96.4845C196.399 96.4698 196.562 96.5065 196.702 96.5893C196.83 96.6722 196.929 96.7921 196.987 96.9329C197.051 97.0767 197.087 97.2314 197.092 97.3886C197.095 97.452 197.081 97.515 197.051 97.5709C197.031 97.6235 196.994 97.6681 196.946 97.6985L196.563 97.9191C196.499 97.9537 196.452 97.9601 196.423 97.9191C196.386 97.8964 196.355 97.8652 196.332 97.8279C196.309 97.7756 196.275 97.7285 196.233 97.6895C196.191 97.6505 196.142 97.6204 196.088 97.601C196 97.5884 195.911 97.5931 195.825 97.615C195.739 97.6369 195.658 97.6755 195.587 97.7286C195.493 97.7893 195.403 97.8573 195.319 97.9319C195.233 98.0115 195.157 98.1015 195.092 98.1998C195.03 98.2945 194.98 98.3961 194.941 98.5024C194.907 98.6037 194.889 98.7099 194.889 98.8169C194.882 98.9148 194.9 99.013 194.941 99.1022C194.959 99.1333 194.984 99.1597 195.014 99.1789C195.045 99.1981 195.079 99.2096 195.115 99.2124C195.223 99.2311 195.333 99.2311 195.441 99.2124L195.946 99.1022C196.135 99.0462 196.332 99.0224 196.528 99.032C196.668 99.0314 196.805 99.0761 196.918 99.1596C197.024 99.2491 197.101 99.3685 197.139 99.5023C197.196 99.6906 197.221 99.8871 197.214 100.084C197.214 100.344 197.177 100.602 197.104 100.851C197.033 101.106 196.929 101.351 196.796 101.58C196.655 101.816 196.487 102.035 196.296 102.232C196.1 102.435 195.876 102.609 195.632 102.75C195.453 102.859 195.256 102.936 195.05 102.977C194.883 103.009 194.71 102.995 194.55 102.936C194.405 102.868 194.284 102.756 194.206 102.616C194.111 102.436 194.06 102.237 194.055 102.034C194.055 101.968 194.069 101.902 194.096 101.842C194.122 101.793 194.16 101.75 194.206 101.72L194.59 101.499C194.649 101.465 194.695 101.453 194.73 101.47C194.768 101.492 194.796 101.527 194.811 101.569C194.834 101.628 194.865 101.685 194.902 101.737C194.938 101.788 194.989 101.826 195.048 101.847C195.124 101.865 195.204 101.865 195.28 101.847C195.404 101.818 195.522 101.769 195.629 101.702C195.742 101.637 195.849 101.564 195.949 101.481C196.145 101.327 196.302 101.127 196.405 100.9C196.451 100.784 196.475 100.66 196.475 100.535C196.481 100.489 196.477 100.443 196.464 100.399C196.451 100.355 196.429 100.314 196.399 100.279C196.368 100.251 196.331 100.23 196.291 100.218C196.251 100.206 196.209 100.203 196.167 100.209C196.035 100.214 195.904 100.235 195.777 100.272C195.626 100.307 195.452 100.348 195.247 100.383C195.092 100.422 194.93 100.433 194.771 100.417C194.645 100.409 194.526 100.358 194.433 100.272C194.332 100.172 194.262 100.045 194.23 99.907C194.183 99.705 194.162 99.4981 194.166 99.2908C194.166 99.0346 194.203 98.7797 194.277 98.5343C194.346 98.282 194.448 98.0397 194.579 97.8134C194.706 97.5884 194.859 97.3793 195.035 97.1909C195.196 97.0017 195.383 96.8363 195.591 96.6996Z" fill="#FAFAFA"/>
<path d="M199.412 94.5022C199.606 94.3758 199.828 94.2999 200.058 94.2816C200.22 94.2679 200.382 94.3045 200.523 94.3864C200.647 94.4714 200.744 94.5904 200.801 94.7291C200.865 94.8729 200.901 95.0276 200.906 95.1849C200.912 95.2484 200.898 95.3122 200.865 95.3671C200.845 95.4197 200.808 95.4644 200.76 95.4948L200.377 95.7153C200.318 95.75 200.272 95.7618 200.237 95.7153C200.2 95.6921 200.172 95.6576 200.156 95.6169C200.103 95.515 200.014 95.4364 199.906 95.3963C199.82 95.3836 199.731 95.3883 199.647 95.4102C199.562 95.4321 199.482 95.4708 199.412 95.5239C199.315 95.5831 199.224 95.6512 199.139 95.7272C199.055 95.8069 198.98 95.8969 198.918 95.9951C198.854 96.0885 198.803 96.1904 198.767 96.2977C198.731 96.3987 198.711 96.5049 198.709 96.6122C198.702 96.7101 198.72 96.8083 198.761 96.8975C198.779 96.9286 198.804 96.9549 198.834 96.9741C198.865 96.9933 198.899 97.0049 198.935 97.0078C199.042 97.0265 199.153 97.0265 199.26 97.0078L199.766 96.8975C199.955 96.8446 200.151 96.821 200.348 96.8273C200.488 96.8257 200.625 96.8706 200.738 96.9549C200.844 97.0456 200.923 97.1643 200.965 97.2976C201.016 97.487 201.04 97.6829 201.035 97.8791C201.034 98.1388 200.997 98.3972 200.925 98.6465C200.853 98.9017 200.75 99.1467 200.616 99.3757C200.476 99.6138 200.308 99.8344 200.116 100.033C199.92 100.231 199.699 100.403 199.459 100.545C199.28 100.654 199.083 100.731 198.877 100.772C198.712 100.804 198.541 100.789 198.383 100.731C198.235 100.666 198.112 100.553 198.034 100.411C197.939 100.232 197.889 100.032 197.889 99.8296C197.883 99.766 197.897 99.7022 197.93 99.6473C197.95 99.5948 197.987 99.5501 198.034 99.5197L198.418 99.2991C198.476 99.2645 198.528 99.2526 198.557 99.27C198.578 99.2792 198.595 99.2928 198.609 99.3098C198.623 99.3269 198.633 99.3469 198.639 99.3684C198.664 99.427 198.695 99.4834 198.73 99.537C198.768 99.588 198.821 99.6265 198.881 99.6473C198.958 99.6649 199.037 99.6649 199.113 99.6473C199.237 99.6181 199.355 99.5688 199.463 99.5015C199.573 99.4358 199.678 99.3621 199.777 99.2809C199.879 99.2013 199.97 99.1074 200.045 99.002C200.119 98.9015 200.18 98.7922 200.227 98.6766C200.274 98.5607 200.298 98.4369 200.297 98.312C200.303 98.2664 200.299 98.2202 200.286 98.1762C200.273 98.1321 200.251 98.0912 200.222 98.0559C200.19 98.0282 200.153 98.0075 200.113 97.9954C200.073 97.9833 200.031 97.98 199.989 97.9857C199.86 97.9936 199.731 98.015 199.606 98.0495C199.454 98.0842 199.274 98.1252 199.076 98.1598C198.918 98.1987 198.755 98.2105 198.593 98.1945C198.467 98.1877 198.347 98.136 198.256 98.0486C198.156 97.9485 198.088 97.822 198.058 97.684C198.006 97.4848 197.983 97.2792 197.988 97.0734C197.99 96.8156 198.027 96.5592 198.098 96.3114C198.17 96.06 198.272 95.818 198.401 95.5904C198.525 95.3643 198.679 95.1551 198.856 94.9679C199.013 94.7834 199.198 94.6244 199.403 94.4967L199.412 94.5022Z" fill="#FAFAFA"/>
<path d="M203.651 95.2288L203.18 98.0151C203.166 98.0989 203.143 98.1808 203.11 98.2593C203.087 98.322 203.044 98.3753 202.988 98.4106L202.546 98.6668C202.488 98.7014 202.447 98.7014 202.418 98.6668C202.379 98.6189 202.357 98.5598 202.354 98.4981L201.656 93.5827V93.5189C201.658 93.4555 201.674 93.3933 201.703 93.3366C201.725 93.285 201.761 93.2407 201.808 93.209L202.209 92.9766C202.242 92.963 202.28 92.963 202.313 92.9766C202.348 92.9766 202.371 93.0231 202.384 93.116L202.839 96.4255L203.24 93.9418C203.251 93.8792 203.268 93.8181 203.292 93.7595C203.315 93.6861 203.365 93.624 203.432 93.5854L203.879 93.3239C203.943 93.2892 203.99 93.2947 204.019 93.3239C204.044 93.3609 204.061 93.4023 204.071 93.446L204.478 95.4639L204.934 91.6249C204.939 91.5494 204.961 91.4761 204.998 91.4098C205.025 91.3664 205.06 91.3289 205.102 91.2995L205.503 91.0671C205.519 91.0563 205.537 91.0505 205.556 91.0505C205.575 91.0505 205.593 91.0563 205.608 91.0671C205.642 91.1056 205.658 91.1558 205.655 91.2066C205.657 91.2299 205.657 91.2534 205.655 91.2767L204.957 96.9942C204.945 97.0779 204.924 97.1599 204.893 97.2385C204.866 97.3006 204.822 97.3533 204.765 97.3898L204.318 97.6459C204.265 97.6751 204.225 97.6751 204.196 97.6459C204.166 97.5925 204.142 97.536 204.125 97.4773L203.651 95.2288Z" fill="#FAFAFA"/>
<path d="M206.374 92.7623C206.387 92.4398 206.426 92.1188 206.491 91.8026C206.558 91.4934 206.659 91.1928 206.794 90.9066C206.922 90.6283 207.086 90.3682 207.282 90.1328C207.481 89.8994 207.719 89.7026 207.986 89.5513C208.191 89.4123 208.43 89.3337 208.678 89.3243C208.862 89.3263 209.039 89.3991 209.172 89.5276C209.312 89.6859 209.414 89.8751 209.468 90.0799C209.543 90.3471 209.584 90.6227 209.59 90.9002V92.4123C209.577 92.7331 209.538 93.0522 209.473 93.3666C209.406 93.6749 209.306 93.9752 209.176 94.2626C209.044 94.5399 208.878 94.7998 208.682 95.0364C208.483 95.2676 208.247 95.4641 207.984 95.6179C207.774 95.7559 207.531 95.8344 207.28 95.8448C207.19 95.8467 207.1 95.8301 207.016 95.7961C206.932 95.7621 206.856 95.7114 206.792 95.647C206.64 95.4842 206.536 95.2832 206.489 95.0655C206.42 94.7973 206.381 94.5222 206.373 94.2452V93.0932C206.374 92.9601 206.367 92.8671 206.374 92.7623ZM208.852 91.3724C208.865 91.23 208.849 91.0866 208.805 90.9506C208.761 90.8146 208.69 90.689 208.596 90.5812C208.507 90.5166 208.4 90.4818 208.29 90.4818C208.181 90.4818 208.074 90.5166 207.985 90.5812C207.714 90.7409 207.498 90.9806 207.369 91.2675C207.204 91.6065 207.116 91.9779 207.113 92.3549V93.774C207.1 93.9163 207.116 94.0598 207.16 94.1958C207.204 94.3318 207.275 94.4574 207.369 94.5652C207.52 94.6928 207.733 94.6818 207.985 94.536C208.252 94.3752 208.465 94.1381 208.596 93.8551C208.761 93.5182 208.848 93.1485 208.852 92.7733V92.0523C208.853 91.7916 208.858 91.582 208.853 91.3724H208.852Z" fill="#FAFAFA"/>
<path d="M212.126 87.2317C212.582 86.9701 212.929 86.9291 213.167 87.1214C213.308 87.2771 213.413 87.4621 213.474 87.6632C213.536 87.8643 213.552 88.0764 213.521 88.2844C213.525 88.6795 213.464 89.0725 213.339 89.4474C213.221 89.7969 213.038 90.1207 212.799 90.4017L213.555 92.0477C213.558 92.0747 213.558 92.1019 213.555 92.1289C213.555 92.1813 213.544 92.2331 213.521 92.2802C213.505 92.3224 213.476 92.3589 213.439 92.385L212.975 92.6529C212.899 92.694 212.847 92.6994 212.811 92.6529C212.781 92.6224 212.755 92.587 212.736 92.5481L212.02 90.9987L211.291 91.417V93.383C211.291 93.446 211.277 93.5083 211.25 93.5653C211.226 93.6157 211.19 93.6595 211.145 93.6929L210.703 93.949C210.689 93.9614 210.67 93.9682 210.651 93.9682C210.632 93.9682 210.613 93.9614 210.598 93.949C210.582 93.9312 210.569 93.9101 210.561 93.887C210.553 93.8639 210.55 93.8394 210.552 93.8151V88.3764C210.554 88.313 210.57 88.2509 210.598 88.1942C210.619 88.1416 210.656 88.0969 210.703 88.0666L212.126 87.2317ZM211.306 90.3607L212.126 89.9186C212.326 89.8078 212.497 89.6517 212.626 89.4629C212.76 89.2383 212.823 88.979 212.809 88.7182C212.809 88.4038 212.745 88.2297 212.626 88.1951C212.449 88.1708 212.27 88.2166 212.126 88.3227L211.335 88.7784L211.306 90.3607Z" fill="#FAFAFA"/>
<path d="M216.023 84.9922C216.235 84.8545 216.476 84.7706 216.727 84.7479C216.909 84.7419 217.087 84.8073 217.221 84.9302C217.375 85.0922 217.482 85.2934 217.529 85.5117C217.607 85.8002 217.65 86.0971 217.657 86.3958V87.6463C217.645 87.9928 217.602 88.3375 217.529 88.6763C217.463 88.9904 217.361 89.2961 217.227 89.5877C217.097 89.8561 216.933 90.1064 216.738 90.3324C216.544 90.5635 216.312 90.7601 216.052 90.9139L214.674 91.664C214.659 91.6764 214.64 91.6832 214.621 91.6832C214.602 91.6832 214.583 91.6764 214.569 91.664C214.552 91.6464 214.539 91.6253 214.531 91.6021C214.523 91.579 214.52 91.5544 214.522 91.53V86.0914C214.525 86.028 214.54 85.9659 214.569 85.9091C214.589 85.8566 214.626 85.812 214.674 85.7815L216.023 84.9922ZM216.919 86.8014C216.917 86.6438 216.893 86.4871 216.849 86.3357C216.822 86.2212 216.764 86.1165 216.681 86.0331C216.644 85.9967 216.601 85.9681 216.553 85.9491C216.505 85.9301 216.453 85.9212 216.402 85.9228C216.256 85.9324 216.115 85.9806 215.994 86.0623L215.265 86.4806V90.2731L216.027 89.8365C216.175 89.7509 216.306 89.6408 216.417 89.5112C216.526 89.3837 216.617 89.2432 216.691 89.0928C216.763 88.9325 216.818 88.7647 216.854 88.5924C216.894 88.4128 216.918 88.2297 216.924 88.0456C216.937 87.6208 216.937 87.2079 216.919 86.8005V86.8014Z" fill="#FAFAFA"/>
<path d="M136.154 0.574876C137.158 0.798313 138.125 1.16255 139.027 1.65676C139.891 2.12106 140.665 2.73556 141.313 3.47146C141.933 4.17933 142.393 5.01247 142.662 5.91413C142.936 6.87937 142.957 7.89921 142.72 8.87451C142.564 9.64782 142.258 10.383 141.819 11.0383C141.418 11.5987 140.94 12.1001 140.4 12.5276C139.869 12.9396 139.302 13.3035 138.707 13.6149L137.032 14.5045C136.527 14.7678 136.048 15.0775 135.601 15.4296C135.196 15.74 134.886 16.1569 134.705 16.6337C134.616 16.8516 134.47 17.0409 134.28 17.1805C134.191 17.2498 134.087 17.2978 133.977 17.3211C133.866 17.3443 133.752 17.342 133.642 17.3145L131.176 16.7676C131.057 16.7429 130.945 16.6946 130.845 16.6258C130.745 16.5569 130.66 16.4688 130.594 16.3666C130.525 16.2716 130.478 16.1615 130.459 16.0453C130.44 15.9291 130.449 15.8099 130.484 15.6976C130.683 14.9338 131.033 14.2178 131.514 13.5922C131.953 13.0388 132.461 12.5444 133.026 12.1211C133.577 11.7179 134.16 11.3618 134.771 11.0565C135.352 10.7603 135.934 10.475 136.439 10.1897C136.91 9.93679 137.353 9.63463 137.76 9.28831C138.117 8.98956 138.365 8.58037 138.464 8.1253C138.556 7.73014 138.552 7.31845 138.45 6.92545C138.349 6.53244 138.154 6.1698 137.882 5.86856C137.202 5.12605 136.293 4.63256 135.3 4.46676C134.428 4.25773 133.512 4.3239 132.679 4.65618C131.846 4.98845 131.136 5.57053 130.647 6.32246C130.524 6.50075 130.37 6.65518 130.191 6.77818C129.991 6.87761 129.759 6.89431 129.546 6.82467L126.923 6.24317C126.737 6.20609 126.574 6.09739 126.467 5.94057C126.41 5.85642 126.372 5.76095 126.354 5.66062C126.337 5.56029 126.342 5.45745 126.368 5.35906C126.591 4.55078 127.006 3.80839 127.577 3.19529C128.222 2.48437 128.988 1.89368 129.84 1.45078C130.771 0.96354 131.774 0.629613 132.812 0.461856C133.923 0.281035 135.059 0.318497 136.156 0.572143L136.154 0.574876ZM133.368 19.2914C133.598 19.3465 133.798 19.4889 133.925 19.6886C134.052 19.8883 134.096 20.1296 134.049 20.3615L133.421 23.2116C133.399 23.3309 133.353 23.4444 133.285 23.5446C133.217 23.6448 133.128 23.7295 133.025 23.7931C132.928 23.8601 132.818 23.9061 132.701 23.928C132.585 23.95 132.466 23.9475 132.351 23.9207L129.535 23.2754C129.416 23.2552 129.302 23.2094 129.201 23.1411C129.101 23.0729 129.016 22.9837 128.954 22.8798C128.889 22.7816 128.844 22.6711 128.823 22.5552C128.802 22.4392 128.805 22.3202 128.832 22.2053L129.47 19.3552C129.523 19.124 129.665 18.9229 129.865 18.7947C130.065 18.6666 130.307 18.6214 130.54 18.6689L133.368 19.2914Z" fill="#E54C38"/>
<path d="M139.261 27.8591C139.961 27.7467 140.674 27.7329 141.378 27.8181C142.051 27.898 142.704 28.0948 143.309 28.3996C143.885 28.6984 144.393 29.1144 144.799 29.621C145.163 30.1166 145.419 30.683 145.551 31.2838C145.683 31.8846 145.688 32.5064 145.565 33.1091C145.454 33.5729 145.276 34.0179 145.036 34.4298C144.804 34.8303 144.535 35.2081 144.233 35.5581C143.936 35.9072 143.651 36.239 143.389 36.5607C143.133 36.8588 142.905 37.1801 142.709 37.5205C142.525 37.8188 142.432 38.1645 142.442 38.5149C142.436 38.6789 142.39 38.839 142.308 38.9806C142.265 39.0459 142.21 39.1014 142.145 39.1435C142.08 39.1856 142.006 39.2134 141.929 39.2249L140.185 39.5038C140.103 39.5186 140.02 39.5169 139.939 39.4989C139.858 39.4809 139.781 39.4469 139.714 39.399C139.645 39.3559 139.587 39.297 139.546 39.2273C139.504 39.1576 139.48 39.0789 139.475 38.9979C139.402 38.4567 139.441 37.9062 139.591 37.381C139.728 36.9161 139.924 36.4704 140.173 36.0549C140.418 35.6559 140.698 35.2801 141.011 34.932C141.32 34.5829 141.593 34.2575 141.861 33.9431C142.1 33.6631 142.306 33.3574 142.477 33.0316C142.628 32.7508 142.684 32.428 142.634 32.1129C142.59 31.8354 142.48 31.5726 142.313 31.3467C142.146 31.1209 141.927 30.9388 141.674 30.8159C141.049 30.5138 140.341 30.4279 139.662 30.5716C139.047 30.6617 138.474 30.9397 138.023 31.3677C137.573 31.7958 137.265 32.3527 137.143 32.9623C137.109 33.1089 137.05 33.2486 136.969 33.3752C136.865 33.4857 136.725 33.5542 136.574 33.5675L134.735 33.8638C134.606 33.8883 134.473 33.8612 134.363 33.7881C134.307 33.7496 134.26 33.6996 134.225 33.6415C134.19 33.5833 134.168 33.5183 134.16 33.4509C134.105 32.8737 134.195 32.292 134.422 31.7583C134.652 31.1373 134.992 30.5623 135.424 30.0603C135.897 29.5102 136.455 29.0388 137.076 28.664C137.746 28.2573 138.489 27.9846 139.263 27.861L139.261 27.8591ZM142.262 40.5674C142.423 40.5428 142.586 40.5824 142.718 40.6777C142.786 40.7227 142.845 40.7817 142.889 40.8509C142.933 40.92 142.962 40.9976 142.974 41.0788L143.299 43.0739C143.325 43.2359 143.285 43.4013 143.189 43.5342C143.093 43.6671 142.949 43.7569 142.787 43.7839L140.838 44.1039C140.678 44.1279 140.514 44.0883 140.383 43.9936C140.315 43.9479 140.258 43.8886 140.215 43.8196C140.172 43.7505 140.144 43.6731 140.133 43.5925L139.807 41.5974C139.782 41.4355 139.822 41.2702 139.918 41.1373C140.014 41.0045 140.158 40.9147 140.32 40.8874L142.262 40.5674Z" fill="#F3BA6F"/>
<g opacity="0.2">
<path d="M139.261 27.859C139.961 27.7466 140.674 27.7327 141.378 27.818C142.051 27.8979 142.705 28.0947 143.31 28.3995C143.886 28.6983 144.393 29.1143 144.799 29.6208C145.163 30.1165 145.42 30.6829 145.552 31.2837C145.684 31.8845 145.689 32.5063 145.566 33.109C145.455 33.5727 145.276 34.0177 145.036 34.4296C144.805 34.8302 144.536 35.208 144.233 35.558C143.937 35.9071 143.652 36.2389 143.39 36.5606C143.134 36.8586 142.906 37.18 142.709 37.5204C142.525 37.8187 142.432 38.1643 142.442 38.5147C142.437 38.6787 142.391 38.8389 142.308 38.9805C142.266 39.0457 142.21 39.1012 142.145 39.1434C142.08 39.1855 142.007 39.2132 141.93 39.2248L140.185 39.5037C140.104 39.5184 140.02 39.5168 139.939 39.4988C139.858 39.4808 139.782 39.4468 139.714 39.3989C139.645 39.3558 139.588 39.2969 139.546 39.2272C139.505 39.1574 139.48 39.0788 139.475 38.9978C139.402 38.4566 139.442 37.9061 139.592 37.3809C139.729 36.916 139.924 36.4703 140.173 36.0548C140.418 35.6558 140.699 35.2799 141.012 34.9318C141.32 34.5828 141.593 34.2574 141.861 33.9429C142.1 33.6629 142.307 33.3572 142.478 33.0315C142.629 32.7506 142.684 32.4279 142.634 32.1127C142.591 31.8353 142.481 31.5724 142.313 31.3466C142.146 31.1208 141.927 30.9387 141.675 30.8158C141.049 30.5137 140.342 30.4277 139.662 30.5715C139.047 30.6615 138.475 30.9396 138.024 31.3676C137.573 31.7956 137.266 32.3526 137.144 32.9622C137.11 33.1088 137.051 33.2484 136.97 33.3751C136.866 33.4856 136.725 33.5541 136.574 33.5674L134.736 33.8636C134.607 33.8882 134.473 33.8611 134.364 33.788C134.308 33.7495 134.261 33.6995 134.226 33.6413C134.191 33.5832 134.169 33.5182 134.161 33.4507C134.106 32.8736 134.196 32.2919 134.422 31.7582C134.653 31.1371 134.992 30.5621 135.425 30.0602C135.898 29.51 136.455 29.0387 137.076 28.6638C137.747 28.2572 138.49 27.9845 139.264 27.8608L139.261 27.859ZM142.262 40.5673C142.423 40.5427 142.587 40.5823 142.718 40.6776C142.787 40.7226 142.845 40.7816 142.889 40.8507C142.933 40.9198 142.962 40.9975 142.974 41.0787L143.3 43.0738C143.325 43.2358 143.285 43.4011 143.19 43.5341C143.094 43.667 142.949 43.7567 142.787 43.7838L140.839 44.1037C140.678 44.1278 140.515 44.0882 140.383 43.9935C140.316 43.9478 140.259 43.8885 140.216 43.8194C140.173 43.7504 140.145 43.673 140.133 43.5924L139.808 41.5973C139.783 41.4353 139.823 41.2701 139.918 41.1372C140.014 41.0043 140.159 40.9145 140.32 40.8872L142.262 40.5673Z" fill="#E54C38"/>
</g>
<path d="M155.709 30.9945C155.788 31.0496 155.855 31.1203 155.906 31.2023C155.957 31.2843 155.99 31.3757 156.005 31.4712C156.023 31.5658 156.022 31.6633 156.001 31.7574C155.98 31.8515 155.94 31.9403 155.883 32.018L154.498 33.9667C154.443 34.0459 154.372 34.113 154.29 34.1639C154.208 34.2149 154.117 34.2485 154.021 34.2629C153.927 34.2815 153.829 34.2802 153.735 34.2591C153.641 34.2381 153.552 34.1978 153.475 34.1408L151.567 32.7855C151.488 32.7311 151.421 32.6605 151.37 32.5783C151.32 32.4962 151.288 32.4043 151.276 32.3088C151.258 32.2142 151.259 32.1167 151.28 32.0226C151.301 31.9285 151.341 31.8397 151.398 31.7619L152.8 29.8133C152.913 29.6553 153.084 29.5485 153.276 29.5159C153.468 29.4833 153.664 29.5276 153.824 29.6392L155.709 30.9945ZM163.758 17.7977C164.454 18.2851 165.073 18.873 165.596 19.5422C166.106 20.1656 166.5 20.8756 166.759 21.6385C167.001 22.3688 167.082 23.1425 166.998 23.9071C166.899 24.7225 166.59 25.4982 166.102 26.1584C165.739 26.6921 165.272 27.1472 164.729 27.4964C164.251 27.7958 163.732 28.0231 163.188 28.1708C162.658 28.3093 162.117 28.4026 161.571 28.4497L160.022 28.5892C159.558 28.6264 159.098 28.7063 158.649 28.828C158.234 28.9221 157.855 29.132 157.555 29.4332C157.42 29.5706 157.249 29.6672 157.061 29.7121C156.972 29.7376 156.878 29.7415 156.787 29.7232C156.696 29.705 156.61 29.6652 156.538 29.6073L154.857 28.406C154.696 28.2908 154.586 28.1177 154.549 27.9229C154.528 27.8286 154.528 27.7306 154.552 27.6367C154.575 27.5428 154.62 27.4557 154.683 27.3824C155.077 26.8712 155.57 26.4442 156.131 26.1265C156.637 25.8502 157.177 25.6409 157.737 25.5039C158.277 25.373 158.828 25.2894 159.383 25.2542C159.929 25.2196 160.441 25.1789 160.918 25.1321C161.355 25.0934 161.786 25.0076 162.204 24.8759C162.569 24.7542 162.884 24.5148 163.099 24.1951C163.294 23.9253 163.42 23.6126 163.468 23.2834C163.516 22.9543 163.483 22.6186 163.373 22.3048C163.097 21.5292 162.57 20.868 161.875 20.4263C161.283 19.9884 160.57 19.7446 159.834 19.7283C159.097 19.712 158.374 19.9239 157.763 20.3351C157.614 20.4303 157.448 20.4973 157.274 20.5329C157.184 20.5392 157.093 20.5276 157.007 20.4986C156.921 20.4697 156.842 20.424 156.774 20.3643L154.983 19.0883C154.917 19.0448 154.86 18.9881 154.817 18.9217C154.774 18.8553 154.745 18.7808 154.732 18.7026C154.719 18.6245 154.722 18.5445 154.741 18.4677C154.76 18.3908 154.795 18.3188 154.844 18.2561C155.266 17.7145 155.816 17.2851 156.443 17.0056C157.156 16.6827 157.92 16.4859 158.7 16.4241C159.558 16.3522 160.423 16.4209 161.259 16.6274C162.162 16.847 163.012 17.2454 163.758 17.7977Z" fill="#F3BA6F"/>
<g opacity="0.6">
<path d="M155.707 30.9945C155.786 31.0496 155.853 31.1203 155.904 31.2023C155.955 31.2843 155.989 31.3757 156.003 31.4712C156.022 31.5658 156.021 31.6633 156 31.7574C155.978 31.8515 155.938 31.9403 155.881 32.018L154.497 33.9667C154.442 34.0459 154.371 34.113 154.289 34.1639C154.207 34.2149 154.115 34.2485 154.02 34.2629C153.925 34.2815 153.828 34.2802 153.734 34.2591C153.64 34.2381 153.551 34.1978 153.473 34.1408L151.565 32.7855C151.486 32.7311 151.419 32.6605 151.369 32.5783C151.319 32.4962 151.287 32.4043 151.275 32.3088C151.256 32.2142 151.257 32.1167 151.278 32.0226C151.3 31.9285 151.34 31.8397 151.397 31.7619L152.799 29.8133C152.912 29.6553 153.083 29.5485 153.275 29.5159C153.466 29.4833 153.663 29.5276 153.822 29.6392L155.707 30.9945ZM163.757 17.7977C164.452 18.2851 165.072 18.873 165.594 19.5422C166.105 20.1656 166.499 20.8756 166.757 21.6385C166.999 22.3688 167.08 23.1425 166.996 23.9071C166.898 24.7225 166.589 25.4982 166.1 26.1584C165.737 26.6921 165.271 27.1472 164.728 27.4964C164.25 27.7958 163.731 28.0231 163.186 28.1708C162.656 28.3093 162.115 28.4026 161.57 28.4497L160.02 28.5892C159.556 28.6264 159.097 28.7063 158.647 28.828C158.233 28.9221 157.854 29.132 157.554 29.4332C157.418 29.5706 157.247 29.6672 157.06 29.7121C156.97 29.7376 156.876 29.7415 156.785 29.7232C156.694 29.705 156.609 29.6652 156.537 29.6073L154.856 28.406C154.695 28.2908 154.584 28.1177 154.548 27.9229C154.526 27.8286 154.527 27.7306 154.55 27.6367C154.573 27.5428 154.619 27.4557 154.682 27.3824C155.076 26.8712 155.568 26.4442 156.13 26.1265C156.636 25.8502 157.175 25.6409 157.735 25.5039C158.275 25.373 158.826 25.2894 159.381 25.2542C159.928 25.2196 160.44 25.1789 160.917 25.1321C161.353 25.0934 161.784 25.0076 162.202 24.8759C162.568 24.7542 162.883 24.5148 163.098 24.1951C163.292 23.9253 163.419 23.6126 163.466 23.2834C163.514 22.9543 163.481 22.6186 163.371 22.3048C163.096 21.5292 162.569 20.868 161.874 20.4263C161.282 19.9884 160.568 19.7446 159.832 19.7283C159.096 19.712 158.373 19.9239 157.761 20.3351C157.612 20.4303 157.446 20.4973 157.273 20.5329C157.183 20.5392 157.092 20.5276 157.006 20.4986C156.92 20.4697 156.841 20.424 156.773 20.3643L154.982 19.0883C154.915 19.0448 154.859 18.9881 154.816 18.9217C154.772 18.8553 154.743 18.7808 154.73 18.7026C154.717 18.6245 154.72 18.5445 154.74 18.4677C154.759 18.3908 154.794 18.3188 154.842 18.2561C155.265 17.7145 155.814 17.2851 156.442 17.0056C157.155 16.6827 157.918 16.4859 158.698 16.4241C159.557 16.3522 160.421 16.4209 161.258 16.6274C162.16 16.847 163.01 17.2454 163.757 17.7977Z" fill="#E54C38"/>
</g>
<path d="M112.394 82.4793H91.7285V32.4126C91.7285 28.0641 93.456 23.8937 96.5308 20.8189C99.6057 17.744 103.776 16.0166 108.125 16.0166H110.032C114.381 16.0166 118.551 17.744 121.626 20.8189C124.701 23.8937 126.428 28.0641 126.428 32.4126V68.4731C126.42 72.1902 124.938 75.7524 122.307 78.3782C119.676 81.0039 116.111 82.4788 112.394 82.4793Z" fill="#263238"/>
<path d="M89.7165 203.009C89.351 205.083 89.1565 207.184 89.135 209.291C89.0594 213.106 88.3612 214.461 88.2683 217.59C88.158 221.168 88.7805 222.505 90.2288 224.517C91.6771 226.53 95.4632 228.35 97.1038 224.954C98.7444 221.558 98.5056 219.329 97.9879 215.822C97.4584 212.193 97.4064 210.187 97.0765 207.423C96.8085 204.986 96.495 203.131 96.495 203.131L89.7165 203.009Z" fill="#263238"/>
<path d="M100.546 177.668L87.9829 177.441C88.1652 185.826 89.5014 195.14 89.7274 203.033C89.7739 204.516 89.6928 214.543 90.2506 217.573C91.0937 222.156 96.5259 221.534 96.813 218.794C97.1001 216.055 96.4639 204.347 96.4813 203.137C96.4293 198.088 98.8082 189.567 100.036 180.505C100.092 180.07 100.488 178.104 100.546 177.668Z" fill="#FFA8A7"/>
<path d="M116.687 196.483C116.687 196.483 116.193 196.215 116.106 196.745C115.984 197.373 115.798 198.67 115.524 199.705C115.102 201.328 114.951 203.011 115.077 204.683C115.292 205.858 118.025 207.358 119.8 207.905C121.986 208.581 123.98 209.768 125.616 211.369C127.92 213.274 130.774 214.392 133.759 214.559C136.812 214.559 138.941 213.541 139.948 211.907C140.954 210.272 139.029 210.075 135.539 207.835L132.835 206.091C127.303 202.479 125.27 200.548 123.72 196.936L116.687 196.483Z" fill="#263238"/>
<path d="M123.765 194.245C123.674 191.651 125.463 169.601 125.463 169.601L113.534 175.04C116.086 190.29 116.633 193.89 116.675 196.385C116.623 196.593 116.601 196.808 116.611 197.023C116.611 199.983 119.967 201.58 122.573 203.561C124.788 205.296 127.149 206.837 129.629 208.167C131.524 209.115 135.371 209.202 135.852 207.985C132.676 205.559 128.058 201.93 125.534 199.162C124.298 197.862 123.858 196.844 123.765 194.245Z" fill="#FFA8A7"/>
<path d="M93.1308 95.8275C88.548 105.884 88.548 113.666 89.3091 126.502C89.9835 138.28 91.1064 148.662 91.1064 148.662C90.9324 150.75 88.0294 154.827 87.6512 164.066C87.5059 170.607 87.7 177.151 88.2327 183.672C88.2327 183.672 94.7522 187.284 99.5747 183.637C99.5747 183.637 104.228 161.425 105.59 150.618C106.753 141.19 108.848 129.145 108.848 129.145L113.251 150.554C112.301 153.592 111.612 156.705 111.192 159.86C110.576 166.218 114.135 178.699 114.135 178.699C114.135 178.699 120.871 180.704 124.981 177.058C124.981 177.058 126.517 156.766 127.092 149.112C127.86 138.858 126.243 111.104 124.981 96.4045L93.1308 95.8275Z" fill="#233245"/>
<path d="M108.858 129.125L110.667 112.993C110.667 112.993 118.779 111.911 122.451 108.456C121.399 110.102 119.998 111.497 118.346 112.54C116.694 113.584 114.833 114.251 112.895 114.494L110.277 129.505L113.249 150.554L108.858 129.125Z" fill="#263238"/>
<path d="M141.69 91.8609C142.025 88.9165 142.173 85.9538 142.133 82.9907C141.95 80.4313 141.495 80.013 137.916 75.4822C133.086 69.3572 128.965 63.8494 124.603 58.3761C121.486 54.4678 118.205 53.8681 115.018 54.0431C112.785 54.1652 117.147 64.9076 119.339 71.2695L131.861 84.7516C132.25 85.2837 132.428 85.9402 132.362 86.5954L131.605 98.0651L135.357 103.09C135.357 103.09 141.034 98.189 141.69 91.8609Z" fill="#FFA8A7"/>
<path d="M102.942 54.3921C100.517 54.5607 96.1064 54.9736 96.1064 54.9736C93.5644 56.3927 92.9163 57.5621 92.4479 60.9354C92.2446 62.3782 93.4195 66.2108 94.4257 71.6604L96.3334 81.7629L96.1237 86.7758C95.1348 89.8356 92.8954 93.6336 90.9185 99.2344C100.632 104.655 108.775 104.859 116.166 103.887C121.796 103.158 124.78 101.799 125.774 100.45C125.564 94.9187 125.193 91.499 125.076 85.7176C125.035 83.2923 125.181 80.8377 125.279 78.046C126.917 76.6386 127.994 74.6894 128.314 72.554C128.635 70.4185 128.176 68.239 127.024 66.4132C122.237 58.6604 117.578 53.7805 114.496 54.0303L102.942 54.3921Z" fill="#E54C38"/>
<path opacity="0.1" d="M117.756 78.1227C117.756 78.1227 113.323 81.5662 108.258 79.7688C106.835 79.3205 105.552 78.5126 104.533 77.4233C103.515 76.334 102.794 75.0002 102.442 73.5509C102.442 73.5509 101.907 79.3377 108.287 81.3101C109.998 81.8649 111.843 81.8546 113.548 81.2806C115.253 80.7067 116.728 79.5995 117.756 78.1227Z" fill="black"/>
<path d="M123.771 38.5076C123.578 46.9066 120.862 48.9764 119.487 49.5589C118.112 50.1413 115.486 49.7913 112.925 49.3666V54.4388C112.925 54.4388 115.88 57.5331 115.659 59.8418C115.438 62.1505 111.006 62.413 107.702 60.1499C105.879 58.8978 104.231 57.4095 102.799 55.7239C102.524 55.3988 102.374 54.9866 102.375 54.5609V42.6957C102.375 42.6957 100.973 44.1786 98.4955 42.4806C97.961 42.1393 97.5033 41.6906 97.1516 41.163C96.7998 40.6353 96.5617 40.0403 96.4523 39.4157C96.3429 38.791 96.3647 38.1505 96.5162 37.5347C96.6677 36.9189 96.9457 36.3414 97.3325 35.8389C97.6914 35.5021 98.1192 35.2475 98.5863 35.0925C99.0534 34.9375 99.5486 34.8858 100.038 34.9411C100.527 34.9964 100.998 35.1574 101.418 35.4128C101.839 35.6682 102.199 36.012 102.474 36.4204C103.219 37.8686 103.317 39.3288 104.149 38.7473C106.359 37.1541 105.173 33.5128 107.842 31.7674C108.718 31.3103 109.628 30.9215 110.564 30.6044C115.327 28.9583 119.457 27.5739 120.451 24.3154C122.328 25.3864 124.003 28.6029 123.771 38.5076Z" fill="#FFA8A7"/>
<path d="M114.377 46.0105C114.987 46.0105 115.482 45.5159 115.482 44.9058C115.482 44.2957 114.987 43.8011 114.377 43.8011C113.767 43.8011 113.272 44.2957 113.272 44.9058C113.272 45.5159 113.767 46.0105 114.377 46.0105Z" fill="#B16668"/>
<path d="M113.645 37.2388C113.645 37.5065 113.553 37.7661 113.384 37.9739C113.216 38.1816 112.98 38.3248 112.718 38.3792C112.456 38.4335 112.183 38.3958 111.946 38.2724C111.708 38.149 111.52 37.9473 111.414 37.7016C111.308 37.4558 111.29 37.181 111.363 36.9234C111.436 36.6658 111.595 36.4413 111.815 36.2878C112.034 36.1342 112.3 36.061 112.567 36.0805C112.834 36.1 113.086 36.211 113.28 36.3948C113.395 36.5033 113.487 36.6341 113.55 36.7792C113.612 36.9243 113.645 37.0807 113.645 37.2388Z" fill="#263238"/>
<path d="M122.456 37.3509C122.468 37.4934 122.451 37.6367 122.407 37.7727C122.363 37.9086 122.292 38.0344 122.199 38.1426C122.105 38.2509 121.991 38.3395 121.863 38.4032C121.735 38.467 121.596 38.5046 121.453 38.5139C121.31 38.5272 121.165 38.5097 121.028 38.4627C120.892 38.4156 120.767 38.34 120.662 38.241C120.556 38.142 120.474 38.0217 120.419 37.8882C120.364 37.7547 120.338 37.611 120.342 37.4667C120.328 37.3236 120.343 37.179 120.386 37.0418C120.429 36.9046 120.5 36.7776 120.594 36.6687C120.688 36.5597 120.803 36.4711 120.932 36.4081C121.061 36.3452 121.202 36.3092 121.346 36.3025C121.489 36.2958 121.633 36.3185 121.768 36.3692C121.902 36.4198 122.025 36.4974 122.129 36.5971C122.232 36.6968 122.315 36.8167 122.371 36.9492C122.426 37.0818 122.454 37.2244 122.453 37.3682L122.456 37.3509Z" fill="#263238"/>
<path d="M112.15 40.2236C111.147 40.2236 110.185 39.8254 109.475 39.1166C108.765 38.4077 108.366 37.4461 108.364 36.4429C108.364 33.8717 111.017 33.8717 112.15 33.8717C113.284 33.8717 115.931 33.8717 115.931 36.4429C115.93 37.4452 115.531 38.4059 114.822 39.1146C114.113 39.8233 113.153 40.2221 112.15 40.2236ZM112.15 34.4651C109.823 34.4651 108.96 35.0466 108.96 36.4429C108.953 36.8675 109.031 37.2893 109.188 37.6837C109.346 38.078 109.58 38.4371 109.878 38.7399C110.176 39.0427 110.531 39.2832 110.922 39.4474C111.314 39.6115 111.734 39.6961 112.159 39.6961C112.584 39.6961 113.004 39.6115 113.396 39.4474C113.787 39.2832 114.142 39.0427 114.44 38.7399C114.738 38.4371 114.972 38.078 115.13 37.6837C115.288 37.2893 115.365 36.8675 115.358 36.4429C115.338 35.021 114.443 34.4651 112.15 34.4651Z" fill="#455A64"/>
<path d="M121.752 40.2237C120.749 40.2237 119.787 39.8256 119.077 39.1167C118.367 38.4078 117.967 37.4462 117.966 36.443C117.966 33.8718 120.618 33.8718 121.752 33.8718C122.886 33.8718 125.533 33.8718 125.533 36.443C125.531 37.4453 125.132 38.4061 124.424 39.1148C123.715 39.8235 122.754 40.2223 121.752 40.2237ZM121.752 34.4652C119.461 34.4652 118.562 35.0467 118.562 36.443C118.555 36.8676 118.632 37.2894 118.79 37.6838C118.947 38.0781 119.182 38.4372 119.479 38.74C119.777 39.0428 120.132 39.2833 120.524 39.4475C120.916 39.6116 121.336 39.6962 121.761 39.6962C122.185 39.6962 122.606 39.6116 122.997 39.4475C123.389 39.2833 123.744 39.0428 124.042 38.74C124.34 38.4372 124.574 38.0781 124.732 37.6838C124.889 37.2894 124.967 36.8676 124.959 36.443C124.939 35.0212 124.044 34.4652 121.752 34.4652Z" fill="#455A64"/>
<path d="M116.518 35.2218L116.7 42.2882L120.417 41.1362L116.518 35.2218Z" fill="#F28F8F"/>
<path d="M112.924 49.3845C110.225 49.03 104.67 47.4358 103.804 45.2374C104.153 46.3486 104.832 47.3268 105.752 48.041C107.41 49.4656 112.924 51.0652 112.924 51.0652V49.3845Z" fill="#F28F8F"/>
<path d="M113.056 31.7874L110.586 33.2967C110.392 32.9582 110.336 32.5579 110.429 32.1789C110.522 31.7999 110.758 31.4714 111.087 31.2615C111.249 31.1627 111.431 31.0979 111.619 31.0711C111.807 31.0443 111.999 31.0561 112.183 31.1056C112.367 31.1551 112.539 31.2413 112.688 31.3591C112.838 31.477 112.962 31.6239 113.053 31.791L113.056 31.7874Z" fill="#263238"/>
<path d="M123.091 33.4662L120.346 32.5065C120.399 32.3246 120.489 32.1555 120.61 32.0095C120.73 31.8636 120.88 31.7439 121.049 31.6579C121.218 31.5718 121.402 31.5212 121.591 31.5092C121.781 31.4971 121.97 31.5239 122.149 31.5878C122.517 31.72 122.82 31.9889 122.995 32.3386C123.171 32.6882 123.205 33.092 123.091 33.4662Z" fill="#263238"/>
<path d="M115.633 36.7494C115.593 36.7494 115.554 36.7415 115.518 36.7262C115.482 36.7109 115.449 36.6885 115.421 36.6603C115.393 36.6322 115.372 36.5988 115.357 36.5621C115.343 36.5254 115.336 36.4862 115.336 36.4468C115.336 35.9637 116.291 35.6501 117.151 35.6501C118.012 35.6501 118.565 35.9646 118.565 36.4468C118.547 36.5098 118.508 36.5652 118.456 36.6047C118.404 36.6442 118.34 36.6655 118.274 36.6655C118.208 36.6655 118.145 36.6442 118.092 36.6047C118.04 36.5652 118.002 36.5098 117.983 36.4468C117.983 36.3884 117.687 36.2435 117.169 36.2435C116.753 36.2347 116.338 36.3059 115.948 36.4531C115.948 36.4936 115.94 36.5337 115.924 36.5709C115.908 36.608 115.884 36.6415 115.855 36.6693C115.826 36.6971 115.791 36.7185 115.753 36.7323C115.715 36.746 115.674 36.7518 115.634 36.7494H115.633Z" fill="#455A64"/>
<path d="M108.675 36.4904H108.64L101.992 35.9089C101.682 35.6008 101.312 35.3593 100.905 35.1989L108.71 35.9198C108.789 35.9301 108.86 35.9705 108.909 36.0325C108.958 36.0945 108.98 36.1731 108.972 36.2516C108.959 36.32 108.921 36.3814 108.867 36.4251C108.813 36.4688 108.745 36.4919 108.675 36.4904Z" fill="#455A64"/>
<path d="M81.3772 43.4229C83.5528 40.5145 85.0358 38.3188 87.0191 35.8579C88.1474 34.4443 88.8684 33.4326 89.9275 31.9843C90.6721 30.9817 91.0905 30.1404 91.94 29.8323C92.8574 29.4564 93.6842 28.8894 94.3653 28.169C94.7839 27.7058 95.1724 27.2162 95.5283 26.7034C96.7749 25.0255 98.2556 23.535 99.9252 22.2774C101.67 20.9631 103.618 19.9504 105.416 18.6999C106.486 17.9498 107.631 16.7048 106.327 15.5418C105.928 15.2052 105.45 14.975 104.937 14.8728C101.767 14.1864 99.0128 15.2738 95.9139 16.0649C94.5674 16.401 93.2505 16.8463 91.9764 17.3966C91.3497 17.6451 90.7622 17.9828 90.2319 18.3992C89.4901 19.1471 88.8821 20.0168 88.4345 20.9703C87.0792 23.3902 84.1708 25.5531 82.1355 27.4671C79.7566 29.7066 77.6275 31.7591 74.9114 34.2255C72.4687 36.4531 70.0807 38.5002 67.8386 40.9319C65.9828 42.9371 66.6756 44.5094 66.9198 45.0553C68.4319 48.1615 70.1245 49.2781 72.1543 51.203C75.6442 54.5362 87.7127 64.1265 91.7085 67.2965C92.5672 67.9708 93.2415 68.8511 93.669 69.8558L94.4364 71.6295C98.9937 72.4671 102.038 65.6212 98.2645 57.3799C97.6393 56.0473 96.6844 54.8963 95.4901 54.0358C90.7168 50.565 81.3772 43.4229 81.3772 43.4229Z" fill="#FFA8A7"/>
<path d="M81.3754 43.423C79.924 45.2083 77.99 46.5387 75.8037 47.2556C75.8037 47.2556 78.7122 48.0003 82.6961 44.4228L81.3754 43.423Z" fill="#F28F8F"/>
<path d="M140.508 85.7941L139.763 85.1561C139.652 85.0822 139.526 85.0354 139.393 85.0196C139.261 85.0037 139.127 85.0193 139.001 85.0649L130.922 87.2634C130.515 87.399 130.142 87.6209 129.829 87.914C129.516 88.2071 129.27 88.5643 129.108 88.9614L123.292 105.732C123.222 105.869 123.194 106.023 123.213 106.176C123.231 106.328 123.295 106.471 123.396 106.587L124.164 107.25C124.276 107.327 124.405 107.376 124.54 107.392C124.674 107.407 124.811 107.39 124.938 107.342L133.028 105.143C133.435 105.008 133.807 104.786 134.121 104.493C134.434 104.199 134.68 103.842 134.842 103.445C136.005 100.148 139.495 89.9749 140.658 86.6746C140.795 86.2653 140.726 85.9536 140.508 85.7941Z" fill="#455A64"/>
<path d="M124.049 106.378L129.865 89.6076C130.027 89.2108 130.273 88.8539 130.586 88.5616C130.9 88.2693 131.273 88.0487 131.68 87.915L139.753 85.7166C140.503 85.5134 140.915 85.9436 140.648 86.6764C139.485 89.974 135.996 100.147 134.832 103.447C134.67 103.844 134.424 104.201 134.111 104.494C133.798 104.787 133.425 105.009 133.018 105.145L124.945 107.367C124.2 107.541 123.799 107.111 124.049 106.378Z" fill="#E54C38"/>
<path d="M130.803 88.3828C130.383 88.7009 130.057 89.1271 129.861 89.6159L124.045 106.378C123.978 106.511 123.95 106.661 123.965 106.809C123.979 106.957 124.035 107.098 124.126 107.216L123.405 106.6C123.302 106.486 123.236 106.342 123.216 106.19C123.196 106.037 123.224 105.882 123.295 105.745L129.111 88.9743C129.295 88.5185 129.593 88.1179 129.977 87.8113L130.803 88.3828Z" fill="#37474F"/>
<path d="M138.284 93.4368C137.702 95.1412 135.684 96.2805 132.346 97.0716C129.007 97.8627 127.163 101.405 127.693 102.481C128.222 103.557 133.617 104.564 135.777 104.255C137.938 103.946 140.099 100.829 140.756 99.8634C141.413 98.8981 142.169 92.1626 141.477 91.2374C141.2 90.9534 140.863 90.7357 140.49 90.6007C140.118 90.4657 139.719 90.417 139.325 90.4581L138.284 93.4368Z" fill="#F28F8F"/>
</svg>
