<svg width="14" height="13" viewBox="0 0 14 13" fill="none" xmlns="http://www.w3.org/2000/svg">
<path d="M13.3541 6.60746C13.3976 7.43232 13.2681 8.25715 12.9739 9.029C12.6798 9.80085 12.2275 10.5027 11.6461 11.0894C11.0647 11.6761 10.367 12.1348 9.59791 12.4359C8.82877 12.7371 8.00515 12.8741 7.17994 12.8381C5.48782 12.8381 3.86501 12.1659 2.6685 10.9694C1.472 9.77291 0.799805 8.1501 0.799805 6.45799C0.799805 4.76587 1.472 3.14306 2.6685 1.94656C3.86501 0.750049 5.48782 0.0778583 7.17994 0.0778583C8.76843 0.0596237 10.3021 0.658186 11.4583 1.74763L9.72196 3.4174C7.45337 1.22537 3.22608 2.87144 3.22608 6.45799C3.21757 7.51611 3.62903 8.53442 4.37022 9.28963C5.11141 10.0448 6.12184 10.4753 7.17994 10.4866C8.01485 10.5452 8.84261 10.2983 9.50899 9.79194C10.1754 9.28553 10.6349 8.55413 10.802 7.73401H7.17994V5.54654H13.2538C13.3209 5.89619 13.3545 6.25144 13.3541 6.60746Z" fill="#00BF63"/>
</svg>
