<svg width="114" height="52" viewBox="0 0 114 52" fill="none" xmlns="http://www.w3.org/2000/svg">
<rect x="31" width="52" height="52" rx="10.7368" fill="#F20707" fill-opacity="0.17"/>
<rect x="40" y="8.5" width="35" height="35" rx="12" fill="#F20707"/>
<path fill-rule="evenodd" clip-rule="evenodd" d="M57.3956 31.7924V32.6396C57.3956 33.319 57.1059 33.9056 56.6025 34.2452C56.3602 34.4087 56.0899 34.4998 55.8096 34.5C55.5291 34.5002 55.2588 34.4088 55.0164 34.2452L51.7932 32.0703C51.2897 31.7306 51 31.1442 51 30.4647V19.354C51 18.3316 51.7116 17.5 52.5863 17.5H59.6851C60.5599 17.5 61.2715 18.3316 61.2715 19.354V21.6961C61.2715 22.0321 61.0381 22.3049 60.7506 22.3049C60.4631 22.3049 60.2298 22.0321 60.2298 21.6961V19.354C60.2298 19.0029 59.9854 18.7173 59.6851 18.7173H53.4647L56.6025 20.8349C57.1057 21.1745 57.3956 21.7609 57.3956 22.4402V30.575H59.6851C59.9854 30.575 60.2298 30.2895 60.2298 29.9384V27.8853C60.2298 27.5491 60.4629 27.2765 60.7506 27.2765C61.0382 27.2765 61.2715 27.5491 61.2715 27.8853V29.9384C61.2715 30.9609 60.5599 31.7924 59.6851 31.7924H57.3956ZM62.2219 25.2548L61.6483 25.9252C61.4449 26.1629 61.445 26.5483 61.6483 26.786C61.7462 26.9005 61.8781 26.9641 62.0166 26.9641C62.1552 26.9641 62.287 26.9007 62.385 26.786L63.8475 25.0765C64.0508 24.8388 64.0508 24.4537 63.8475 24.216L62.385 22.5067C62.1816 22.269 61.8518 22.2691 61.6483 22.5067C61.445 22.7441 61.4451 23.1296 61.6483 23.3672L62.2219 24.0374H58.3792C58.0915 24.0374 57.8585 24.3099 57.8585 24.6462C57.8585 24.9825 58.0915 25.2549 58.3792 25.2549H62.2219V25.2548Z" fill="white"/>
</svg>
