<svg width="16" height="20" viewBox="0 0 16 20" fill="none" xmlns="http://www.w3.org/2000/svg">
<path fill-rule="evenodd" clip-rule="evenodd" d="M7.7614 16.8146V17.8113C7.7614 18.6106 7.42711 19.3007 6.84621 19.7003C6.56672 19.8925 6.25478 19.9998 5.93137 20C5.60767 20.0002 5.29583 19.8927 5.01615 19.7003L1.29703 17.1415C0.716064 16.7418 0.381836 16.052 0.381836 15.2526V2.18117C0.381836 0.978397 1.20292 0 2.21222 0H10.4031C11.4124 0 12.2336 0.978319 12.2336 2.18117V4.93659C12.2336 5.33186 11.9643 5.6528 11.6326 5.6528C11.3008 5.6528 11.0317 5.3319 11.0317 4.93659V2.18117C11.0317 1.76816 10.7496 1.43211 10.4031 1.43211H3.22575L6.84621 3.92339C7.42691 4.323 7.7614 5.01284 7.7614 5.81194V15.3824H10.4031C10.7496 15.3824 11.0317 15.0465 11.0317 14.6334V12.218C11.0317 11.8224 11.3006 11.5018 11.6326 11.5018C11.9644 11.5018 12.2336 11.8225 12.2336 12.218V14.6334C12.2336 15.8363 11.4124 16.8146 10.4031 16.8146H7.7614ZM13.3302 9.12334L12.6683 9.91205C12.4337 10.1917 12.4337 10.6451 12.6683 10.9247C12.7813 11.0594 12.9335 11.1343 13.0933 11.1343C13.2532 11.1343 13.4052 11.0596 13.5184 10.9247L15.2059 8.9135C15.4405 8.63389 15.4405 8.18077 15.2059 7.90116L13.5184 5.89022C13.2837 5.61054 12.9032 5.61065 12.6684 5.89018C12.4338 6.16956 12.4338 6.62311 12.6684 6.90256L13.3302 7.69108H8.89635C8.56432 7.69108 8.29546 8.0117 8.29546 8.40733C8.29546 8.80295 8.56435 9.12338 8.89635 9.12338H13.3302V9.12334Z" fill="white"/>
</svg>
