<svg width="16" height="8" viewBox="0 0 16 8" fill="none" xmlns="http://www.w3.org/2000/svg">
<path d="M10.2897 5.56522C10.0138 5.56522 9.7931 5.76398 9.7931 6.01242C9.7931 6.26087 10.0138 6.45963 10.2897 6.45963C10.5655 6.45963 10.7862 6.26087 10.7862 6.01242C10.7862 5.76398 10.5655 5.56522 10.2897 5.56522ZM10.2897 5.56522C10.0138 5.56522 9.7931 5.76398 9.7931 6.01242C9.7931 6.26087 10.0138 6.45963 10.2897 6.45963C10.5655 6.45963 10.7862 6.26087 10.7862 6.01242C10.7862 5.76398 10.5655 5.56522 10.2897 5.56522ZM15.6966 1.56522C15.8621 1.56522 16 1.46584 16 1.31677V0.248447C16 0.0993789 15.8621 0 15.7241 0H5.65517V0.993789C5.65517 1.11801 5.51724 1.24224 5.37931 1.24224C5.24138 1.24224 5.10345 1.11801 5.10345 0.993789V0H0.275862C0.137931 0 0 0.0993789 0 0.248447V1.31677C0 1.46584 0.137931 1.56522 0.303448 1.56522C1.7931 1.56522 3.0069 2.65839 3.0069 4C3.0069 5.34162 1.7931 6.43478 0.303448 6.43478C0.137931 6.43478 0 6.53416 0 6.68323V7.75155C0 7.87578 0.137931 8 0.275862 8H5.10345V7.00621C5.10345 6.88199 5.24138 6.75776 5.37931 6.75776C5.51724 6.75776 5.65517 6.88199 5.65517 7.00621V8H15.7241C15.8621 8 16 7.87578 16 7.75155V6.68323C16 6.53416 15.8621 6.43478 15.6966 6.43478C14.2069 6.43478 12.9931 5.34162 12.9931 4C13.0207 2.65839 14.2069 1.56522 15.6966 1.56522ZM5.65517 5.81366C5.65517 5.93789 5.51724 6.06211 5.37931 6.06211C5.24138 6.06211 5.10345 5.93789 5.10345 5.81366V4.59627C5.10345 4.47205 5.24138 4.34783 5.37931 4.34783C5.51724 4.34783 5.65517 4.47205 5.65517 4.59627V5.81366ZM5.65517 3.40373C5.65517 3.5528 5.51724 3.65217 5.37931 3.65217C5.24138 3.65217 5.10345 3.5528 5.10345 3.40373V2.21118C5.10345 2.06211 5.24138 1.96273 5.37931 1.96273C5.51724 1.96273 5.65517 2.06211 5.65517 2.21118V3.40373ZM8.49655 1.06832C9.07586 1.06832 9.54483 1.49068 9.54483 2.01242C9.54483 2.53416 9.07586 2.95652 8.49655 2.95652C7.91724 2.93168 7.44828 2.50932 7.44828 2.01242C7.44828 1.49068 7.91724 1.06832 8.49655 1.06832ZM10.2897 6.93168C9.71034 6.93168 9.24138 6.50932 9.24138 5.98758C9.24138 5.46584 9.71034 5.04348 10.2897 5.04348C10.869 5.04348 11.3379 5.46584 11.3379 5.98758C11.3379 6.50932 10.869 6.93168 10.2897 6.93168ZM11.7793 1.73913L7.44828 6.58385C7.3931 6.65839 7.31035 6.68323 7.22759 6.68323C7.17241 6.68323 7.11724 6.65839 7.06207 6.63354C6.95172 6.55901 6.92414 6.38509 7.0069 6.28572L11.3379 1.44099C11.4483 1.34162 11.6138 1.31677 11.7241 1.3913C11.8345 1.46584 11.8621 1.63975 11.7793 1.73913ZM10.2897 5.56522C10.0138 5.56522 9.7931 5.76398 9.7931 6.01242C9.7931 6.26087 10.0138 6.45963 10.2897 6.45963C10.5655 6.45963 10.7862 6.26087 10.7862 6.01242C10.7862 5.76398 10.5655 5.56522 10.2897 5.56522ZM8.49655 2.43478C8.77241 2.43478 8.9931 2.23603 8.9931 1.98758C8.9931 1.73913 8.77241 1.54037 8.49655 1.54037C8.22069 1.54037 8 1.73913 8 1.98758C8 2.23603 8.22069 2.43478 8.49655 2.43478Z" fill="#00BF63"/>
</svg>
