<svg width="330" height="278" viewBox="0 0 330 278" fill="none" xmlns="http://www.w3.org/2000/svg">
<g clip-path="url(#clip0_294_602)">
<path d="M186.663 38.4063C190.689 40.1595 194.462 42.1022 197.882 44.1723C209.839 51.4056 219.457 61.9366 231.207 69.1916C242.303 76.0419 255.852 77.7073 268.548 78.8523C290.679 80.8485 336.836 99.9915 328.502 135.472C325.47 148.384 314.777 157.153 309.303 168.846C303.479 181.284 304.091 196.797 294.819 207.58C290.74 212.321 285.109 215.452 279.329 217.824C240.859 233.605 197.657 232.871 156.866 231.132C124.669 229.759 72.957 237.015 44.6769 219.296C30.6365 210.498 37.9376 186.45 28.2223 173.533C20.0585 162.679 8.94747 155.55 3.48936 141.964C-5.79897 118.845 7.44065 88.7599 30.622 80.5533C45.1079 75.4252 60.4544 73.0757 74.7738 67.4437C89.5676 61.6229 95.2678 52.9045 106.55 42.5855C126.946 23.9338 161.659 27.5134 186.663 38.4063Z" fill="#F3F3F3"/>
<path d="M222.292 222.351H110.622V152.266C110.622 150.941 111.672 149.868 112.967 149.868H219.947C221.242 149.868 222.292 150.941 222.292 152.266V222.351Z" fill="#78EF69"/>
<path d="M114.71 154.946H218.207V216.75H114.71V154.946Z" fill="#F1F1F1"/>
<path d="M92.8617 243.214C91.8353 244.561 93.7968 248.584 96.8729 248.584H238.428C241.502 248.584 243.438 244.561 242.261 243.214H92.8617Z" fill="#78EF69"/>
<path d="M241.867 242.477C243.044 243.822 241.503 244.914 238.429 244.914H96.8744C93.7983 244.914 92.1375 243.822 93.1639 242.477L107.656 223.462C108.683 222.115 111.369 221.024 113.657 221.024H218.971C221.257 221.024 224.068 222.115 225.245 223.462C230.784 229.802 236.327 236.137 241.867 242.477Z" fill="#ECECEC"/>
<g opacity="0.5">
<path d="M124.602 227.438H119.821C120.497 226.433 120.836 225.929 121.511 224.924H126.103L124.602 227.438ZM130.798 227.438H126.017C126.596 226.433 126.886 225.929 127.463 224.924H132.054L130.798 227.438ZM128.818 224.442H121.839L122.469 223.504H129.343L128.818 224.442ZM136.999 224.443L130.017 224.442L130.522 223.504H137.395C137.237 223.88 137.156 224.067 136.999 224.443ZM145.179 224.442H138.197L138.575 223.504H145.452L145.179 224.442ZM153.359 224.442H146.379L146.63 223.504H153.504C153.448 223.88 153.418 224.067 153.359 224.442ZM161.541 224.442H154.559L154.686 223.504H161.558L161.541 224.442ZM169.721 224.442H162.741V223.504H169.614C169.657 223.88 169.676 224.067 169.721 224.442ZM177.902 224.442H170.921L170.793 223.504H177.669C177.761 223.88 177.808 224.067 177.902 224.442ZM186.084 224.442H179.102L178.849 223.504H185.723C185.868 223.88 185.94 224.067 186.084 224.442ZM194.265 224.442H187.284C187.13 224.067 187.055 223.88 186.902 223.504H193.779L194.265 224.442ZM202.444 224.442H195.464C195.262 224.067 195.16 223.88 194.959 223.504H201.831C202.075 223.88 202.198 224.067 202.444 224.442ZM211.572 224.442H203.645L203.012 223.504H210.819C211.12 223.88 211.272 224.067 211.572 224.442ZM136.992 227.438H132.212C132.693 226.433 132.934 225.93 133.413 224.925L138.004 224.924C137.6 225.931 137.397 226.432 136.992 227.438ZM143.187 227.438H138.407C138.79 226.433 138.981 225.929 139.365 224.924L143.956 224.925L143.187 227.438ZM149.383 227.438H144.604C144.889 226.432 145.033 225.93 145.317 224.924H149.908C149.699 225.929 149.592 226.433 149.383 227.438ZM155.578 227.438H150.799C150.986 226.433 151.078 225.928 151.267 224.924H155.859C155.746 225.929 155.688 226.433 155.578 227.438ZM161.77 227.438H156.995L157.218 224.924H161.808C161.794 225.929 161.787 226.433 161.77 227.438ZM167.969 227.438H163.189L163.17 224.924H167.76C167.844 225.929 167.886 226.433 167.969 227.438ZM174.163 227.438H169.385L169.123 224.924H173.711C173.893 225.929 173.982 226.433 174.163 227.438ZM180.357 227.438H175.578C175.376 226.433 175.274 225.929 175.071 224.924H179.662C179.939 225.929 180.078 226.433 180.357 227.438ZM122.6 230.79H117.57L119.258 228.276H124.101L122.6 230.79ZM129.122 230.79H124.091C124.67 229.785 124.96 229.282 125.537 228.276H130.381C129.876 229.281 129.624 229.784 129.122 230.79ZM135.642 230.79H130.611C131.092 229.785 131.331 229.282 131.812 228.276H136.654C136.249 229.282 136.046 229.784 135.642 230.79ZM142.163 230.79H137.131C137.514 229.785 137.706 229.282 138.088 228.276H142.932C142.624 229.282 142.47 229.784 142.163 230.79ZM148.685 230.79H143.654C143.94 229.785 144.081 229.282 144.366 228.278C146.304 228.278 147.271 228.276 149.208 228.276C148.997 229.282 148.894 229.784 148.685 230.79ZM155.203 230.79H150.172L150.642 228.276H155.483C155.372 229.281 155.315 229.784 155.203 230.79ZM161.722 230.79H156.694L156.919 228.276H161.758L161.722 230.79ZM168.244 230.79H163.214L163.195 228.276H168.037C168.119 229.282 168.163 229.784 168.244 230.79ZM174.764 230.79H169.736C169.63 229.785 169.577 229.282 169.473 228.276H174.312L174.764 230.79ZM181.284 230.79H176.255C176.051 229.785 175.949 229.282 175.747 228.276H180.588L181.284 230.79ZM120.599 234.142H115.317C115.992 233.137 116.331 232.633 117.007 231.629L122.101 231.627C121.5 232.632 121.199 233.136 120.599 234.142ZM127.445 234.142H122.165L123.609 231.629H128.704C128.2 232.632 127.948 233.136 127.445 234.142ZM134.292 234.142H129.009L130.21 231.629H135.304L134.292 234.142ZM141.137 234.142H135.854L136.811 231.629H141.906L141.137 234.142ZM147.983 234.142H142.703C142.987 233.137 143.132 232.633 143.415 231.629H148.508C148.3 232.632 148.194 233.136 147.983 234.142ZM154.827 234.142H149.547C149.733 233.137 149.829 232.633 150.016 231.629H155.11L154.827 234.142ZM161.672 234.142H156.394L156.617 231.629H161.708C161.695 232.632 161.687 233.136 161.672 234.142ZM168.522 234.142H163.24C163.234 233.137 163.229 232.633 163.221 231.629H168.314C168.398 232.632 168.438 233.136 168.522 234.142ZM175.367 234.142H170.088C169.982 233.137 169.929 232.633 169.824 231.629H174.915C175.095 232.632 175.187 233.136 175.367 234.142ZM182.21 234.142H176.929C176.727 233.137 176.626 232.633 176.423 231.629H181.516L182.21 234.142ZM118.598 237.492H113.064C113.74 236.487 114.08 235.984 114.755 234.98H120.098C119.599 235.818 119.098 236.655 118.598 237.492ZM125.77 237.492H120.238L121.684 234.98H127.029C126.525 235.984 126.272 236.487 125.77 237.492ZM132.94 237.492H127.408C127.889 236.487 128.129 235.984 128.611 234.98H133.953C133.549 235.984 133.347 236.487 132.94 237.492ZM140.088 237.572H134.546C134.944 236.536 135.14 236.017 135.534 234.98H140.881C140.564 236.016 140.406 236.536 140.088 237.572ZM183.139 237.492H141.751C142.034 236.487 142.176 235.984 142.462 234.98H182.444L183.139 237.492ZM152.546 243.014H183.943L181.299 238.733H155.045L152.546 243.014ZM185.963 227.438H181.183C180.89 226.433 180.746 225.929 180.455 224.924H185.046C185.413 225.928 185.594 226.433 185.963 227.438ZM187.184 230.79H182.152C181.862 229.785 181.717 229.282 181.425 228.276H186.27C186.634 229.282 186.818 229.784 187.184 230.79ZM188.405 234.142H183.123C182.832 233.137 182.688 232.633 182.397 231.629H187.49C187.856 232.632 188.038 233.136 188.405 234.142ZM189.627 237.492H184.094L183.366 234.98H188.71L189.627 237.492ZM191.566 227.438H186.786C186.406 226.433 186.216 225.929 185.838 224.924H190.429C190.883 225.929 191.111 226.433 191.566 227.438ZM193.083 230.79H188.051C187.672 229.785 187.481 229.282 187.103 228.276H191.945C192.399 229.281 192.628 229.784 193.083 230.79ZM194.597 234.142H189.315L188.366 231.629H193.46C193.916 232.632 194.142 233.136 194.597 234.142ZM196.113 237.492H190.579C190.201 236.487 190.01 235.984 189.633 234.98H194.976C195.431 235.984 195.657 236.487 196.113 237.492ZM197.169 227.438H192.39L191.22 224.924H195.813C196.355 225.929 196.628 226.433 197.169 227.438ZM198.979 230.79H193.948L192.779 228.276H197.622C198.164 229.282 198.437 229.784 198.979 230.79ZM200.79 234.142H195.508C195.04 233.137 194.807 232.633 194.338 231.629H199.433L200.79 234.142ZM202.599 237.492H197.066C196.599 236.487 196.366 235.984 195.897 234.98H201.242L202.599 237.492ZM202.772 227.438H197.993L196.604 224.924H201.194C201.827 225.929 202.141 226.433 202.772 227.438ZM204.877 230.79H199.847L198.457 228.276H203.299C203.93 229.282 204.247 229.784 204.877 230.79ZM206.981 234.142H201.701C201.145 233.137 200.868 232.633 200.311 231.629H205.404C206.036 232.632 206.351 233.136 206.981 234.142ZM209.086 237.492H203.553C203.091 236.654 202.627 235.817 202.163 234.98H207.509C208.139 235.984 208.454 236.487 209.086 237.492ZM208.378 227.438H203.597C202.952 226.433 202.629 225.929 201.985 224.924H206.577C207.297 225.929 207.657 226.433 208.378 227.438ZM210.775 230.79H205.744C205.099 229.785 204.777 229.282 204.134 228.276H208.976C209.696 229.282 210.056 229.784 210.775 230.79ZM213.175 234.142H207.891C207.247 233.137 206.926 232.633 206.281 231.629H211.376C212.097 232.632 212.455 233.136 213.175 234.142ZM215.572 237.492H210.038L208.428 234.98H213.774L215.572 237.492ZM213.979 227.438H209.201C208.468 226.433 208.103 225.929 207.368 224.924H211.961C212.768 225.929 213.171 226.433 213.979 227.438ZM216.672 230.79H211.641C210.911 229.785 210.543 229.282 209.812 228.276H214.653L216.672 230.79ZM219.366 234.142H214.084C213.351 233.137 212.986 232.633 212.253 231.629H217.346C218.154 232.632 218.558 233.136 219.366 234.142ZM222.059 237.492H216.524L214.695 234.98H220.039C220.847 235.984 221.25 236.487 222.059 237.492Z" fill="white"/>
</g>
<path d="M192.959 216.734H143.683C144.035 215.298 144.357 214.152 144.64 213.354C144.787 212.944 144.988 212.557 145.24 212.202C146.113 210.961 147.608 209.905 149.534 209.012C151.833 207.945 154.743 207.107 157.933 206.442C161.322 205.744 165.02 205.242 168.62 204.878C168.863 204.856 169.104 204.83 169.347 204.809C173.351 204.434 177.198 204.228 180.302 204.129C184.587 203.98 187.475 204.011 187.475 204.011C187.475 204.011 187.707 204.381 188.113 205.121C189.064 206.875 190.965 210.719 192.959 216.734Z" fill="black"/>
<path d="M155.212 136.043C155.118 136.677 154.954 137.264 154.721 137.83L154.86 136.232C154.978 136.16 155.096 136.114 155.212 136.043Z" fill="#FFE3CA"/>
<path d="M181.313 133.671V133.692C181.265 133.671 181.219 133.646 181.196 133.646C181.244 133.647 181.265 133.671 181.313 133.671Z" fill="#EEBEA7"/>
<path d="M231.886 167.392C231.886 167.392 234.93 164.561 234.326 162.436C233.815 160.634 234.587 158.614 234.779 157.777C235.04 156.666 235.144 153.063 235.969 153.259C237.366 153.6 237.044 159.352 237.216 160.578C237.388 161.803 241.089 157.701 242.351 157.486C243.615 157.267 250.04 163.801 247.178 166.325C244.315 168.844 240.368 169.866 239.951 170.41C239.534 170.954 237.573 172.449 237.573 172.449L231.886 167.392Z" fill="#F1B99E"/>
<path d="M241.543 157.913C241.543 157.913 250.821 150.781 251.835 150.824C252.853 150.865 253.205 151.396 252.364 152.097C251.526 152.8 243.603 159.253 243.603 159.253C243.603 159.253 255.994 152.66 256.836 152.513C257.324 152.426 257.699 153.369 257.282 153.788C256.867 154.203 245.336 161.484 245.336 161.484C245.336 161.484 256.916 155.348 257.654 155.435C258.302 155.514 258.763 156.585 257.935 157.098C257.107 157.611 246.678 163.918 246.678 163.918C246.678 163.918 255.39 159.987 255.97 160.426C256.322 160.699 256.824 161.295 254.548 162.238C252.268 163.183 247.308 166.197 247.308 166.197L241.543 157.913Z" fill="#F1B99E"/>
<path d="M175.298 127.515V128.149C175.249 128.033 175.203 127.938 175.181 127.82C175.133 127.797 175.133 127.751 175.133 127.725C175.181 127.657 175.227 127.587 175.298 127.515Z" fill="#FFBE55"/>
<path d="M168.321 131.369C168.228 131.391 168.109 131.391 168.017 131.391V131.345C168.109 131.369 168.228 131.369 168.321 131.369ZM175.297 127.515V127.704C175.258 127.742 175.218 127.781 175.18 127.82C174.923 128.102 174.641 128.36 174.36 128.619C174.243 128.714 174.15 128.806 174.034 128.901C174.173 128.761 174.337 128.596 174.479 128.455C174.69 128.244 174.899 127.985 175.132 127.725C175.18 127.657 175.226 127.587 175.297 127.515Z" fill="#EEBEA7"/>
<path d="M180.658 119.411C179.371 122.278 177.802 124.862 176.022 126.906C175.789 127.187 175.53 127.469 175.297 127.704V127.516C175.226 127.587 175.18 127.657 175.132 127.726C174.899 127.986 174.69 128.245 174.479 128.456C174.337 128.597 174.173 128.762 174.034 128.902C173.985 128.926 173.94 128.974 173.893 129.02C173.822 129.09 173.752 129.161 173.681 129.184C173.496 129.346 173.301 129.495 173.096 129.63C172.839 129.818 172.605 129.982 172.349 130.123C172.288 130.165 172.225 130.204 172.161 130.241C171.925 130.381 171.693 130.499 171.484 130.592C171.274 130.706 171.053 130.8 170.826 130.875L170.804 130.898C170.617 130.946 170.475 131.016 170.311 131.063C170.263 131.087 170.219 131.11 170.17 131.11C170.008 131.157 169.844 131.203 169.679 131.228C169.633 131.228 169.61 131.25 169.563 131.25H169.491C169.375 131.275 169.236 131.299 169.119 131.322C169.001 131.345 168.861 131.345 168.744 131.345C168.628 131.369 168.508 131.369 168.415 131.369H168.392C168.37 131.391 168.346 131.391 168.322 131.369C168.229 131.369 168.11 131.369 168.018 131.345V131.391C167.878 131.391 167.737 131.369 167.574 131.345C167.409 131.322 167.222 131.299 167.057 131.275C166.964 131.25 166.872 131.25 166.753 131.228C166.66 131.203 166.566 131.203 166.472 131.157C165.981 131.039 165.515 130.851 165.022 130.592C164.868 130.516 164.719 130.431 164.577 130.336C163.805 129.889 163.055 129.255 162.281 128.455C162.003 128.175 161.744 127.845 161.464 127.515C160.27 126.011 159.078 124.016 157.976 121.479C157.527 120.465 157.105 119.438 156.711 118.401C157.296 119.552 156.276 108.815 156.511 109.192C153.329 103.084 156.501 108.111 157.627 105.082C164.671 108.065 178.364 113.21 178.364 107.994C178.364 107.994 178.668 111.166 179.02 114.454C179.301 117.156 179.605 119.953 179.747 121.009C179.746 121.009 180.118 120.421 180.658 119.411Z" fill="#F4C7B1"/>
<path d="M168.321 131.369C168.228 131.391 168.109 131.391 168.017 131.391V131.345C168.109 131.369 168.228 131.369 168.321 131.369ZM175.297 127.515V127.704C175.258 127.742 175.218 127.781 175.18 127.82C174.923 128.102 174.641 128.36 174.36 128.619C174.243 128.714 174.15 128.806 174.034 128.901C174.173 128.761 174.337 128.596 174.479 128.455C174.69 128.244 174.899 127.985 175.132 127.725C175.18 127.657 175.226 127.587 175.297 127.515Z" fill="#EEBEA7"/>
<path d="M156.71 118.401C154.836 114.689 151.817 107.596 152.356 100.876V100.852C151.515 95.2854 158.42 85.2543 168.954 85.7707C179.487 85.2543 186.394 95.2854 185.55 100.852V100.876C185.876 104.94 184.894 109.121 183.677 112.623C184.45 112.597 185.197 112.692 185.947 112.951C190.138 114.337 192.104 119.811 190.325 125.144C188.57 130.499 183.723 133.693 179.534 132.308C177.59 131.673 176.115 130.147 175.297 128.149V127.704C175.53 127.469 175.79 127.187 176.021 126.905C177.801 124.862 179.371 122.277 180.658 119.411C180.118 120.421 179.79 121.662 179.79 121.662C179.649 120.607 179.299 117.155 179.019 114.454C178.665 111.165 178.362 107.993 178.362 107.993C178.362 113.21 164.67 108.064 157.626 105.081L156.71 118.401Z" fill="#E2E2E2"/>
<path d="M175.297 127.515V128.149C175.297 128.596 175.275 129.136 175.297 129.747C174.618 130.592 173.939 131.298 173.237 131.837C173.001 132.025 172.768 132.19 172.535 132.354C172.358 132.488 172.17 132.606 171.972 132.706H171.95C170.874 133.316 169.796 133.622 168.743 133.646H168.203C168.134 133.646 168.065 133.646 168.017 133.622V131.343C168.109 131.368 168.228 131.368 168.321 131.368C168.345 131.389 168.369 131.389 168.391 131.368H168.413C168.532 131.389 168.627 131.389 168.743 131.389C168.884 131.389 169.047 131.368 169.187 131.343C169.35 131.321 169.539 131.297 169.704 131.274C169.796 131.249 169.889 131.249 170.008 131.226C170.102 131.201 170.195 131.201 170.289 131.155C170.78 131.038 171.247 130.849 171.737 130.59C171.88 130.522 172.045 130.428 172.183 130.334C172.697 130.052 173.189 129.675 173.681 129.182C173.752 129.159 173.822 129.088 173.893 129.018C173.939 128.971 173.985 128.924 174.034 128.899C174.173 128.76 174.337 128.594 174.479 128.454C174.69 128.242 174.899 127.984 175.132 127.724C175.18 127.657 175.226 127.587 175.297 127.515Z" fill="#A5735B"/>
<path d="M168.019 147.647V211.24L178.951 210.771L187.941 210.372L187.026 199.26L186.02 186.831C184.459 187.496 182.906 188.178 181.36 188.877C181.782 183.967 181.969 179.457 181.689 175.767C180.588 162.048 178.88 150.866 177.545 143.56V143.537C177.685 142.127 177.497 140.553 177.171 139.097C177.123 138.797 177.06 138.499 176.984 138.204C176.89 137.875 176.821 137.571 176.727 137.265L176.515 136.561C176.469 136.396 176.398 136.232 176.353 136.09C176.181 135.515 175.977 134.951 175.742 134.399H175.697C175.884 135.245 176.54 138.064 177.358 142.503V142.528C176.822 144.876 175.111 146.192 173.004 146.921C172.981 146.921 172.936 146.943 172.909 146.943C171.461 147.438 169.821 147.625 168.254 147.648C168.184 147.647 168.09 147.672 168.019 147.647Z" fill="#F3F3F3"/>
<path d="M192.994 167.43C193.557 168.297 194.351 169.895 195.148 171.704C195.032 173.701 194.891 174.898 194.891 174.898C194.891 174.898 194.026 177.177 192.878 180.749C192.572 181.64 189.626 197.427 189.298 198.462C189.227 198.649 189.179 198.861 189.11 199.049C188.034 199.588 188.274 198.647 186.4 199.401C185.841 199.635 185.23 199.87 184.598 200.151C184.504 200.2 184.388 200.246 184.222 200.316C184.035 200.387 183.848 200.457 183.661 200.551C182.416 201.089 181.176 201.637 179.94 202.196C180.36 197.286 181.97 179.457 181.688 175.768C180.589 162.048 178.881 150.867 177.546 143.561V143.537C177.474 143.185 177.43 142.857 177.359 142.528V142.503C176.54 138.064 175.884 135.246 175.696 134.399H181.76V134.447C183.444 134.329 191.396 133.206 196.828 138.397C193.831 137.105 189.859 138.274 188.527 139.098C187.987 139.408 187.491 139.787 187.049 140.225C186.37 140.861 185.815 141.618 185.412 142.457C181.526 150.515 191.355 164.938 192.994 167.43Z" fill="black"/>
<path d="M193.436 216.734H178.37C178.527 214.807 178.727 212.81 178.949 210.772C179.175 208.586 179.444 206.363 179.701 204.129C179.786 203.358 179.875 202.591 179.959 201.822C179.959 201.822 179.964 201.822 179.97 201.816C181.8 201.145 184.206 198.024 186.843 196.979C186.906 196.957 186.964 196.931 187.027 196.909C187.779 196.651 188.526 198.742 189.295 198.462C189.789 203.711 191.552 210.561 193.436 216.734Z" fill="black"/>
<path d="M168.019 133.624V147.648C168.09 147.672 168.184 147.648 168.255 147.648C169.822 147.625 171.461 147.438 172.91 146.943C172.937 146.943 172.982 146.921 173.004 146.921C175.111 146.192 176.822 144.876 177.358 142.527V142.503C176.54 138.064 175.886 135.246 175.697 134.399H175.369V133.953C175.369 133.672 175.345 133.413 175.345 133.154C175.322 132.308 175.322 131.51 175.299 130.734V129.748C174.621 130.593 173.941 131.299 173.24 131.839C173.023 132.033 172.788 132.206 172.539 132.356C172.362 132.489 172.173 132.606 171.976 132.708H171.954C170.805 133.366 169.682 133.647 168.559 133.647C168.371 133.647 168.184 133.647 168.019 133.624Z" fill="#F4C7B1"/>
<path d="M235.176 164.431L235.718 165.398L235.734 165.416L239.964 172.92L240.617 174.075C240.617 174.075 239.336 174.593 237.319 175.45C235.483 176.228 233.046 177.251 230.404 178.399C229.672 178.727 228.936 179.048 228.198 179.363C223.061 181.649 217.653 184.091 214.945 185.653C209.039 189.039 204.123 190.221 201.129 190.159C198.15 190.08 191.617 172.384 190.596 168.139C189.562 163.912 185.739 156.124 183.001 148.707C181.842 145.556 182.177 142.776 183.169 140.568C184.489 137.576 186.978 135.641 188.514 135.332C189.12 135.193 189.741 135.132 190.362 135.151C191.319 135.155 192.223 135.339 193.072 135.669C201.385 138.919 203.959 156.203 204.446 159.147C204.625 160.168 205.124 161.881 205.768 163.751C207.194 168.126 209.27 173.405 209.27 173.405C213.444 171.6 215.167 171.084 216.758 170.627C217.912 170.288 219.001 170.012 220.885 169.285C221.452 169.074 222.06 168.828 222.712 168.604C224.306 168.025 225.907 167.464 227.514 166.922C231.488 165.59 235.176 164.431 235.176 164.431Z" fill="black"/>
<path d="M168.743 131.345V133.624C168.674 133.647 168.628 133.647 168.556 133.647H168.016C166.962 133.624 165.884 133.318 164.808 132.708H164.785C164.589 132.606 164.4 132.488 164.223 132.356C163.984 132.19 163.751 132.018 163.522 131.839C162.82 131.299 162.14 130.593 161.462 129.748C161.484 128.832 161.462 128.056 161.462 127.516C161.743 127.846 162.001 128.176 162.28 128.456C163.053 129.256 163.803 129.891 164.575 130.337C164.716 130.431 164.88 130.525 165.02 130.593C165.513 130.852 165.98 131.04 166.471 131.158C166.564 131.204 166.658 131.204 166.751 131.229C166.871 131.252 166.962 131.252 167.056 131.277C167.221 131.3 167.408 131.324 167.573 131.346C167.735 131.37 167.877 131.392 168.016 131.392C168.108 131.392 168.227 131.392 168.321 131.37C168.345 131.392 168.368 131.392 168.391 131.37H168.413C168.507 131.369 168.627 131.369 168.743 131.345Z" fill="#A5735B"/>
<path d="M168.744 147.647V211.24L157.811 210.771L148.822 210.372L149.736 199.26L150.742 186.831C152.193 187.444 153.832 188.171 155.402 188.877C154.979 183.967 154.794 179.457 155.074 175.767C156.173 162.048 157.881 150.866 159.215 143.56V143.537C159.077 142.127 159.265 140.553 159.591 139.097C159.636 138.789 159.708 138.487 159.779 138.204C159.873 137.875 159.94 137.571 160.035 137.265L160.247 136.561C160.293 136.396 160.364 136.232 160.41 136.09C160.583 135.516 160.786 134.951 161.02 134.399H161.065C160.878 135.245 160.221 138.064 159.404 142.503V142.528C159.94 144.876 161.651 146.192 163.76 146.921C163.782 146.921 163.828 146.943 163.853 146.943C165.302 147.438 166.942 147.625 168.508 147.648C168.578 147.647 168.674 147.672 168.744 147.647Z" fill="#F3F3F3"/>
<path d="M161.064 134.398C160.877 135.244 160.22 138.063 159.402 142.502V142.527C159.333 142.855 159.285 143.184 159.215 143.536V143.56C157.88 150.866 156.173 162.047 155.073 175.767C154.793 179.456 154.978 183.966 155.401 188.877C153.855 188.177 152.302 187.495 150.741 186.831C150.11 186.549 149.499 186.315 148.94 186.082C147.065 185.329 146.082 184.788 145.006 184.247C144.937 184.06 144.889 183.85 144.818 183.661C144.491 182.627 144.187 181.64 143.883 180.749C142.735 177.178 141.87 174.898 141.87 174.898C141.87 174.898 141.73 173.702 141.613 171.705C142.409 169.895 143.205 168.297 143.768 167.43C145.405 164.938 155.235 150.515 151.349 142.457C150.946 141.618 150.391 140.861 149.712 140.225C149.27 139.787 148.774 139.409 148.235 139.098C146.904 138.275 141.654 139.206 138.658 140.499C144.089 135.305 153.318 134.329 155.003 134.447V134.399H161.064V134.398ZM158.389 216.733H143.323C143.775 215.25 144.222 213.729 144.639 212.202C145.98 207.365 147.09 202.453 147.464 198.461C148.232 198.741 148.986 199 149.738 199.258C152.453 200.219 154.932 201.139 156.8 201.821C156.968 203.362 157.152 204.909 157.332 206.442C157.495 207.898 157.662 209.345 157.81 210.771C158.032 212.809 158.231 214.807 158.389 216.733Z" fill="black"/>
<path d="M168.743 133.624V147.648C168.674 147.672 168.578 147.648 168.507 147.648C166.941 147.625 165.301 147.438 163.852 146.943C163.827 146.943 163.781 146.921 163.758 146.921C161.65 146.192 159.939 144.876 159.402 142.527V142.503C160.22 138.064 160.878 135.246 161.064 134.399H161.392V133.953C161.392 133.672 161.416 133.413 161.416 133.154C161.439 132.308 161.439 131.51 161.462 130.734V129.748C162.14 130.593 162.82 131.299 163.522 131.839C163.758 132.051 163.991 132.214 164.223 132.356C164.412 132.496 164.599 132.612 164.785 132.708H164.808C165.955 133.366 167.083 133.647 168.203 133.647C168.391 133.647 168.578 133.647 168.743 133.624Z" fill="#F4C7B1"/>
<path d="M175.203 195.806C175.039 196.84 174.361 197.615 174.361 197.615C174.361 197.615 174.758 198.977 173.846 199.869C173.846 199.869 174.15 201.161 172.956 202.007C172.956 202.007 173.237 203.276 172.3 203.817C172.3 203.817 170.263 204.076 169.516 203.935C166.49 203.244 163.47 202.523 160.457 201.773L162.446 193.386V193.363C163.313 192.776 164.131 192.234 164.389 192.07C165.022 191.693 167.176 191.812 169.397 192.516C171.553 193.198 173.964 194.161 174.642 194.537C174.994 194.725 175.342 194.797 175.203 195.806Z" fill="#EEA886"/>
<path d="M162.704 192.282L162.445 193.363V193.386L160.456 201.773L160.152 203.066C160.152 203.066 158.863 202.573 156.801 201.82C154.93 201.139 152.45 200.223 149.735 199.261C148.985 199.001 148.235 198.742 147.465 198.462C142.151 196.628 136.531 194.726 133.488 194.021C126.863 192.47 122.461 189.98 120.308 187.89C118.179 185.8 125.388 168.369 127.52 164.563C129.627 160.757 132.106 152.441 135.127 145.136C136.414 142.034 138.543 140.226 140.768 139.287C143.766 137.994 146.903 138.275 148.234 139.098C148.773 139.408 149.269 139.787 149.71 140.225C150.389 140.861 150.944 141.617 151.347 142.457C155.234 150.515 145.403 164.938 143.766 167.43C143.203 168.297 142.407 169.895 141.612 171.704C139.692 175.884 137.632 181.17 137.632 181.17C141.915 182.699 143.53 183.496 145.004 184.247C146.08 184.788 147.063 185.328 148.939 186.081C149.498 186.315 150.108 186.549 150.74 186.831C152.191 187.443 153.83 188.17 155.399 188.876C157.843 189.992 160.278 191.127 162.704 192.282Z" fill="black"/>
<path d="M184.761 112.748L184.559 103.543C184.53 102.007 184.559 100.485 184.341 99.0612C184.125 97.6163 183.734 96.2019 183.129 94.8925C181.939 92.2677 179.943 90.0522 177.436 88.6471C174.932 87.2201 172.019 86.5716 169.114 86.5835C166.209 86.5716 163.29 87.2201 160.796 88.6471C158.284 90.0522 156.288 92.2677 155.094 94.8925C154.493 96.2013 154.103 97.6163 153.886 99.0612C153.668 100.501 153.69 101.987 153.67 103.543L153.464 112.748H152.315L152.118 103.543C152.1 102.033 152.031 100.444 152.233 98.8386C152.433 97.2485 152.822 95.6624 153.465 94.1707C154.71 91.1616 157.036 88.6107 159.85 86.9975C162.668 85.3593 165.922 84.621 169.114 84.6045C172.308 84.621 175.559 85.3593 178.376 86.9975C181.192 88.6107 183.515 91.1616 184.758 94.1707C185.4 95.6624 185.794 97.2485 185.998 98.8386C186.198 100.456 186.131 102.018 186.114 103.543L185.914 112.748H184.761Z" fill="#4BDD67"/>
<path d="M153.233 117.746C151.169 117.746 150.648 116.261 150.648 114.426V108.475C150.648 106.642 151.169 105.154 153.233 105.154H153.727V117.746H153.233Z" fill="#78EF69"/>
<path d="M153.727 105.155H154.793V117.747H153.727V105.155Z" fill="#00BF63"/>
<path d="M185.307 117.746C187.373 117.746 187.898 116.261 187.898 114.426V108.475C187.898 106.642 187.373 105.154 185.307 105.154H184.813V117.746H185.307Z" fill="#78EF69"/>
<path d="M183.746 105.155H184.813V117.747H183.746V105.155Z" fill="#00BF63"/>
<path d="M169.879 129.221V128.066C174.64 128.066 183.708 121.276 183.708 117.746H184.856C184.856 122.214 174.826 129.221 169.879 129.221Z" fill="#78EF69"/>
<path d="M170.643 130.256H169.11C167.838 130.256 166.809 129.536 166.809 128.643C166.809 127.753 167.838 127.034 169.11 127.034H170.643C171.913 127.034 172.943 127.753 172.943 128.643C172.942 129.536 171.913 130.256 170.643 130.256Z" fill="#00BF63"/>
<path d="M128.821 66.9882V76.1094L128.767 88.4913L128.694 103.447L128.648 114.479L117.695 103.404L114.353 103.392L70.0351 103.184C62.5477 101.718 56.8975 95.1058 56.8975 87.1772V66.9882C56.8975 58.6132 63.2077 51.6962 71.3129 50.7856L115.736 50.991C123.194 52.4682 128.821 59.0682 128.821 66.9882Z" fill="#00BF63"/>
<path opacity="0.8" d="M115.006 67.4258C115.006 67.7403 114.944 68.0518 114.825 68.3425C114.705 68.6332 114.529 68.8973 114.308 69.1199C114.087 69.3425 113.824 69.5191 113.534 69.6397C113.245 69.7603 112.934 69.8225 112.621 69.8228H71.7691C71.4555 69.8228 71.1449 69.7608 70.8552 69.6403C70.5655 69.5198 70.3023 69.3432 70.0806 69.1206C69.8589 68.898 69.6831 68.6338 69.5632 68.343C69.4433 68.0522 69.3817 67.7405 69.3818 67.4258C69.3818 67.1112 69.4436 66.7997 69.5636 66.5091C69.6835 66.2185 69.8594 65.9544 70.0811 65.732C70.3028 65.5096 70.5659 65.3332 70.8556 65.2129C71.1452 65.0926 71.4556 65.0307 71.7691 65.0308H112.621C113.937 65.0308 115.006 66.1025 115.006 67.4258ZM115.006 76.3456C115.005 76.9805 114.754 77.5895 114.307 78.0389C113.86 78.4884 113.254 78.7417 112.621 78.7432H71.7691C71.136 78.742 70.5292 78.4889 70.0817 78.0395C69.6342 77.59 69.3825 76.9809 69.3818 76.3456C69.3817 76.0309 69.4434 75.7192 69.5633 75.4285C69.6833 75.1377 69.8591 74.8735 70.0808 74.6509C70.3024 74.4283 70.5656 74.2517 70.8553 74.1312C71.145 74.0107 71.4555 73.9486 71.7691 73.9486H112.621C112.934 73.9488 113.245 74.011 113.534 74.1316C113.824 74.2522 114.087 74.4289 114.308 74.6514C114.529 74.874 114.705 75.1382 114.825 75.4289C114.944 75.7195 115.006 76.031 115.006 76.3456ZM102.525 85.2647C102.525 86.5787 101.453 87.6551 100.134 87.6551H71.7664C71.1351 87.6544 70.53 87.4022 70.0838 86.954C69.6377 86.5058 69.3871 85.8982 69.3871 85.2647C69.3871 84.6024 69.647 84.0067 70.0813 83.5716C70.3016 83.3477 70.564 83.1698 70.8532 83.0483C71.1425 82.9268 71.4529 82.8641 71.7664 82.8637H100.134C100.768 82.8644 101.376 83.1176 101.825 83.5678C102.273 84.0179 102.525 84.6282 102.525 85.2647Z" fill="#96FB6B"/>
</g>
<defs>
<clipPath id="clip0_294_602">
<rect width="329" height="278" fill="white" transform="translate(0.496094)"/>
</clipPath>
</defs>
</svg>
