<svg width="61" height="48" viewBox="0 0 61 48" fill="none" xmlns="http://www.w3.org/2000/svg">
<g clip-path="url(#clip0_39_231)">
<path fill-rule="evenodd" clip-rule="evenodd" d="M26.7687 32.4977C26.1286 32.1375 25.1587 32.0983 24.6043 32.4103L21.9645 33.8958C21.41 34.2078 21.4798 34.7536 22.1198 35.1137L31.7097 40.5101C32.3503 40.8706 33.3197 40.9096 33.8741 40.5976L36.514 39.1121C37.0684 38.8001 36.9992 38.2546 36.3585 37.8941L26.7687 32.4977Z" fill="#E1E3EE"/>
<path fill-rule="evenodd" clip-rule="evenodd" d="M23.5966 5.26485C23.8607 5.11507 24.2055 5.1284 24.5826 5.34056L33.9678 10.6218C34.7978 11.0888 35.4717 12.3438 35.4717 13.4225V37.9584C35.4717 38.4887 35.3088 38.8783 35.0446 39.0819L35.0475 39.0896L33.3708 40.0331L32.589 37.9609L24.8757 33.6205C24.0457 33.1534 23.3718 31.8984 23.3718 30.8197L23.0787 10.2218L21.9199 6.20835L23.5966 5.26485Z" fill="#5FB18A"/>
<mask id="mask0_39_231" style="mask-type:luminance" maskUnits="userSpaceOnUse" x="21" y="5" width="15" height="36">
<path d="M23.5966 5.26485C23.8607 5.11507 24.2055 5.1284 24.5826 5.34056L33.9678 10.6218C34.7978 11.0888 35.4717 12.3438 35.4717 13.4225V37.9584C35.4717 38.4887 35.3088 38.8783 35.0446 39.0819L35.0475 39.0896L33.3708 40.0331L32.589 37.9609L24.8757 33.6205C24.0457 33.1534 23.3718 31.8984 23.3718 30.8197L23.0787 10.2218L21.9199 6.20835L23.5966 5.26485Z" fill="white"/>
</mask>
<g mask="url(#mask0_39_231)">
<path d="M36.0366 12.8574L33.1167 14.5004V40.2643L36.0366 38.6213V12.8574Z" fill="#00BF63"/>
</g>
<path fill-rule="evenodd" clip-rule="evenodd" d="M39.4283 17.537C39.9075 16.7281 39.623 15.6922 38.7927 15.225L29.4077 9.94388C28.5777 9.47681 27.5147 9.75441 27.0355 10.5634L16.1349 28.9654C15.6557 29.7744 15.9405 30.8104 16.7705 31.2775L26.1555 36.5586C26.9858 37.0258 28.0484 36.748 28.5277 35.939L39.4283 17.537Z" fill="#282828"/>
<path fill-rule="evenodd" clip-rule="evenodd" d="M33.1162 14.3465C33.1162 13.3823 32.5163 12.2672 31.7767 11.8576L23.4176 7.22749C22.6784 6.818 22.0781 7.26836 22.0781 8.23255V31.9482C22.0781 32.9123 22.6784 34.0276 23.4176 34.4371L31.7767 39.0672C32.5163 39.4768 33.1162 39.0263 33.1162 38.0621V14.3465Z" fill="#E1E3EE"/>
<mask id="mask1_39_231" style="mask-type:luminance" maskUnits="userSpaceOnUse" x="22" y="7" width="12" height="33">
<path d="M33.1162 14.2133C33.1162 13.2441 32.5163 12.1326 31.7767 11.7325L23.4176 7.21022C22.6784 6.81026 22.0781 7.27246 22.0781 8.24168V32.0814C22.0781 33.0506 22.6784 34.1622 23.4176 34.5622L31.7767 39.0845C32.5163 39.4846 33.1162 39.0222 33.1162 38.053V14.2133Z" fill="white"/>
</mask>
<g mask="url(#mask1_39_231)">
<path d="M33.1159 12.0068L22.0776 5.91455V12.5262L33.1159 18.6185V12.0068Z" fill="#F2F3F7"/>
</g>
<path fill-rule="evenodd" clip-rule="evenodd" d="M32.5091 20.1621C32.5091 19.9581 32.3817 19.7209 32.2247 19.6326L23.2316 14.5719C23.0746 14.4836 22.9473 14.5775 22.9473 14.7814V16.9077C22.9473 17.1116 23.0746 17.3488 23.2316 17.4372L32.2247 22.4978C32.3817 22.5861 32.5091 22.4922 32.5091 22.2883V20.1621Z" fill="#F2F3F7"/>
<path fill-rule="evenodd" clip-rule="evenodd" d="M31.8196 20.8369C31.8196 20.3845 31.537 19.8582 31.1888 19.6623L24.2675 15.7675C23.9193 15.5716 23.6367 15.7798 23.6367 16.2322C23.6367 16.6846 23.9193 17.2109 24.2675 17.4068L31.1888 21.3016C31.537 21.4975 31.8196 21.2892 31.8196 20.8369Z" fill="#E1E3EE"/>
<path fill-rule="evenodd" clip-rule="evenodd" d="M27.7281 18.5346C27.7281 18.1777 27.5051 17.7624 27.2304 17.6078L24.32 15.9701C24.0453 15.8155 23.8223 15.9798 23.8223 16.3368C23.8223 16.6937 24.0453 17.109 24.32 17.2635L27.2304 18.9013C27.5051 19.0559 27.7281 18.8916 27.7281 18.5346Z" fill="#5FB18A"/>
<path fill-rule="evenodd" clip-rule="evenodd" d="M32.5091 35.8855C32.5091 35.6816 32.3817 35.4443 32.2247 35.356L23.2316 30.2954C23.0746 30.2071 22.9473 30.301 22.9473 30.5049V32.6311C22.9473 32.835 23.0746 33.0723 23.2316 33.1606L32.2247 38.2212C32.3817 38.3095 32.5091 38.2157 32.5091 38.0118V35.8855Z" fill="#F2F3F7"/>
<path d="M19.2363 30.3241C19.6507 30.5573 20.1547 30.4628 20.3619 30.113C20.5691 29.7632 20.4011 29.2906 19.9867 29.0574C19.5723 28.8242 19.0684 28.9187 18.8612 29.2685C18.654 29.6183 18.8219 30.0909 19.2363 30.3241Z" fill="#00BF63"/>
<path d="M21.4482 31.5688C21.8627 31.802 22.3666 31.7075 22.5738 31.3577C22.781 31.0079 22.613 30.5353 22.1986 30.3021C21.7842 30.0689 21.2803 30.1634 21.0731 30.5132C20.8659 30.863 21.0338 31.3356 21.4482 31.5688Z" fill="#00BF63"/>
<path d="M23.6602 32.8136C24.0746 33.0468 24.5785 32.9523 24.7857 32.6025C24.9929 32.2527 24.8249 31.7801 24.4105 31.5469C23.9961 31.3137 23.4922 31.4083 23.285 31.758C23.0778 32.1078 23.2458 32.5804 23.6602 32.8136Z" fill="#00BF63"/>
<path d="M25.8721 34.0584C26.2865 34.2916 26.7904 34.1971 26.9976 33.8473C27.2048 33.4975 27.0368 33.0249 26.6224 32.7917C26.208 32.5585 25.7041 32.6531 25.4969 33.0029C25.2897 33.3526 25.4577 33.8253 25.8721 34.0584Z" fill="#00BF63"/>
<path fill-rule="evenodd" clip-rule="evenodd" d="M32.5091 23.9193C32.5091 23.7071 32.3765 23.4603 32.2133 23.3684L23.2431 18.3207C23.0799 18.2288 22.9473 18.3265 22.9473 18.5387V23.1071C22.9473 23.3193 23.0799 23.5662 23.2431 23.658L32.2133 28.7057C32.3765 28.7976 32.5091 28.6999 32.5091 28.4878V23.9193Z" fill="#F2F3F7"/>
<path fill-rule="evenodd" clip-rule="evenodd" d="M32.5091 29.8912C32.5091 29.6791 32.3765 29.4322 32.2133 29.3403L23.2431 24.2926C23.0799 24.2008 22.9473 24.2984 22.9473 24.5106V29.079C22.9473 29.2912 23.0799 29.5381 23.2431 29.63L32.2133 34.6777C32.3765 34.7695 32.5091 34.6719 32.5091 34.4597V29.8912Z" fill="#F2F3F7"/>
<path fill-rule="evenodd" clip-rule="evenodd" d="M29.215 11.8198C29.215 11.5044 29.0179 11.1375 28.7751 11.0009L26.4202 9.6757C26.1775 9.53914 25.9805 9.68428 25.9805 9.99967C25.9805 10.315 26.1775 10.6819 26.4202 10.8185L28.7751 12.1436C29.0179 12.2803 29.215 12.1351 29.215 11.8198Z" fill="#282828"/>
<path fill-rule="evenodd" clip-rule="evenodd" d="M30.4382 15.0645C30.4382 14.7492 30.241 14.3822 29.9978 14.2454L25.197 11.5439C24.9543 11.4073 24.7573 11.5524 24.7573 11.8678C24.7573 12.1832 24.9543 12.5501 25.197 12.6866L29.9978 15.3882C30.241 15.525 30.4382 15.3799 30.4382 15.0645Z" fill="#00BF63"/>
<path fill-rule="evenodd" clip-rule="evenodd" d="M32.2714 10.3077L32.2714 10.3078L32.273 10.0319L31.4829 9.70874L30.9535 9.4116C30.7158 9.27825 30.3591 9.26132 30.1415 9.36984L29.9742 9.30146L29.9726 9.57733L29.9729 9.57743C29.9669 9.6733 30.0357 9.77533 30.1755 9.85381L31.2906 10.4796C31.5369 10.6178 31.9112 10.631 32.1258 10.509C32.2212 10.4548 32.2692 10.3829 32.2714 10.3077Z" fill="#00BF63"/>
<path fill-rule="evenodd" clip-rule="evenodd" d="M13.5962 38.5056C15.3005 37.442 16.7164 37.4049 18.4423 38.6656C19.7641 39.631 22.2205 38.8074 22.4053 39.7948C22.9686 42.801 18.5929 41.184 16.7548 40.1496C14.9167 39.1153 12.0456 39.4734 13.5962 38.5056Z" fill="#E1E3EE"/>
<path fill-rule="evenodd" clip-rule="evenodd" d="M20.0483 38.6946C20.0483 38.6946 21.9256 38.6107 22.6995 38.381C23.4733 38.1514 23.7299 38.9518 22.779 39.5707C21.8281 40.1896 20.6233 40.5586 20.3011 40.2382C19.9789 39.9178 20.0483 38.6946 20.0483 38.6946Z" fill="#282828"/>
<path fill-rule="evenodd" clip-rule="evenodd" d="M20.508 28.7987C20.508 28.7987 22.0018 35.9558 22.1145 38.6345C22.1145 38.6345 20.8864 40.1287 18.8657 39.2293C18.8657 39.2293 18.128 31.4367 17.3081 29.2719C17.3081 29.2719 18.3601 28.172 20.508 28.7987Z" fill="#737373"/>
<mask id="mask2_39_231" style="mask-type:luminance" maskUnits="userSpaceOnUse" x="17" y="28" width="6" height="12">
<path d="M20.508 28.7987C20.508 28.7987 22.0018 35.9558 22.1145 38.6345C22.1145 38.6345 20.8864 40.1287 18.8657 39.2293C18.8657 39.2293 18.128 31.4367 17.3081 29.2719C17.3081 29.2719 18.3601 28.172 20.508 28.7987Z" fill="white"/>
</mask>
<g mask="url(#mask2_39_231)">
<path fill-rule="evenodd" clip-rule="evenodd" d="M20.9059 29.7671L21.0217 30.4577C21.0217 30.4577 19.4516 31.9097 17.5058 31.1488L17.3081 29.9109L20.9059 29.7671Z" fill="#282828"/>
</g>
<path fill-rule="evenodd" clip-rule="evenodd" d="M13.5269 37.4727C13.5269 37.4727 15.3036 37.6047 16.0617 37.4694C16.8199 37.334 16.9553 38.1422 15.979 38.6363C15.0028 39.1303 13.8208 39.3522 13.5603 39.0037C13.2997 38.6553 13.5269 37.4727 13.5269 37.4727Z" fill="#282828"/>
<path fill-rule="evenodd" clip-rule="evenodd" d="M17.0311 27.8479C17.0311 27.8479 16.4945 34.7881 15.9162 37.4001C15.9162 37.4001 14.6541 38.4832 12.5957 37.6695C12.5957 37.6695 14.0621 29.8429 13.8481 27.5459C13.8481 27.5459 15.143 26.7283 17.0311 27.8479Z" fill="#727272"/>
<mask id="mask3_39_231" style="mask-type:luminance" maskUnits="userSpaceOnUse" x="12" y="27" width="6" height="11">
<path d="M17.0342 27.8434C17.0342 27.8434 16.4871 34.7859 15.9057 37.3994C15.9057 37.3994 14.6444 38.4847 12.5919 37.6739C12.5919 37.6739 14.0683 29.8434 13.8586 27.5463C13.8586 27.5463 15.1521 26.7264 17.0342 27.8434Z" fill="white"/>
</mask>
<g mask="url(#mask3_39_231)">
<path fill-rule="evenodd" clip-rule="evenodd" d="M17.153 28.881L17.2947 30.4699C17.2947 30.4699 15.6121 31.6612 13.5091 29.4252L13.6496 28.1641L17.153 28.881Z" fill="#282828"/>
</g>
<path fill-rule="evenodd" clip-rule="evenodd" d="M21.3045 22.4163C22.0148 22.8919 22.0357 23.8614 22.0418 24.8313C22.0466 25.5929 21.3827 26.9851 21.3827 26.9851L22.013 29.9803C22.013 29.9803 16.4552 31.9108 13.0459 27.7218L14.5259 24.9067L15.8173 20.903C15.8173 20.903 20.3828 21.7993 21.3045 22.4163Z" fill="#5FB18A"/>
<path fill-rule="evenodd" clip-rule="evenodd" d="M27.6568 25.8557C27.6568 25.8557 26.8177 25.7878 26.5765 25.0958C26.5765 25.0958 26.7927 24.2166 27.2455 23.7195C27.6983 23.2225 27.9858 23.2594 28.5248 23.2558C29.064 23.2523 28.9757 23.6936 28.6277 23.7277C28.3348 23.7563 28.1113 23.8292 28.1232 23.9075C28.1232 23.9075 28.4685 23.9188 28.7661 24.2445C29.0638 24.5703 28.608 24.9638 28.608 24.9638C28.608 24.9638 28.8308 25.3994 28.3191 25.4941C28.3191 25.4941 28.2347 25.8103 27.6568 25.8557Z" fill="#87BD44"/>
<path fill-rule="evenodd" clip-rule="evenodd" d="M21.6076 22.7128C21.6076 22.7128 22.9358 24.4456 23.6022 25.0852C23.9342 25.4039 25.6695 25.3129 26.7054 24.6072C26.7054 24.6072 27.7119 24.7527 27.843 25.8524C27.9257 26.5465 27.7135 27.3806 26.4199 27.6959C26.4199 27.6959 24.815 28.3396 22.9006 27.5442C21.5679 26.9906 20.6342 25.3411 19.9828 23.934C19.9828 23.934 20.4383 22.655 21.6076 22.7128Z" fill="#5FB18A"/>
<path fill-rule="evenodd" clip-rule="evenodd" d="M21.6122 26.4819C21.6833 26.4103 21.2779 26.0405 21.0332 25.6592C20.8367 25.3531 20.501 24.7695 20.4185 24.474C20.4185 24.474 20.122 25.4452 20.5647 26.0754C21.0007 26.6962 21.5013 26.5936 21.6122 26.4819Z" fill="#282828"/>
<path d="M20.1821 22.1334C21.6935 22.1334 22.9188 20.9391 22.9188 19.466C22.9188 17.9928 21.6935 16.7986 20.1821 16.7986C18.6706 16.7986 17.4453 17.9928 17.4453 19.466C17.4453 20.9391 18.6706 22.1334 20.1821 22.1334Z" fill="#D7A28E"/>
<path fill-rule="evenodd" clip-rule="evenodd" d="M22.5322 19.0923C22.5322 19.0923 23.042 18.8237 23.2858 19.0396C23.5295 19.2555 22.6697 19.9037 22.6697 19.9037L22.5322 19.0923Z" fill="#D7A28E"/>
<path fill-rule="evenodd" clip-rule="evenodd" d="M16.4883 17.1572C16.4883 17.1572 15.8958 17.4336 15.6641 18.248C15.4325 19.0625 15.164 19.7982 14.4472 19.8736C13.7305 19.949 13.0117 20.9915 13.3485 21.7473C13.3485 21.7473 12.0462 21.8297 12.1499 23.4084C12.2536 24.9871 13.6966 25.2462 14.4655 24.9411C14.4655 24.9411 15.1632 26.4471 16.6937 25.6601C16.6937 25.6601 18.6881 26.3907 19.1807 24.9366C19.1807 24.9366 21.1699 24.5659 20.4771 22.9741C20.4771 22.9741 21.528 22.3649 20.9659 21.3238C20.4039 20.2826 20.601 19.7914 20.601 19.7914C20.601 19.7914 21.25 19.3802 21.1378 18.551C21.1378 18.551 22.9921 17.7547 22.5169 16.4357C22.0417 15.1167 20.3803 14.7379 19.736 16.0218C19.49 15.3246 17.1282 15.1282 16.4883 17.1572Z" fill="#282828"/>
<path fill-rule="evenodd" clip-rule="evenodd" d="M36.0279 14.595C36.1562 14.5249 36.3239 14.5309 36.5073 14.6299L39.7734 16.3925C40.1764 16.6099 40.5032 17.1941 40.5032 17.6963V20.9777C40.5032 21.251 40.4067 21.4439 40.2534 21.5281C40.2517 21.529 40.2502 21.5299 40.2485 21.5308L39.3037 22.0406L38.5879 20.8538L36.5073 19.731C36.1044 19.5136 35.7773 18.9293 35.7773 18.4272V16.1939L35.1113 15.0897L36.0279 14.595Z" fill="#87BD44" fill-opacity="0.88"/>
<path fill-rule="evenodd" clip-rule="evenodd" d="M36.1746 16.3535C36.4072 15.9769 36.2762 15.4985 35.8816 15.2856L32.5845 13.5062C32.1902 13.2934 31.6812 13.4265 31.4486 13.803L29.9285 16.2641C29.6959 16.6408 29.8272 17.1193 30.2214 17.332L33.5186 19.1114C33.9131 19.3244 34.4219 19.1912 34.6545 18.8146L36.1746 16.3535Z" fill="#87BD44"/>
<path d="M36.1756 18.336L35.6079 18.0165V19.2403L36.1756 19.5598V18.336Z" fill="white"/>
<path d="M36.9808 18.2637L36.4131 17.9443V19.6932L36.9808 20.0126V18.2637Z" fill="white"/>
<path d="M37.7855 17.9445L37.2178 17.6251V20.1461L37.7855 20.4655V17.9445Z" fill="white"/>
<path d="M38.5902 18.9483L38.0225 18.6288V20.5989L38.5902 20.9184V18.9483Z" fill="white"/>
<path fill-rule="evenodd" clip-rule="evenodd" d="M36.0279 20.9995C36.1562 20.9293 36.3239 20.9353 36.5073 21.0343L39.7734 22.7969C40.1764 23.0143 40.5032 23.5986 40.5032 24.1007V27.3822C40.5032 27.6554 40.4067 27.8484 40.2534 27.9325C40.2517 27.9334 40.2502 27.9343 40.2485 27.9352L39.3037 28.445L38.5879 27.2583L36.5073 26.1354C36.1044 25.918 35.7773 25.3337 35.7773 24.8316V22.5983L35.1113 21.4941L36.0279 20.9995Z" fill="#87BD44" fill-opacity="0.88"/>
<path fill-rule="evenodd" clip-rule="evenodd" d="M36.1746 22.758C36.4072 22.3814 36.2762 21.9029 35.8816 21.69L32.5845 19.9106C32.1902 19.6978 31.6812 19.8309 31.4486 20.2075L29.9285 22.6686C29.6959 23.0452 29.8272 23.5237 30.2214 23.7365L33.5186 25.5158C33.9131 25.7288 34.4219 25.5957 34.6545 25.219L36.1746 22.758Z" fill="#87BD44"/>
<path fill-rule="evenodd" clip-rule="evenodd" d="M36.151 23.6687L37.0788 23.5878L38.0069 24.7131L37.0788 24.7937L36.151 23.6687ZM36.9868 24.9217V26.1276L36.0586 25.0024V23.7964L36.9868 24.9217ZM38.0989 24.9446V26.1505L37.1712 26.2314V25.0255L38.0989 24.9446Z" fill="white"/>
<path fill-rule="evenodd" clip-rule="evenodd" d="M36.0279 27.2936C36.1562 27.2234 36.3239 27.2294 36.5073 27.3284L39.7734 29.091C40.1764 29.3085 40.5032 29.8927 40.5032 30.3948V33.6763C40.5032 33.9495 40.4067 34.1425 40.2534 34.2267C40.2517 34.2276 40.2502 34.2285 40.2485 34.2293L39.3037 34.7392L38.5879 33.5524L36.5073 32.4295C36.1044 32.2121 35.7773 31.6279 35.7773 31.1257V28.8925L35.1113 27.7883L36.0279 27.2936Z" fill="#87BD44" fill-opacity="0.88"/>
<path fill-rule="evenodd" clip-rule="evenodd" d="M36.1746 29.0521C36.4072 28.6755 36.2762 28.1971 35.8816 27.9841L32.5845 26.2047C32.1902 25.992 31.6812 26.125 31.4486 26.5016L29.9285 28.9627C29.6959 29.3393 29.8272 29.8178 30.2214 30.0306L33.5186 31.81C33.9131 32.0229 34.4219 31.8898 34.6545 31.5132L36.1746 29.0521Z" fill="#87BD44"/>
<path fill-rule="evenodd" clip-rule="evenodd" d="M37.8701 30.3916C37.8701 30.3916 37.9788 30.5101 37.8927 30.789C37.7903 31.122 37.6941 31.6049 37.734 32.0089C37.7755 32.4257 37.9126 32.6557 37.9126 32.6557C37.2775 32.5357 36.9345 32.4056 36.3157 32.0187C36.3157 32.0187 36.1287 31.7815 36.1103 31.363C36.0888 30.8793 36.3194 30.3403 36.3835 29.9545C36.4223 29.7231 36.3015 29.5692 36.3015 29.5692C36.8767 29.8081 37.3584 29.9994 37.8701 30.3916ZM36.5684 31.2844C36.5684 31.2844 36.7806 31.398 37.0102 31.506C37.0385 31.5193 37.0721 31.5067 37.0848 31.4778C37.0979 31.4489 37.0858 31.4146 37.0574 31.4013C36.8305 31.2946 36.6209 31.1823 36.6209 31.1823C36.5936 31.1675 36.5594 31.1783 36.5447 31.2065C36.5305 31.2347 36.5411 31.2696 36.5684 31.2844ZM36.6566 30.576C36.6566 30.576 37.2276 30.8815 37.5124 30.9678C37.5423 30.9768 37.5733 30.9593 37.5822 30.9289C37.5912 30.8984 37.5743 30.8662 37.5444 30.8572C37.266 30.773 36.7092 30.4739 36.7092 30.4739C36.6813 30.4591 36.6477 30.47 36.633 30.4981C36.6183 30.5263 36.6288 30.5612 36.6566 30.576ZM36.5847 30.8882C36.5847 30.8882 37.1557 31.1938 37.4404 31.28C37.4703 31.289 37.5019 31.2716 37.5103 31.2411C37.5192 31.2106 37.5024 31.1785 37.4724 31.1694C37.194 31.0853 36.6372 30.7861 36.6372 30.7861C36.6099 30.7713 36.5757 30.7822 36.561 30.8104C36.5463 30.8385 36.5573 30.8734 36.5847 30.8882Z" fill="white"/>
<path d="M25.9391 34.7741L19.7617 38.2502L24.8067 41.0891L30.9841 37.613L25.9391 34.7741Z" fill="#87BD44"/>
<path d="M30.9836 37.6138L24.8066 41.0896V45.4488L30.9836 41.9729V37.6138Z" fill="#87BD44" fill-opacity="0.88"/>
<path d="M24.8067 41.0887L19.7617 38.2498V42.609L24.8067 45.4479V41.0887Z" fill="#87BD44" fill-opacity="0.88"/>
<path d="M22.8089 39.9647L21.7593 39.374V41.3649L22.8089 41.9555V39.9647Z" fill="#E1E3EE"/>
<path d="M27.9517 35.9065L21.7744 39.3826L22.8091 39.9648L28.9864 36.4887L27.9517 35.9065Z" fill="#F2F3F7"/>
<path d="M31.4838 44.1413C32.1708 44.1413 32.7278 43.9098 32.7278 43.6242C32.7278 43.3387 32.1708 43.1072 31.4838 43.1072C30.7967 43.1072 30.2397 43.3387 30.2397 43.6242C30.2397 43.9098 30.7967 44.1413 31.4838 44.1413Z" fill="#E1E3EE"/>
<path d="M33.1617 44.5686C34.0886 44.5686 34.84 44.2806 34.84 43.9252C34.84 43.5699 34.0886 43.2819 33.1617 43.2819C32.2348 43.2819 31.4834 43.5699 31.4834 43.9252C31.4834 44.2806 32.2348 44.5686 33.1617 44.5686Z" fill="#E1E3EE"/>
<path fill-rule="evenodd" clip-rule="evenodd" d="M30.4829 42.7647C30.1724 42.1355 29.1208 40.6876 29.7663 39.8778C30.3634 39.129 31.1673 40.1553 31.3395 40.9929C31.3395 40.9929 30.8276 37.3975 32.0685 37.3293C33.3094 37.2612 32.883 39.5972 32.6628 40.5675C32.6628 40.5675 33.7403 38.6442 34.4914 39.334C35.2425 40.0238 32.7864 43.0304 32.7864 43.0304C32.6222 43.3159 32.1669 43.6501 31.6294 43.6533C31.1849 43.656 30.6946 43.1936 30.4829 42.7647Z" fill="#5FB18A"/>
<path fill-rule="evenodd" clip-rule="evenodd" d="M32.1285 38.1949C32.1307 38.1608 32.1609 38.135 32.1957 38.1372C32.2306 38.1393 32.2571 38.1686 32.2549 38.2026C32.2549 38.2026 31.9983 42.1499 31.6087 43.6857C31.6003 43.7188 31.566 43.739 31.532 43.7309C31.4981 43.7227 31.4774 43.6892 31.4857 43.6561C31.8737 42.1265 32.1285 38.1949 32.1285 38.1949Z" fill="#F2F3F7"/>
<path fill-rule="evenodd" clip-rule="evenodd" d="M30.5044 40.8687C30.497 40.8354 30.5186 40.8025 30.5528 40.7953C30.587 40.7881 30.6207 40.8092 30.6282 40.8425C30.6282 40.8425 30.755 41.4113 31.0289 41.9434C31.2072 42.2898 31.4466 42.6225 31.7584 42.7617C31.7902 42.7759 31.8042 42.8126 31.7896 42.8436C31.7751 42.8745 31.7374 42.8882 31.7057 42.874C31.3704 42.7242 31.1074 42.3712 30.9157 41.9988C30.6345 41.4526 30.5044 40.8687 30.5044 40.8687Z" fill="#F2F3F7"/>
<path fill-rule="evenodd" clip-rule="evenodd" d="M31.8929 42.0504C31.8604 42.0629 31.8235 42.0474 31.8106 42.0158C31.7977 41.9841 31.8136 41.9482 31.8462 41.9356C31.8462 41.9356 33.198 41.4147 33.716 40.3684C33.7312 40.3376 33.7691 40.3248 33.8007 40.3396C33.8321 40.3544 33.8454 40.3913 33.8302 40.422C33.2927 41.5073 31.8929 42.0504 31.8929 42.0504Z" fill="#F2F3F7"/>
<path fill-rule="evenodd" clip-rule="evenodd" d="M33.3254 42.1587C34.0754 42.1505 33.8687 42.6552 34.3406 42.9525C34.773 43.225 34.7633 43.8206 34.0703 43.9435C33.3774 44.0664 32.7895 44.047 32.3103 43.9057C31.4458 43.6506 31.618 43.0501 32.1709 42.8746C32.6284 42.7295 32.7689 42.1647 33.3254 42.1587Z" fill="#282828"/>
<path d="M33.5217 42.8529C33.6173 42.8529 33.6948 42.7802 33.6948 42.6904C33.6948 42.6007 33.6173 42.5279 33.5217 42.5279C33.4261 42.5279 33.3486 42.6007 33.3486 42.6904C33.3486 42.7802 33.4261 42.8529 33.5217 42.8529Z" fill="#E1E3EE"/>
<path d="M33.7825 43.046C33.8306 43.046 33.8696 43.0112 33.8696 42.9683C33.8696 42.9253 33.8306 42.8905 33.7825 42.8905C33.7343 42.8905 33.6953 42.9253 33.6953 42.9683C33.6953 43.0112 33.7343 43.046 33.7825 43.046Z" fill="#E1E3EE"/>
<path d="M19.1868 13.3105C21.1324 11.4142 21.1324 8.33961 19.1868 6.44329C17.2412 4.54696 14.0867 4.54696 12.141 6.44329C10.1954 8.33962 10.1954 11.4142 12.141 13.3105C14.0867 15.2068 17.2412 15.2068 19.1868 13.3105Z" fill="#00BF63"/>
<path fill-rule="evenodd" clip-rule="evenodd" d="M13.0045 10.4229C12.7527 10.1776 12.7527 9.77918 13.0045 9.53384C13.2562 9.28846 13.6649 9.2885 13.9167 9.53384L15.1936 10.7784L17.4112 8.61703C17.663 8.37169 18.0717 8.37169 18.3235 8.61703C18.5752 8.86237 18.5752 9.26079 18.3235 9.50613L15.6497 12.1121C15.3978 12.3576 14.9894 12.3576 14.7375 12.1121L13.0045 10.4229Z" fill="#F2F3F7"/>
<path fill-rule="evenodd" clip-rule="evenodd" d="M20.3608 13.8276C20.4156 14.005 20.3659 14.1975 20.2316 14.3284C20.0974 14.4592 19.8998 14.5077 19.7179 14.4542C18.3743 14.0593 16.0344 13.3715 16.0344 13.3715L19.2503 10.237C19.2503 10.237 19.9556 12.5181 20.3608 13.8276Z" fill="#00BF63"/>
</g>
<defs>
<clipPath id="clip0_39_231">
<rect width="60" height="48" fill="white" transform="translate(0.618164)"/>
</clipPath>
</defs>
</svg>
