<svg width="25" height="24" viewBox="0 0 25 24" fill="none" xmlns="http://www.w3.org/2000/svg">
<path d="M21.3818 18.5V19.5C21.3814 19.7651 21.276 20.0192 21.0885 20.2067C20.9011 20.3941 20.6469 20.4996 20.3818 20.5H4.38184C4.11674 20.4996 3.86262 20.3941 3.67517 20.2067C3.48772 20.0192 3.38223 19.7651 3.38184 19.5V18.5C3.38223 18.2349 3.48772 17.9808 3.67517 17.7933C3.86262 17.6059 4.11674 17.5004 4.38184 17.5H20.3818C20.6469 17.5004 20.9011 17.6059 21.0885 17.7933C21.276 17.9808 21.3814 18.2349 21.3818 18.5ZM20.3818 16.5H4.38184C4.38471 14.6398 5.03497 12.8385 6.22102 11.4054C7.40707 9.97229 9.05494 8.99668 10.8818 8.646V8C10.8822 7.6023 11.0404 7.221 11.3216 6.93978C11.6028 6.65856 11.9841 6.5004 12.3818 6.5C12.7791 6.50184 13.1596 6.66047 13.4405 6.94137C13.7214 7.22228 13.88 7.60274 13.8818 8V8.646C15.7087 8.99668 17.3566 9.97229 18.5427 11.4054C19.7287 12.8385 20.379 14.6398 20.3818 16.5ZM12.3818 8.5C12.5508 8.5 12.7158 8.515 12.8818 8.525V8C12.8824 7.93557 12.87 7.87168 12.8453 7.81215C12.8207 7.75262 12.7843 7.69867 12.7383 7.6535C12.6926 7.60491 12.6373 7.56622 12.576 7.53982C12.5147 7.51342 12.4486 7.49987 12.3818 7.5C12.2492 7.5 12.1221 7.55268 12.0283 7.64645C11.9345 7.74021 11.8818 7.86739 11.8818 8V8.525C12.0478 8.515 12.2133 8.5 12.3818 8.5Z" fill="#00BF63"/>
</svg>
