<svg width="24" height="24" viewBox="0 0 24 24" fill="none" xmlns="http://www.w3.org/2000/svg">
<path d="M16.9 6.3H16.2V5.65C16.2 5.26 15.92 5 15.5 5C15.08 5 14.8 5.26 14.8 5.65V6.3H9.2V5.65C9.2 5.26 8.92 5 8.5 5C8.08 5 7.8 5.26 7.8 5.65V6.3H7.1C5.91 6.3 5 7.145 5 8.25V8.9H19V8.25C19 7.145 18.09 6.3 16.9 6.3ZM5 16.05C5 17.155 5.91 18 7.1 18H16.9C18.09 18 19 17.155 19 16.05V10.2H5V16.05ZM15.5 11.5C15.92 11.5 16.2 11.76 16.2 12.15C16.2 12.54 15.92 12.8 15.5 12.8C15.08 12.8 14.8 12.54 14.8 12.15C14.8 11.76 15.08 11.5 15.5 11.5ZM15.5 14.1C15.92 14.1 16.2 14.36 16.2 14.75C16.2 15.14 15.92 15.4 15.5 15.4C15.08 15.4 14.8 15.14 14.8 14.75C14.8 14.36 15.08 14.1 15.5 14.1ZM12 11.5C12.42 11.5 12.7 11.76 12.7 12.15C12.7 12.54 12.42 12.8 12 12.8C11.58 12.8 11.3 12.54 11.3 12.15C11.3 11.76 11.58 11.5 12 11.5ZM12 14.1C12.42 14.1 12.7 14.36 12.7 14.75C12.7 15.14 12.42 15.4 12 15.4C11.58 15.4 11.3 15.14 11.3 14.75C11.3 14.36 11.58 14.1 12 14.1ZM8.5 11.5C8.92 11.5 9.2 11.76 9.2 12.15C9.2 12.54 8.92 12.8 8.5 12.8C8.08 12.8 7.8 12.54 7.8 12.15C7.8 11.76 8.08 11.5 8.5 11.5ZM8.5 14.1C8.92 14.1 9.2 14.36 9.2 14.75C9.2 15.14 8.92 15.4 8.5 15.4C8.08 15.4 7.8 15.14 7.8 14.75C7.8 14.36 8.08 14.1 8.5 14.1Z" fill="#00BF63"/>
</svg>
