<svg width="311" height="245" viewBox="0 0 311 245" fill="none" xmlns="http://www.w3.org/2000/svg">
<path d="M270.131 108.228V99.5621C270.131 97.9096 269.475 96.3248 268.306 95.1564C267.138 93.9879 265.553 93.3314 263.901 93.3314H241.911C240.259 93.3314 238.674 92.675 237.506 91.5065C236.338 90.338 235.681 88.7532 235.681 87.1008V78.435C235.681 76.7825 236.338 75.1977 237.506 74.0292C238.674 72.8607 240.259 72.2043 241.911 72.2043H242.606C244.258 72.2043 245.843 71.5478 247.011 70.3794C248.179 69.2109 248.836 67.6261 248.836 65.9736V57.3078C248.836 56.4896 248.675 55.6794 248.361 54.9235C248.048 54.1675 247.589 53.4807 247.011 52.9021C246.432 52.3235 245.746 51.8646 244.99 51.5514C244.234 51.2383 243.424 51.0771 242.606 51.0771H82.8382C81.1859 51.0771 79.6013 51.7336 78.4329 52.9021C77.2646 54.0706 76.6082 55.6554 76.6082 57.3078V65.9736C76.6082 67.6261 77.2646 69.2109 78.4329 70.3794C79.6013 71.5478 81.1859 72.2043 82.8382 72.2043C84.4905 72.2043 86.0751 72.8607 87.2434 74.0292C88.4118 75.1977 89.0682 76.7825 89.0682 78.435V87.1008C89.0682 88.7532 88.4118 90.338 87.2434 91.5065C86.0751 92.675 84.4905 93.3315 82.8382 93.3315H58.7463C57.094 93.3315 55.5094 93.9879 54.341 95.1564C53.1727 96.3249 52.5163 97.9097 52.5163 99.5621V108.228C52.5163 109.88 53.1727 111.465 54.341 112.634C55.5094 113.802 57.094 114.459 58.7463 114.459H68.1996C69.0177 114.459 69.8278 114.62 70.5837 114.933C71.3395 115.246 72.0263 115.705 72.6048 116.284C73.1834 116.862 73.6423 117.549 73.9553 118.305C74.2684 119.061 74.4296 119.871 74.4296 120.689V129.355C74.4296 131.008 73.7732 132.592 72.6049 133.761C71.4365 134.929 69.8519 135.586 68.1996 135.586H68.1767C66.5245 135.586 64.9398 136.242 63.7715 137.411C62.6031 138.579 61.9468 140.164 61.9468 141.816V150.482C61.9468 152.135 62.6031 153.719 63.7715 154.888C64.9398 156.056 66.5245 156.713 68.1767 156.713H69.5444C70.3626 156.713 71.1727 156.874 71.9285 157.187C72.6844 157.5 73.3712 157.959 73.9497 158.538C74.5282 159.116 74.9871 159.803 75.3002 160.559C75.6133 161.315 75.7744 162.125 75.7744 162.944V171.609C75.7744 173.262 75.118 174.847 73.9497 176.015C72.7813 177.184 71.1967 177.84 69.5444 177.84H47.0981C45.4459 177.84 43.8612 178.497 42.6929 179.665C41.5245 180.833 40.8682 182.418 40.8682 184.071V192.737C40.8682 194.389 41.5245 195.974 42.6929 197.142C43.8612 198.311 45.4459 198.967 47.0981 198.967H245.95C247.603 198.967 249.187 198.311 250.356 197.142C251.524 195.974 252.18 194.389 252.18 192.737V184.071C252.18 182.418 251.524 180.833 250.356 179.665C249.187 178.497 247.603 177.84 245.95 177.84H240.549C238.896 177.84 237.312 177.184 236.143 176.015C234.975 174.847 234.319 173.262 234.319 171.609V162.944C234.319 161.291 234.975 159.706 236.143 158.538C237.312 157.369 238.896 156.713 240.549 156.713H253.285C254.938 156.713 256.522 156.056 257.691 154.888C258.859 153.719 259.515 152.135 259.515 150.482V141.816C259.515 140.164 258.859 138.579 257.691 137.411C256.522 136.242 254.938 135.586 253.285 135.586H249.422C247.769 135.586 246.185 134.929 245.016 133.761C243.848 132.592 243.192 131.008 243.192 129.355V120.689C243.192 119.037 243.848 117.452 245.016 116.284C246.185 115.115 247.769 114.459 249.422 114.459H263.901C265.553 114.459 267.138 113.802 268.306 112.634C269.475 111.465 270.131 109.88 270.131 108.228Z" fill="#00BF63" fill-opacity="0.12"/>
<path d="M201.923 189.727H90.3494C90.0908 189.727 89.8349 189.675 89.5971 189.573C89.3593 189.471 89.1446 189.322 88.9659 189.135C88.7873 188.949 88.6483 188.727 88.5575 188.485C88.4667 188.243 88.4258 187.985 88.4375 187.727L93.0495 85.4392C93.0717 84.947 93.2828 84.4823 93.6389 84.1418C93.9951 83.8013 94.4687 83.6113 94.9614 83.6113H206.535C206.793 83.6113 207.049 83.6637 207.287 83.7654C207.525 83.867 207.739 84.0158 207.918 84.2028C208.097 84.3897 208.236 84.6109 208.327 84.8531C208.417 85.0952 208.458 85.3533 208.447 85.6116L203.835 187.899C203.812 188.391 203.601 188.856 203.245 189.196C202.889 189.537 202.415 189.727 201.923 189.727Z" fill="#91FFCA" fill-opacity="0.62"/>
<path d="M209.097 85.4392C209.075 84.947 208.864 84.4823 208.508 84.1418C208.152 83.8013 207.678 83.6113 207.185 83.6113H206.535C206.793 83.6113 207.049 83.6637 207.287 83.7654C207.525 83.8671 207.74 84.0158 207.918 84.2028C208.097 84.3897 208.236 84.6109 208.327 84.8531C208.418 85.0952 208.458 85.3533 208.447 85.6116L203.835 187.899C203.813 188.391 203.601 188.856 203.245 189.196C202.889 189.537 202.416 189.727 201.923 189.727H221.367C221.625 189.727 221.881 189.675 222.119 189.573C222.357 189.471 222.571 189.322 222.75 189.136C222.929 188.949 223.068 188.727 223.159 188.485C223.249 188.243 223.29 187.985 223.279 187.727L209.097 85.4392Z" fill="#00BF63" fill-opacity="0.48"/>
<path d="M195.672 183.525H97.1394C96.911 183.525 96.685 183.479 96.475 183.389C96.265 183.299 96.0754 183.168 95.9176 183.003C95.7598 182.838 95.6371 182.642 95.5569 182.428C95.4767 182.215 95.4406 181.987 95.4509 181.759L99.5239 91.4267C99.5435 90.992 99.7299 90.5816 100.044 90.281C100.359 89.9803 100.777 89.8125 101.212 89.8125H199.745C199.973 89.8125 200.199 89.8588 200.409 89.9486C200.619 90.0383 200.809 90.1697 200.966 90.3348C201.124 90.4999 201.247 90.6953 201.327 90.9091C201.407 91.123 201.443 91.3508 201.433 91.579L197.36 181.911C197.341 182.345 197.154 182.756 196.84 183.057C196.525 183.357 196.107 183.525 195.672 183.525Z" fill="white" fill-opacity="0.7"/>
<path d="M112.099 83.2859C112.099 83.3995 112.071 83.5113 112.017 83.6113H110.745C110.691 83.5113 110.663 83.3995 110.663 83.2859C110.663 80.9986 109.434 79.0654 107.979 79.0654C106.524 79.0654 105.3 80.9986 105.3 83.2859C105.3 83.396 105.304 83.5013 105.309 83.6113C105.419 85.7551 106.596 87.5064 107.979 87.5064C108.061 87.5072 108.142 87.5008 108.223 87.4873C108.316 87.4738 108.411 87.4788 108.503 87.502C108.594 87.5252 108.68 87.5663 108.756 87.6227C108.831 87.6791 108.895 87.7499 108.943 87.8309C108.991 87.912 109.023 88.0017 109.036 88.095C109.05 88.1883 109.045 88.2834 109.022 88.3748C108.998 88.4662 108.957 88.5521 108.901 88.6276C108.845 88.7032 108.774 88.7668 108.693 88.815C108.612 88.8632 108.522 88.895 108.429 88.9085C108.28 88.9315 108.13 88.9427 107.979 88.942C105.792 88.942 103.993 86.5781 103.869 83.6113C103.864 83.5013 103.864 83.396 103.864 83.2859C103.864 80.166 105.711 77.6299 107.979 77.6299C110.252 77.6299 112.099 80.166 112.099 83.2859Z" fill="#D62A2A"/>
<path d="M126.567 83.2859C126.568 83.3995 126.54 83.5113 126.486 83.6113H125.213C125.159 83.5113 125.132 83.3995 125.132 83.2859C125.132 80.9986 123.902 79.0654 122.448 79.0654C120.993 79.0654 119.764 80.9986 119.764 83.2859C119.764 83.396 119.768 83.5013 119.773 83.6113C119.883 85.7551 121.065 87.5064 122.448 87.5064C122.529 87.5072 122.611 87.5008 122.692 87.4873C122.88 87.46 123.072 87.5087 123.224 87.6227C123.377 87.7367 123.478 87.9066 123.505 88.095C123.532 88.2835 123.484 88.4751 123.37 88.6276C123.256 88.7802 123.086 88.8812 122.897 88.9085C122.749 88.9315 122.598 88.9427 122.448 88.942C120.256 88.942 118.457 86.5781 118.333 83.6113C118.328 83.5013 118.328 83.396 118.328 83.2859C118.328 80.166 120.175 77.6299 122.448 77.6299C124.716 77.6299 126.567 80.166 126.567 83.2859Z" fill="#D62A2A"/>
<path d="M141.031 83.2859C141.032 83.3995 141.004 83.5113 140.95 83.6113H139.677C139.623 83.5113 139.595 83.3995 139.596 83.2859C139.596 80.9986 138.366 79.0654 136.916 79.0654C135.462 79.0654 134.232 80.9986 134.232 83.2859C134.232 83.396 134.237 83.5013 134.242 83.6113C134.352 85.7551 135.534 87.5064 136.916 87.5064C136.997 87.507 137.077 87.5006 137.156 87.4873C137.344 87.4594 137.536 87.5075 137.689 87.621C137.842 87.7345 137.944 87.9042 137.971 88.0926C137.999 88.2811 137.951 88.4729 137.838 88.6259C137.724 88.7789 137.555 88.8806 137.366 88.9085C137.217 88.9312 137.067 88.9424 136.916 88.942C134.725 88.942 132.926 86.5781 132.802 83.6113C132.797 83.5013 132.797 83.396 132.797 83.2859C132.797 80.166 134.644 77.6299 136.916 77.6299C139.184 77.6299 141.031 80.166 141.031 83.2859Z" fill="#D62A2A"/>
<path d="M155.5 83.2859C155.5 83.3995 155.472 83.5113 155.419 83.6113H154.146C154.092 83.5113 154.064 83.3995 154.064 83.2859C154.064 80.9986 152.835 79.0654 151.38 79.0654C149.926 79.0654 148.696 80.9986 148.696 83.2859C148.696 83.396 148.701 83.5013 148.706 83.6113C148.816 85.7551 149.998 87.5064 151.38 87.5064C151.462 87.5072 151.544 87.5008 151.624 87.4873C151.813 87.46 152.004 87.5087 152.157 87.6227C152.309 87.7367 152.41 87.9066 152.438 88.095C152.465 88.2835 152.416 88.4751 152.302 88.6276C152.188 88.7802 152.018 88.8812 151.83 88.9085C151.681 88.9315 151.531 88.9427 151.38 88.942C149.194 88.942 147.39 86.5781 147.266 83.6113C147.261 83.5013 147.261 83.396 147.261 83.2859C147.261 80.166 149.112 77.6299 151.38 77.6299C153.653 77.6299 155.5 80.166 155.5 83.2859Z" fill="#D62A2A"/>
<path d="M169.964 83.2859C169.964 83.3995 169.936 83.5113 169.882 83.6113H168.61C168.556 83.5113 168.528 83.3995 168.528 83.2859C168.528 80.9986 167.304 79.0654 165.849 79.0654C164.395 79.0654 163.165 80.9986 163.165 83.2859C163.165 83.396 163.17 83.5013 163.174 83.6113C163.289 85.8795 164.619 87.7026 166.088 87.4873C166.277 87.4594 166.469 87.5075 166.622 87.621C166.775 87.7345 166.876 87.9042 166.904 88.0926C166.932 88.2811 166.884 88.4729 166.77 88.6259C166.657 88.7789 166.487 88.8806 166.299 88.9085C166.15 88.9314 166 88.9426 165.849 88.942C163.658 88.942 161.859 86.5781 161.734 83.6113C161.729 83.5013 161.729 83.396 161.729 83.2859C161.729 80.166 163.576 77.6299 165.849 77.6299C168.117 77.6299 169.964 80.166 169.964 83.2859Z" fill="#D62A2A"/>
<path d="M184.433 83.2859C184.433 83.3995 184.405 83.5113 184.351 83.6113H183.079C183.025 83.5113 182.997 83.3995 182.997 83.2859C182.997 80.9986 181.768 79.0654 180.313 79.0654C178.858 79.0654 177.634 80.9986 177.634 83.2859C177.634 83.396 177.638 83.5013 177.643 83.6113C177.753 85.7551 178.93 87.5064 180.313 87.5064C180.395 87.5072 180.476 87.5008 180.557 87.4873C180.745 87.46 180.937 87.5087 181.09 87.6227C181.242 87.7367 181.343 87.9066 181.37 88.095C181.398 88.2835 181.349 88.4751 181.235 88.6276C181.121 88.7802 180.951 88.8812 180.763 88.9085C180.614 88.9315 180.464 88.9427 180.313 88.942C178.126 88.942 176.327 86.5781 176.203 83.6113C176.198 83.5013 176.198 83.396 176.198 83.2859C176.198 80.166 178.045 77.6299 180.313 77.6299C182.586 77.6299 184.433 80.166 184.433 83.2859Z" fill="#D62A2A"/>
<path d="M197.844 83.2859C197.844 83.3995 197.816 83.5113 197.762 83.6113H196.49C196.436 83.5113 196.408 83.3995 196.408 83.2859C196.408 80.9986 195.179 79.0654 193.724 79.0654C192.27 79.0654 191.04 80.9986 191.04 83.2859C191.04 83.396 191.045 83.5013 191.049 83.6113C191.16 85.7551 192.341 87.5064 193.724 87.5064C193.806 87.5072 193.887 87.5008 193.968 87.4873C194.157 87.46 194.348 87.5087 194.501 87.6227C194.653 87.7367 194.754 87.9066 194.781 88.095C194.809 88.2835 194.76 88.4751 194.646 88.6276C194.532 88.7802 194.362 88.8812 194.174 88.9085C194.025 88.9314 193.875 88.9426 193.724 88.942C191.533 88.942 189.734 86.5781 189.609 83.6113C189.604 83.5013 189.604 83.396 189.604 83.2859C189.604 80.166 191.451 77.6299 193.724 77.6299C195.992 77.6299 197.844 80.166 197.844 83.2859Z" fill="#D62A2A"/>
<path d="M211.107 176.271H209.514V176.214C210.04 176.252 210.571 176.271 211.107 176.271Z" fill="#25788E"/>
<path d="M196.024 93.833L192.234 150.899C192.234 152.484 191.922 154.053 191.316 155.517C190.709 156.982 189.82 158.312 188.7 159.433C187.579 160.553 186.249 161.442 184.785 162.049C183.321 162.655 181.752 162.968 180.167 162.968C177.24 162.968 174.412 161.903 172.211 159.973C170.01 158.043 168.586 155.379 168.203 152.477L166.933 142.849H96.1846L99.9744 93.833L196.024 93.833Z" fill="#00BF63" fill-opacity="0.51"/>
<path d="M93.0538 162.967C90.1266 162.967 87.2991 161.903 85.0981 159.973C82.8971 158.043 81.4726 155.379 81.0898 152.476L79.8203 142.849H166.933L168.203 152.476C168.585 155.379 170.01 158.043 172.211 159.973C174.412 161.903 177.239 162.967 180.167 162.967H93.0538Z" fill="#00BF63" fill-opacity="0.57"/>
<mask id="mask0_348_2438" style="mask-type:luminance" maskUnits="userSpaceOnUse" x="96" y="93" width="101" height="70">
<path d="M196.024 93.833L192.234 150.899C192.234 152.484 191.922 154.053 191.316 155.517C190.709 156.982 189.82 158.312 188.7 159.433C187.579 160.553 186.249 161.442 184.785 162.049C183.321 162.655 181.752 162.968 180.167 162.968C177.24 162.968 174.412 161.903 172.211 159.973C170.01 158.043 168.586 155.379 168.203 152.477L166.933 142.849H96.1846L99.9744 93.833L196.024 93.833Z" fill="white"/>
</mask>
<g mask="url(#mask0_348_2438)">
<path d="M124.894 115.365H107.661C107.476 115.365 107.294 115.328 107.124 115.255C106.954 115.183 106.801 115.076 106.673 114.943C106.546 114.81 106.447 114.652 106.382 114.479C106.317 114.306 106.288 114.122 106.296 113.938L107.001 98.3094C107.017 97.9581 107.167 97.6265 107.422 97.3835C107.676 97.1405 108.014 97.0049 108.366 97.0049H125.598C125.783 97.0049 125.966 97.0423 126.135 97.1148C126.305 97.1874 126.458 97.2936 126.586 97.427C126.713 97.5604 126.812 97.7183 126.877 97.8911C126.942 98.064 126.971 98.2481 126.963 98.4325L126.258 114.061C126.242 114.412 126.092 114.744 125.838 114.987C125.583 115.23 125.245 115.365 124.894 115.365Z" fill="white" fill-opacity="0.9"/>
<path d="M146.65 115.365H129.417C129.232 115.365 129.05 115.328 128.88 115.255C128.71 115.183 128.557 115.076 128.429 114.943C128.302 114.81 128.203 114.652 128.138 114.479C128.073 114.306 128.044 114.122 128.052 113.938L128.757 98.3094C128.773 97.9581 128.923 97.6265 129.178 97.3835C129.432 97.1405 129.77 97.0049 130.121 97.0049H147.354C147.539 97.0049 147.721 97.0423 147.891 97.1148C148.061 97.1874 148.214 97.2936 148.342 97.427C148.469 97.5604 148.568 97.7183 148.633 97.8911C148.698 98.064 148.727 98.2481 148.719 98.4325L148.014 114.061C147.998 114.412 147.848 114.744 147.593 114.987C147.339 115.23 147.001 115.365 146.65 115.365Z" fill="white" fill-opacity="0.9"/>
<path d="M168.406 115.365H151.174C150.989 115.365 150.806 115.328 150.637 115.255C150.467 115.183 150.314 115.076 150.186 114.943C150.059 114.81 149.959 114.652 149.895 114.479C149.83 114.306 149.801 114.122 149.809 113.938L150.514 98.3094C150.529 97.9581 150.68 97.6265 150.934 97.3835C151.189 97.1405 151.527 97.0049 151.878 97.0049H169.111C169.296 97.0049 169.478 97.0423 169.648 97.1148C169.818 97.1874 169.971 97.2936 170.099 97.427C170.226 97.5604 170.325 97.7183 170.39 97.8911C170.455 98.064 170.484 98.2481 170.476 98.4325L169.771 114.061C169.755 114.412 169.605 114.744 169.35 114.987C169.096 115.23 168.758 115.365 168.406 115.365Z" fill="white" fill-opacity="0.9"/>
<path d="M190.162 115.365H172.929C172.745 115.365 172.562 115.328 172.393 115.255C172.223 115.183 172.07 115.076 171.942 114.943C171.815 114.81 171.715 114.652 171.651 114.479C171.586 114.306 171.557 114.122 171.565 113.938L172.27 98.3094C172.285 97.9581 172.436 97.6265 172.69 97.3835C172.944 97.1405 173.282 97.0049 173.634 97.0049H190.867C191.051 97.0049 191.234 97.0423 191.404 97.1148C191.574 97.1874 191.727 97.2936 191.854 97.427C191.982 97.5604 192.081 97.7183 192.146 97.8911C192.211 98.064 192.24 98.2481 192.232 98.4325L191.527 114.061C191.511 114.412 191.36 114.744 191.106 114.987C190.852 115.23 190.514 115.365 190.162 115.365Z" fill="white" fill-opacity="0.9"/>
<path d="M123.911 135.692H106.678C106.494 135.692 106.311 135.655 106.142 135.582C105.972 135.51 105.819 135.404 105.691 135.27C105.564 135.137 105.464 134.979 105.4 134.806C105.335 134.633 105.306 134.449 105.314 134.265L106.019 118.637C106.034 118.285 106.185 117.954 106.439 117.711C106.693 117.468 107.031 117.332 107.383 117.332H124.616C124.801 117.332 124.983 117.369 125.153 117.442C125.323 117.515 125.476 117.621 125.603 117.754C125.731 117.888 125.83 118.045 125.895 118.218C125.96 118.391 125.989 118.575 125.981 118.76L125.276 134.388C125.26 134.739 125.109 135.071 124.855 135.314C124.601 135.557 124.263 135.692 123.911 135.692Z" fill="white" fill-opacity="0.9"/>
<path d="M145.667 135.692H128.434C128.25 135.692 128.067 135.655 127.897 135.582C127.728 135.51 127.574 135.404 127.447 135.27C127.319 135.137 127.22 134.979 127.155 134.806C127.091 134.633 127.061 134.449 127.07 134.265L127.774 118.637C127.79 118.285 127.941 117.954 128.195 117.711C128.449 117.468 128.787 117.332 129.139 117.332H146.372C146.556 117.332 146.739 117.369 146.909 117.442C147.078 117.515 147.232 117.621 147.359 117.754C147.487 117.888 147.586 118.045 147.651 118.218C147.716 118.391 147.745 118.575 147.736 118.76L147.032 134.388C147.016 134.739 146.865 135.071 146.611 135.314C146.357 135.557 146.019 135.692 145.667 135.692Z" fill="white" fill-opacity="0.9"/>
<path d="M167.424 135.692H150.191C150.007 135.692 149.824 135.655 149.654 135.582C149.485 135.51 149.331 135.404 149.204 135.27C149.076 135.137 148.977 134.979 148.912 134.806C148.847 134.633 148.818 134.449 148.827 134.265L149.531 118.637C149.547 118.285 149.698 117.954 149.952 117.711C150.206 117.468 150.544 117.332 150.896 117.332H168.129C168.313 117.332 168.496 117.369 168.666 117.442C168.835 117.515 168.989 117.621 169.116 117.754C169.244 117.888 169.343 118.045 169.408 118.218C169.472 118.391 169.502 118.575 169.493 118.76L168.789 134.388C168.773 134.739 168.622 135.071 168.368 135.314C168.114 135.557 167.776 135.692 167.424 135.692Z" fill="white" fill-opacity="0.9"/>
<path d="M189.18 135.692H171.947C171.762 135.692 171.58 135.655 171.41 135.582C171.24 135.51 171.087 135.404 170.96 135.27C170.832 135.137 170.733 134.979 170.668 134.806C170.603 134.633 170.574 134.449 170.582 134.265L171.287 118.637C171.303 118.285 171.454 117.954 171.708 117.711C171.962 117.468 172.3 117.332 172.652 117.332H189.885C190.069 117.332 190.252 117.369 190.421 117.442C190.591 117.515 190.744 117.621 190.872 117.754C190.999 117.888 191.099 118.045 191.163 118.218C191.228 118.391 191.257 118.575 191.249 118.76L190.544 134.388C190.529 134.739 190.378 135.071 190.124 135.314C189.87 135.557 189.532 135.692 189.18 135.692Z" fill="white" fill-opacity="0.9"/>
<path d="M123.251 156.02H106.018C105.834 156.02 105.651 155.983 105.481 155.91C105.312 155.838 105.158 155.732 105.031 155.598C104.903 155.465 104.804 155.307 104.739 155.134C104.675 154.961 104.645 154.777 104.654 154.593L105.358 138.965C105.374 138.613 105.525 138.282 105.779 138.039C106.033 137.796 106.371 137.66 106.723 137.66H123.956C124.14 137.66 124.323 137.698 124.493 137.77C124.662 137.843 124.816 137.949 124.943 138.082C125.071 138.216 125.17 138.374 125.235 138.546C125.3 138.719 125.329 138.903 125.32 139.088L124.616 154.716C124.6 155.067 124.449 155.399 124.195 155.642C123.941 155.885 123.603 156.02 123.251 156.02Z" fill="white" fill-opacity="0.9"/>
<path d="M145.008 156.02H127.775C127.591 156.02 127.408 155.983 127.238 155.91C127.069 155.838 126.915 155.732 126.788 155.598C126.66 155.465 126.561 155.307 126.496 155.134C126.431 154.961 126.402 154.777 126.411 154.593L127.115 138.965C127.131 138.613 127.282 138.282 127.536 138.039C127.79 137.796 128.128 137.66 128.48 137.66H145.713C145.897 137.66 146.08 137.698 146.25 137.77C146.419 137.843 146.573 137.949 146.7 138.082C146.828 138.216 146.927 138.374 146.992 138.546C147.056 138.719 147.086 138.903 147.077 139.088L146.373 154.716C146.357 155.067 146.206 155.399 145.952 155.642C145.698 155.885 145.36 156.02 145.008 156.02Z" fill="white" fill-opacity="0.9"/>
<path d="M166.764 156.02H149.531C149.346 156.02 149.164 155.983 148.994 155.91C148.824 155.838 148.671 155.732 148.544 155.598C148.416 155.465 148.317 155.307 148.252 155.134C148.187 154.961 148.158 154.777 148.166 154.593L148.871 138.965C148.887 138.613 149.038 138.282 149.292 138.039C149.546 137.796 149.884 137.66 150.236 137.66H167.469C167.653 137.66 167.836 137.698 168.005 137.77C168.175 137.843 168.328 137.949 168.456 138.082C168.583 138.216 168.683 138.374 168.747 138.546C168.812 138.719 168.841 138.903 168.833 139.088L168.128 154.716C168.113 155.067 167.962 155.399 167.708 155.642C167.454 155.885 167.115 156.02 166.764 156.02Z" fill="white" fill-opacity="0.9"/>
<path d="M188.521 156.02H171.288C171.103 156.02 170.921 155.983 170.751 155.91C170.581 155.838 170.428 155.732 170.3 155.598C170.173 155.465 170.074 155.307 170.009 155.134C169.944 154.961 169.915 154.777 169.923 154.593L170.628 138.965C170.644 138.613 170.794 138.282 171.049 138.039C171.303 137.796 171.641 137.66 171.992 137.66H189.225C189.41 137.66 189.593 137.698 189.762 137.77C189.932 137.843 190.085 137.949 190.213 138.082C190.34 138.216 190.439 138.374 190.504 138.546C190.569 138.719 190.598 138.903 190.59 139.088L189.885 154.716C189.869 155.067 189.719 155.399 189.465 155.642C189.21 155.885 188.872 156.02 188.521 156.02Z" fill="white" fill-opacity="0.9"/>
<path d="M122.464 176.271H105.231C105.047 176.271 104.864 176.234 104.694 176.161C104.525 176.089 104.371 175.983 104.244 175.849C104.116 175.716 104.017 175.558 103.952 175.385C103.887 175.212 103.858 175.028 103.867 174.844L104.571 159.216C104.587 158.864 104.738 158.533 104.992 158.29C105.246 158.047 105.584 157.911 105.936 157.911H123.169C123.353 157.911 123.536 157.949 123.706 158.021C123.875 158.094 124.029 158.2 124.156 158.333C124.284 158.467 124.383 158.625 124.448 158.797C124.512 158.97 124.542 159.154 124.533 159.339L123.829 174.967C123.813 175.318 123.662 175.65 123.408 175.893C123.154 176.136 122.816 176.271 122.464 176.271Z" fill="white" fill-opacity="0.9"/>
<path d="M144.22 176.271H126.987C126.802 176.271 126.62 176.234 126.45 176.161C126.28 176.089 126.127 175.983 126 175.849C125.872 175.716 125.773 175.558 125.708 175.385C125.643 175.212 125.614 175.028 125.622 174.844L126.327 159.216C126.343 158.864 126.494 158.533 126.748 158.29C127.002 158.047 127.34 157.911 127.692 157.911H144.925C145.109 157.911 145.292 157.949 145.461 158.021C145.631 158.094 145.784 158.2 145.912 158.333C146.04 158.467 146.139 158.625 146.204 158.797C146.268 158.97 146.297 159.154 146.289 159.339L145.584 174.967C145.569 175.318 145.418 175.65 145.164 175.893C144.91 176.136 144.572 176.271 144.22 176.271Z" fill="white" fill-opacity="0.9"/>
<path d="M165.977 176.271H148.744C148.559 176.271 148.377 176.234 148.207 176.161C148.037 176.089 147.884 175.983 147.757 175.849C147.629 175.716 147.53 175.558 147.465 175.385C147.4 175.212 147.371 175.028 147.379 174.844L148.084 159.216C148.1 158.864 148.25 158.533 148.505 158.29C148.759 158.047 149.097 157.911 149.449 157.911H166.681C166.866 157.911 167.049 157.949 167.218 158.021C167.388 158.094 167.541 158.2 167.669 158.333C167.796 158.467 167.895 158.625 167.96 158.797C168.025 158.97 168.054 159.154 168.046 159.339L167.341 174.967C167.325 175.318 167.175 175.65 166.921 175.893C166.666 176.136 166.328 176.271 165.977 176.271Z" fill="white" fill-opacity="0.9"/>
<path d="M187.733 176.271H170.5C170.315 176.271 170.133 176.234 169.963 176.161C169.793 176.089 169.64 175.983 169.512 175.849C169.385 175.716 169.286 175.558 169.221 175.385C169.156 175.212 169.127 175.028 169.135 174.844L169.84 159.216C169.856 158.864 170.006 158.533 170.261 158.29C170.515 158.047 170.853 157.911 171.204 157.911H188.437C188.622 157.911 188.804 157.949 188.974 158.021C189.144 158.094 189.297 158.2 189.425 158.333C189.552 158.467 189.651 158.625 189.716 158.797C189.781 158.97 189.81 159.154 189.802 159.339L189.097 174.967C189.081 175.318 188.931 175.65 188.677 175.893C188.422 176.136 188.084 176.271 187.733 176.271Z" fill="white" fill-opacity="0.9"/>
<path d="M153.686 99.9502L166.832 112.267" stroke="#D62A2A" stroke-width="3" stroke-miterlimit="10" stroke-linecap="round"/>
<path d="M167.168 100.331L153.348 111.886" stroke="#D62A2A" stroke-width="3" stroke-miterlimit="10" stroke-linecap="round"/>
<path d="M109.074 120.368L122.22 132.685" stroke="#D62A2A" stroke-width="3" stroke-miterlimit="10" stroke-linecap="round"/>
<path d="M122.557 120.749L108.736 132.304" stroke="#D62A2A" stroke-width="3" stroke-miterlimit="10" stroke-linecap="round"/>
</g>
<path d="M233.368 185.897H192.993C192.785 185.897 192.581 185.844 192.399 185.743C192.217 185.641 192.064 185.495 191.955 185.318C191.845 185.141 191.783 184.939 191.774 184.731C191.764 184.523 191.808 184.316 191.901 184.13L212.089 131.539C212.19 131.336 212.346 131.166 212.539 131.047C212.732 130.927 212.954 130.864 213.181 130.864C213.408 130.864 213.63 130.927 213.823 131.047C214.016 131.166 214.172 131.336 214.273 131.539L234.46 184.13C234.554 184.316 234.597 184.523 234.588 184.731C234.579 184.939 234.516 185.141 234.407 185.318C234.298 185.495 234.145 185.641 233.963 185.743C233.781 185.844 233.576 185.897 233.368 185.897Z" fill="#D62828"/>
<path d="M238.654 180.384H187.708C185.665 180.384 184.009 182.04 184.009 184.084V186.126C184.009 188.169 185.665 189.826 187.708 189.826H238.654C240.697 189.826 242.354 188.169 242.354 186.126V184.084C242.354 182.04 240.697 180.384 238.654 180.384Z" fill="#F9AE2B"/>
<path d="M204.796 150.537L198.828 166.085H227.533L221.565 150.537H204.796Z" fill="#F9AE2B"/>
<path d="M186.774 45.3262H202.23" stroke="#00BF63" stroke-width="3" stroke-miterlimit="10" stroke-linecap="round"/>
<path d="M186.774 49.7812H202.23" stroke="#00BF63" stroke-width="3" stroke-miterlimit="10" stroke-linecap="round"/>
<path d="M186.774 54.2363H202.23" stroke="#00BF63" stroke-width="3" stroke-miterlimit="10" stroke-linecap="round"/>
<path d="M59.6855 139.951H75.1412" stroke="#00BF63" stroke-width="3" stroke-miterlimit="10" stroke-linecap="round"/>
<path d="M59.6855 144.406H75.1412" stroke="#00BF63" stroke-width="3" stroke-miterlimit="10" stroke-linecap="round"/>
<path d="M59.6855 148.862H75.1412" stroke="#00BF63" stroke-width="3" stroke-miterlimit="10" stroke-linecap="round"/>
<path d="M248.945 128.365C252.594 128.365 255.551 125.407 255.551 121.758C255.551 118.109 252.594 115.151 248.945 115.151C245.297 115.151 242.339 118.109 242.339 121.758C242.339 125.407 245.297 128.365 248.945 128.365Z" fill="#00BF63"/>
<path d="M231.511 129.952C233.403 129.952 234.937 128.418 234.937 126.526C234.937 124.634 233.403 123.101 231.511 123.101C229.62 123.101 228.086 124.634 228.086 126.526C228.086 128.418 229.62 129.952 231.511 129.952Z" fill="#00BF63"/>
<path d="M240.21 110.485C242.913 110.485 245.103 108.294 245.103 105.591C245.103 102.888 242.913 100.697 240.21 100.697C237.507 100.697 235.316 102.888 235.316 105.591C235.316 108.294 237.507 110.485 240.21 110.485Z" fill="#00BF63"/>
<path d="M81.6814 203.646C86.0225 203.646 89.5416 200.126 89.5416 195.785C89.5416 191.443 86.0225 187.924 81.6814 187.924C77.3404 187.924 73.8213 191.443 73.8213 195.785C73.8213 200.126 77.3404 203.646 81.6814 203.646Z" fill="#00BF63"/>
<path d="M65.6675 200.575C67.9286 200.575 69.7617 198.742 69.7617 196.48C69.7617 194.219 67.9286 192.386 65.6675 192.386C63.4063 192.386 61.5732 194.219 61.5732 196.48C61.5732 198.742 63.4063 200.575 65.6675 200.575Z" fill="#00BF63"/>
<path d="M63.7093 184.558C65.0136 184.558 66.071 183.5 66.071 182.196C66.071 180.891 65.0136 179.834 63.7093 179.834C62.405 179.834 61.3477 180.891 61.3477 182.196C61.3477 183.5 62.405 184.558 63.7093 184.558Z" fill="#00BF63"/>
<path d="M76.4007 184.304C79.5274 184.304 82.0621 181.769 82.0621 178.642C82.0621 175.514 79.5274 172.979 76.4007 172.979C73.274 172.979 70.7393 175.514 70.7393 178.642C70.7393 181.769 73.274 184.304 76.4007 184.304Z" fill="#00BF63"/>
<path d="M115.715 71.3204C125.149 71.3204 132.797 63.6716 132.797 54.2364C132.797 44.8011 125.149 37.1523 115.715 37.1523C106.281 37.1523 98.6328 44.8011 98.6328 54.2364C98.6328 63.6716 106.281 71.3204 115.715 71.3204Z" fill="#D62828" fill-opacity="0.99"/>
<path d="M115.715 43.0381H115.715C115.224 43.0381 114.825 43.4365 114.825 43.9279V57.9508C114.825 58.4422 115.224 58.8406 115.715 58.8406H115.715C116.206 58.8406 116.605 58.4422 116.605 57.9508V43.9279C116.605 43.4365 116.206 43.0381 115.715 43.0381Z" fill="#FFFFFE"/>
<path d="M115.715 65.4344C117.862 65.4344 117.866 62.0977 115.715 62.0977C113.568 62.0977 113.565 65.4344 115.715 65.4344Z" fill="#FFFFFE"/>
</svg>
