<svg width="24" height="24" viewBox="0 0 24 24" fill="none" xmlns="http://www.w3.org/2000/svg">
<path d="M11.5012 21C12.5889 21 13.4787 20.1692 13.4787 19.1538H9.5237C9.5237 20.1692 10.4037 21 11.5012 21ZM17.4338 15.4615V10.8462C17.4338 8.01231 15.8122 5.64 12.9844 5.01231V4.38462C12.9844 3.61846 12.3219 3 11.5012 3C10.6805 3 10.0181 3.61846 10.0181 4.38462V5.01231C7.18033 5.64 5.56865 8.00308 5.56865 10.8462V15.4615L4.29315 16.6523C3.67023 17.2338 4.10528 18.2308 4.98528 18.2308H18.0073C18.8873 18.2308 19.3322 17.2338 18.7093 16.6523L17.4338 15.4615Z" fill="#00BF63"/>
</svg>
