<svg width="276" height="231" viewBox="0 0 276 231" fill="none" xmlns="http://www.w3.org/2000/svg">
<g clip-path="url(#clip0_304_1000)">
<path d="M44.1628 90.0855C42.4028 59.7577 60.2299 32.3346 84.0562 23.4166C99.3601 17.6884 119.042 19.5014 133.043 27.8612C154.21 40.4996 146.507 58.6171 166.19 69.9541C185.923 81.3205 200.957 67.3089 223.977 78.3204C248.514 90.0583 254.609 117.066 255.363 120.675C261.159 148.407 245.564 177.828 218.403 192.573C180.005 213.418 129.375 199.023 114.563 176.886C106.344 164.602 110.984 152.672 97.8429 142.898C85.5518 133.756 74.0037 138.623 63.2295 130.348C56.1782 124.933 46.2162 114.662 44.1628 90.0855Z" fill="#F5F8FC"/>
</g>
<g clip-path="url(#clip1_304_1000)">
<path d="M174.125 12.2432H110.714C105.015 12.2432 100.395 16.8833 100.395 22.6072V140.411C100.395 146.134 105.015 150.775 110.714 150.775H174.125C179.824 150.775 184.444 146.134 184.444 140.411V22.6072C184.444 16.8833 179.824 12.2432 174.125 12.2432Z" fill="#B8C2D8"/>
<path d="M172.368 14.3525H163.726C162.805 14.3525 161.931 14.765 161.343 15.4778L160.206 16.8558C159.241 18.026 157.78 18.7072 156.234 18.7072H129.495C128.146 18.7072 126.853 18.1874 125.899 17.2623L123.798 15.2248C123.221 14.6653 122.45 14.3525 121.648 14.3525H112.472C106.851 14.3525 102.295 18.9289 102.295 24.5741V138.648C102.295 144.293 106.851 148.87 112.472 148.87H172.368C177.988 148.87 182.545 144.293 182.551 139.564V25.4901C182.545 18.9289 177.988 14.3525 172.368 14.3525Z" fill="#F9F9FF"/>
<path d="M180.165 36.835H104.814V121.18H180.165V36.835Z" fill="white"/>
<path d="M178.666 127.818L177.38 126.244C177.31 126.17 177.196 126.17 177.126 126.244L175.84 127.606C175.728 127.725 175.534 127.642 175.534 127.475V123.526C175.534 123.32 175.706 123.152 175.918 123.152H178.588C178.8 123.152 178.972 123.32 178.972 123.526V127.687C178.972 127.853 178.778 127.936 178.666 127.818Z" fill="#B8C2D8" stroke="black" stroke-width="0.642" stroke-miterlimit="10"/>
<path d="M109.714 127.711C109.527 127.712 109.347 127.638 109.213 127.506L107.614 125.91C106.982 125.282 106.977 124.259 107.603 123.625C108.164 123.056 109.056 122.985 109.699 123.46C110.411 122.926 111.419 123.073 111.951 123.788C112.428 124.43 112.365 125.327 111.802 125.895L110.214 127.502C110.082 127.635 109.902 127.711 109.714 127.711Z" fill="#F90065"/>
<path d="M160.871 132.242H107.13V134.497H160.871V132.242Z" fill="#B8C2D8"/>
<path d="M130.773 136.399H107.13V138.654H130.773V136.399Z" fill="#B8C2D8"/>
<path d="M131.615 26.9697H113.444V29.2245H131.615V26.9697Z" fill="#B8C2D8"/>
<path d="M180.095 26.9697H161.924V29.2245H180.095V26.9697Z" fill="#B8C2D8"/>
<path d="M126.003 30.3525H113.444V32.6073H126.003V30.3525Z" fill="#B8C2D8"/>
<path d="M108.182 32.6066C109.732 32.6066 110.988 31.3447 110.988 29.7882C110.988 28.2316 109.732 26.9697 108.182 26.9697C106.632 26.9697 105.376 28.2316 105.376 29.7882C105.376 31.3447 106.632 32.6066 108.182 32.6066Z" fill="#B8C2D8"/>
<path d="M121.478 125.232L122.81 125.795L123.302 127.416L124.073 126.571L125.425 127.645L126.318 123.259L121.478 125.232Z" fill="white" stroke="black" stroke-width="0.763" stroke-linecap="round" stroke-linejoin="round"/>
<path d="M122.811 125.795L125.266 124.315L123.653 126.218L124.073 126.57" fill="white"/>
<path d="M122.811 125.795L125.266 124.315L123.653 126.218L124.073 126.57" stroke="black" stroke-width="0.763" stroke-linecap="round" stroke-linejoin="round"/>
<path d="M118.811 125.408C118.811 124.26 117.885 123.329 116.742 123.329C115.598 123.329 114.672 124.26 114.672 125.408C114.672 126.49 115.495 127.378 116.546 127.477L118.811 127.486L118.205 126.878C118.58 126.501 118.811 125.982 118.811 125.408Z" fill="white" stroke="black" stroke-width="0.763" stroke-linecap="round" stroke-linejoin="round"/>
<path d="M156.416 17.3167C157.094 17.3167 157.644 16.7647 157.644 16.0837C157.644 15.4027 157.094 14.8506 156.416 14.8506C155.738 14.8506 155.188 15.4027 155.188 16.0837C155.188 16.7647 155.738 17.3167 156.416 17.3167Z" fill="black"/>
<path d="M152.803 15.4141H128.809V16.7529H152.803V15.4141Z" fill="black"/>
</g>
<g clip-path="url(#clip2_304_1000)">
<path d="M162.365 59.1119C162.365 59.1119 164.461 56.5155 162.156 53.5683C162.156 53.5683 163.623 52.5157 163.553 51.5333C163.483 50.5509 161.178 50.8316 161.178 50.8316C161.178 50.8316 159.711 42.1303 149.999 46.8318C149.999 46.8318 151.816 43.3232 149.859 43.6741C147.903 44.0249 146.296 47.5335 146.366 48.8668C146.366 48.8668 141.406 47.5335 140.847 48.7264C140.288 49.9194 142.384 50.6912 142.384 50.6912C142.384 50.6912 138.052 51.9543 139.519 56.9365C139.519 56.9365 137.423 61.2872 143.501 60.3048C149.58 59.3224 162.365 59.1119 162.365 59.1119Z" fill="#FFCC83"/>
<path d="M133.605 119.359L131.434 119.916C127.342 120.967 123.176 118.487 122.13 114.376L116.148 90.8723C115.102 86.7622 117.572 82.5785 121.664 81.5279L123.834 80.9706C127.927 79.92 132.092 82.4002 133.139 86.5104L139.121 110.015C140.167 114.125 137.697 118.308 133.605 119.359Z" fill="#FAD0C9"/>
<path d="M158.615 68.5902C158.826 68.7693 159.109 68.9531 159.359 68.8338C159.593 68.7222 159.645 68.4128 159.637 68.1527C159.615 67.4436 159.372 66.743 158.95 66.1739C159.593 66.747 160.261 67.3349 161.079 67.5985C161.898 67.8621 162.913 67.7131 163.423 67.0178C163.934 66.3197 163.755 65.2649 163.156 64.6405C162.558 64.016 161.642 63.7793 160.78 63.8311C159.562 63.9045 158.404 64.5443 157.641 65.4934C157.353 65.8516 156.832 66.5052 157.005 66.9894C157.213 67.5719 158.155 68.2015 158.615 68.5902Z" fill="#FFCC83"/>
<path d="M178.714 85.5661L175.084 105.419L174.749 107.248L173.79 112.49V112.491L172.182 121.284H121.336L122.542 115.574V115.574L127.235 93.3404L129.503 82.5971L129.666 81.8274L130.018 80.1615L130.222 79.1959L131.303 78.9489L133.962 78.3405L136.47 77.7672L136.904 77.6676L138.495 77.3041C138.497 77.3041 138.498 77.3034 138.499 77.3034L138.664 77.2655H138.664L141.335 76.6543H162.365C162.365 76.6543 164.939 77.3314 168.288 78.8036C169.869 79.4984 171.624 80.3699 173.361 81.4316C174.664 82.2273 175.957 83.129 177.161 84.1416C177.161 84.1423 177.162 84.1423 177.162 84.1423C177.527 84.4497 177.882 84.7662 178.229 85.0932C178.393 85.2489 178.554 85.4061 178.714 85.5661Z" fill="#F90065"/>
<path d="M174.749 107.249L173.79 112.491V112.491L172.182 121.284H121.336L122.542 115.575V115.574L127.235 93.3408L129.503 82.5975L129.666 81.8277L130.018 80.1618L130.222 79.1963L131.303 78.9493L133.962 78.3409L136.47 77.7676L136.394 78.0581L135.562 81.2642L134.802 84.1918L133.664 88.5747V88.5754L133.37 89.7066L133.955 89.7192L143.083 89.9136L147.818 90.0147L159.71 90.268C159.71 90.268 164.043 80.3576 168.288 78.804C169.869 79.4987 171.624 80.3703 173.361 81.432C171.972 81.9007 170.326 82.8213 168.808 84.295C168.797 84.3055 168.786 84.3167 168.775 84.3272L168.774 84.3279C167.881 85.2009 167.033 86.2661 166.308 87.5439L166.308 87.5453C166.108 87.8976 165.918 88.266 165.739 88.6505C164.551 91.2027 163.849 94.4839 164.112 98.6184C164.219 100.31 164.585 101.689 165.142 102.808C166.181 104.897 167.884 106.078 169.809 106.692H169.81C171.05 107.089 172.383 107.25 173.688 107.266C174.045 107.271 174.399 107.264 174.749 107.249Z" fill="#F9F9FF"/>
<path d="M156.697 100.254C156.745 99.817 157.14 99.5006 157.578 99.5302C158.972 99.6247 162.784 100.399 168.513 105.495C175.849 112.021 173.823 113.916 171.657 113.354C169.492 112.793 163.832 109.776 161.457 107.25C159.378 105.039 156.492 102.109 156.697 100.254Z" fill="black"/>
<path d="M122.227 79.7663C122.227 79.7663 114.157 77.1457 108.708 80.7947C103.258 84.4436 107.729 89.1451 114.087 89.7065C120.445 90.2678 122.227 79.7663 122.227 79.7663Z" fill="#112E5B"/>
<path d="M162.365 76.6546C162.365 76.6546 157.823 82.1981 146.714 82.6894C135.606 83.1806 137.841 77.4966 137.841 77.4966C141.358 76.5809 143.175 74.2779 144.113 72.0801C145.187 69.5623 145.107 67.1814 145.107 67.1814L149.448 65.2924L157.683 61.708C156.496 69.4269 162.365 76.6546 162.365 76.6546Z" fill="#FAD0C9"/>
<path d="M156.286 65.0059C156.286 65.0059 151.256 77.2157 146.714 75.5316C145.166 74.9576 144.421 73.6082 144.113 72.0799C145.187 69.5621 145.107 67.1812 145.107 67.1812L149.448 65.2922L156.286 65.0059Z" fill="black"/>
<path d="M163.099 58.8406C162.38 57.8319 161.215 57.3129 159.984 57.3187C158.969 52.063 155.221 49.1114 150.635 49.564C145.672 50.0539 141.609 54.3452 142.205 60.4386C142.801 66.532 143.896 71.4113 148.86 70.9214C151.64 70.6471 155.042 68.7467 157.394 66.0579C158.994 65.9362 160.768 65.3218 161.828 64.5586C163.781 63.1541 164.35 60.5941 163.099 58.8406Z" fill="#FAD0C9"/>
<path d="M162.23 62.1964C161.623 61.1745 160.703 60.3233 159.639 59.7997L159.795 59.4795C160.92 60.0332 161.893 60.9331 162.535 62.0136L162.23 62.1964Z" fill="black"/>
<path d="M161.114 62.5711L160.776 62.4616L161.294 60.8506L161.631 60.9599L161.114 62.5711Z" fill="black"/>
<path d="M151.04 59.8911C151.35 59.8605 151.567 59.4835 151.525 59.0489C151.482 58.6144 151.196 58.287 150.886 58.3176C150.576 58.3482 150.359 58.7253 150.401 59.1598C150.444 59.5943 150.73 59.9217 151.04 59.8911Z" fill="black"/>
<path d="M145.185 60.2778C145.496 60.2472 145.713 59.8702 145.67 59.4357C145.628 59.0011 145.342 58.6737 145.031 58.7043C144.721 58.7349 144.504 59.112 144.547 59.5465C144.589 59.981 144.875 60.3085 145.185 60.2778Z" fill="black"/>
<path d="M145.653 63.5243L145.494 63.2052C146.403 62.7501 147.108 61.9343 147.429 60.967C147.75 59.9996 147.673 58.9219 147.218 58.0103L147.536 57.8506C148.033 58.8461 148.116 60.0231 147.766 61.0797C147.415 62.1362 146.645 63.0272 145.653 63.5243Z" fill="black"/>
<path d="M148.239 65.9738L148.191 65.6204C149.622 65.4278 150.921 64.327 151.35 62.9434L151.689 63.0495C151.212 64.5849 149.826 65.7601 148.239 65.9738Z" fill="black"/>
<path d="M154.493 68.8535L154.294 68.5585C155.406 67.8002 156.405 66.9193 157.261 65.9402L157.309 65.8856L157.381 65.8801C158.923 65.7627 160.669 65.1734 161.725 64.4137C162.634 63.7599 163.261 62.8288 163.492 61.7916C163.721 60.7618 163.53 59.7506 162.955 58.9444C162.298 58.0237 161.224 57.4969 160.004 57.4969C159.998 57.4969 159.991 57.4969 159.985 57.4969L159.837 57.4976L159.809 57.3526C158.829 52.2768 155.235 49.2891 150.653 49.7414L150.618 49.3866C152.935 49.1579 155.06 49.7719 156.761 51.1625C158.45 52.5434 159.613 54.6088 160.13 57.1421C161.413 57.1772 162.542 57.7532 163.244 58.7367C163.878 59.6266 164.089 60.7391 163.838 61.8693C163.589 62.9921 162.912 63.9987 161.932 64.7035C160.844 65.4861 159.064 66.0952 157.48 66.2298C156.614 67.2099 155.61 68.0923 154.493 68.8535Z" fill="black"/>
<path d="M148.199 71.1332C147.471 71.1332 146.81 71.008 146.227 70.7591L146.365 70.431C147.069 70.7314 147.902 70.8367 148.842 70.7441C150.534 70.577 152.47 69.8009 154.293 68.5586L154.492 68.8536C152.621 70.1288 150.627 70.9261 148.877 71.0989C148.645 71.1218 148.419 71.1332 148.199 71.1332Z" fill="black"/>
<path d="M162.346 121.284H142.769C141.446 119.155 140.202 116.76 139.021 114.178V114.177C136.723 109.152 134.66 103.422 132.717 97.5867C132.273 96.257 131.836 94.9216 131.404 93.5884C130.516 90.8481 131.153 87.9192 132.928 85.8189C133.455 85.1944 134.084 84.6429 134.802 84.1916C134.885 84.1397 134.968 84.0892 135.054 84.0401C136.326 83.3033 137.714 82.9531 139.085 82.9531C141.574 82.9531 144.003 84.1096 145.562 86.2035C145.753 86.4603 145.93 86.7305 146.094 87.0147L147.818 90.0145L155.116 102.709L161.794 114.327C163.06 116.529 163.183 119.08 162.346 121.284Z" fill="#FAD0C9"/>
<path d="M180.041 86.5413V98.8578L175.083 105.42L173.688 107.266L172.18 109.262L169.658 112.599L163.096 121.284H144.045C143.826 119.141 144.384 116.913 145.783 115.062L155.116 102.71L155.124 102.7L156.694 100.621L157.52 99.528L165.739 88.6506L166.739 87.3265C169.471 83.7113 174.442 82.8096 178.229 85.0936C178.501 85.2579 178.766 85.4382 179.025 85.6347C179.392 85.9147 179.731 86.2178 180.041 86.5413Z" fill="#FAD0C9"/>
<path d="M127.445 82.9144C136.397 81.6663 143.423 78.9896 143.139 76.9359C142.855 74.8822 135.368 74.2292 126.417 75.4773C117.466 76.7255 110.439 79.4022 110.723 81.4559C111.007 83.5096 118.494 84.1626 127.445 82.9144Z" fill="#F2F2F2"/>
<path d="M116.043 80.163C116.043 80.163 113.562 80.4592 113.877 77.9876C114.227 75.2509 116.323 73.637 116.323 73.637C116.016 71.7219 119.201 65.0495 127.222 65.4971C132.252 65.7778 133.929 70.0582 133.929 70.0582C133.929 70.0582 137.422 70.1284 138.89 73.1458C140.442 76.3386 138.47 77.5666 137.772 77.8473C137.073 78.128 116.043 80.163 116.043 80.163Z" fill="#7C4B33"/>
<path d="M145.647 86.0119C146.176 84.7933 145.574 83.3781 144.333 82.9182C142.076 82.0823 138.574 80.6146 137.724 79.2862C136.444 77.2863 135.606 73.2163 133.999 73.1462C132.38 73.0755 130.087 74.4093 131.624 80.444C131.624 80.444 116.043 77.0758 112.131 84.7245C108.218 92.3732 117.441 93.0749 124.078 92.9346C130.715 92.7943 128.619 96.8642 130.576 97.9168C132.313 98.8515 142.866 92.4259 145.647 86.0119Z" fill="#112E5B"/>
<path d="M180.041 86.1974V102.015C177.227 107.375 174.594 111.319 173.79 112.49V112.491C173.637 112.715 173.55 112.837 173.542 112.849C173.543 112.845 173.545 112.842 173.547 112.839C173.554 112.824 173.561 112.809 173.568 112.793C173.568 112.79 173.57 112.788 173.571 112.785C173.577 112.769 173.584 112.753 173.589 112.736C173.592 112.73 173.594 112.723 173.596 112.716C173.601 112.703 173.605 112.69 173.609 112.677C173.612 112.669 173.614 112.661 173.616 112.654C173.619 112.642 173.622 112.631 173.624 112.619C173.628 112.606 173.631 112.593 173.633 112.58C173.637 112.561 173.641 112.542 173.644 112.522C173.646 112.508 173.649 112.493 173.65 112.477C173.652 112.465 173.653 112.452 173.654 112.439C173.656 112.418 173.658 112.396 173.659 112.374C173.66 112.348 173.661 112.322 173.661 112.294C173.661 111.621 173.252 110.63 172.18 109.261C171.724 108.68 171.149 108.03 170.433 107.306C170.387 107.26 170.34 107.212 170.293 107.165C170.138 107.011 169.977 106.853 169.81 106.692H169.809C169.414 106.311 168.983 105.912 168.513 105.495C167.302 104.417 166.176 103.533 165.142 102.807C161.281 100.101 158.678 99.6037 157.578 99.5293C157.558 99.5279 157.539 99.5272 157.52 99.5272C157.493 99.5272 157.467 99.5286 157.44 99.5314C157.426 99.5328 157.413 99.5342 157.4 99.5363C157.377 99.5398 157.354 99.544 157.332 99.5489L157.298 99.5574C157.273 99.5644 157.249 99.5728 157.224 99.5819C157.212 99.5861 157.201 99.591 157.189 99.596C157.178 99.6009 157.166 99.6058 157.155 99.6121C157.145 99.6163 157.134 99.6219 157.124 99.6282C157.116 99.6317 157.109 99.636 157.102 99.6402C157.092 99.6458 157.081 99.6521 157.071 99.6584C157.045 99.6753 157.02 99.6928 156.996 99.7124C156.988 99.7188 156.979 99.7258 156.971 99.7335C156.962 99.7405 156.955 99.7475 156.946 99.7553L161.115 94.3176L166.308 87.5447L166.308 87.5433L168.774 84.3273L168.775 84.3266L168.793 84.3027C168.793 84.3027 168.798 84.2999 168.808 84.2943C169.082 84.147 172.97 82.1337 177.161 84.1413C177.161 84.142 177.162 84.142 177.162 84.142C177.677 84.3883 178.196 84.6957 178.714 85.0746C179.199 85.4304 179.642 85.8044 180.041 86.1974Z" fill="#F90065"/>
<path d="M145.597 52.1649C145.597 52.1649 144.13 54.5507 147.623 55.3226C151.116 56.0945 155.029 55.7436 155.029 55.7436C155.029 55.7436 153.701 60.7258 156.426 59.9539C159.151 59.1821 158.382 56.305 161.526 57.3576C161.526 57.3576 158.452 49.1475 153.003 49.0773C147.553 49.0072 145.597 52.1649 145.597 52.1649Z" fill="#FFCC83"/>
<path d="M146.086 52.0247C146.086 52.0247 143.473 55.3087 142.103 55.6736C140.734 56.0384 145.597 49.709 149.649 49.709C153.701 49.709 146.086 52.0247 146.086 52.0247Z" fill="#FFCC83"/>
<path d="M159.291 109.495C159.245 109.495 159.2 109.471 159.173 109.429L154.911 102.622C154.87 102.557 154.89 102.47 154.955 102.429C155.02 102.387 155.107 102.407 155.148 102.473L159.41 109.28C159.451 109.345 159.431 109.432 159.366 109.473C159.343 109.488 159.317 109.495 159.291 109.495Z" fill="black"/>
<path d="M156.915 99.881C156.885 99.881 156.855 99.8713 156.829 99.8514C156.768 99.8038 156.757 99.7156 156.805 99.6544L165.608 88.2866C165.655 88.2254 165.743 88.2144 165.804 88.262C165.865 88.3096 165.876 88.3978 165.829 88.459L157.025 99.8268C156.998 99.8624 156.957 99.881 156.915 99.881Z" fill="black"/>
<path d="M121.491 73.965C121.473 73.965 121.454 73.9615 121.437 73.954C119.832 73.2759 117.97 73.2241 116.33 73.8119C116.258 73.8379 116.178 73.7998 116.152 73.7269C116.126 73.6539 116.164 73.5736 116.236 73.5475C117.942 72.9364 119.876 72.9903 121.545 73.6953C121.616 73.7254 121.65 73.8076 121.62 73.8791C121.597 73.9328 121.545 73.965 121.491 73.965Z" fill="black"/>
<path d="M117.395 75.5508C117.33 75.5508 117.271 75.505 117.258 75.4385C117.242 75.3626 117.291 75.2884 117.367 75.273C118.59 75.0223 119.84 74.9537 121.083 75.0688C121.16 75.0759 121.216 75.1442 121.209 75.2214C121.202 75.2986 121.133 75.3549 121.057 75.3483C119.841 75.2355 118.619 75.3028 117.423 75.548C117.413 75.5499 117.404 75.5508 117.395 75.5508Z" fill="black"/>
<path d="M123.165 69.6819C123.128 69.6819 123.091 69.6669 123.063 69.6372C122.566 69.1003 121.894 68.7443 121.173 68.6345C121.096 68.6229 121.044 68.5514 121.055 68.4748C121.067 68.3982 121.139 68.3456 121.214 68.357C121.998 68.4762 122.728 68.8629 123.268 69.446C123.32 69.5027 123.317 69.5915 123.261 69.6443C123.234 69.6695 123.2 69.6819 123.165 69.6819Z" fill="black"/>
<path d="M123.995 68.4352C123.968 68.4352 123.939 68.4268 123.915 68.4094C123.42 68.0572 122.88 67.7732 122.311 67.5652C122.238 67.5387 122.201 67.4582 122.227 67.3854C122.254 67.3125 122.334 67.275 122.406 67.3014C122.999 67.518 123.561 67.8137 124.076 68.1804C124.139 68.2252 124.154 68.3128 124.11 68.376C124.082 68.4146 124.039 68.4352 123.995 68.4352Z" fill="black"/>
<path d="M127.429 69.5889C127.382 69.5889 127.336 69.5649 127.309 69.5215C126.454 68.111 124.977 67.0987 123.357 66.8137C123.281 66.8003 123.23 66.7276 123.243 66.6512C123.257 66.5749 123.329 66.5241 123.405 66.5372C125.103 66.836 126.652 67.897 127.548 69.3755C127.588 69.4417 127.567 69.5281 127.501 69.5684C127.479 69.5823 127.454 69.5889 127.429 69.5889Z" fill="black"/>
<path d="M131.342 70.4925C131.287 70.4925 131.236 70.4601 131.213 70.4064C131.183 70.335 131.217 70.2527 131.288 70.2227C132.128 69.8686 133.052 69.7261 133.959 69.811C134.036 69.8182 134.092 69.8865 134.085 69.9637C134.078 70.0408 134.011 70.0973 133.933 70.0904C133.071 70.0099 132.194 70.1451 131.396 70.4815C131.378 70.489 131.36 70.4925 131.342 70.4925Z" fill="black"/>
<path d="M136.747 74.1383C136.688 74.1383 136.634 74.1011 136.614 74.0423C136.293 73.0754 135.556 72.2327 134.642 71.7881C134.573 71.7543 134.544 71.6704 134.577 71.6006C134.611 71.5309 134.695 71.5018 134.764 71.5355C135.758 72.0195 136.529 72.9008 136.879 73.9534C136.904 74.0269 136.864 74.1065 136.791 74.131C136.776 74.1359 136.761 74.1383 136.747 74.1383Z" fill="black"/>
<path d="M125.388 64.6538C125.176 64.6538 124.963 64.636 124.753 64.5918C124.103 64.4553 123.385 63.9791 123.247 63.2229C123.121 62.531 123.501 61.7989 124.378 61.047L124.507 60.937C125.078 60.4509 125.668 59.9482 125.783 59.2554C125.895 58.5717 125.522 57.8339 124.673 57.0624C124.57 56.9691 124.465 56.8767 124.359 56.784C123.769 56.2655 123.159 55.7293 122.901 54.9715C122.466 53.69 123.199 52.3807 123.92 51.2539C123.962 51.1887 124.048 51.1698 124.113 51.2118C124.178 51.2537 124.197 51.3405 124.155 51.4057C123.469 52.4772 122.77 53.7178 123.166 54.8808C123.399 55.5675 123.981 56.0785 124.543 56.5727C124.65 56.6665 124.757 56.7599 124.86 56.8542C125.785 57.694 126.188 58.5173 126.058 59.3013C125.927 60.0957 125.269 60.6564 124.688 61.1511L124.559 61.2605C123.764 61.9427 123.415 62.5859 123.522 63.1724C123.636 63.8003 124.251 64.1998 124.81 64.3171C125.442 64.4496 126.125 64.3188 126.729 64.2033C126.805 64.1888 126.878 64.2387 126.892 64.3148C126.906 64.391 126.857 64.4645 126.781 64.479C126.345 64.5625 125.868 64.6538 125.388 64.6538Z" fill="black"/>
<path d="M126.49 61.0126C126.45 61.0126 126.41 60.9953 126.382 60.9618C126.333 60.9021 126.341 60.8136 126.401 60.7641C127.407 59.9262 127.607 58.2661 126.828 57.2114C126.625 56.9365 126.374 56.707 126.109 56.4641C125.821 56.201 125.524 55.9289 125.296 55.5959C124.709 54.7371 124.693 53.5265 125.256 52.652C125.298 52.587 125.385 52.5683 125.45 52.6104C125.514 52.6525 125.533 52.7394 125.491 52.8045C124.987 53.5865 125.002 54.6691 125.527 55.4371C125.736 55.7433 126.008 55.9926 126.297 56.2565C126.561 56.4978 126.834 56.7474 127.053 57.0442C127.916 58.2126 127.694 60.0519 126.579 60.9803C126.553 61.002 126.521 61.0126 126.49 61.0126Z" fill="black"/>
<path d="M122.038 40.2344H108.83C107.934 40.2344 107.207 40.9643 107.207 41.8648V43.8669C107.207 44.7673 107.934 45.4972 108.83 45.4972H122.038C122.934 45.4972 123.661 44.7673 123.661 43.8669V41.8648C123.661 40.9643 122.934 40.2344 122.038 40.2344Z" fill="#F90065"/>
<path d="M112.271 41.4502H113.108V43.351H114.116V44.009H112.271V41.4502Z" fill="white"/>
<path d="M114.479 41.4502H115.317V44.009H114.479V41.4502Z" fill="white"/>
<path d="M115.607 41.4502H116.466L116.918 43.3145H116.987L117.442 41.4502H118.29L117.613 44.009H116.284L115.607 41.4502Z" fill="white"/>
<path d="M118.581 41.4502H120.739V42.1081H119.404V42.4006H120.739V43.0586H119.404V43.351H120.739V44.009H118.581V41.4502Z" fill="white"/>
<path d="M110.14 43.5334C110.507 43.5334 110.804 43.2349 110.804 42.8668C110.804 42.4986 110.507 42.2002 110.14 42.2002C109.774 42.2002 109.477 42.4986 109.477 42.8668C109.477 43.2349 109.774 43.5334 110.14 43.5334Z" fill="white"/>
<path d="M123.031 113.003C123.021 113.003 123.011 113.002 123.001 113C122.925 112.984 122.878 112.909 122.894 112.833L127.086 93.3257C127.102 93.2499 127.176 93.2015 127.252 93.2181C127.327 93.2344 127.375 93.3091 127.359 93.3849L123.167 112.893C123.153 112.958 123.095 113.003 123.031 113.003Z" fill="black"/>
<path d="M139.539 80.1066L139.403 79.7772C141.777 78.7883 143.074 77.7615 142.963 76.9601C142.873 76.3073 141.839 75.7595 140.051 75.4176L140.117 75.0674C142.123 75.4509 143.199 76.0712 143.315 76.9111C143.49 78.1788 141.359 79.3485 139.539 80.1066Z" fill="black"/>
</g>
<g clip-path="url(#clip3_304_1000)">
<path d="M100.289 51.7627L71.2186 51.7645C69.1523 51.7646 67.4774 53.447 67.4775 55.5222L67.478 63.2273C67.4781 65.3026 69.1533 66.9847 71.2195 66.9846L91.109 66.9834L102.417 70.8582L101.152 66.8812C102.802 66.4898 104.031 65.002 104.031 63.2251L104.03 55.52C104.03 53.4448 102.355 51.7626 100.289 51.7627Z" fill="#F90065"/>
<path d="M102.554 70.9982L91.0943 67.0717L71.2193 67.0729C69.108 67.073 67.3903 65.348 67.3901 63.2275L67.3896 55.5224C67.3895 53.402 69.1071 51.6767 71.2184 51.6766L100.288 51.6748C102.4 51.6747 104.118 53.3997 104.118 55.5202L104.118 63.2253C104.118 64.9851 102.949 66.5009 101.264 66.9442L102.554 70.9982ZM71.2184 51.8528C69.2038 51.8529 67.5649 53.4991 67.565 55.5224L67.5655 63.2275C67.5656 65.2509 69.2047 66.8969 71.2193 66.8967L91.1233 66.8955L91.1371 66.9002L102.281 70.7185L101.04 66.8176L101.132 66.7957C102.787 66.4031 103.943 64.9348 103.943 63.2253L103.942 55.5202C103.942 53.4968 102.303 51.8508 100.288 51.851L71.2184 51.8528Z" fill="black"/>
<path d="M76.2407 62.8357C75.9178 62.8365 75.6079 62.7082 75.3794 62.4791L72.6349 59.7222C71.5518 58.6368 71.5498 56.8751 72.6305 55.7873C73.6005 54.8108 75.1365 54.6955 76.2403 55.5164C77.4697 54.6018 79.2047 54.8614 80.1153 56.0962C80.9328 57.2047 80.8182 58.7473 79.8461 59.7217L77.102 62.4785C76.8736 62.7079 76.5637 62.8364 76.2407 62.8357Z" fill="white"/>
<path d="M83.8546 58.8037L83.8545 57.1498C84.5259 57.0534 85.1654 56.7804 85.6289 56.1622L87.0199 56.1621L87.0203 61.782L84.814 61.7821L84.8138 58.5788C84.486 58.7153 84.1503 58.7876 83.8546 58.8037Z" fill="white"/>
<path d="M89.6499 60.1524C90.1616 60.1523 90.4653 60.0319 90.4653 59.6867C90.4653 59.3254 90.1215 59.1327 89.6259 59.1328C89.2022 59.1328 88.7786 59.2131 88.4748 59.4299L88.1231 59.2533L88.6106 56.1623L92.3276 56.1621L92.3277 57.7517L89.9216 57.7519L89.8417 58.2014C90.0415 58.1694 90.2574 58.1532 90.4811 58.1532C91.7122 58.1532 92.6076 58.8034 92.6076 59.9354C92.6077 61.0835 91.6645 61.9265 89.9938 61.9266C89.0905 61.9267 88.0273 61.6538 87.4678 61.0437L88.3149 59.6948C88.6108 59.9517 89.2023 60.1524 89.6499 60.1524Z" fill="white"/>
<path d="M95.3889 56.001C96.7238 56.0009 97.6991 56.6512 97.6992 57.8715C97.6992 58.7065 97.2436 59.2765 96.1805 60.1276L97.8113 60.1275L97.8114 61.7733L92.8553 61.7736L92.8552 61.5327L94.406 59.9109C95.2772 59.0036 95.573 58.6584 95.5729 58.3453C95.5729 58.0322 95.3491 57.8235 95.0053 57.8235C94.6456 57.8235 94.3898 58.0644 94.3259 58.4738L92.7031 57.9842C92.863 56.796 93.8142 56.0011 95.3889 56.001Z" fill="white"/>
<path d="M212.895 33.3525H188.175C186.109 33.3525 184.434 35.0348 184.434 37.11V44.8152C184.434 46.8904 186.109 48.5727 188.175 48.5727H212.895C214.961 48.5727 216.636 46.8904 216.636 44.8152V37.11C216.636 35.0348 214.961 33.3525 212.895 33.3525Z" fill="#F90065"/>
<path d="M212.896 48.66L188.175 48.6615C186.064 48.6616 184.346 46.9366 184.346 44.8161L184.346 37.1111C184.346 34.9906 186.063 33.2653 188.174 33.2652L212.895 33.2637C215.006 33.2635 216.724 34.9886 216.724 37.1091L216.724 44.8141C216.724 46.9346 215.007 48.6598 212.896 48.66ZM188.174 33.4414C186.16 33.4415 184.521 35.0877 184.521 37.1111L184.522 44.8161C184.522 46.8395 186.161 48.4855 188.175 48.4853L212.896 48.4838C214.91 48.4837 216.549 46.8375 216.549 44.8141L216.548 37.1091C216.548 35.0857 214.909 33.4397 212.895 33.4398L188.174 33.4414Z" fill="black"/>
<path d="M202.867 37.8613C204.202 37.8612 205.178 38.5115 205.178 39.7318C205.178 40.5668 204.722 41.1368 203.659 41.9879L205.29 41.9878L205.29 43.6337L200.334 43.634L200.334 43.3931L201.884 41.7713C202.756 40.864 203.051 40.5188 203.051 40.2056C203.051 39.8925 202.828 39.6838 202.484 39.6838C202.124 39.6839 201.868 39.9247 201.804 40.3342L200.182 39.8445C200.341 38.6563 201.293 37.8614 202.867 37.8613Z" fill="white"/>
<path d="M208.423 37.8613C210.062 37.8612 211.173 39.0735 211.173 40.8076C211.173 42.5658 210.062 43.7862 208.424 43.7863C206.785 43.7864 205.682 42.5662 205.682 40.808C205.682 39.0818 206.785 37.8614 208.423 37.8613ZM208.432 41.7873C208.887 41.7872 209.119 41.4099 209.119 40.8077C209.119 40.1976 208.887 39.8283 208.431 39.8283C207.976 39.8283 207.744 40.2057 207.744 40.8078C207.744 41.418 207.976 41.7873 208.432 41.7873Z" fill="white"/>
<path d="M197.214 39.3169C196.992 39.0479 196.661 38.8925 196.313 38.8931L194.527 38.8932L194.717 38.3831C194.85 38.046 194.872 37.6751 194.779 37.3245C194.583 36.6249 193.948 36.1414 193.225 36.1406C193.069 36.1406 192.929 36.2321 192.866 36.3742L191.751 38.8941L191.751 44.0054L195.814 44.0051C196.382 44.0051 196.869 43.5972 196.97 43.0361L197.468 40.2835C197.531 39.9394 197.438 39.5851 197.214 39.3169Z" fill="white"/>
<path d="M191.752 38.8936L190.832 38.8936C190.183 38.8943 189.658 39.4221 189.657 40.0734L189.657 42.826C189.658 43.4773 190.184 44.005 190.832 44.0056L191.752 44.0056L191.752 38.8943V38.8936Z" fill="#112E5B"/>
<path d="M165.146 142.66C165.12 142.66 165.095 142.644 165.084 142.618L164.217 140.558C164.203 140.523 164.219 140.483 164.253 140.468C164.288 140.454 164.328 140.47 164.342 140.505L165.209 142.565C165.223 142.599 165.207 142.639 165.173 142.654C165.164 142.658 165.155 142.66 165.146 142.66Z" fill="black"/>
<path d="M171.777 142.717C171.768 142.717 171.76 142.716 171.751 142.712C171.717 142.698 171.7 142.658 171.714 142.623L172.552 140.551C172.566 140.516 172.606 140.5 172.64 140.514C172.675 140.528 172.692 140.568 172.678 140.603L171.84 142.675C171.829 142.701 171.804 142.717 171.777 142.717Z" fill="black"/>
<path d="M176.425 147.468C176.399 147.468 176.374 147.452 176.363 147.426C176.348 147.391 176.364 147.351 176.399 147.337L178.45 146.466C178.484 146.452 178.524 146.468 178.539 146.503C178.554 146.537 178.538 146.577 178.503 146.592L176.452 147.462C176.443 147.466 176.434 147.468 176.425 147.468Z" fill="black"/>
<path d="M178.431 154.969C178.422 154.969 178.414 154.967 178.405 154.964L176.342 154.123C176.307 154.108 176.291 154.069 176.305 154.034C176.319 153.999 176.359 153.982 176.393 153.996L178.456 154.838C178.491 154.852 178.508 154.892 178.494 154.926C178.483 154.953 178.458 154.969 178.431 154.969Z" fill="black"/>
<path d="M172.505 160.856C172.478 160.856 172.453 160.84 172.442 160.814L171.576 158.754C171.561 158.719 171.577 158.679 171.612 158.665C171.646 158.65 171.686 158.666 171.701 158.701L172.567 160.761C172.582 160.796 172.566 160.836 172.531 160.85C172.523 160.854 172.514 160.856 172.505 160.856Z" fill="black"/>
<path d="M164.169 160.809C164.161 160.809 164.152 160.808 164.144 160.804C164.109 160.79 164.092 160.75 164.107 160.715L164.443 159.884C164.457 159.849 164.497 159.833 164.531 159.847C164.566 159.861 164.582 159.901 164.568 159.936L164.232 160.767C164.222 160.793 164.196 160.809 164.169 160.809Z" fill="black"/>
<path d="M164.505 159.978C164.497 159.978 164.488 159.976 164.48 159.973C164.445 159.959 164.428 159.919 164.443 159.884L164.944 158.643C164.958 158.608 164.998 158.592 165.033 158.606C165.067 158.62 165.084 158.66 165.07 158.694L164.568 159.935C164.558 159.962 164.532 159.978 164.505 159.978Z" fill="black"/>
<path d="M158.308 154.858C158.282 154.858 158.257 154.842 158.246 154.816C158.231 154.781 158.247 154.741 158.282 154.727L159.307 154.292C159.342 154.277 159.382 154.293 159.396 154.328C159.411 154.363 159.395 154.403 159.36 154.417L158.335 154.852C158.326 154.856 158.317 154.858 158.308 154.858Z" fill="black"/>
<path d="M159.334 154.422C159.307 154.422 159.282 154.407 159.271 154.38C159.256 154.346 159.273 154.306 159.307 154.291L160.333 153.856C160.367 153.841 160.407 153.857 160.422 153.892C160.436 153.927 160.42 153.967 160.386 153.982L159.36 154.417C159.351 154.42 159.342 154.422 159.334 154.422Z" fill="black"/>
<path d="M160.417 147.328C160.408 147.328 160.399 147.327 160.391 147.323L158.769 146.662C158.734 146.647 158.717 146.608 158.732 146.573C158.746 146.538 158.786 146.521 158.82 146.535L160.442 147.197C160.477 147.211 160.494 147.251 160.479 147.286C160.469 147.312 160.443 147.328 160.417 147.328Z" fill="black"/>
<path d="M168.408 142.026C168.371 142.026 168.34 141.997 168.34 141.959L168.327 141.05C168.327 141.012 168.357 140.981 168.394 140.98H168.395C168.432 140.98 168.462 141.01 168.463 141.048L168.476 141.957C168.476 141.995 168.446 142.026 168.409 142.026H168.408Z" fill="black"/>
<path d="M174.529 144.586C174.512 144.586 174.495 144.579 174.481 144.566C174.455 144.54 174.454 144.497 174.48 144.47L175.799 143.108C175.826 143.081 175.869 143.08 175.895 143.106C175.922 143.132 175.923 143.176 175.897 143.203L174.577 144.565C174.564 144.579 174.547 144.586 174.529 144.586Z" fill="black"/>
<path d="M177.056 150.742C177.019 150.742 176.989 150.712 176.988 150.675C176.988 150.638 177.018 150.607 177.055 150.606L178.169 150.591H178.169C178.207 150.591 178.237 150.621 178.237 150.658C178.238 150.695 178.208 150.726 178.17 150.727L177.057 150.742H177.056Z" fill="black"/>
<path d="M175.154 157.523C175.137 157.523 175.12 157.516 175.106 157.503L174.46 156.872C174.433 156.846 174.433 156.802 174.459 156.775C174.485 156.749 174.528 156.748 174.555 156.774L175.201 157.405C175.228 157.432 175.228 157.475 175.202 157.502C175.189 157.516 175.171 157.523 175.154 157.523Z" fill="black"/>
<path d="M168.399 161.023C168.362 161.023 168.331 160.993 168.331 160.956L168.309 159.362C168.308 159.324 168.338 159.294 168.376 159.293H168.376C168.414 159.293 168.444 159.323 168.444 159.36L168.466 160.954C168.467 160.992 168.437 161.023 168.4 161.023H168.399Z" fill="black"/>
<path d="M161.779 157.362C161.762 157.362 161.745 157.355 161.731 157.343C161.705 157.316 161.704 157.273 161.73 157.246L162.207 156.754C162.233 156.727 162.276 156.726 162.303 156.753C162.33 156.779 162.33 156.822 162.304 156.849L161.827 157.341C161.814 157.355 161.797 157.362 161.779 157.362Z" fill="black"/>
<path d="M158.385 150.73C158.348 150.73 158.318 150.7 158.317 150.663C158.317 150.625 158.347 150.594 158.384 150.594L159.727 150.575H159.728C159.765 150.575 159.796 150.605 159.796 150.642C159.797 150.68 159.767 150.71 159.729 150.711L158.386 150.73H158.385Z" fill="black"/>
<path d="M162.277 144.564C162.26 144.564 162.242 144.557 162.229 144.545L161.351 143.686C161.324 143.66 161.323 143.617 161.349 143.59C161.375 143.563 161.418 143.562 161.445 143.589L162.324 144.447C162.351 144.473 162.351 144.516 162.325 144.543C162.312 144.557 162.294 144.564 162.277 144.564Z" fill="black"/>
<path d="M165.146 142.66C165.12 142.66 165.095 142.644 165.084 142.618L164.217 140.558C164.203 140.523 164.219 140.483 164.253 140.468C164.288 140.454 164.328 140.47 164.342 140.505L165.209 142.565C165.223 142.599 165.207 142.639 165.173 142.654C165.164 142.658 165.155 142.66 165.146 142.66Z" fill="black"/>
<path d="M171.777 142.717C171.768 142.717 171.76 142.716 171.751 142.712C171.717 142.698 171.7 142.658 171.714 142.623L172.552 140.551C172.566 140.516 172.606 140.5 172.64 140.514C172.675 140.528 172.692 140.568 172.678 140.603L171.84 142.675C171.829 142.701 171.804 142.717 171.777 142.717Z" fill="black"/>
<path d="M176.425 147.468C176.399 147.468 176.374 147.452 176.363 147.426C176.348 147.391 176.364 147.351 176.399 147.337L178.45 146.466C178.484 146.452 178.524 146.468 178.539 146.503C178.554 146.537 178.538 146.577 178.503 146.592L176.452 147.462C176.443 147.466 176.434 147.468 176.425 147.468Z" fill="black"/>
<path d="M178.431 154.969C178.422 154.969 178.414 154.967 178.405 154.964L176.342 154.123C176.307 154.108 176.291 154.069 176.305 154.034C176.319 153.999 176.359 153.982 176.393 153.996L178.456 154.838C178.491 154.852 178.508 154.892 178.494 154.926C178.483 154.953 178.458 154.969 178.431 154.969Z" fill="black"/>
<path d="M172.505 160.856C172.478 160.856 172.453 160.84 172.442 160.814L171.576 158.754C171.561 158.719 171.577 158.679 171.612 158.665C171.646 158.65 171.686 158.666 171.701 158.701L172.567 160.761C172.582 160.796 172.566 160.836 172.531 160.85C172.523 160.854 172.514 160.856 172.505 160.856Z" fill="black"/>
<path d="M164.169 160.809C164.161 160.809 164.152 160.807 164.144 160.804C164.109 160.79 164.092 160.75 164.107 160.715L164.944 158.643C164.958 158.608 164.998 158.592 165.033 158.606C165.067 158.62 165.084 158.66 165.07 158.694L164.232 160.767C164.222 160.793 164.196 160.809 164.169 160.809Z" fill="black"/>
<path d="M158.308 154.857C158.282 154.857 158.257 154.842 158.246 154.816C158.231 154.781 158.247 154.741 158.282 154.726L160.333 153.856C160.367 153.841 160.407 153.857 160.422 153.892C160.437 153.927 160.42 153.967 160.386 153.982L158.335 154.852C158.326 154.856 158.317 154.857 158.308 154.857Z" fill="black"/>
<path d="M160.417 147.327C160.409 147.327 160.4 147.326 160.392 147.322L158.328 146.481C158.294 146.467 158.277 146.427 158.291 146.392C158.305 146.357 158.345 146.34 158.38 146.355L160.443 147.196C160.478 147.21 160.494 147.25 160.48 147.285C160.469 147.311 160.444 147.327 160.417 147.327Z" fill="black"/>
<path d="M170.287 155.163C169.917 155.321 169.501 155.325 169.129 155.173L164.658 153.349C162.895 152.633 162.045 150.616 162.758 148.845C163.399 147.256 165.102 146.378 166.762 146.782C167.729 145.137 169.841 144.592 171.478 145.564C172.948 146.436 173.56 148.258 172.916 149.846L171.101 154.336C170.95 154.709 170.657 155.007 170.287 155.163Z" fill="#F90065"/>
<path d="M241.23 66.5778C237.374 68.7619 236.011 73.6718 238.186 77.5443C240.36 81.4169 245.249 82.7856 249.105 80.6016C252.96 78.4175 254.323 73.5076 252.149 69.6351C249.974 65.7625 245.085 64.3937 241.23 66.5778ZM248.747 73.4102C249.615 74.9595 249.07 76.922 247.53 77.7968C245.987 78.6686 244.033 78.1214 243.162 76.5739C242.944 76.187 243.08 75.6962 243.466 75.4777L243.466 75.4773L247.655 73.1045C248.041 72.886 248.529 73.0225 248.747 73.4094L248.747 73.4102Z" fill="#FFCC83"/>
<path d="M246.474 71.8054C246.917 71.8054 247.276 71.445 247.276 71.0003C247.276 70.5557 246.917 70.1953 246.474 70.1953C246.032 70.1953 245.673 70.5557 245.673 71.0003C245.673 71.445 246.032 71.8054 246.474 71.8054Z" fill="#112E5B"/>
<path d="M242.286 74.1784C242.729 74.1784 243.087 73.818 243.087 73.3734C243.087 72.9288 242.729 72.5684 242.286 72.5684C241.843 72.5684 241.484 72.9288 241.484 73.3734C241.484 73.818 241.843 74.1784 242.286 74.1784Z" fill="#112E5B"/>
<path d="M247.53 77.7965C245.987 78.6682 244.033 78.1211 243.162 76.5736C242.945 76.1867 243.081 75.6959 243.466 75.4774L243.467 75.4769L247.656 73.1041C248.041 72.8856 248.53 73.0222 248.747 73.4091L248.748 73.4099C249.615 74.9591 249.071 76.9217 247.53 77.7965Z" fill="#112E5B"/>
</g>
<g clip-path="url(#clip4_304_1000)">
<path d="M196.857 124.572H236.571C236.571 124.572 239.614 125.565 239.842 141.069C239.907 145.453 241.401 155.948 241.897 161.612C243.154 175.974 245.244 191.245 245.244 191.245H227.517L219.149 161.918L215.877 136.41L217.855 162.071L221.051 193.307H203.781L199.064 162.3L196.857 124.572Z" fill="#B8C2D8"/>
<path d="M225.007 84.7832C225.007 86.6602 223.123 88.9836 219.111 88.9836C215.098 88.9836 212.986 86.6602 212.986 84.7832C212.986 82.9062 215.288 82.9503 219.301 82.9503C223.314 82.9503 225.007 82.9062 225.007 84.7832Z" fill="black"/>
<path d="M237.037 91.8114C236.283 98.4779 235.5 105.38 234.745 112.048C235.33 115.567 235.986 121.052 236.571 124.572H196.857C199.183 113.168 201.536 101.622 203.861 90.2175C204.088 89.1023 204.981 88.2487 206.089 88.0684L216.334 86.3867L225.311 87.3032L234.758 88.8039C234.89 88.8245 235.018 88.855 235.141 88.894C236.384 89.2709 237.191 90.5317 237.037 91.8114Z" fill="#FFBC97"/>
<path d="M236.847 93.4972L236.605 95.6332L202.841 95.2246L203.276 93.0908L236.847 93.4972Z" fill="#F2F2F2"/>
<path d="M237.018 91.0554L203.772 90.653L203.861 90.2177C204.004 89.5188 204.407 88.9216 204.965 88.5283L235.142 88.8941C236.131 89.2012 236.853 90.0481 237.018 91.0554Z" fill="#8E8E8D"/>
<path d="M235.81 102.65L235.568 104.785L200.977 104.366L201.412 102.232L235.81 102.65Z" fill="#F2F2F2"/>
<path d="M236.328 98.0728L236.086 100.209L201.909 99.7949L202.344 97.6611L236.328 98.0728Z" fill="#F2F2F2"/>
<path d="M235.06 113.944L199.113 113.509L199.548 111.375L234.773 111.802L234.745 112.047L235.06 113.944Z" fill="#F2F2F2"/>
<path d="M235.291 107.226L235.049 109.362L200.045 108.938L200.479 106.805L235.291 107.226Z" fill="#F2F2F2"/>
<path d="M236.571 123.045L197.249 122.652L197.683 120.519L236.228 120.985L236.571 123.045Z" fill="#F2F2F2"/>
<path d="M235.823 118.536L198.182 118.08L198.616 115.947L235.467 116.393L235.823 118.536Z" fill="#F2F2F2"/>
<path d="M215.497 91.0454C215.497 91.0454 210.143 111.267 211.11 125.813C211.222 127.496 210.094 129.005 208.452 129.365C203.801 130.384 199.864 130.425 196.789 129.284C195.939 128.968 195.452 128.068 195.64 127.177L203.161 91.4651C203.536 89.6867 204.944 88.3119 206.725 87.9855L213.367 86.7686L215.497 91.0454Z" fill="#112E5B"/>
<path d="M219.833 91.0451L217.311 126.63C217.23 127.784 218.027 128.92 219.177 128.994C227.593 129.536 221.355 126.482 232.538 121.899C233.726 121.413 237.923 126.508 237.79 125.227L236.342 111.36L237.501 91.3229C237.577 90.0004 236.631 88.8399 235.324 88.6537L225.311 87.2266L219.833 91.0451Z" fill="#112E5B"/>
<path d="M223.79 70.959C223.79 70.959 223.105 68.6129 220.214 68.8206C217.323 69.0284 218.464 72.0421 218.464 72.0421C218.464 72.0421 221.964 73.0364 223.79 70.959Z" fill="#141414"/>
<path d="M222.268 71.7656C222.268 71.7656 219.53 67.2071 216.106 68.592C212.682 69.9769 213.9 74.0507 212.606 74.6046C211.313 75.1586 210.856 74.4662 210.856 74.4662C210.856 74.4662 211.693 77.5822 216.182 76.3358C220.671 75.0894 222.268 71.7656 222.268 71.7656Z" fill="#141414"/>
<path d="M216.092 91.0821C221.19 92.1513 225.298 87.3399 225.298 87.3399C223.548 86.1943 222.483 79.3973 222.483 79.3973L221.451 79.3545L215.864 80.0082V80.0212C215.924 82.3017 215.563 83.8596 215.11 84.9059C215.09 84.9525 215.069 84.9983 215.048 85.0426C214.362 86.4792 213.049 86.958 213.049 86.958C213.049 86.958 210.906 89.9946 216.092 91.0821Z" fill="#7C4B33"/>
<path d="M171.979 92.9549C171.979 92.9549 172.664 94.8642 177.229 94.3296C181.794 93.795 185.978 89.3655 184.228 86.7688C182.478 84.1722 175.936 79.2844 173.958 79.9718C171.979 80.6591 171.979 92.9549 171.979 92.9549Z" fill="#7C4B33"/>
<path d="M226.529 73.3271C226.529 73.3271 226.073 77.1457 224.855 78.1386C223.638 79.1314 222.269 73.7854 222.269 73.7854L226.529 73.3271Z" fill="#683B2A"/>
<path d="M215.048 85.0426C219.096 85.3481 221.494 79.9319 221.494 79.9319C221.509 79.705 221.493 79.5141 221.451 79.3545L215.864 80.0212C215.924 82.3017 215.563 83.8596 215.11 84.9059C215.09 84.9525 215.069 84.9983 215.048 85.0426Z" fill="black"/>
<path d="M225.414 76.9105C225.016 76.3531 224.372 76.0663 223.691 76.0695C223.13 73.165 221.057 71.5338 218.522 71.7839C215.777 72.0547 213.531 74.4262 213.86 77.7937C214.19 81.1612 214.796 83.8577 217.54 83.5869C219.077 83.4353 220.959 82.3851 222.259 80.8992C223.144 80.8319 224.124 80.4923 224.711 80.0706C225.79 79.2944 226.105 77.8796 225.414 76.9105Z" fill="#7C4B33"/>
<path d="M224.934 78.7651C224.598 78.2003 224.089 77.73 223.501 77.4406L223.587 77.2637C224.209 77.5696 224.748 78.067 225.103 78.6641L224.934 78.7651Z" fill="black"/>
<path d="M224.51 78.0518L224.224 78.9422L224.51 78.0518Z" fill="white"/>
<path d="M224.317 78.9723L224.13 78.9118L224.416 78.0215L224.603 78.0818L224.317 78.9723Z" fill="black"/>
<path d="M218.746 77.4904C218.918 77.4735 219.038 77.265 219.014 77.0248C218.991 76.7847 218.833 76.6037 218.661 76.6207C218.49 76.6376 218.37 76.8461 218.393 77.0862C218.417 77.3264 218.575 77.5074 218.746 77.4904Z" fill="black"/>
<path d="M215.509 77.7043C215.681 77.6873 215.801 77.4789 215.777 77.2387C215.753 76.9985 215.595 76.8176 215.424 76.8345C215.252 76.8515 215.132 77.0599 215.156 77.3001C215.179 77.5403 215.338 77.7212 215.509 77.7043Z" fill="black"/>
<path d="M215.767 79.4988L215.68 79.3225C216.182 79.071 216.572 78.6202 216.75 78.0855C216.927 77.5509 216.885 76.9553 216.633 76.4516L216.809 76.3633C217.083 76.9135 217.13 77.5639 216.936 78.1478C216.742 78.7318 216.316 79.2242 215.767 79.4988Z" fill="black"/>
<path d="M217.197 80.8525L217.171 80.6572C217.962 80.5508 218.68 79.9424 218.918 79.1777L219.105 79.2364C218.841 80.0849 218.075 80.7344 217.197 80.8525Z" fill="black"/>
<path d="M217.176 83.7042C216.773 83.7042 216.407 83.635 216.085 83.4974L216.162 83.3161C216.551 83.4821 217.011 83.5405 217.531 83.4892C219.057 83.3386 220.928 82.2717 222.186 80.8344L222.212 80.8042L222.252 80.8012C223.105 80.7363 224.07 80.4106 224.654 79.9907C225.688 79.2475 225.993 77.8915 225.334 76.9682C224.971 76.4594 224.377 76.1683 223.703 76.1683C223.699 76.1683 223.696 76.1683 223.692 76.1683L223.611 76.1687L223.595 76.0885C223.053 73.2834 221.066 71.6329 218.532 71.8822L218.513 71.6862C221.13 71.4281 223.187 73.1078 223.772 75.9722C224.482 75.9915 225.106 76.3099 225.494 76.8535C226.216 77.8651 225.89 79.3444 224.769 80.1509C224.167 80.5834 223.183 80.9201 222.307 80.9945C220.999 82.474 219.136 83.5288 217.55 83.6853C217.422 83.6979 217.297 83.7042 217.176 83.7042Z" fill="black"/>
<path d="M221.355 74.5491C221.355 74.5491 222.573 76.1529 222.268 77.3748H222.725C222.725 77.3748 223.105 75.9238 224.551 75.9238C225.996 75.9238 224.246 73.3271 224.246 73.3271L221.355 74.5491Z" fill="#683B2A"/>
<path d="M226.376 73.6882C226.376 73.6882 224.733 73.8488 223.866 74.1671C222.725 74.5859 221.028 75.3712 220.746 74.3962C220.366 73.0805 219.757 73.1505 217.855 73.0812C217.855 73.0812 219.834 70.2436 222.725 69.9667C225.616 69.6897 226.757 70.9346 226.757 72.3195C226.757 73.7044 226.376 73.6882 226.376 73.6882Z" fill="#141414"/>
<path d="M219.833 71.6472C219.833 71.6472 218.388 73.7048 216.41 74.1203C214.431 74.5358 213.899 76.6114 213.899 76.6114C213.121 76.798 212.241 71.2216 219.833 71.6472Z" fill="#141414"/>
<path d="M225.768 87.3795C225.574 87.7797 225.327 88.1379 225.046 88.4594C224.996 88.5183 224.943 88.5755 224.889 88.6313C224.418 89.1269 223.864 89.5271 223.303 89.8479C223.249 89.8792 223.194 89.9097 223.14 89.9387C222.474 90.3015 221.806 90.5558 221.258 90.7277C221.202 90.7452 221.146 90.762 221.092 90.7788C220.435 90.9743 219.986 91.0454 219.986 91.0454C219.05 89.5187 219.463 87.2703 219.704 86.3119C219.772 86.0415 219.993 85.8384 220.266 85.7864C220.414 85.7582 220.559 85.7253 220.702 85.6879C220.758 85.6726 220.814 85.6574 220.868 85.6413C221.583 85.4328 222.218 85.1182 222.746 84.7936C222.801 84.7592 222.855 84.7256 222.908 84.6912C223.842 84.0887 224.398 83.4846 224.398 83.4846C224.431 83.48 224.464 83.4793 224.495 83.4823C224.556 83.4877 224.614 83.5075 224.669 83.5403C225.516 84.0314 225.768 87.3795 225.768 87.3795Z" fill="#FFCC83"/>
<path d="M215.934 86.642C215.112 90.4659 215.497 91.0456 215.497 91.0456C215.497 91.0456 214.708 90.9134 213.894 90.4346L213.735 90.3368C213.296 90.0543 212.864 89.6655 212.559 89.1386L212.559 89.1363C212.511 89.053 212.465 88.9667 212.424 88.8758V88.8751C212.201 88.3863 212.085 87.7937 212.15 87.0742C212.288 85.5461 212.669 84.638 213.054 84.1011V84.1003C213.122 84.0056 213.19 83.9224 213.258 83.8491C213.678 83.3893 214.052 83.332 214.052 83.332C213.545 83.9079 213.908 84.4089 214.468 84.7877C214.519 84.8228 214.572 84.8564 214.626 84.8885C214.813 85.0015 215.014 85.1023 215.208 85.1886C215.762 85.4361 216.062 86.0463 215.934 86.642Z" fill="#FFCC83"/>
<path d="M180.652 92.0366C180.652 92.0366 179.359 90.3941 181.185 83.3316C181.185 83.3316 179.442 77.8829 181.565 77.2348C182.859 76.84 183.315 77.6115 183.467 79.5894C183.62 81.5674 184.152 82.1861 185.826 85.0118C186.699 86.4852 185.75 93.5041 185.75 93.5041C185.75 93.5041 181.033 95.2269 180.652 92.0366Z" fill="#7C4B33"/>
<path d="M181.939 88.2925L177.37 71.5743C177.356 71.5235 177.339 71.4757 177.319 71.4299L177.799 71.2293L176.724 70.9274L176.723 70.9278C176.618 70.9113 176.51 70.9201 176.403 70.9595L168.895 73.7417C168.494 73.8902 168.277 74.4062 168.41 74.8942L172.979 91.6124C173.086 92.0062 173.389 92.261 173.713 92.2669L174.427 92.2612L174.407 92.0563L181.455 89.4449C181.855 89.2964 182.072 88.7805 181.939 88.2925Z" fill="#8EA0C1"/>
<path d="M182.291 89.4737L174.781 92.2375C174.38 92.385 173.947 92.1131 173.815 91.6302L169.264 75.086C169.131 74.6031 169.348 74.092 169.749 73.9445L177.259 71.1808C177.66 71.0332 178.093 71.3051 178.226 71.7881L182.777 88.3322C182.91 88.8151 182.692 89.3262 182.291 89.4737Z" fill="#B8C2D8"/>
<path d="M181.643 89.0655L175.107 91.4705C174.706 91.618 174.274 91.3461 174.141 90.8632L169.913 75.4938C169.78 75.0109 169.997 74.4998 170.398 74.3523L176.934 71.9474C177.334 71.7998 177.767 72.0717 177.9 72.5547L182.128 87.924C182.261 88.407 182.043 88.918 181.643 89.0655Z" fill="#141414"/>
<path d="M171.383 73.7862L172.008 74.1818C172.095 74.237 172.205 74.2482 172.305 74.2118L175.608 73.0106C175.739 72.9629 175.829 72.8424 175.835 72.707L175.862 72.1143L171.383 73.7862Z" fill="#B8C2D8"/>
<path d="M169.701 84.2779C169.701 84.2779 166.319 79.1069 168.825 78.4029C171.331 77.699 170.865 83.5065 170.865 83.5065L169.701 84.2779Z" fill="#7C4B33"/>
<path d="M168.521 85.7911C168.521 85.7911 167.345 83.1445 169.329 82.3348C170.814 81.729 173.08 83.4092 174.126 84.2936C174.651 84.7369 175.022 85.3424 175.145 86.0197C175.31 86.9359 175.053 88.0245 172.863 87.972C169.108 87.8819 168.521 85.7911 168.521 85.7911Z" fill="#7C4B33"/>
<path d="M171.828 91.2876C170.722 91.4731 169.649 90.8159 169.316 89.7415C168.921 88.4715 168.608 86.8343 169.421 86.3922C170.8 85.6423 174.803 86.7055 174.761 88.628C174.731 90.0525 173.521 91.0035 171.828 91.2876Z" fill="#7C4B33"/>
<path d="M231.528 134.3C228.5 132.978 226.548 130.912 225.178 128.444C224.815 127.791 224.905 126.979 225.408 126.427L228.97 122.524L237.058 129.962L233.482 133.881C232.986 134.424 232.201 134.593 231.528 134.3Z" fill="#FFCC83"/>
<path d="M251.96 114.843L251.772 115C250.037 116.248 246.309 116.401 243.478 114.254C237.377 110.11 233.381 104.611 230.355 98.4877C228.27 95.9828 228.603 92.2555 231.098 90.1625L231.286 90.0048C233.782 87.9119 237.495 88.2459 239.58 90.7508L252.703 106.517C254.788 109.022 254.455 112.75 251.96 114.843Z" fill="#112E5B"/>
<path d="M252.081 105.815L252.259 105.984C254.621 108.227 254.526 111.36 253.309 114.72C249.687 120.876 243.954 125.813 237.562 130.172C235.81 131.293 234.45 131.786 232.881 130.989C230.632 129.847 229.212 128.348 228.24 126.655C227.362 125.125 227.746 123.732 228.794 121.918C232.573 115.674 237.379 110.241 243.758 106.045C246.766 104.334 249.72 103.571 252.081 105.815Z" fill="#112E5B"/>
<path d="M244.788 200.944H229.952L229.268 191.855H244.103L244.788 200.944Z" fill="#FFCC83"/>
<path d="M219.91 200.944H205.074L204.39 191.855H219.225L219.91 200.944Z" fill="#FFCC83"/>
<path d="M186.598 121.105L186.598 121.105C183.637 118.747 183.14 114.425 185.489 111.453L201.894 90.6875C204.24 87.7169 208.54 87.2185 211.499 89.574L211.5 89.5746C214.461 91.9318 214.957 96.2539 212.609 99.2266L196.204 119.992C193.857 122.962 189.557 123.461 186.598 121.105Z" fill="#112E5B"/>
<path d="M187.877 94.7277L177.452 100.77L175.293 97.0171C174.553 95.7293 174.992 94.0822 176.275 93.3388L182.057 89.9878C183.339 89.2449 184.977 89.6859 185.718 90.9729L187.877 94.7277Z" fill="#FFCC83"/>
<path d="M193.967 121.594L193.987 121.602C190.755 123.444 186.664 121.203 185.302 119.928C180.272 112.659 177.534 108.917 176.012 102.272C175.708 98.1482 174.91 98.3861 178.142 96.5444L182.859 93.795C186.091 91.9533 187.804 93.1077 189.782 96.3917C195.108 104.716 196.499 105.399 198.35 112.492C198.864 116.252 197.199 119.753 193.967 121.594Z" fill="#112E5B"/>
<path d="M171.071 90.7572C171.071 90.7572 171.005 93.9868 173.958 93.6955C176.911 93.4042 177.325 90.6008 176.547 89.68C175.837 88.84 173.482 88.8312 171.071 90.7572Z" fill="#7C4B33"/>
<path d="M245.186 186.28H226.814C225.774 186.28 224.931 187.127 224.931 188.172V193.095C224.931 194.14 225.774 194.987 226.814 194.987H245.186C246.227 194.987 247.07 194.14 247.07 193.095V188.172C247.07 187.127 246.227 186.28 245.186 186.28Z" fill="#112E5B"/>
<path d="M220.149 186.28H202.4C201.188 186.28 200.205 187.267 200.205 188.485V192.782C200.205 194 201.188 194.987 202.4 194.987H220.149C221.361 194.987 222.344 194 222.344 192.782V188.485C222.344 187.267 221.361 186.28 220.149 186.28Z" fill="#112E5B"/>
<path d="M223.257 211.56H183.544C183.544 210.979 183.568 210.412 183.616 209.864C183.622 209.797 183.628 209.732 183.634 209.667C184.022 205.726 185.667 202.767 188.565 202.579C190.016 202.485 192.339 201.914 194.673 201.062C194.782 201.022 194.89 200.982 194.998 200.941C196.246 200.472 197.486 199.924 198.586 199.328C198.661 199.288 198.735 199.247 198.809 199.205H198.81C200.2 198.429 201.342 197.578 201.955 196.713C204.009 193.815 201.575 194.033 207.965 193.38C214.356 192.729 215.117 198.161 215.117 198.161C216.349 196.364 217.933 195.551 219.196 195.187C220.17 194.906 221.131 195.655 221.116 196.672C221.099 197.775 221.263 199.387 221.964 201.493C222.889 204.273 223.16 207.619 223.235 209.667C223.238 209.734 223.24 209.8 223.242 209.864C223.275 210.902 223.257 211.56 223.257 211.56Z" fill="#F2F2F2"/>
<path d="M202.744 203.853L202.656 204.029C200.114 202.746 197.433 201.75 194.673 201.061C194.782 201.021 194.89 200.982 194.998 200.94C197.675 201.629 200.275 202.607 202.744 203.853Z" fill="black"/>
<path d="M204.462 202.835L204.327 202.978C202.67 201.404 200.708 200.16 198.585 199.328C198.66 199.287 198.734 199.246 198.809 199.204H198.809C200.898 200.045 202.827 201.281 204.462 202.835Z" fill="black"/>
<path d="M223.241 209.862H183.616C183.622 209.796 183.628 209.731 183.634 209.666H223.235C223.238 209.733 223.24 209.798 223.241 209.862Z" fill="black"/>
<path d="M215.285 202.39L215.099 202.352C215.375 201 215.326 199.582 214.958 198.252L215.14 198.201C215.516 199.56 215.566 201.009 215.285 202.39Z" fill="black"/>
<path d="M249.809 213.087H214.052C214.045 212.582 214.036 212.121 214.033 211.696C214.032 211.63 214.032 211.564 214.031 211.499C214.005 207.289 214.54 206.809 222.192 203.311C223.002 202.941 223.722 202.566 224.363 202.191C224.438 202.147 224.512 202.103 224.584 202.059H224.585C225.135 201.728 225.623 201.397 226.058 201.067C226.113 201.025 226.168 200.983 226.221 200.942C230.232 197.817 229.382 194.987 229.382 194.987C229.382 194.987 230.789 194.605 234.365 194.299C237.941 193.994 238.245 197.66 238.245 197.66C242.886 193.994 244.483 194.987 244.483 194.987C244.483 194.987 243.951 196.896 246.385 201.096C248.137 204.118 249.14 208.999 249.566 211.499C249.577 211.566 249.588 211.632 249.598 211.696C249.741 212.556 249.809 213.087 249.809 213.087Z" fill="#F2F2F2"/>
<path d="M228.816 204.581L228.685 204.728C227.43 203.601 225.954 202.736 224.363 202.191C224.438 202.147 224.512 202.103 224.584 202.06H224.585C226.14 202.616 227.583 203.474 228.816 204.581Z" fill="black"/>
<path d="M230.457 204.437L230.32 204.578C228.998 203.298 227.569 202.121 226.058 201.068C226.113 201.026 226.168 200.984 226.221 200.942C227.721 201.992 229.141 203.163 230.457 204.437Z" fill="black"/>
<path d="M249.598 211.695H214.033C214.032 211.629 214.032 211.564 214.031 211.499H249.566C249.577 211.566 249.588 211.631 249.598 211.695Z" fill="black"/>
<path d="M238.122 202.087L237.936 202.054C238.19 200.615 238.262 199.147 238.148 197.691L238.336 197.676C238.451 199.149 238.379 200.633 238.122 202.087Z" fill="black"/>
<path d="M213.938 211.697L213.936 211.5C213.923 209.254 214.09 208.142 215.166 207.07C216.254 205.985 218.224 205.02 222.153 203.225L222.231 203.397C214.555 206.906 214.1 207.361 214.125 211.498L214.127 211.695L213.938 211.697Z" fill="black"/>
<path d="M197.372 119.361L197.18 119.32L202.429 94.4229L202.621 94.4636L197.372 119.361Z" fill="black"/>
<path d="M201.549 98.4925C201.264 97.207 201.194 95.8916 201.34 94.583L201.535 94.6049C201.391 95.8919 201.46 97.1855 201.74 98.4498L201.549 98.4925Z" fill="black"/>
<path d="M238.366 110.169C236.291 108.057 234.57 105.903 233.103 103.585L233.093 103.562C233.087 103.544 232.493 101.679 232.21 99.3518C231.736 95.4477 232.486 93.2616 233.198 92.1151C234.04 90.7603 235.348 89.9458 237.085 89.6943L237.113 89.8894C235.436 90.1321 234.175 90.916 233.365 92.2192C230.993 96.0349 233.171 103.154 233.276 103.49C234.734 105.792 236.444 107.932 238.505 110.031L238.366 110.169Z" fill="black"/>
<path d="M228.856 121.99L228.689 121.885C232.609 115.621 236.679 111.05 241.496 107.5L241.612 107.659C236.815 111.193 232.762 115.747 228.856 121.99Z" fill="black"/>
<path d="M238.533 110.053L238.341 110.014C238.556 108.961 239.248 108.029 240.19 107.52L240.283 107.693C239.391 108.175 238.737 109.057 238.533 110.053Z" fill="black"/>
<path d="M196.056 106.156L193.062 101.499L193.227 101.392L196.221 106.049L196.056 106.156Z" fill="black"/>
<path d="M197.777 105.916C196.776 104.134 195.221 102.647 193.399 101.73L193.487 101.554C195.344 102.488 196.928 104.003 197.948 105.819L197.777 105.916Z" fill="black"/>
<path d="M230.39 98.6561H221.585L221.774 96.9551H230.58L230.39 98.6561ZM221.774 98.4862H230.239L230.39 97.125H221.926L221.774 98.4862Z" fill="black"/>
<path d="M211.15 98.3017H203.657L203.911 96.7334H211.404L211.15 98.3017ZM203.841 98.1451H211.017L211.221 96.89H204.044L203.841 98.1451Z" fill="black"/>
<path d="M210.131 104.592H202.639L203.683 98.1445H211.176L210.131 104.592ZM202.822 104.436H209.999L210.992 98.3012H203.816L202.822 104.436Z" fill="black"/>
<path d="M226.723 124.987C226.723 124.987 227.29 132.82 236.876 134.424C236.876 134.424 235.43 138.014 225.312 137.479C215.193 136.944 224.406 127.464 226.723 124.987Z" fill="#B8C2D8"/>
<path d="M235.275 133.866C233.048 133.591 230.965 132.545 229.409 130.921C227.854 129.297 226.895 127.167 226.708 124.922L226.863 124.909C227.047 127.118 227.991 129.215 229.522 130.813C231.052 132.41 233.102 133.44 235.294 133.71L235.275 133.866Z" fill="black"/>
<path d="M221.146 134.361L220.993 134.328C221.764 130.694 223.761 127.39 226.617 125.025L226.716 125.146C223.887 127.488 221.909 130.761 221.146 134.361Z" fill="black"/>
<path d="M240.374 186.288L235.124 132.064L235.279 132.049L240.529 186.273L240.374 186.288Z" fill="black"/>
<path d="M216.879 135.66L213.607 135.259L211.198 124.934L211.35 124.898L213.734 135.117L216.701 135.48L215.419 124.582L215.574 124.563L216.879 135.66Z" fill="black"/>
<path d="M168.714 82.8373L168.602 82.7286C168.61 82.7197 169.477 81.8339 170.679 82.2068C171.172 82.3595 171.573 82.5112 171.943 82.6842L171.877 82.8261C171.514 82.6562 171.119 82.507 170.633 82.3564C169.524 82.0125 168.722 82.829 168.714 82.8373Z" fill="black"/>
<path d="M172.751 88.1184C170.699 88.1184 169.084 86.7656 169.063 86.7482L169.165 86.6289C169.19 86.6503 171.71 88.7594 174.416 87.6292L174.476 87.7738C173.885 88.0209 173.302 88.1184 172.751 88.1184Z" fill="black"/>
<path d="M171.281 91.3703C171.148 91.3703 171.068 91.3637 171.063 91.3633L171.078 91.2073C171.105 91.2098 173.786 91.4289 174.618 89.1279L174.765 89.1813C174.035 91.1996 171.961 91.3703 171.281 91.3703Z" fill="black"/>
<path d="M173.846 93.845C172.914 93.845 172.221 93.4262 172.209 93.4185L172.291 93.2854C172.377 93.3384 174.405 94.5593 176.173 92.5469L176.29 92.6505C175.47 93.5833 174.583 93.845 173.846 93.845Z" fill="black"/>
</g>
<g clip-path="url(#clip5_304_1000)">
<path d="M22.264 127.221C27.6786 126.865 32.6969 130.032 37.5949 134.269L87.8923 174.171L60.3269 184.063L24.4541 168.526C20.2469 152.444 16.0928 136.398 22.264 127.221Z" fill="black"/>
<path d="M63.0456 111.76C62.71 109.806 58.5479 110.151 59.4206 106.985C60.2933 103.819 57.6836 104.61 58.2878 102.589C58.8919 100.568 57.332 101.006 57.5334 99.322C57.7348 97.6377 57.6005 96.7619 55.3181 95.8188C53.0356 94.8756 54.244 93.1914 52.0287 93.1914C50.1159 93.1914 49.8547 95.2505 49.8191 95.8128C48.9545 95.4764 47.274 95.0833 46.524 95.8862C45.5171 96.964 45.8527 98.0419 44.6444 98.5135C43.436 98.9851 42.0263 98.0419 41.4221 101.41C40.8179 104.779 39.0464 104.081 38.1235 106C37.0662 108.198 38.5271 109.751 37.5948 111.381C35.2537 115.474 36.9655 115.044 34.3474 117.671C31.7293 120.299 32.5349 123.128 32.5349 123.128L52.835 113.679C55.5996 114.706 59.8151 114.865 61.0913 114.682C62.9709 114.413 63.3813 113.714 63.0456 111.76Z" fill="#FFCC83"/>
<path d="M77.8159 143.939L77.7008 143.931C74.3826 143.703 71.8768 140.816 72.1042 137.483L73.3496 119.23C73.5769 115.898 76.4506 113.382 79.7683 113.61L79.8834 113.618C83.2016 113.846 85.7074 116.733 85.48 120.065L84.2347 138.318C84.0073 141.65 81.1337 144.167 77.8159 143.939Z" fill="#F90065"/>
<path d="M30.1934 121.991L43.7118 113.275L60.0244 114.109L66.1106 114.711L79.7356 150.033L32.9122 162.539C32.9122 162.539 29.5137 125.099 30.1934 121.991Z" fill="#F90065"/>
<path d="M76.3377 114.412C76.3377 114.412 85.1738 98.1934 87.5149 98.1934C89.8561 98.1934 88.8743 100.694 87.5905 103.499C86.3066 106.303 80.6564 116.431 80.6564 116.431C80.6564 116.431 78.4524 118.505 77.3195 117.52C76.1867 116.534 76.3377 114.412 76.3377 114.412Z" fill="#FF9996"/>
<path d="M85.6268 106.075C85.6268 106.075 89.7049 105.393 88.4966 108.425C88.4966 108.425 91.2153 109.334 90.0825 111.153C90.0825 111.153 93.481 111.457 90.6112 114.715C90.6112 114.715 88.4211 122.598 81.8507 123.052C75.2803 123.507 74.8272 116.534 76.3376 114.412C77.848 112.29 85.6268 106.075 85.6268 106.075Z" fill="#FF9996"/>
<path d="M75.8359 116.705C75.8359 116.705 75.052 113.372 76.6332 111.416C77.6475 110.16 79.0797 107.802 79.9761 106.273C80.4537 105.458 81.6408 105.481 82.0777 106.319C82.5118 107.151 82.7423 108.298 82.0862 109.68C80.6758 112.651 82.6669 115.568 81.3164 117.016C79.966 118.464 76.7597 119.727 75.8359 116.705Z" fill="#FF9996"/>
<path d="M85.6862 111.893C85.4085 111.893 85.1233 111.827 84.8325 111.694C84.7852 111.673 84.7643 111.617 84.7858 111.57C84.8073 111.522 84.8628 111.501 84.9104 111.523C85.4216 111.756 85.9117 111.764 86.3669 111.547C87.7381 110.893 88.399 108.426 88.4055 108.401C88.4188 108.351 88.4707 108.321 88.5203 108.334C88.5706 108.347 88.6006 108.399 88.5874 108.449C88.5805 108.476 88.4155 109.098 88.0715 109.815C87.6055 110.786 87.059 111.426 86.4476 111.718C86.2016 111.835 85.9472 111.893 85.6862 111.893Z" fill="black"/>
<path d="M87.6273 113.407C87.2797 113.407 86.9446 113.287 86.6274 113.048C86.5859 113.017 86.5775 112.958 86.6086 112.916C86.6399 112.875 86.6988 112.866 86.7403 112.897C87.1135 113.178 87.5119 113.275 87.9252 113.186C89.1489 112.92 90.141 111.127 90.1509 111.109C90.1759 111.063 90.2329 111.046 90.2786 111.071C90.3241 111.096 90.3408 111.154 90.3158 111.199C90.3054 111.218 90.0549 111.674 89.642 112.172C89.0816 112.847 88.5175 113.25 87.9653 113.37C87.8515 113.395 87.7387 113.407 87.6273 113.407Z" fill="black"/>
<path d="M89.1019 115.105C88.4517 115.105 88.0075 114.883 87.8077 114.453C87.7857 114.405 87.8061 114.349 87.8531 114.327C87.9002 114.305 87.9561 114.326 87.978 114.373C88.4641 115.418 90.5571 114.636 90.5783 114.628C90.627 114.609 90.6812 114.634 90.6996 114.682C90.718 114.731 90.6936 114.786 90.645 114.804C90.6222 114.813 90.0791 115.018 89.4606 115.084C89.3349 115.098 89.2153 115.105 89.1019 115.105Z" fill="black"/>
<path d="M84.4309 109.594C84.415 109.594 84.399 109.59 84.3843 109.582C84.3392 109.556 84.3236 109.499 84.3493 109.453C85.704 107.072 87.0052 104.446 87.0182 104.42C87.0413 104.373 87.0977 104.354 87.1443 104.377C87.1908 104.4 87.2098 104.457 87.1867 104.504C87.1737 104.53 85.8701 107.161 84.5126 109.547C84.4953 109.577 84.4635 109.594 84.4309 109.594Z" fill="black"/>
<path d="M81.3167 117.111C81.2937 117.111 81.2706 117.102 81.2524 117.085C81.2145 117.049 81.2125 116.99 81.248 116.952C81.8684 116.286 81.7452 115.26 81.6026 114.072C81.4414 112.728 81.2586 111.205 82.0015 109.64C82.5398 108.506 82.5376 107.403 81.9946 106.363C81.8523 106.09 81.6132 105.894 81.3215 105.812C81.2715 105.798 81.2423 105.746 81.2563 105.696C81.2703 105.646 81.3223 105.616 81.3722 105.631C81.7144 105.727 81.9946 105.956 82.1612 106.275C82.7331 107.371 82.7365 108.531 82.1712 109.721C81.4518 111.237 81.6312 112.731 81.7894 114.049C81.9376 115.284 82.0656 116.351 81.3853 117.081C81.3668 117.101 81.3418 117.111 81.3167 117.111Z" fill="black"/>
<path d="M53.0617 149.11C54.0508 148.875 53.9929 145.037 52.9322 140.539C51.8716 136.041 50.2099 132.585 49.2207 132.82C48.2316 133.055 48.2895 136.893 49.3502 141.391C50.4108 145.889 52.0725 149.345 53.0617 149.11Z" fill="black"/>
<path d="M53.7562 122.37C44.3916 124.189 40.3096 117.535 39.105 116.534C38.7561 116.244 43.5563 113.534 43.7693 113.133C44.5532 111.657 45.7389 107.881 45.0713 106.075L46.5311 106.494L53.5297 108.5C53.6611 109.249 53.8725 110.61 54.2464 111.65C54.516 112.402 54.8709 112.986 55.3422 113.048C56.0226 113.137 59.5933 113.48 59.8735 114.109C60.5789 115.694 58.4001 121.468 53.7562 122.37Z" fill="#FF9996"/>
<path d="M54.2465 111.651C54.0139 111.917 53.6152 112.091 53.0057 112.141C48.7584 112.491 46.8409 107.408 46.5312 106.494L53.5298 108.501C53.6612 109.249 53.8727 110.611 54.2465 111.651Z" fill="black"/>
<path d="M44.2704 103.094C44.6652 102.541 45.3047 102.256 45.9805 102.259C46.5376 99.3769 48.5947 97.7582 51.1115 98.0064C53.8361 98.2751 56.0662 100.629 55.739 103.97C55.4118 107.312 54.8106 109.988 52.0861 109.719C50.5604 109.569 48.6927 108.527 47.4017 107.052C46.5237 106.985 45.5502 106.648 44.968 106.23C43.8964 105.46 43.584 104.056 44.2704 103.094Z" fill="#FF9996"/>
<path d="M44.7473 104.934L44.5801 104.834C44.9325 104.242 45.4666 103.748 46.0842 103.444L46.1699 103.62C45.5859 103.907 45.0807 104.374 44.7473 104.934Z" fill="black"/>
<path d="M45.168 104.227C45.2626 104.521 45.3572 104.816 45.4518 105.11L45.168 104.227Z" fill="white"/>
<path d="M45.3591 105.14L45.0752 104.256L45.2607 104.196L45.5444 105.08L45.3591 105.14Z" fill="black"/>
<path d="M51.2402 103.269C51.2635 103.031 51.1444 102.824 50.9741 102.807C50.8038 102.79 50.6467 102.97 50.6234 103.208C50.6 103.446 50.7191 103.653 50.8895 103.67C51.0598 103.687 51.2168 103.508 51.2402 103.269Z" fill="black"/>
<path d="M54.4531 103.481C54.4764 103.243 54.3573 103.036 54.187 103.019C54.0167 103.002 53.8596 103.182 53.8363 103.42C53.8129 103.658 53.932 103.865 54.1023 103.882C54.2727 103.899 54.4297 103.719 54.4531 103.481Z" fill="black"/>
<path d="M53.8456 105.662C53.3009 105.39 52.8782 104.901 52.6857 104.322C52.4932 103.742 52.5392 103.097 52.8119 102.551L52.9861 102.638C52.7364 103.138 52.6943 103.729 52.8705 104.26C53.0468 104.79 53.4339 105.238 53.9326 105.487L53.8456 105.662Z" fill="black"/>
<path d="M52.4271 107.006C51.5559 106.889 50.7948 106.244 50.5332 105.402L50.7192 105.344C50.955 106.103 51.6679 106.706 52.453 106.812L52.4271 107.006Z" fill="black"/>
<path d="M52.4478 109.835C52.3271 109.835 52.2031 109.829 52.0759 109.816C50.5014 109.661 48.652 108.614 47.3541 107.146C46.4849 107.072 45.5078 106.738 44.9106 106.309C44.3728 105.922 44.0012 105.37 43.8643 104.755C43.7263 104.135 43.8423 103.525 44.1906 103.037C44.5755 102.497 45.1952 102.181 45.8998 102.162C46.4801 99.3196 48.5217 97.6522 51.1204 97.9087L51.1013 98.1033C48.5864 97.8555 46.6136 99.4938 46.0755 102.278L46.0601 102.357L45.9794 102.357C45.9758 102.357 45.9721 102.357 45.9685 102.357C45.2991 102.357 44.7094 102.646 44.349 103.15C44.0334 103.593 43.9288 104.147 44.0544 104.712C44.1809 105.281 44.5253 105.792 45.0241 106.15C45.6038 106.567 46.562 106.89 47.4085 106.954L47.4481 106.957L47.4742 106.987C48.7231 108.414 50.58 109.472 52.0949 109.622C52.6105 109.673 53.0679 109.615 53.4542 109.45L53.5304 109.63C53.2103 109.767 52.8474 109.835 52.4478 109.835Z" fill="black"/>
<path d="M50.4694 133.095L31.9504 145.225C22.2772 151.454 26.9343 165.774 38.2486 158.461L56.0226 144.122C63.8769 138.513 55.4713 129.166 50.4694 133.095Z" fill="#FF9996"/>
<path d="M85.372 128.951L62.9195 137.876C61.7407 138.344 60.5387 137.679 60.2347 136.39L56.4873 120.495C56.1834 119.206 56.8927 117.781 58.0715 117.313L80.5239 108.388C81.7028 107.92 82.9048 108.585 83.2087 109.874L86.9561 125.769C87.2601 127.058 86.5508 128.483 85.372 128.951Z" fill="black"/>
<path d="M85.706 128.895L63.2072 137.838C62.1141 138.272 60.9994 137.655 60.7176 136.46L56.9412 120.442C56.6594 119.247 57.3171 117.926 58.4102 117.491L80.909 108.548C82.0022 108.114 83.1168 108.731 83.3987 109.926L87.175 125.944C87.4569 127.139 86.7992 128.46 85.706 128.895Z" fill="#F2F2F2"/>
<path d="M78.3519 113.658L78.0582 112.413C77.9796 112.079 78.1631 111.711 78.468 111.59L80.7946 110.665C81.0996 110.544 81.4105 110.716 81.4891 111.049L81.7828 112.295C81.8614 112.628 81.6779 112.997 81.373 113.118L79.0464 114.043C78.7414 114.164 78.4305 113.992 78.3519 113.658Z" fill="#B8C2D8"/>
<path d="M81.1778 112.309C81.3165 111.925 81.162 111.516 80.8325 111.396C80.503 111.276 80.1235 111.491 79.9847 111.875C79.8459 112.26 80.0005 112.669 80.3299 112.788C80.6594 112.908 81.039 112.694 81.1778 112.309Z" fill="black"/>
<path d="M79.4716 112.843C79.5666 112.58 79.4608 112.3 79.2354 112.218C79.01 112.136 78.7503 112.283 78.6553 112.546C78.5604 112.809 78.6661 113.089 78.8915 113.171C79.1169 113.253 79.3767 113.106 79.4716 112.843Z" fill="white"/>
<path d="M79.8167 112.468C79.8385 112.407 79.814 112.343 79.762 112.324C79.71 112.305 79.6502 112.339 79.6284 112.399C79.6066 112.46 79.631 112.524 79.683 112.543C79.735 112.562 79.7949 112.528 79.8167 112.468Z" fill="black"/>
<path d="M87.0161 126.107L83.665 111.894L83.8307 111.854L87.1816 126.068L87.0161 126.107Z" fill="#21201F"/>
<path d="M47.6694 134.929L53.5296 129.571L60.3266 129.04L64.3102 139.631C64.3102 139.631 56.5512 144.096 53.4545 146.193C53.4545 146.193 48.7718 146.169 46.7327 142.531C44.6936 138.893 47.6694 134.929 47.6694 134.929Z" fill="#FF9996"/>
<path d="M125.804 207.71C120.819 212.03 89.1758 209.604 89.1758 209.604L91.7382 203.432L95.9727 193.234C95.9727 193.234 97.4832 189.444 103.374 189.444C109.265 189.444 110.171 190.96 110.171 190.96C110.171 190.96 109.892 198.641 116.817 199.995C117.106 200.052 117.408 200.097 117.723 200.131C123.144 200.706 130.788 203.39 125.804 207.71Z" fill="#FF9996"/>
<path d="M60.1125 129.057L64.6312 125.781C64.6312 125.781 68.7094 122.219 69.4646 122.674C70.2198 123.129 70.7485 124.872 69.087 126.842C67.4255 128.813 65.7641 130.101 65.7641 130.101L61.3838 133.133C61.3838 133.133 60.0244 133.209 59.4202 131.617C58.8161 130.025 60.1125 129.057 60.1125 129.057Z" fill="#FF9996"/>
<path d="M62.5168 136.24C62.5168 136.24 66.0663 133.739 66.4439 133.133C66.8215 132.527 69.9179 128.737 69.0871 126.842C68.2564 124.948 65.3866 128.207 63.5741 130.556C61.7615 132.906 60.0037 132.546 60.0037 132.546C60.0037 132.546 58.6407 134.32 59.798 135.786C60.9552 137.251 62.5168 136.24 62.5168 136.24Z" fill="#FF9996"/>
<path d="M62.744 138.362C62.744 138.362 67.7284 134.8 68.106 133.663C68.4837 132.527 70.037 129.148 68.8613 128.358C67.6855 127.568 65.5383 132.148 65.5383 132.148L60.6528 135.736C60.6528 135.736 59.8454 136.877 60.6528 137.885C61.4601 138.893 62.744 138.362 62.744 138.362Z" fill="#FF9996"/>
<path d="M63.4985 140.105C63.4985 140.105 66.6704 138.286 67.2745 137.604C67.6664 137.161 68.5584 133.814 67.7277 133.36C66.8969 132.905 65.5541 133.475 64.9794 134.706C64.4047 135.937 61.3839 137.149 61.3839 137.149C61.3839 137.149 60.5531 138.481 61.3839 139.407C62.2146 140.332 63.4985 140.105 63.4985 140.105Z" fill="#FF9996"/>
<path d="M125.804 207.71C120.819 212.03 89.1758 209.604 89.1758 209.604L91.7382 203.432C95.1601 205.998 108.688 206.362 113.796 205.209C117.714 204.324 117.471 201.718 116.817 199.995C117.106 200.052 117.408 200.097 117.723 200.131C123.144 200.706 130.788 203.39 125.804 207.71Z" fill="#7C4B33"/>
<path d="M51.8779 131.427C51.8779 131.427 52.1709 129.874 53.8324 127.221C54.8135 125.654 53.7568 121.688 54.512 121.385C55.2673 121.082 56.9516 120.656 57.5329 124.341C58.1142 128.026 58.8682 130.386 58.8682 130.386C58.8682 130.386 57.2308 133.739 54.7386 133.133C52.2464 132.526 51.8779 131.427 51.8779 131.427Z" fill="#FF9996"/>
<path d="M62.517 132.469C62.4815 132.469 62.4475 132.448 62.4315 132.414C62.4098 132.367 62.4303 132.311 62.4775 132.289C66.3373 130.501 69.5958 125.945 69.6282 125.899C69.6584 125.857 69.7171 125.847 69.7593 125.877C69.8017 125.907 69.8115 125.966 69.7815 126.008C69.7487 126.055 66.461 130.652 62.5563 132.46C62.5436 132.466 62.5302 132.469 62.517 132.469Z" fill="black"/>
<path d="M64.3319 135.278L64.2295 135.12C64.2367 135.115 64.9685 134.629 66.3749 133.07C67.7817 131.509 68.8522 128.745 68.8629 128.718L69.0384 128.786C69.0276 128.814 67.9444 131.61 66.5142 133.196C65.0875 134.779 64.3621 135.258 64.3319 135.278Z" fill="black"/>
<path d="M65.1233 137.312L65.0469 137.139C66.3619 136.553 67.7395 134.103 67.7532 134.078L67.9174 134.17C67.9138 134.177 67.5607 134.807 67.0455 135.504C66.3487 136.445 65.702 137.054 65.1233 137.312Z" fill="black"/>
<path d="M105.602 155.419C106.07 159.441 103.862 163.297 100.163 164.915C82.8349 172.497 72.4628 176.976 54.7777 178.598C44.6183 179.743 34.0279 174.393 33.0286 163.686L32.6104 159.204C49.0439 150.67 67.9584 147.117 96.3728 144.399C100.292 144.024 103.919 146.511 105.007 150.308L105.602 155.419Z" fill="#32CE95"/>
<path d="M82.938 210.252L82.9309 210.251C77.4417 209.017 73.9883 203.547 75.2184 198.035L84.8434 154.9C86.0728 149.39 91.516 145.923 97.0025 147.156L97.0097 147.158C102.499 148.391 105.952 153.861 104.722 159.374L95.0972 202.509C93.8677 208.019 88.4245 211.485 82.938 210.252Z" fill="#FF9996"/>
<path d="M66.8906 188.08L68.75 194.253L74.1939 212.325C74.3554 212.861 74.8522 213.224 75.4102 213.214L76.3966 213.196C77.2181 213.181 77.8007 212.387 77.571 211.595L72.2587 193.294L70.4507 187.066L66.8906 188.08Z" fill="#B8C2D8"/>
<path d="M69.1562 195.583L72.5546 194.295L70.4507 187.066L66.8906 188.08L69.1562 195.583Z" fill="black"/>
<path d="M113.035 213.697H76.0086C73.4802 213.697 71.6171 211.325 72.2061 208.858L72.9387 205.79L76.1106 194.143C77.1384 189.601 80.4153 186.337 85.2487 186.564C90.0821 186.791 96.8994 188.68 96.1993 195.204C95.7553 199.344 98.138 200.593 103.572 202.237C104.603 202.549 105.745 202.875 106.999 203.238C111.827 204.635 114.372 206.7 115.7 208.626C117.178 210.769 115.633 213.697 113.035 213.697Z" fill="#FF9996"/>
<path d="M102.3 201.586L101.786 201.663C96.699 202.424 91.9614 198.899 91.2031 193.79L85.5064 155.409C84.7479 150.298 88.2585 145.538 93.347 144.778L93.8609 144.701C98.9477 143.94 103.685 147.465 104.444 152.574L110.14 190.955C110.899 196.066 107.388 200.826 102.3 201.586Z" fill="#FF9996"/>
<path d="M103.601 202.345C103.595 202.345 103.59 202.344 103.585 202.343C100.116 201.742 97.8301 200.616 96.7913 198.996C96.0051 197.77 96.2625 196.734 96.2738 196.691L100.039 179.944C100.05 179.894 100.098 179.863 100.148 179.874C100.197 179.886 100.227 179.935 100.216 179.984L96.451 196.734C96.4477 196.747 96.2032 197.746 96.9483 198.903C98.209 200.861 101.27 201.756 103.616 202.163C103.666 202.172 103.699 202.219 103.69 202.269C103.683 202.313 103.644 202.345 103.601 202.345Z" fill="black"/>
<path d="M103.307 179.287C95.6542 184.754 86.5938 186.869 76.7601 187.141C75.4151 187.178 74.3805 185.957 74.6355 184.631L82.0768 145.941L94.9849 144.408C100.887 143.706 105.982 148.54 105.616 154.493L104.19 177.694C104.151 178.332 103.825 178.916 103.307 179.287Z" fill="#32CE95"/>
<path d="M99.3098 145.259C99.3098 145.259 103.828 144.956 106.471 158.825C107.716 165.359 108.542 169.135 109.068 171.3C109.499 173.075 108.67 174.912 107.061 175.767C101.057 178.96 94.0856 180.882 86.3964 181.863C85.2897 182.004 84.2725 181.234 84.1066 180.127C83.2863 174.653 81.3359 159.339 84.4185 154.884C88.1946 149.427 88.9014 144.728 99.3098 145.259Z" fill="#32CE95"/>
<path d="M65.0013 137.269L62.4336 132.419L62.5998 132.33L65.1675 137.181L65.0013 137.269Z" fill="black"/>
<path d="M31.9925 160.44L31.9823 160.439C28.5935 160.207 26.0344 157.258 26.2666 153.855L28.1525 126.215C28.3846 122.812 31.3194 120.242 34.7078 120.475L34.7179 120.475C38.1067 120.708 40.6659 123.656 40.4336 127.06L38.5478 154.7C38.3156 158.103 35.3808 160.673 31.9925 160.44Z" fill="#F90065"/>
<path d="M52.8687 149.111C49.8418 151.46 37.238 160.958 32.0066 160.492C26.0404 159.962 24.8321 152.383 28.6082 147.457C32.1124 142.885 46.8685 134.201 48.9748 132.975C48.2506 133.768 48.3873 137.307 49.3502 141.39C50.3448 145.607 51.8666 148.909 52.8687 149.111Z" fill="#F90065"/>
<path d="M34.6498 142.246C34.6205 142.246 34.5916 142.232 34.5733 142.207C34.543 142.164 34.5527 142.105 34.5949 142.075C38.7254 139.1 43.4216 136.099 48.9518 132.899C48.9969 132.873 49.0542 132.889 49.0803 132.934C49.1062 132.979 49.0908 133.037 49.0458 133.063C43.521 136.259 38.8299 139.257 34.7045 142.228C34.6879 142.24 34.6687 142.246 34.6498 142.246Z" fill="black"/>
<path d="M33.4984 141.552C33.4708 141.552 33.4435 141.54 33.425 141.516C33.3925 141.476 33.399 141.416 33.4395 141.384C35.1752 139.987 37.2547 139.068 39.4531 138.727C39.5041 138.719 39.5524 138.754 39.5604 138.806C39.5684 138.857 39.5332 138.905 39.4819 138.913C37.3159 139.25 35.2673 140.155 33.5572 141.531C33.5398 141.545 33.5191 141.552 33.4984 141.552Z" fill="black"/>
<path d="M39.4828 138.911C39.4802 138.911 39.4776 138.911 39.4749 138.911C39.4231 138.907 39.3847 138.861 39.389 138.809L40.1442 129.714C40.1486 129.663 40.1941 129.624 40.2458 129.628C40.2975 129.633 40.336 129.678 40.3317 129.73L39.5765 138.825C39.5723 138.874 39.5313 138.911 39.4828 138.911Z" fill="black"/>
<path d="M33.4034 124.342C33.7162 124.342 33.9698 124.087 33.9698 123.773C33.9698 123.459 33.7162 123.204 33.4034 123.204C33.0905 123.204 32.8369 123.459 32.8369 123.773C32.8369 124.087 33.0905 124.342 33.4034 124.342Z" fill="#FFCC83"/>
<path d="M37.0284 130.632C37.3412 130.632 37.5948 130.377 37.5948 130.063C37.5948 129.749 37.3412 129.494 37.0284 129.494C36.7155 129.494 36.4619 129.749 36.4619 130.063C36.4619 130.377 36.7155 130.632 37.0284 130.632Z" fill="#FFCC83"/>
<path d="M41.8623 124.342C42.1752 124.342 42.4288 124.087 42.4288 123.773C42.4288 123.459 42.1752 123.204 41.8623 123.204C41.5495 123.204 41.2959 123.459 41.2959 123.773C41.2959 124.087 41.5495 124.342 41.8623 124.342Z" fill="#FFCC83"/>
<path d="M49.0362 126.539C49.349 126.539 49.6026 126.284 49.6026 125.97C49.6026 125.656 49.349 125.401 49.0362 125.401C48.7233 125.401 48.4697 125.656 48.4697 125.97C48.4697 126.284 48.7233 126.539 49.0362 126.539Z" fill="#FFCC83"/>
<path d="M45.4873 131.238C45.8002 131.238 46.0538 130.984 46.0538 130.669C46.0538 130.355 45.8002 130.101 45.4873 130.101C45.1745 130.101 44.9209 130.355 44.9209 130.669C44.9209 130.984 45.1745 131.238 45.4873 131.238Z" fill="#FFCC83"/>
<path d="M59.2325 146.927C59.5453 146.927 59.7989 146.672 59.7989 146.358C59.7989 146.044 59.5453 145.789 59.2325 145.789C58.9196 145.789 58.666 146.044 58.666 146.358C58.666 146.672 58.9196 146.927 59.2325 146.927Z" fill="#FFCC83"/>
<path d="M65.0469 142.076C65.3597 142.076 65.6133 141.822 65.6133 141.507C65.6133 141.193 65.3597 140.938 65.0469 140.938C64.7341 140.938 64.4805 141.193 64.4805 141.507C64.4805 141.822 64.7341 142.076 65.0469 142.076Z" fill="#FFCC83"/>
<path d="M70.7871 145.032C71.1 145.032 71.3536 144.778 71.3536 144.463C71.3536 144.149 71.1 143.895 70.7871 143.895C70.4743 143.895 70.2207 144.149 70.2207 144.463C70.2207 144.778 70.4743 145.032 70.7871 145.032Z" fill="#FFCC83"/>
<path d="M71.6934 137.226C72.0062 137.226 72.2598 136.971 72.2598 136.657C72.2598 136.343 72.0062 136.088 71.6934 136.088C71.3806 136.088 71.127 136.343 71.127 136.657C71.127 136.971 71.3806 137.226 71.6934 137.226Z" fill="#FFCC83"/>
<path d="M79.9248 141.015C80.2377 141.015 80.4913 140.76 80.4913 140.446C80.4913 140.132 80.2377 139.877 79.9248 139.877C79.612 139.877 79.3584 140.132 79.3584 140.446C79.3584 140.76 79.612 141.015 79.9248 141.015Z" fill="#FFCC83"/>
<path d="M75.8467 136.619C76.1595 136.619 76.4132 136.365 76.4132 136.05C76.4132 135.736 76.1595 135.481 75.8467 135.481C75.5339 135.481 75.2803 135.736 75.2803 136.05C75.2803 136.365 75.5339 136.619 75.8467 136.619Z" fill="#FFCC83"/>
<path d="M81.3594 133.36C81.6722 133.36 81.9258 133.106 81.9258 132.792C81.9258 132.477 81.6722 132.223 81.3594 132.223C81.0466 132.223 80.793 132.477 80.793 132.792C80.793 133.106 81.0466 133.36 81.3594 133.36Z" fill="#FFCC83"/>
<path d="M29.0235 135.406C29.3363 135.406 29.5899 135.152 29.5899 134.837C29.5899 134.523 29.3363 134.269 29.0235 134.269C28.7106 134.269 28.457 134.523 28.457 134.837C28.457 135.152 28.7106 135.406 29.0235 135.406Z" fill="#FFCC83"/>
<path d="M29.3252 145.032C29.6381 145.032 29.8917 144.778 29.8917 144.463C29.8917 144.149 29.6381 143.895 29.3252 143.895C29.0124 143.895 28.7588 144.149 28.7588 144.463C28.7588 144.778 29.0124 145.032 29.3252 145.032Z" fill="#FFCC83"/>
<path d="M34.083 150.413C34.3959 150.413 34.6495 150.158 34.6495 149.844C34.6495 149.53 34.3959 149.275 34.083 149.275C33.7702 149.275 33.5166 149.53 33.5166 149.844C33.5166 150.158 33.7702 150.413 34.083 150.413Z" fill="#FFCC83"/>
<path d="M30.0811 157.083C30.3939 157.083 30.6475 156.828 30.6475 156.514C30.6475 156.2 30.3939 155.945 30.0811 155.945C29.7683 155.945 29.5146 156.2 29.5146 156.514C29.5146 156.828 29.7683 157.083 30.0811 157.083Z" fill="#FFCC83"/>
<path d="M38.917 156.779C39.2299 156.779 39.4835 156.525 39.4835 156.211C39.4835 155.896 39.2299 155.642 38.917 155.642C38.6042 155.642 38.3506 155.896 38.3506 156.211C38.3506 156.525 38.6042 156.779 38.917 156.779Z" fill="#FFCC83"/>
<path d="M39.6719 143.213C39.9847 143.213 40.2383 142.958 40.2383 142.644C40.2383 142.33 39.9847 142.075 39.6719 142.075C39.3591 142.075 39.1055 142.33 39.1055 142.644C39.1055 142.958 39.3591 143.213 39.6719 143.213Z" fill="#FFCC83"/>
<path d="M43.5987 149.883C43.9115 149.883 44.1651 149.628 44.1651 149.314C44.1651 149 43.9115 148.745 43.5987 148.745C43.2858 148.745 43.0322 149 43.0322 149.314C43.0322 149.628 43.2858 149.883 43.5987 149.883Z" fill="#FFCC83"/>
<path d="M46.6201 138.741C46.933 138.741 47.1866 138.487 47.1866 138.172C47.1866 137.858 46.933 137.604 46.6201 137.604C46.3073 137.604 46.0537 137.858 46.0537 138.172C46.0537 138.487 46.3073 138.741 46.6201 138.741Z" fill="#FFCC83"/>
<path d="M50.0938 148.745C50.4066 148.745 50.6602 148.491 50.6602 148.176C50.6602 147.862 50.4066 147.607 50.0938 147.607C49.7809 147.607 49.5273 147.862 49.5273 148.176C49.5273 148.491 49.7809 148.745 50.0938 148.745Z" fill="#FFCC83"/>
<path d="M34.9141 139.045C35.2269 139.045 35.4805 138.79 35.4805 138.476C35.4805 138.162 35.2269 137.907 34.9141 137.907C34.6013 137.907 34.3477 138.162 34.3477 138.476C34.3477 138.79 34.6013 139.045 34.9141 139.045Z" fill="#FFCC83"/>
<path d="M37.1869 159.274C37.1502 159.274 37.1153 159.252 37.1002 159.216C37.08 159.168 37.1025 159.113 37.1504 159.092C43.2302 156.525 51.0047 150.414 51.0825 150.352C51.1232 150.32 51.1823 150.327 51.2145 150.368C51.2466 150.409 51.2396 150.468 51.1987 150.501C51.1208 150.562 43.3268 156.689 37.2232 159.266C37.2114 159.271 37.199 159.274 37.1869 159.274Z" fill="black"/>
<path d="M78.0743 145.732C78.0366 145.732 78.001 145.709 77.9866 145.672L73.5308 134.152C73.5121 134.103 73.536 134.049 73.5845 134.03C73.6326 134.011 73.6874 134.035 73.7062 134.084L78.1619 145.604C78.1807 145.652 78.1567 145.707 78.1083 145.726C78.0971 145.73 78.0856 145.732 78.0743 145.732Z" fill="black"/>
<path d="M113.035 213.697H76.0086C73.4802 213.697 71.6171 211.325 72.2061 208.858L72.9387 205.79C76.4678 210.55 99.3637 209.746 103.223 207.634C105.658 206.3 104.745 203.952 103.572 202.237C104.603 202.549 105.745 202.875 106.999 203.238C111.827 204.635 114.372 206.7 115.7 208.626C117.178 210.769 115.633 213.697 113.035 213.697Z" fill="#7C4B33"/>
<path d="M75.8842 178.398C75.8783 178.398 75.8724 178.397 75.8664 178.396C75.8154 178.386 75.7819 178.337 75.7917 178.286L79.1902 160.475C79.2 160.424 79.2488 160.39 79.3003 160.4C79.3512 160.41 79.3847 160.459 79.3749 160.511L75.9764 178.321C75.9678 178.366 75.9284 178.398 75.8842 178.398Z" fill="black"/>
<path d="M77.1174 171.718C77.0749 171.718 77.0365 171.689 77.0261 171.646C76.3433 168.826 75.9957 165.925 75.9932 163.023C75.9931 162.971 76.0352 162.929 76.0871 162.929C76.139 162.929 76.1812 162.971 76.1812 163.023C76.1838 165.91 76.5296 168.796 77.2088 171.602C77.2211 171.652 77.1901 171.703 77.1396 171.716C77.1322 171.717 77.1247 171.718 77.1174 171.718Z" fill="black"/>
<path d="M104.205 177.791C104.204 177.791 104.202 177.791 104.2 177.791C104.148 177.788 104.108 177.743 104.112 177.691L105.471 155.409C105.474 155.357 105.518 155.319 105.571 155.32C105.622 155.324 105.662 155.368 105.659 155.42L104.299 177.703C104.296 177.753 104.255 177.791 104.205 177.791Z" fill="black"/>
<path d="M38.7279 188.914L36.8686 195.087L31.4246 213.159C31.2631 213.695 30.7663 214.058 30.2083 214.048L29.222 214.03C28.4005 214.015 27.8178 213.22 28.0476 212.429L33.3598 194.128L35.1678 187.9L38.7279 188.914Z" fill="#B8C2D8"/>
<path d="M38.7275 188.914L35.1674 187.9L33.0635 195.128L36.4619 196.417L38.7275 188.914Z" fill="black"/>
<path d="M76.6361 187.141C71.2024 189.62 65.5043 191.612 59.5396 193.115C32.7762 199.854 7.23482 178.222 9.42872 150.619C9.79576 146.001 11.5403 130.101 22.1889 127.221C19.0169 131.465 20.6029 148.745 24.8321 155.945C28.6837 162.539 33.8864 163.82 39.5339 162.02C44.3869 160.473 49.2996 159.125 54.2969 158.055C62.4298 156.315 70.3512 161.921 71.3353 170.208C71.5415 171.949 71.6359 173.789 71.6177 175.725L76.4436 174.842L74.5608 184.631C74.3086 185.94 75.3153 187.148 76.6361 187.141Z" fill="#FFEDE1"/>
<path d="M49.6165 194.457C46.4146 194.457 43.2254 194.067 40.0695 193.287C34.0402 191.796 28.323 188.859 23.536 184.794C18.7577 180.736 14.9328 175.576 12.4752 169.872C9.858 163.798 8.80137 157.318 9.33437 150.612C9.70018 146.008 10.5751 141.729 11.8644 138.235C14.1281 132.102 17.5934 128.365 22.164 127.129L22.4284 127.058L22.2641 127.277C20.8098 129.223 20.2599 134.277 20.8288 140.466C21.3987 146.665 22.9638 152.578 24.9132 155.897C26.7394 159.023 28.9696 161.09 31.5419 162.041C33.8812 162.906 36.5602 162.868 39.5051 161.93C44.6794 160.281 49.5113 158.983 54.2769 157.962C58.2074 157.121 62.3351 157.984 65.6019 160.33C67.1872 161.468 68.4981 162.887 69.4984 164.546C70.539 166.272 71.1885 168.173 71.4288 170.197C71.6306 171.901 71.7261 173.723 71.7128 175.611L76.5621 174.724L76.536 174.86L74.6533 184.648C74.5388 185.243 74.694 185.851 75.079 186.316C75.4626 186.78 76.0255 187.046 76.625 187.046H76.6354L77.0767 187.044L76.675 187.227C71.2544 189.7 65.4968 191.712 59.5624 193.206C56.2501 194.04 52.9265 194.457 49.6165 194.457ZM21.9606 127.383C17.5769 128.671 14.2408 132.342 12.0415 138.301C10.7581 141.778 9.88706 146.04 9.52258 150.627C8.99202 157.302 10.0437 163.752 12.6484 169.797C15.0947 175.474 18.9017 180.61 23.658 184.649C28.4229 188.695 34.1135 191.619 40.1147 193.103C46.5026 194.683 53.0303 194.656 59.5163 193.023C65.3184 191.561 70.9508 189.605 76.2636 187.206C75.7465 187.12 75.2751 186.85 74.9337 186.437C74.5125 185.928 74.3427 185.263 74.4678 184.613L76.3245 174.96L71.522 175.839L71.5231 175.724C71.5411 173.803 71.4463 171.95 71.2413 170.219C71.0042 168.223 70.3635 166.347 69.3368 164.644C68.3499 163.007 67.0563 161.607 65.4921 160.484C62.2682 158.169 58.1949 157.318 54.3163 158.147C49.5568 159.167 44.7307 160.463 39.5622 162.11C38.0093 162.605 36.5355 162.852 35.1437 162.852C30.9009 162.852 27.4169 160.558 24.7504 155.993C22.7879 152.652 21.2132 146.709 20.6408 140.483C20.37 137.538 20.3472 134.769 20.5748 132.477C20.8021 130.189 21.2795 128.437 21.9606 127.383Z" fill="black"/>
<path d="M46.4567 107.877C47.087 107.877 47.598 107.365 47.598 106.732C47.598 106.1 47.087 105.587 46.4567 105.587C45.8264 105.587 45.3154 106.1 45.3154 106.732C45.3154 107.365 45.8264 107.877 46.4567 107.877Z" fill="white"/>
<path d="M53.3531 98.7686C52.6855 98.3495 51.9197 98.0857 51.1108 98.0062C50.9613 97.9917 50.8125 97.9834 50.666 97.9819C50.7755 97.0504 51.1607 94.9927 52.397 95.4649C53.6197 95.9325 53.4807 97.8947 53.3531 98.7686Z" fill="black"/>
<path d="M54.7137 96.2232C53.304 95.4148 52.6998 94.8084 51.5586 95.2126C50.834 95.4693 50.732 96.4586 50.754 97.1472C49.1096 96.4845 46.778 97.1781 45.7922 98.6643C45.2661 99.3159 43.4942 101.717 44.3757 102.422C44.7477 102.719 45.4263 102.704 45.8559 102.929C46.5826 103.309 46.883 103.992 47.2572 104.662C47.4267 104.318 47.866 102.189 47.3243 101.978C49.0213 102.385 48.7047 100.896 48.9405 99.8611C49.2075 98.6887 50.8541 97.8031 52.0285 98.1769C51.7607 97.7668 51.4018 97.4626 50.9888 97.2536C51.2186 96.5394 51.6594 95.4546 52.1627 95.6842C52.9012 96.0211 51.4151 99.2548 53.0765 100.771C54.6761 102.23 55.2667 100.619 56.4591 103.499C56.7692 104.248 56.1234 97.0316 54.7137 96.2232Z" fill="#FFCC83"/>
<path d="M56.3865 102.22L56.1921 102.207C56.2862 100.741 56.0736 99.2367 55.5771 97.8554L55.7605 97.7891C56.2658 99.1955 56.4824 100.728 56.3865 102.22Z" fill="black"/>
<path d="M50.0369 122.84C46.905 122.84 44.2761 121.391 42.5314 120.071C40.3489 118.419 39.0423 116.608 39.0293 116.59C38.9991 116.547 39.0088 116.489 39.0509 116.458C39.0932 116.428 39.1519 116.437 39.1821 116.48C39.195 116.498 40.4878 118.289 42.649 119.923C44.6377 121.427 47.7906 123.102 51.5192 122.54C51.5699 122.533 51.6185 122.568 51.6262 122.62C51.6338 122.671 51.5985 122.719 51.5471 122.727C51.0325 122.804 50.5282 122.84 50.0369 122.84Z" fill="black"/>
</g>
<g clip-path="url(#clip6_304_1000)">
<path d="M117.14 182.714H84.1797V184.614H117.14V182.714Z" fill="#7C4B33"/>
<path d="M117.202 184.677H84.1162V182.65H117.202V184.677ZM84.2423 184.551H117.076V182.777H84.2422L84.2423 184.551Z" fill="black"/>
<path d="M140.079 182.714H117.958V184.614H140.079V182.714Z" fill="#FFBC97"/>
<path d="M140.141 184.677H117.895V182.65H140.141V184.677ZM118.021 184.551H140.015V182.777H118.021V184.551Z" fill="black"/>
<path d="M117.158 162.47H85.415V182.715H117.158V162.47Z" fill="#FFBC97"/>
<path d="M117.221 182.778H85.3516V162.406H117.221V182.778ZM85.4776 182.651H117.095V162.533H85.4776V182.651Z" fill="black"/>
<path d="M142.491 162.47H117.158V182.715H142.491V162.47Z" fill="#FAD0C9"/>
<path d="M142.555 182.778H117.096V162.406H142.555V182.778ZM117.222 182.651H142.429V162.533H117.222V182.651Z" fill="black"/>
<path d="M117.163 161.5H115.686C115.006 161.5 114.455 162.053 114.455 162.736V212.388C114.455 213.071 115.006 213.625 115.686 213.625H117.163C117.843 213.625 118.394 213.071 118.394 212.388V162.736C118.394 162.053 117.843 161.5 117.163 161.5Z" fill="#112E5B"/>
<path d="M84.1797 161.5H88.1187V212.388C88.1187 213.071 87.5671 213.625 86.8878 213.625H85.4105C84.7312 213.625 84.1797 213.071 84.1797 212.388L84.1797 161.5Z" fill="#112E5B"/>
<path d="M117.164 213.688H115.686C114.973 213.688 114.393 213.105 114.393 212.388V162.736C114.393 162.019 114.973 161.437 115.686 161.437H117.164C117.877 161.437 118.458 162.019 118.458 162.736V212.388C118.458 213.105 117.877 213.688 117.164 213.688ZM115.686 161.563C115.043 161.563 114.519 162.089 114.519 162.736V212.388C114.519 213.035 115.043 213.561 115.686 213.561H117.164C117.808 213.561 118.332 213.035 118.332 212.388V162.736C118.332 162.089 117.808 161.563 117.164 161.563H115.686Z" fill="black"/>
<path d="M86.8874 213.688H85.4101C84.6966 213.688 84.1162 213.105 84.1162 212.388V161.437H88.1812V212.388C88.1812 213.105 87.6008 213.688 86.8874 213.688ZM84.2423 161.563V212.388C84.2423 213.035 84.7662 213.561 85.4101 213.561H86.8874C87.5313 213.561 88.0552 213.035 88.0552 212.388V161.563H84.2423Z" fill="black"/>
<path d="M143.457 159.6H82.4033V163.439H143.457V159.6Z" fill="#112E5B"/>
<path d="M143.52 163.502H82.3398V159.536H143.52V163.502ZM82.4659 163.376H143.394V159.663H82.4659V163.376Z" fill="black"/>
<path d="M138.553 161.5H142.492V212.388C142.492 213.071 141.94 213.625 141.261 213.625H139.784C139.104 213.625 138.553 213.071 138.553 212.388V161.5Z" fill="#B8C2D8"/>
<path d="M141.26 213.688H139.783C139.07 213.688 138.489 213.105 138.489 212.388V161.437H142.554V212.388C142.554 213.105 141.974 213.688 141.26 213.688ZM138.615 161.563V212.388C138.615 213.035 139.139 213.561 139.783 213.561H141.26C141.904 213.561 142.428 213.035 142.428 212.388V161.563H138.615Z" fill="black"/>
<path d="M143.457 159.6H118.974V163.439H143.457V159.6Z" fill="#B8C2D8"/>
<path d="M143.52 163.502H118.91V159.536H143.52V163.502ZM119.036 163.376H143.394V159.663H119.036V163.376Z" fill="black"/>
<path d="M103.652 166.348H97.5316C96.9877 166.348 96.5469 166.79 96.5469 167.337C96.5469 167.883 96.9877 168.326 97.5316 168.326H103.652C104.195 168.326 104.636 167.883 104.636 167.337C104.636 166.79 104.195 166.348 103.652 166.348Z" fill="#112E5B"/>
<path d="M103.651 168.389H97.5312C96.9534 168.389 96.4834 167.917 96.4834 167.336C96.4834 166.756 96.9534 166.284 97.5312 166.284H103.651C104.229 166.284 104.699 166.756 104.699 167.336C104.699 167.917 104.229 168.389 103.651 168.389ZM97.5312 166.411C97.0229 166.411 96.6094 166.826 96.6094 167.336C96.6094 167.847 97.0229 168.262 97.5312 168.262H103.651C104.159 168.262 104.573 167.847 104.573 167.336C104.573 166.826 104.159 166.411 103.651 166.411H97.5312Z" fill="black"/>
</g>
<g clip-path="url(#clip7_304_1000)">
<path d="M100.147 159.458H116.68L122.151 143.483H105.619L100.147 159.458Z" fill="#90D8E0"/>
<path d="M116.729 159.528H100.05L105.569 143.414H122.249L116.729 159.528ZM100.245 159.388H116.63L122.054 143.554H105.668L100.245 159.388Z" fill="black"/>
<path d="M128.84 159.507H116.68L122.254 143.435L128.84 159.507Z" fill="black"/>
<path d="M120.74 143.435H120.571C120.571 142.773 120.18 142.235 119.699 142.235C119.218 142.235 118.827 142.773 118.827 143.435H118.658C118.658 142.68 119.125 142.065 119.699 142.065C120.273 142.065 120.74 142.68 120.74 143.435Z" fill="black"/>
<path d="M119.375 143.435H119.206C119.206 142.773 118.815 142.235 118.334 142.235C117.853 142.235 117.462 142.773 117.462 143.435H117.293C117.293 142.68 117.76 142.065 118.334 142.065C118.908 142.065 119.375 142.68 119.375 143.435Z" fill="black"/>
<path d="M117.877 143.435H117.708C117.708 142.773 117.317 142.235 116.836 142.235C116.355 142.235 115.964 142.773 115.964 143.435H115.795C115.795 142.68 116.262 142.065 116.836 142.065C117.41 142.065 117.877 142.68 117.877 143.435Z" fill="black"/>
<path d="M116.237 143.435H116.068C116.068 142.773 115.677 142.235 115.196 142.235C114.715 142.235 114.324 142.773 114.324 143.435H114.155C114.155 142.68 114.622 142.065 115.196 142.065C115.77 142.065 116.237 142.68 116.237 143.435Z" fill="black"/>
<path d="M114.873 143.435H114.704C114.704 142.773 114.313 142.235 113.832 142.235C113.351 142.235 112.96 142.773 112.96 143.435H112.791C112.791 142.68 113.258 142.065 113.832 142.065C114.406 142.065 114.873 142.68 114.873 143.435Z" fill="black"/>
<path d="M113.508 143.435H113.339C113.339 142.773 112.948 142.235 112.467 142.235C111.986 142.235 111.594 142.773 111.594 143.435H111.426C111.426 142.68 111.893 142.065 112.467 142.065C113.041 142.065 113.508 142.68 113.508 143.435Z" fill="black"/>
<path d="M112.143 143.435H111.975C111.975 142.773 111.583 142.235 111.102 142.235C110.622 142.235 110.23 142.773 110.23 143.435H110.062C110.062 142.68 110.528 142.065 111.102 142.065C111.676 142.065 112.143 142.68 112.143 143.435Z" fill="black"/>
<path d="M110.778 143.435H110.61C110.61 142.773 110.218 142.235 109.737 142.235C109.256 142.235 108.865 142.773 108.865 143.435H108.696C108.696 142.68 109.163 142.065 109.737 142.065C110.311 142.065 110.778 142.68 110.778 143.435Z" fill="black"/>
<path d="M109.413 143.435H109.244C109.244 142.773 108.853 142.235 108.372 142.235C107.891 142.235 107.5 142.773 107.5 143.435H107.331C107.331 142.68 107.798 142.065 108.372 142.065C108.946 142.065 109.413 142.68 109.413 143.435Z" fill="black"/>
<path d="M116.179 148.626H119.107L120.052 145.701H117.123L116.179 148.626Z" fill="white"/>
<path d="M119.168 148.71H116.062L117.062 145.616H120.167L119.168 148.71ZM116.295 148.541H119.046L119.935 145.786H117.184L116.295 148.541Z" fill="black"/>
<path d="M112.497 148.626H115.425L116.37 145.701H113.442L112.497 148.626Z" fill="white"/>
<path d="M115.487 148.71H112.381L113.38 145.616H116.486L115.487 148.71ZM112.613 148.541H115.364L116.254 145.786H113.503L112.613 148.541Z" fill="black"/>
<path d="M108.814 148.626H111.743L112.687 145.701H109.759L108.814 148.626Z" fill="white"/>
<path d="M111.804 148.71H108.698L109.697 145.616H112.803L111.804 148.71ZM108.93 148.541H111.681L112.571 145.786H109.82L108.93 148.541Z" fill="black"/>
<path d="M105.133 148.626H108.061L109.006 145.701H106.077L105.133 148.626Z" fill="white"/>
<path d="M108.122 148.71H105.017L106.016 145.616H109.122L108.122 148.71ZM105.249 148.541H108L108.89 145.786H106.138L105.249 148.541Z" fill="black"/>
<path d="M114.726 152.933H117.654L118.598 150.009H115.67L114.726 152.933Z" fill="white"/>
<path d="M117.716 153.018H114.61L115.609 149.924H118.715L117.716 153.018ZM114.842 152.848H117.593L118.483 150.093H115.732L114.842 152.848Z" fill="black"/>
<path d="M111.044 152.933H113.972L114.917 150.009H111.989L111.044 152.933Z" fill="#F90065"/>
<path d="M114.033 153.018H110.928L111.927 149.924H115.033L114.033 153.018ZM111.16 152.848H113.911L114.801 150.093H112.05L111.16 152.848Z" fill="black"/>
<path d="M107.361 152.933H110.29L111.234 150.009H108.306L107.361 152.933Z" fill="white"/>
<path d="M110.352 153.018H107.246L108.245 149.924H111.351L110.352 153.018ZM107.478 152.848H110.229L111.119 150.093H108.368L107.478 152.848Z" fill="black"/>
<path d="M103.68 152.933H106.608L107.553 150.009H104.624L103.68 152.933Z" fill="white"/>
<path d="M106.669 153.018H103.563L104.563 149.924H107.668L106.669 153.018ZM103.796 152.848H106.547L107.436 150.093H104.685L103.796 152.848Z" fill="black"/>
<path d="M113.273 157.241H116.202L117.146 154.316H114.218L113.273 157.241Z" fill="white"/>
<path d="M116.263 157.325H113.157L114.156 154.231H117.262L116.263 157.325ZM113.389 157.156H116.14L117.03 154.401H114.279L113.389 157.156Z" fill="black"/>
<path d="M109.591 157.241H112.519L113.464 154.316H110.535L109.591 157.241Z" fill="white"/>
<path d="M112.58 157.325H109.475L110.474 154.231H113.579L112.58 157.325ZM109.707 157.156H112.458L113.347 154.401H110.596L109.707 157.156Z" fill="black"/>
<path d="M105.909 157.241H108.837L109.782 154.316H106.854L105.909 157.241Z" fill="white"/>
<path d="M108.899 157.325H105.793L106.792 154.231H109.898L108.899 157.325ZM106.025 157.156H108.776L109.666 154.401H106.915L106.025 157.156Z" fill="black"/>
<path d="M102.227 157.241H105.155L106.1 154.316H103.171L102.227 157.241Z" fill="white"/>
<path d="M105.217 157.325H102.111L103.11 154.231H106.216L105.217 157.325ZM102.343 157.156H105.094L105.984 154.401H103.233L102.343 157.156Z" fill="black"/>
</g>
<defs>
<clipPath id="clip0_304_1000">
<rect width="212.524" height="182.598" fill="white" transform="translate(44.043 20.0967)"/>
</clipPath>
<clipPath id="clip1_304_1000">
<rect width="84.0498" height="138.531" fill="white" transform="translate(100.395 12.2432)"/>
</clipPath>
<clipPath id="clip2_304_1000">
<rect width="73.7815" height="81.0494" fill="white" transform="translate(106.26 40.2344)"/>
</clipPath>
<clipPath id="clip3_304_1000">
<rect width="185.795" height="127.759" fill="white" transform="translate(67.3896 33.2637)"/>
</clipPath>
<clipPath id="clip4_304_1000">
<rect width="86.25" height="144.757" fill="white" transform="translate(167.9 68.3301)"/>
</clipPath>
<clipPath id="clip5_304_1000">
<rect width="118.22" height="120.857" fill="white" transform="translate(9.2002 93.1914)"/>
</clipPath>
<clipPath id="clip6_304_1000">
<rect width="61.1799" height="54.1515" fill="white" transform="translate(82.3398 159.536)"/>
</clipPath>
<clipPath id="clip7_304_1000">
<rect width="28.7905" height="17.4625" fill="white" transform="translate(100.05 142.065)"/>
</clipPath>
</defs>
</svg>
