<svg width="24" height="24" viewBox="0 0 24 24" fill="none" xmlns="http://www.w3.org/2000/svg">
<path d="M20.25 5.25H3.75C3.35218 5.25 2.97064 5.40804 2.68934 5.68934C2.40804 5.97064 2.25 6.35218 2.25 6.75V17.25C2.25 17.6478 2.40804 18.0294 2.68934 18.3107C2.97064 18.592 3.35218 18.75 3.75 18.75H20.25C20.6478 18.75 21.0294 18.592 21.3107 18.3107C21.592 18.0294 21.75 17.6478 21.75 17.25V6.75C21.75 6.35218 21.592 5.97064 21.3107 5.68934C21.0294 5.40804 20.6478 5.25 20.25 5.25ZM8.25 16.5H5.25C5.05109 16.5 4.86032 16.421 4.71967 16.2803C4.57902 16.1397 4.5 15.9489 4.5 15.75C4.5 15.5511 4.57902 15.3603 4.71967 15.2197C4.86032 15.079 5.05109 15 5.25 15H8.25C8.44891 15 8.63968 15.079 8.78033 15.2197C8.92098 15.3603 9 15.5511 9 15.75C9 15.9489 8.92098 16.1397 8.78033 16.2803C8.63968 16.421 8.44891 16.5 8.25 16.5ZM9 11.25C9 11.4489 8.92098 11.6397 8.78033 11.7803C8.63968 11.921 8.44891 12 8.25 12H5.25C5.05109 12 4.86032 11.921 4.71967 11.7803C4.57902 11.6397 4.5 11.4489 4.5 11.25V8.25C4.5 8.05109 4.57902 7.86032 4.71967 7.71967C4.86032 7.57902 5.05109 7.5 5.25 7.5H8.25C8.44891 7.5 8.63968 7.57902 8.78033 7.71967C8.92098 7.86032 9 8.05109 9 8.25V11.25ZM18.75 16.5H12.75C12.5511 16.5 12.3603 16.421 12.2197 16.2803C12.079 16.1397 12 15.9489 12 15.75C12 15.5511 12.079 15.3603 12.2197 15.2197C12.3603 15.079 12.5511 15 12.75 15H18.75C18.9489 15 19.1397 15.079 19.2803 15.2197C19.421 15.3603 19.5 15.5511 19.5 15.75C19.5 15.9489 19.421 16.1397 19.2803 16.2803C19.1397 16.421 18.9489 16.5 18.75 16.5Z" fill="#00BF63"/>
</svg>
