<svg width="22" height="22" viewBox="0 0 22 22" fill="none" xmlns="http://www.w3.org/2000/svg">
<path d="M8.39133 15.0873C8.29865 15.1815 8.17967 15.2456 8.04998 15.2711L5.73275 15.7306C5.62706 15.752 5.51774 15.747 5.41443 15.716C5.31113 15.6851 5.21704 15.6292 5.14047 15.5533C5.0639 15.4774 5.00721 15.3838 4.97541 15.2807C4.94361 15.1777 4.93769 15.0684 4.95816 14.9626L5.42423 12.6256C5.44913 12.4991 5.51077 12.3826 5.60147 12.2909L14.8901 3.02194C15.0131 2.89968 15.1794 2.83105 15.3529 2.83105C15.5263 2.83105 15.6927 2.89968 15.8156 3.02194L17.6734 4.87966C17.7956 5.00266 17.8643 5.16903 17.8643 5.34245C17.8643 5.51587 17.7956 5.68225 17.6734 5.80524L8.39133 15.0873ZM15.343 4.41359L13.9514 5.80524L14.8901 6.71769L16.2817 5.33917L15.343 4.41359ZM5.60147 18.4745H17.2073C17.3814 18.4745 17.5484 18.4053 17.6715 18.2822C17.7946 18.1591 17.8637 17.9922 17.8637 17.8181C17.8637 17.644 17.7946 17.477 17.6715 17.3539C17.5484 17.2308 17.3814 17.1616 17.2073 17.1616H5.60147C5.42737 17.1616 5.2604 17.2308 5.13729 17.3539C5.01419 17.477 4.94503 17.644 4.94503 17.8181C4.94503 17.9922 5.01419 18.1591 5.13729 18.2822C5.2604 18.4053 5.42737 18.4745 5.60147 18.4745Z" fill="#00BF63"/>
</svg>
