<svg width="24" height="24" viewBox="0 0 24 24" fill="none" xmlns="http://www.w3.org/2000/svg">
<path d="M18.4815 4.4025C18.3086 4.2325 18.0494 4.1475 17.7901 4.2325C15.8889 4.6575 13.9877 4.2325 12.4321 3.1275C12.1728 2.9575 11.7407 2.9575 11.4815 3.1275C9.83951 4.2325 7.93827 4.6575 6.03704 4.2325C5.60494 4.1475 5.08642 4.4875 5 4.9125C5 4.9975 5 4.9975 5 5.0825V11.4575C5 13.9225 6.20988 16.2175 8.28395 17.6625L11.4815 19.8725C11.7407 20.0425 12.1728 20.0425 12.5185 19.8725L15.716 17.6625C17.7901 16.2175 19 13.9225 19 11.4575V5.0825C18.8272 4.8275 18.7407 4.5725 18.4815 4.4025ZM13.642 12.3925H12.7778V13.2425C12.7778 13.7525 12.4321 14.0925 11.9136 14.0925C11.3951 14.0925 11.0494 13.7525 11.0494 13.2425V12.3925H10.1852C9.66667 12.3925 9.32099 12.0525 9.32099 11.5425C9.32099 11.0325 9.66667 10.6925 10.1852 10.6925H11.0494V9.8425C11.0494 9.3325 11.3951 8.9925 11.9136 8.9925C12.4321 8.9925 12.7778 9.3325 12.7778 9.8425V10.6925H13.642C14.1605 10.6925 14.5062 11.0325 14.5062 11.5425C14.5062 12.0525 14.1605 12.3925 13.642 12.3925Z" fill="#00BF63"/>
</svg>
