<svg width="61" height="60" viewBox="0 0 61 60" fill="none" xmlns="http://www.w3.org/2000/svg">
<path d="M7.31519 43.9363C7.31519 43.9363 10.5317 46.8235 11.4254 46.5319C12.3192 46.2403 14.4874 46.0158 14.4874 46.0158C14.4874 46.0158 42.1272 47.7163 42.1992 49.0843C42.2712 50.4523 46.6632 50.8483 47.1672 50.7043C47.6712 50.5603 53.8576 47.0577 54.1643 46.465C54.471 45.8724 19.7964 40.6749 16.6852 40.9679C13.574 41.261 7.60319 42.2628 7.31519 43.9363Z" fill="#EDF0F9"/>
<path d="M9.37791 27.1302C10.332 32.345 15.1141 36.7028 23.6176 38.3123C32.121 39.9217 38.0441 46.0365 45.7617 42.6975C54.7745 38.7981 54.0711 21.3128 44.7718 13.9388C36.4245 7.31981 28.7208 9.19621 23.4889 10.8042C13.157 13.9796 8.42379 21.9154 9.37791 27.1302Z" fill="#EDF0F9"/>
<path d="M49.7248 25.1412L48.9579 25.0201C48.9579 25.0201 47.8813 27.6306 47.8813 28.115C47.8813 28.5994 49.6576 31.4656 50.1823 31.4656C50.7071 31.4656 51.2319 30.4564 51.2319 30.4564L49.4423 28.3303L49.7248 25.1412Z" fill="#A0B855"/>
<path d="M49.9872 24.2339C49.7858 24.6964 49.6861 24.8189 49.6861 24.8189L49.1281 24.9756C49.1281 24.9756 49.1751 24.4724 49.1233 24.1996C49.0732 23.9276 49.3883 23.7991 49.3883 24.053C49.3891 24.3062 49.6391 24.0617 49.6391 24.0617L49.6446 24.0515L49.9872 24.2339Z" fill="#F3AB9C"/>
<path d="M17.2175 20.5323C17.2175 20.5323 18.1508 20.4645 18.1508 21.2785L17.3562 21.3609L17.2175 20.5323Z" fill="#87BD44"/>
<path d="M22.6248 19.9315C22.6248 19.9315 23.5726 19.917 23.5726 20.731L22.778 20.8134L22.6248 19.9315Z" fill="#87BD44"/>
<path d="M28.749 19.2144C28.749 19.2144 29.7065 19.2847 29.7065 20.0987L28.9119 20.1811L28.749 19.2144Z" fill="#87BD44"/>
<path d="M35.6001 18.4391C35.6001 18.4391 36.5576 18.5095 36.5576 19.3235L35.763 19.4058L35.6001 18.4391Z" fill="#87BD44"/>
<path d="M41.033 21.1432C41.033 20.0446 40.1334 19.248 39.0418 19.3619L15.5776 21.8094H15.5775C14.8813 21.8821 14.3242 22.6363 14.3242 23.4951V41.1232C14.3242 41.982 14.8813 42.7408 15.5775 42.819L39.0417 45.4569C40.1333 45.5796 41.0329 44.7903 41.0329 43.6917V25.1175H41.033L41.033 21.1432Z" fill="#87BD44"/>
<path d="M40.2826 20.9251V43.8752C40.2826 44.9934 39.3831 45.7967 38.2914 45.6718L14.8273 42.987C14.1311 42.9073 13.574 42.1351 13.574 41.2609V23.3189C13.574 22.4448 14.1311 21.6771 14.8273 21.6032L38.2914 19.1121C39.3831 18.9962 40.2826 19.8069 40.2826 20.9251Z" fill="white"/>
<path d="M38.2918 19.112L14.8271 21.6034C14.131 21.6769 13.574 22.4444 13.574 23.3186V41.2611C13.574 42.1353 14.131 42.9077 14.8271 42.9869L38.2918 45.6723C39.3834 45.7966 40.2831 44.9938 40.2831 43.8749V20.925C40.2831 19.8071 39.3834 18.9965 38.2918 19.112ZM39.3315 43.1534C39.3315 44.193 38.4945 44.94 37.4793 44.8235L23.5976 43.2356L20.8301 42.9194L19.5281 42.7696L15.6543 42.3271C15.0062 42.2527 14.4874 41.5341 14.4874 40.7216V24.0312C14.4874 23.2187 15.0062 22.505 15.6543 22.4355L26.3162 21.3038L33.4156 20.55L34.9095 20.3914L37.4793 20.1183C37.6692 20.0977 37.8543 20.1085 38.0285 20.1457C38.7794 20.3043 39.3315 20.9602 39.3315 21.8051V43.1534Z" fill="url(#paint0_linear_39_330)"/>
<path d="M40.283 20.925V24.9701L39.3315 25.0239V21.8051C39.3315 20.9602 38.7793 20.3043 38.0285 20.1457C37.8542 20.1085 37.6692 20.0978 37.4793 20.1183L34.9095 20.3915L33.4156 20.5501L26.3162 21.3039L15.6543 22.4356C15.0062 22.505 14.4874 23.2187 14.4874 24.0313V26.4297L13.574 26.4816V23.3186C13.574 22.4444 14.131 21.6769 14.8271 21.6034L38.2918 19.112C39.3834 18.9964 40.283 19.807 40.283 20.925Z" fill="url(#paint1_linear_39_330)"/>
<path d="M13.574 26.4813L40.2826 24.9702V22.7726C40.2826 22.7726 31.9081 22.5194 13.574 26.4813Z" fill="url(#paint2_linear_39_330)"/>
<path d="M17.4089 21.5427L17.9957 21.2591L17.2883 21.3366L17.4089 21.5427Z" fill="#565656"/>
<path d="M22.958 20.9614L23.5448 20.6777L22.8374 20.7552L22.958 20.9614Z" fill="#565656"/>
<path d="M29.1137 20.3072L29.7006 20.0236L28.9932 20.1011L29.1137 20.3072Z" fill="#565656"/>
<path d="M35.9677 19.5801L36.5546 19.2965L35.8472 19.374L35.9677 19.5801Z" fill="#565656"/>
<path d="M17.2176 20.5322C17.2047 20.5322 17.1912 20.5329 17.1776 20.5343C16.9429 20.5607 16.7537 20.8164 16.7537 21.1054V21.3679C16.7537 21.4984 16.8668 21.6001 16.9966 21.5864L17.409 21.5427C17.5208 21.5309 17.6056 21.4366 17.6056 21.3242V21.0125C17.6056 20.7384 17.4354 20.5322 17.2176 20.5322Z" fill="#1AA663"/>
<path d="M22.6734 19.9082C22.6578 19.9082 22.6422 19.9089 22.6259 19.9109C22.3648 19.9408 22.1538 20.2114 22.1538 20.516V20.7947C22.1538 20.9252 22.2669 21.027 22.3967 21.0133L22.9055 20.9594C23.0173 20.9476 23.1021 20.8533 23.1021 20.7409V20.4129C23.1021 20.1246 22.9135 19.9082 22.6734 19.9082Z" fill="#1AA663"/>
<path d="M28.762 19.2115C28.7437 19.2115 28.7254 19.2129 28.7064 19.2149C28.414 19.2482 28.178 19.5364 28.178 19.8586V20.155C28.178 20.2855 28.2911 20.3873 28.4209 20.3735L29.043 20.3075C29.1547 20.2957 29.2395 20.2014 29.2395 20.089V19.7426C29.2396 19.4388 29.03 19.2115 28.762 19.2115Z" fill="#1AA663"/>
<path d="M35.603 18.4294C35.5813 18.4294 35.5589 18.4308 35.5366 18.4335C35.2076 18.4708 34.9417 18.7788 34.9417 19.1206V19.4367C34.9417 19.5672 35.0548 19.669 35.1846 19.6552L35.9416 19.5749C36.0534 19.5631 36.1382 19.4688 36.1382 19.3564V18.9904C36.1382 18.6682 35.9035 18.4294 35.603 18.4294Z" fill="#1AA663"/>
<path d="M39.3317 21.8051V43.1534C39.3317 44.193 38.4946 44.9399 37.4795 44.8234L23.5978 43.2356L20.8302 42.9194L19.5282 42.7696L15.6545 42.3271C15.0064 42.2527 14.4875 41.5341 14.4875 40.7216V24.0312C14.4875 23.2187 15.0064 22.505 15.6545 22.4355L26.3164 21.3038L33.4158 20.55L34.9097 20.3914L37.4795 20.1183C37.6694 20.0977 37.8544 20.1085 38.0287 20.1457C38.7795 20.3043 39.3317 20.9602 39.3317 21.8051Z" fill="white"/>
<path opacity="0.6" d="M50.2621 25.8957V39.1492C50.2621 40.2278 49.4706 41.0392 48.5039 40.963L34.5213 39.8584L31.5517 39.6235L30.1314 39.511L25.8189 39.1706C25.0846 39.112 24.4944 38.3132 24.4944 37.3858V28.1198C24.4944 27.1916 25.0846 26.3829 25.8189 26.3112L37.3775 25.1911L44.5612 24.4951L46.0249 24.3532L48.5038 24.1131C48.6859 24.0954 48.8618 24.1094 49.0278 24.1514C49.7406 24.3299 50.2621 25.0198 50.2621 25.8957Z" fill="#A6DC63" fill-opacity="0.54"/>
<path d="M30.8801 36.4877L27.4 36.2712V35.2051L28.9882 32.4901C29.2136 32.0951 29.3815 31.7483 29.4909 31.4515C29.6007 31.1535 29.6557 30.8713 29.6557 30.6057C29.6557 30.243 29.5977 29.9608 29.482 29.7601C29.3668 29.5601 29.2031 29.467 28.9917 29.4801C28.7657 29.4942 28.5889 29.629 28.4604 29.8836C28.3324 30.1372 28.2687 30.4642 28.2687 30.8653L27.3052 30.9015C27.3052 30.425 27.3743 29.9859 27.5132 29.5826C27.6528 29.1774 27.8514 28.8515 28.1102 28.6048C28.3714 28.3558 28.6707 28.216 29.0091 28.1871C29.5351 28.1422 29.9506 28.3097 30.2504 28.6934C30.5534 29.0811 30.7061 29.6519 30.7061 30.4023C30.7061 30.8138 30.6373 31.2349 30.5002 31.6641C30.3638 32.0912 30.1314 32.5868 29.8055 33.1474L28.6467 35.0652L30.8801 35.1521L30.8801 36.4877Z" fill="#00BF63"/>
<path d="M35.5231 32.9846C35.5231 34.2321 35.3429 35.1798 34.9856 35.8218C34.6323 36.4566 34.1224 36.75 33.4639 36.7084C32.8274 36.6682 32.3497 36.3303 32.0235 35.6995C31.7009 35.0757 31.5371 34.2 31.5295 33.0674V31.5139C31.5295 30.3352 31.6901 29.4309 32.0139 28.7958C32.3413 28.1535 32.8195 27.8026 33.4558 27.7477C34.1059 27.6915 34.6127 27.9662 34.9686 28.578C35.3286 29.1971 35.5145 30.1141 35.5231 31.324L35.5231 32.9846ZM34.2943 31.1938C34.2943 30.4602 34.2256 29.9296 34.0887 29.6031C33.9524 29.2782 33.7409 29.1253 33.4558 29.1432C33.1814 29.1605 32.9806 29.3289 32.8519 29.6472C32.7237 29.9642 32.6559 30.4516 32.648 31.1104V33.2041C32.648 33.906 32.7118 34.4291 32.84 34.7745C32.9686 35.1215 33.1761 35.3012 33.4639 35.3127C33.7518 35.3241 33.9613 35.1653 34.0908 34.8348C34.2207 34.503 34.2887 33.9902 34.2943 33.2971L34.2943 31.1938Z" fill="#00BF63"/>
<path d="M40.9764 37.1158L36.2136 36.8195V35.579L38.3746 32.4171C38.683 31.9546 38.913 31.5482 39.063 31.2C39.2136 30.8504 39.2892 30.5193 39.2892 30.2081C39.2892 29.7832 39.2095 29.4532 39.0508 29.2193C38.8929 28.9865 38.6686 28.8796 38.3793 28.8975C38.0706 28.9167 37.8294 29.0763 37.6541 29.3751C37.4797 29.6724 37.3929 30.0545 37.3929 30.5226L36.0852 30.5717C36.0852 30.0174 36.1788 29.5058 36.367 29.0349C36.5562 28.5613 36.8256 28.1789 37.1773 27.8875C37.5329 27.5929 37.9408 27.4247 38.4031 27.3853C39.1236 27.3238 39.6943 27.5131 40.107 27.9585C40.5249 28.4094 40.7359 29.0782 40.7359 29.9604C40.7359 30.444 40.6408 30.9395 40.4516 31.4445C40.2633 31.9466 39.9431 32.5289 39.4948 33.1863L37.9081 35.4256L40.9763 35.545V37.1158H40.9764Z" fill="#00BF63"/>
<path d="M47.4915 32.9969C47.4915 34.4853 47.2351 35.6144 46.7276 36.3762C46.2269 37.1277 45.5063 37.4696 44.5789 37.411C43.6861 37.3545 43.0184 36.9489 42.5635 36.2003C42.1145 35.4615 41.887 34.4282 41.8765 33.0936V31.2628C41.8765 29.8738 42.0995 28.8061 42.5501 28.0523C43.0066 27.2887 43.675 26.8652 44.5675 26.7881C45.483 26.7091 46.1992 27.0261 46.7034 27.7483C47.2147 28.4806 47.4792 29.5721 47.4915 31.0156V32.9969ZM45.7489 30.8681C45.7489 29.9962 45.6519 29.3663 45.4587 28.98C45.2664 28.5958 44.9685 28.4173 44.5675 28.4425C44.1822 28.4668 43.9006 28.6689 43.7204 29.0472C43.5409 29.4237 43.4461 30.0009 43.4351 30.7799V33.2558C43.4351 34.0858 43.5244 34.7048 43.7037 35.1141C43.8839 35.5257 44.1747 35.7402 44.5789 35.7563C44.9838 35.7725 45.279 35.5857 45.4616 35.1943C45.6451 34.8009 45.741 34.1918 45.7489 33.3681L45.7489 30.8681Z" fill="#00BF63"/>
<path opacity="0.6" d="M24.1575 28.0778V37.4642C24.1575 38.2281 23.6735 38.8084 23.0807 38.7613L14.2928 38.0608L12.3736 37.9076L11.4489 37.8336L8.61405 37.6078C8.12725 37.5686 7.73511 36.9814 7.73511 36.296V29.4475C7.73511 28.7615 8.12725 28.1699 8.61405 28.1248L16.121 27.4339L20.6435 27.0179L21.552 26.9342L23.0807 26.7937C23.1925 26.7833 23.3005 26.7954 23.4023 26.8273C23.8387 26.9625 24.1575 27.4574 24.1575 28.0778Z" fill="#A6DC63" fill-opacity="0.54"/>
<path d="M12.4941 36.2282L10.4143 36.0463V35.1794L11.3358 33.2302C11.5722 32.6889 11.6919 32.2557 11.6919 31.9372C11.6919 31.6792 11.6634 31.4849 11.6067 31.3547C11.5502 31.2251 11.4686 31.1648 11.3623 31.1734C11.2581 31.182 11.1741 31.2772 11.1099 31.4585C11.046 31.6391 11.0141 31.8605 11.0141 32.1234L10.3572 32.1561C10.3572 31.8048 10.3997 31.4772 10.485 31.172C10.5709 30.865 10.6909 30.6182 10.8461 30.4316C11.0029 30.2429 11.1802 30.1362 11.3786 30.1128C11.703 30.0746 11.9577 30.1956 12.1391 30.4789C12.3226 30.7657 12.4152 31.1972 12.4152 31.7709C12.4152 32.0128 12.3919 32.2493 12.3454 32.48C12.2991 32.71 12.2273 32.951 12.1305 33.2023C12.0343 33.452 11.8806 33.7834 11.6711 34.1934L11.2851 35.0665L12.4941 35.1285V36.2282Z" fill="#00BF63"/>
<path d="M15.3307 33.7253C15.3307 34.6346 15.2152 35.3297 14.9865 35.8055C14.7608 36.275 14.4481 36.4891 14.0532 36.4535C13.6646 36.4184 13.3704 36.1584 13.1656 35.6775C12.9634 35.2028 12.8633 34.5497 12.8633 33.7135V32.5749C12.8633 31.7331 12.963 31.0759 13.1644 30.5985C13.3685 30.115 13.6614 29.8484 14.0483 29.8029C14.4447 29.7563 14.7587 29.9633 14.9852 30.4295C15.2147 30.9021 15.3307 31.594 15.3307 32.5002V33.7253ZM14.4688 32.3296C14.4688 31.8583 14.4348 31.5084 14.367 31.2806C14.2995 31.054 14.193 30.9469 14.0483 30.9587C13.9082 30.9701 13.807 31.0842 13.7442 31.3005C13.6816 31.5159 13.648 31.8371 13.6433 32.2645V33.8971C13.6433 34.3741 13.6757 34.7243 13.7406 34.9482C13.8058 35.1731 13.9097 35.2897 14.0532 35.2975C14.193 35.305 14.297 35.2009 14.3645 34.9844C14.4323 34.7669 14.4671 34.4223 14.4688 33.9508L14.4688 32.3296Z" fill="#00BF63"/>
<path d="M17.6667 36.7334L16.6495 36.6457V31.3942L15.7039 31.9131V30.6969L17.571 29.4349L17.6667 29.4241V36.7334Z" fill="#00BF63"/>
<path d="M20.8942 33.962C20.6144 34.3244 20.3055 34.5001 19.969 34.4929C19.4852 34.4827 19.1095 34.2344 18.8364 33.7528C18.5669 33.2777 18.4336 32.6475 18.4336 31.8574C18.4336 31.3637 18.5081 30.9 18.6583 30.4641C18.8095 30.025 19.0238 29.6658 19.3032 29.3862C19.5863 29.1028 19.9036 28.9397 20.2566 28.8997C20.6208 28.8584 20.9556 28.9565 21.2598 29.1968C21.5683 29.4408 21.8118 29.8093 21.9879 30.3027C22.1654 30.8005 22.2574 31.385 22.263 32.0536V32.8018C22.263 33.7336 22.1332 34.5389 21.876 35.2118C21.6218 35.8767 21.2644 36.3717 20.8091 36.6973C20.3635 37.0161 19.8556 37.1482 19.2906 37.0998L19.2154 37.0933V35.6367L19.4454 35.6428C20.3018 35.6225 20.7937 35.0635 20.8942 33.962ZM20.3093 33.1539C20.5876 33.1508 20.7898 32.9713 20.9136 32.6133V31.8264C20.9136 31.302 20.8528 30.918 20.732 30.6758C20.6118 30.435 20.4505 30.3229 20.249 30.3388C20.0718 30.3528 19.9246 30.5035 19.8065 30.7896C19.6891 31.0743 19.6307 31.4122 19.6307 31.8045C19.6307 32.2186 19.6903 32.5468 19.8102 32.79C19.9307 33.0347 20.0968 33.1563 20.3093 33.1539Z" fill="#00BF63"/>
<path d="M51.714 28.6601C51.7019 28.8155 51.6515 29.4644 51.6515 29.4644C51.6515 29.4644 50.8492 29.882 50.6166 29.7581C50.4326 29.66 50.498 29.0407 50.498 29.0407C50.498 29.0407 49.685 29.2214 49.7462 28.5724C49.7462 28.5724 49.7075 28.511 49.6928 28.3948C49.6764 28.279 49.8466 28.24 49.8311 28.0859C49.8156 27.9313 49.7846 26.9421 49.9315 26.9272C50.0788 26.9114 51.8906 26.3958 51.714 28.6601Z" fill="#F3AB9C"/>
<path d="M51.2745 28.6856C51.2463 28.84 51.3396 29.0017 51.4943 29.029C51.6323 29.0534 51.7878 28.9757 51.8573 28.5675C51.9719 27.8944 52.9289 27.259 52.4959 26.5901C52.0637 25.9198 52.1666 26.4146 51.4047 26.0949C50.6424 25.7762 50.6114 25.6627 50.4571 25.7656C50.3029 25.8686 50.045 26.1263 50.0662 25.9818C50.0862 25.838 49.8952 25.9872 49.9417 26.1674C49.9417 26.1674 49.7511 26.224 49.8079 25.961C49.8079 25.961 49.6357 26.0437 49.6907 26.3222C49.6907 26.3222 49.6377 26.3677 49.5871 26.2186C49.5352 26.07 49.4137 26.6919 49.6377 26.8674C49.8622 27.0437 50.018 27.0172 50.018 27.0172C50.018 27.0172 50.3257 27.4136 50.3641 27.622C50.4033 27.8313 50.3563 28.0005 50.511 28.0937C50.6594 28.1824 51.5367 27.2479 51.2745 28.6856Z" fill="black"/>
<path d="M38.2918 19.112L14.8271 21.6034C14.131 21.6769 13.574 22.4444 13.574 23.3186V41.2611C13.574 42.1353 14.131 42.9077 14.8271 42.9869L38.2918 45.6723C39.3834 45.7966 40.2831 44.9938 40.2831 43.8749V20.925C40.2831 19.8071 39.3834 18.9965 38.2918 19.112ZM39.3315 43.1534C39.3315 44.193 38.4945 44.94 37.4793 44.8235L23.5976 43.2356L20.8301 42.9194L19.5281 42.7696L15.6543 42.3271C15.0062 42.2527 14.4874 41.5341 14.4874 40.7216V24.0312C14.4874 23.2187 15.0062 22.505 15.6543 22.4355L26.3162 21.3038L33.4156 20.55L34.9095 20.3914L37.4793 20.1183C37.6692 20.0977 37.8543 20.1085 38.0285 20.1457C38.7794 20.3043 39.3315 20.9602 39.3315 21.8051V43.1534Z" fill="#609123"/>
<path d="M49.6391 24.0617C49.6391 24.0617 49.1481 24.4507 49.26 24.6045C49.3719 24.7584 49.7635 25.0031 49.9243 24.8632C50.0851 24.7234 50.162 24.3877 50.0711 24.2619C49.9802 24.136 49.6391 24.0617 49.6391 24.0617Z" fill="#F3AB9C"/>
<path d="M53.1208 45.2025C53.1344 45.2568 53.4013 46.2063 53.4013 46.2063L53.8524 46.0788L53.7585 45.1292L53.1208 45.2025Z" fill="#F3AB9C"/>
<path d="M53.2342 45.8734C53.2342 45.8734 53.6036 46.0391 53.7278 45.8406C53.852 45.6421 53.947 45.7405 53.947 45.7405C53.947 45.7405 54.2055 46.2745 54.1643 46.4651C54.123 46.6557 53.8383 46.777 53.6482 46.7132C53.4801 46.6568 52.5974 46.4638 52.3906 46.4308C52.3621 46.4263 52.3373 46.3979 52.3315 46.3627C52.3192 46.2885 52.3242 46.1653 52.4671 46.0998C52.6805 46.0018 53.1783 45.9495 53.2342 45.8734Z" fill="#565656"/>
<path d="M53.3646 40.5348C53.0048 39.1675 53.3654 37.7683 53.2806 36.3832C53.2573 36.0015 52.7438 35.8742 52.747 35.492L50.9712 35.7105C50.9712 35.7105 51.8357 40.7657 51.7875 41.0953C51.7423 41.4047 52.9789 45.1253 53.1305 45.5793C53.1391 45.6059 53.1651 45.6227 53.1933 45.6202L53.8029 45.5628C53.8351 45.5597 53.8593 45.5321 53.8575 45.4998C53.8373 45.1093 53.7141 42.8354 53.5682 41.9897C53.5204 41.713 53.471 41.2289 53.4265 40.7098C53.4027 40.6551 53.3811 40.5977 53.3646 40.5348Z" fill="#737373"/>
<path d="M49.7122 46.0159C49.7122 46.0718 49.7401 47.0578 49.7401 47.0578L50.2086 47.0438L50.3485 46.0998L49.7122 46.0159Z" fill="#F3AB9C"/>
<path d="M49.665 46.813C49.665 46.813 50.03 47.1014 50.1248 46.8873C50.2195 46.6732 50.3276 46.7571 50.3276 46.7571C50.3276 46.7571 50.3537 47.1388 50.3399 47.3334C50.3261 47.5279 50.0615 47.6883 49.8643 47.6522C49.6899 47.6202 48.7887 47.5545 48.5793 47.5512C48.5505 47.5508 48.5219 47.5262 48.5112 47.4922C48.4885 47.4205 48.4759 47.2979 48.6081 47.2127C48.8053 47.0855 49.6205 46.8963 49.665 46.813Z" fill="#565656"/>
<path d="M52.0118 37.5002C52.0819 37.1242 52.1444 36.7347 52.2404 36.3648L49.9352 36.2861C49.9352 36.2861 49.5445 41.3997 49.4176 41.7078C49.2985 41.9969 49.5933 45.9065 49.6299 46.3837C49.6318 46.4117 49.653 46.4343 49.6809 46.4387L50.2861 46.5313C50.3182 46.5362 50.3484 46.5152 50.3545 46.4835C50.4298 46.0997 50.8632 43.8642 50.9274 43.0084C50.9483 42.7284 51.0181 42.2467 51.1012 41.7324C51.0914 41.6735 51.7572 38.8643 52.0118 37.5002Z" fill="#737373"/>
<path d="M50.9801 29.3944C51.1706 29.3889 51.7262 29.2797 51.987 29.4084C53.1533 29.9843 53.161 32.0656 53.1478 33.3663C53.1285 35.2604 53.3366 36.6751 53.3366 36.6751C53.3366 36.6751 49.8417 37.2728 49.8829 36.4255C49.9151 35.7768 50.3304 32.0751 50.2481 30.2687C50.2247 29.7551 50.3216 29.4135 50.9801 29.3944Z" fill="#00BF63"/>
<path d="M46.7531 29.8529L46.2378 30.2637C46.2378 30.2637 45.747 29.9597 45.5623 29.9481C44.7856 29.8996 44.9729 29.1506 45.4029 29.1645C45.449 29.0934 45.4757 28.7345 45.6733 29.1714C45.7178 29.4606 46.0772 29.571 46.0772 29.571L46.7531 29.8529Z" fill="#F3AB9C"/>
<path d="M46.0151 29.4015L45.7424 30.0308L48.6374 32.1915L52.2805 31.0308C52.2805 31.0308 53.1686 29.9049 51.9309 29.7161C50.6932 29.5273 48.8891 30.8699 48.8891 30.8699L46.0151 29.4015Z" fill="#A0B855"/>
<path d="M37.9564 19.112L14.4916 21.6034C13.7956 21.6769 13.2385 22.4444 13.2385 23.3186V41.2611C13.2385 42.1353 13.7955 42.9077 14.4916 42.9869L37.9564 45.6723C39.0479 45.7966 39.9476 44.9938 39.9476 43.8749V20.925C39.9476 19.8071 39.0479 18.9965 37.9564 19.112ZM38.996 43.1534C38.996 44.193 38.159 44.94 37.1438 44.8235L23.2621 43.2356L20.4946 42.9194L19.1926 42.7696L15.3188 42.3271C14.6708 42.2527 14.1519 41.5341 14.1519 40.7216V24.0312C14.1519 23.2187 14.6708 22.505 15.3188 22.4355L25.9807 21.3038L33.0802 20.55L34.5741 20.3914L37.1438 20.1183C37.3338 20.0977 37.5188 20.1085 37.693 20.1457C38.4439 20.3043 38.996 20.9602 38.996 21.8051L38.996 43.1534Z" fill="#00BF63"/>
<path d="M10.0125 43.2459C10.0125 43.2459 9.72189 43.475 9.56767 43.3266C9.41345 43.1782 9.35101 43.2866 9.35101 43.2866C9.35101 43.2866 9.24051 43.8174 9.31945 43.9772C9.39841 44.137 9.67777 44.1812 9.83213 44.0824C9.96859 43.9951 10.7083 43.6278 10.8843 43.5526C10.9086 43.5423 10.9242 43.5116 10.9216 43.4791C10.916 43.4105 10.8841 43.3025 10.7429 43.2761C10.532 43.2368 10.079 43.301 10.0125 43.2459Z" fill="#565656"/>
<path d="M8.46176 43.1722C8.46176 43.1722 8.1711 43.4012 8.01688 43.2528C7.86266 43.1045 7.80022 43.2128 7.80022 43.2128C7.80022 43.2128 7.68972 43.7437 7.76866 43.9035C7.84762 44.0633 8.12698 44.1075 8.28134 44.0087C8.4178 43.9214 9.1575 43.5541 9.33352 43.4789C9.35778 43.4685 9.37346 43.4379 9.3708 43.4054C9.36518 43.3368 9.33338 43.2288 9.19214 43.2024C8.9812 43.163 8.52826 43.2273 8.46176 43.1722Z" fill="#565656"/>
<path d="M7.90259 42.5461C7.93503 42.9661 7.89865 43.1502 7.91925 43.3562C7.94359 43.5996 8.18705 43.5753 8.35747 43.3562C8.44039 43.2495 8.49165 42.8984 8.52249 42.5659C8.31581 42.5585 8.10917 42.5523 7.90259 42.5461Z" fill="#F5D3C6"/>
<path d="M9.3894 42.5848C9.41156 42.9749 9.42896 43.2826 9.43744 43.3676C9.4618 43.611 9.70526 43.5867 9.87568 43.3676C9.91768 43.3136 9.9661 43.0036 10.0153 42.5673C9.80718 42.5782 9.59902 42.584 9.3894 42.5848Z" fill="#F5D3C6"/>
<path d="M9.56058 34.6082C9.56058 34.6082 9.40764 36.4133 9.34528 37.3926C9.2829 38.3719 8.543 42.9463 8.543 42.9463C8.543 42.9463 7.98114 43.3166 7.76018 42.854C7.76018 42.854 7.82604 40.0443 7.88756 39.4814C7.94906 38.9185 7.39316 34.285 7.88468 34.3108C8.37622 34.3366 9.56058 34.6082 9.56058 34.6082Z" fill="#737373"/>
<path d="M10.1276 34.4877C10.1276 34.4877 10.2277 36.5033 10.2804 37.4831C10.3332 38.463 10.0932 42.8875 10.0932 42.8875C10.0932 42.8875 9.57861 43.3211 9.30501 42.8875C9.30501 42.8875 9.04147 40.0895 9.03667 39.5233C9.03187 38.9571 8.03115 34.3844 8.52233 34.3525C9.01349 34.3206 10.1276 34.4877 10.1276 34.4877Z" fill="#737373"/>
<path d="M8.86054 31.5414L9.2307 30.1984C9.2307 30.1984 9.66926 28.9309 9.80634 28.6646C9.86894 28.543 10.0144 28.4843 10.1267 28.3496C10.239 28.2149 10.2812 27.9344 10.2815 27.8245C10.2817 27.7146 10.1801 27.7242 10.145 27.8129C10.11 27.9015 10.0718 28.0265 10.024 28.0499C9.97618 28.0733 9.85216 27.9162 9.8121 27.8486C9.77204 27.781 9.52524 27.9891 9.5115 28.0429C9.49774 28.0967 9.51026 28.4099 9.41946 28.5848C9.18208 29.042 8.68892 29.4125 8.45706 30.0015C8.26298 30.4945 7.90942 31.3731 7.90942 31.3731C7.90942 31.3731 8.47756 31.8309 8.86054 31.5414Z" fill="#F5D3C6"/>
<path d="M9.65224 33.4517L9.86741 34.1957C9.86741 34.1957 11.1108 35.367 11.2208 35.4766C11.3308 35.586 11.5681 35.4459 11.7522 35.3702C11.9363 35.2945 12.2543 35.3443 12.3734 35.3815C12.4924 35.4187 12.4474 35.5255 12.3395 35.5332C12.2316 35.541 12.0832 35.5397 12.0416 35.5834C12 35.6272 12.1279 35.815 12.1874 35.8814C12.2469 35.9478 12.4826 36.1956 12.5443 36.2519C12.6061 36.3081 12.4495 36.3151 12.2877 36.2789C12.1259 36.2428 11.9377 36.1442 11.8747 36.1407C11.8118 36.1373 11.4578 36.1538 11.2567 36.0558C11.0557 35.9578 9.7938 35.2939 9.3281 34.9033C8.86242 34.5127 8.52979 33.3875 8.52979 33.3875C8.52979 33.3875 9.2894 33.1313 9.65224 33.4517Z" fill="#F5D3C6"/>
<path d="M9.26071 30.5552L9.15005 31.2044L8.32495 30.9997L8.50873 30.1559C8.50873 30.1559 9.19167 30.3823 9.26071 30.5552Z" fill="#F5D3C6"/>
<path d="M10.0064 29.2112C10.0064 29.2112 9.91475 29.5421 10.0064 29.7253C10.098 29.9086 10.0827 30.7893 9.44133 30.6162C8.79991 30.4432 8.43337 30.1084 8.46393 29.4282C8.49447 28.748 8.83881 28.5202 9.25461 28.5882C9.67041 28.6563 9.91475 28.6818 10.0064 29.2112Z" fill="#F5D3C6"/>
<path d="M9.09431 30.912C8.56481 30.9846 8.36183 30.7142 8.16309 30.517C7.96435 30.3198 7.46935 31.02 7.49669 31.5822C7.52401 32.1444 7.92573 33.2853 7.81617 33.687C7.70661 34.0887 7.52401 34.3908 7.68835 34.6464C7.85267 34.9021 9.83255 34.606 10.1289 34.6791C10.4251 34.7521 10.0863 33.8331 9.96461 33.4496C9.84297 33.0662 9.85511 32.3879 10.0845 32.0227C10.3139 31.6575 9.62383 30.8394 9.09431 30.912Z" fill="#00BF63"/>
<path d="M11.3406 35.4249C11.3406 35.4249 11.4134 35.9794 10.8986 35.9771C10.8986 35.9771 9.71427 35.5511 8.98025 34.6142C8.51999 34.0267 8.32391 32.0028 8.37993 31.7059C8.52531 30.9356 9.00539 30.7513 9.34153 31.0045C9.67766 31.2578 9.50689 32.7714 9.52631 33.0635C9.61959 34.4663 11.3406 35.4249 11.3406 35.4249Z" fill="#A0B855"/>
<path d="M9.81623 29.1644C9.73859 29.3678 9.58615 29.532 9.43955 29.6929C9.29293 29.8539 9.14481 30.0236 9.07925 30.2312C8.96087 30.6061 9.12633 31.0556 8.91039 31.3841C8.82147 31.5193 8.68059 31.61 8.56427 31.7226C8.41983 31.8624 8.31323 32.0363 8.17831 32.1854C8.04339 32.3344 7.86519 32.4632 7.66419 32.4668C7.42569 32.471 7.21091 32.2888 7.12421 32.0666C7.03747 31.8443 7.05987 31.5927 7.12811 31.3641C7.17571 31.2047 7.24547 31.0471 7.24271 30.8807C7.23991 30.7124 7.16281 30.5539 7.14405 30.3866C7.09695 29.9669 7.43745 29.5812 7.83371 29.4353C7.93329 29.3986 8.03807 29.3727 8.12897 29.3179C8.49879 29.0953 8.59047 28.4906 9.06171 28.3976C9.54029 28.3032 10.0078 28.6628 9.81623 29.1644Z" fill="black"/>
<path d="M9.63456 29.3464L9.6445 29.3649L9.71138 29.4888L9.84628 29.4832L9.88 29.2752L9.90248 29.4832L10.0767 29.4776C10.0767 29.4776 10.324 28.5221 9.72262 28.5221C9.12122 28.5221 9.63456 29.3464 9.63456 29.3464Z" fill="black"/>
<path d="M9.05249 30.3804L9.26055 30.5553L9.22143 30.7934L9.05249 30.3804Z" fill="#E8C5BA"/>
<defs>
<linearGradient id="paint0_linear_39_330" x1="13.574" y1="32.393" x2="40.2831" y2="32.393" gradientUnits="userSpaceOnUse">
<stop stop-color="#490496" stop-opacity="0.876"/>
<stop offset="1" stop-color="#A103DC"/>
</linearGradient>
<linearGradient id="paint1_linear_39_330" x1="19.6953" y1="12.7617" x2="27.904" y2="24.8424" gradientUnits="userSpaceOnUse">
<stop stop-color="#4C0497"/>
<stop offset="1" stop-color="#C300F1"/>
</linearGradient>
<linearGradient id="paint2_linear_39_330" x1="13.574" y1="24.6253" x2="40.2826" y2="24.6253" gradientUnits="userSpaceOnUse">
<stop stop-color="#4C0497"/>
<stop offset="1" stop-color="#C300F1"/>
</linearGradient>
</defs>
</svg>
