<svg width="303" height="292" viewBox="0 0 303 292" fill="none" xmlns="http://www.w3.org/2000/svg">
<path d="M284.115 276H253.885C253.4 275.945 252.952 275.695 252.626 275.299C252.3 274.903 252.12 274.389 252.12 273.855C252.12 273.322 252.3 272.808 252.626 272.412C252.952 272.016 253.4 271.766 253.885 271.711H282.231V20.2893H253.885C253.377 20.2771 252.895 20.0463 252.542 19.6469C252.189 19.2475 251.995 18.7119 252 18.1562C251.995 17.8791 252.039 17.6036 252.131 17.3452C252.222 17.0869 252.36 16.8508 252.535 16.6506C252.71 16.4504 252.919 16.2898 253.151 16.1782C253.382 16.0666 253.632 16.006 253.885 16H284.115C284.368 16.006 284.618 16.0666 284.849 16.1782C285.081 16.2898 285.29 16.4504 285.465 16.6506C285.64 16.8508 285.778 17.0869 285.869 17.3452C285.961 17.6036 286.005 17.8791 286 18.1562V273.867C286.005 274.423 285.811 274.958 285.458 275.358C285.105 275.757 284.623 275.988 284.115 276Z" fill="#05924E"/>
<path d="M49.1154 276H18.8846C18.3774 275.988 17.895 275.757 17.5422 275.358C17.1894 274.958 16.9948 274.423 17.0005 273.867V18.1562C16.9949 17.8791 17.0391 17.6036 17.1308 17.3452C17.2224 17.0869 17.3597 16.8508 17.5346 16.6506C17.7096 16.4504 17.9189 16.2898 18.1505 16.1782C18.3822 16.0666 18.6316 16.006 18.8846 16H49.1154C49.3684 16.006 49.6178 16.0666 49.8495 16.1782C50.0811 16.2898 50.2904 16.4504 50.4654 16.6506C50.6403 16.8508 50.7776 17.0869 50.8692 17.3452C50.9609 17.6036 51.0051 17.8791 50.9995 18.1562C51.0052 18.7119 50.8106 19.2475 50.4578 19.6469C50.105 20.0463 49.6226 20.2771 49.1154 20.2893H20.7687V271.711H49.1154C49.5996 271.766 50.048 272.016 50.374 272.412C50.6999 272.808 50.8803 273.322 50.8803 273.855C50.8803 274.389 50.6999 274.903 50.374 275.299C50.048 275.695 49.5996 275.945 49.1154 276Z" fill="#05924E"/>
<path d="M235.076 48.5071H67.9238V243.493H235.076V48.5071Z" fill="white"/>
<path d="M116.313 67.5337H84.6523V103.48H116.313V67.5337Z" fill="#00BF63"/>
<path d="M123.808 111.992H77.1768V59.0422H123.808V111.992ZM80.3641 108.347H120.602V62.6664H80.3641V108.347Z" fill="#00BF63"/>
<path d="M218.946 187.888H186.165V225.119H218.946V187.888Z" fill="#00BF63"/>
<path d="M225.881 232.979H179.249V180.008H225.881V232.979ZM182.436 229.334H222.674V183.653H182.436V229.334Z" fill="#00BF63"/>
<path d="M218.675 67.6812H197.812V91.3643H218.675V67.6812Z" fill="#00BF63"/>
<path d="M225.88 99.4976H190.588V59.4637H225.88V99.4976ZM193.795 95.9156H222.77V63.13H193.795V95.9156Z" fill="#00BF63"/>
<path d="M105.516 200.783H84.0928V225.119H105.516V200.783Z" fill="#00BF63"/>
<path d="M112.45 232.979H77.1768V192.945H112.45V232.979ZM80.3641 229.334H109.34V196.548H80.3641V229.334Z" fill="#00BF63"/>
<path d="M147.684 216.354H137.176V204.365H147.742L147.684 216.354ZM138.026 215.259H146.661V205.461H138.084L138.026 215.259Z" fill="#00BF63"/>
<path d="M138.992 89.2573H130.608V98.7812H138.992V89.2573Z" fill="#00BF63"/>
<path d="M176.081 79.7334H167.697V89.2572H176.081V79.7334Z" fill="#00BF63"/>
<path d="M147.376 98.7811H138.992V108.305H147.376V98.7811Z" fill="#00BF63"/>
<path d="M167.697 89.2573H147.395V98.7812H167.697V89.2573Z" fill="#00BF63"/>
<path d="M192.037 113.91V123.434H200.421V113.91H192.037Z" fill="#00BF63"/>
<path d="M208.805 109.148V118.672H217.188V109.148H208.805Z" fill="#00BF63"/>
<path d="M165.553 219.304V228.828H173.936V219.304H165.553Z" fill="#00BF63"/>
<path d="M210.118 146.463V155.987H218.502V146.463H210.118Z" fill="#00BF63"/>
<path d="M200.421 123.434V146.485H208.805V123.434H200.421Z" fill="#00BF63"/>
<path d="M80.3643 166.775V183.906H86.6037V166.775H80.3643Z" fill="#00BF63"/>
<path d="M160.047 78.1532H149.867V81.2927H160.047V78.1532Z" fill="#00BF63"/>
<path d="M156.262 85.5279V73.9602H153.635V85.5279H156.262Z" fill="#00BF63"/>
<path d="M149.849 89.7209V69.7461H147.376V89.7209H149.849Z" fill="#00BF63"/>
<path d="M213.75 130.345H210.91V133.568H213.75V130.345Z" fill="#00BF63"/>
<path d="M128.522 89.7629H125.683V92.9867H128.522V89.7629Z" fill="#00BF63"/>
<path d="M128.638 96.9691H125.799V100.193H128.638V96.9691Z" fill="#00BF63"/>
<path d="M111.098 129.207H108.259V132.431H111.098V129.207Z" fill="#00BF63"/>
<path d="M121.124 165.891H118.284V169.114H121.124V165.891Z" fill="#00BF63"/>
<path d="M203.975 171.516H201.136V174.74H203.975V171.516Z" fill="#00BF63"/>
<path d="M117.009 158.137H90.1777V141.807H117.009V158.137ZM93.3071 154.576H113.861V145.368H93.3071V154.576Z" fill="#00BF63"/>
<path d="M105.554 147.728H101.613V152.216H105.554V147.728Z" fill="#00BF63"/>
<path d="M172.894 140.353H169.533V148.634H172.894V140.353Z" fill="#00BF63"/>
<path d="M132.173 212.267V208.453H124.89V212.267H132.173Z" fill="#00BF63"/>
<path d="M159.256 126.636H155.837V130.513H159.256V126.636Z" fill="#00BF63"/>
<path d="M153.306 218.609H133.004V228.132H153.306V218.609Z" fill="#00BF63"/>
<path d="M171.561 208.663H175.502V198.95H171.561V208.663Z" fill="#00BF63"/>
<path d="M131.343 200.594H134.762V196.717H131.343V200.594Z" fill="#00BF63"/>
<path d="M121.761 186.75H125.876V195.073H130.647V186.75H133.062V180.935H121.761H121.278H118.729V203.796H121.761V186.75Z" fill="#00BF63"/>
<path d="M98.8703 164.458H93.4229V170.652H98.8703V164.458Z" fill="#00BF63"/>
<path d="M104.337 170.631H98.8896V176.826H104.337V170.631Z" fill="#00BF63"/>
<path d="M109.784 164.458H104.337V170.652H109.784V164.458Z" fill="#00BF63"/>
<path d="M167.659 186.329L164.703 183L167.659 179.649L170.595 183L167.659 186.329Z" fill="#00BF63"/>
<path d="M167.659 193.008L164.723 189.658L167.659 186.329L170.595 189.658L167.659 193.008Z" fill="#00BF63"/>
<path d="M173.531 193.008L170.595 189.679L173.531 186.329L176.467 189.679L173.531 193.008Z" fill="#00BF63"/>
<path d="M173.531 186.329L170.595 183L173.531 179.649L176.467 183L173.531 186.329Z" fill="#00BF63"/>
<path d="M129.526 156.093V153.333H127.092V156.093H129.526Z" fill="#00BF63"/>
<path d="M127.112 158.853V156.093H124.678V158.853H127.112Z" fill="#00BF63"/>
<path d="M129.546 161.634V158.874H127.112V161.634H129.546Z" fill="#00BF63"/>
<path d="M131.98 158.853V156.093H129.546V158.853H131.98Z" fill="#00BF63"/>
<path d="M143.165 116.775H139.804V131.946H143.165V116.775Z" fill="#00BF63"/>
<path d="M123.423 140.142H121.124V150.572H123.423V140.142Z" fill="#00BF63"/>
<path d="M224.162 103.079H221.863V113.509H224.162V103.079Z" fill="#00BF63"/>
<path d="M144.865 188.857H139.804V194.588H144.865V188.857Z" fill="#00BF63"/>
<path d="M151.452 181.398H146.391V187.129H151.452V181.398Z" fill="#00BF63"/>
<path d="M150.061 194.757H145V200.488H150.061V194.757Z" fill="#00BF63"/>
<path d="M156.628 187.277H151.567V193.008H156.628V187.277Z" fill="#00BF63"/>
<path d="M155.238 200.636H150.177V206.367H155.238V200.636Z" fill="#00BF63"/>
<path d="M161.825 193.177H156.764V198.908H161.825V193.177Z" fill="#00BF63"/>
<path d="M160.415 206.535H155.354V212.267H160.415V206.535Z" fill="#00BF63"/>
<path d="M167.003 199.055H161.941V204.786H167.003V199.055Z" fill="#00BF63"/>
<path d="M135.939 62.0764V71.6003H173.028V62.0764H135.939ZM143.203 68.7979H141.039V66.3959H138.992V64.0149H141.039V66.3959H143.145L143.203 68.7979Z" fill="#00BF63"/>
<path d="M96.3201 179.923H91.7227V185.149H96.3201V179.923Z" fill="#00BF63"/>
<path d="M111.504 179.923H106.906V185.149H111.504V179.923Z" fill="#00BF63"/>
<path d="M107.602 183.906H95.625V187.867H107.602V183.906Z" fill="#00BF63"/>
<path d="M120.969 217.408V210.813H114.961V231.398H120.969V224.213H126.957V217.408H120.969Z" fill="#00BF63"/>
<path d="M193.042 136.329H187.672V142.418H193.042V136.329Z" fill="#00BF63"/>
<path d="M187.788 173.244H185.45V175.899H187.788V173.244Z" fill="#00BF63"/>
<path d="M196.48 167.955H194.143V170.61H196.48V167.955Z" fill="#00BF63"/>
<path d="M198.393 136.329H193.022V142.418H198.393V136.329Z" fill="#00BF63"/>
<path d="M182.302 136.329H176.932V142.418H182.302V136.329Z" fill="#00BF63"/>
<path d="M196.48 170.589H184.735V173.244H196.48V170.589Z" fill="#00BF63"/>
<path d="M172.759 102.426H167.389V108.516H172.759V102.426Z" fill="#00BF63"/>
<path d="M162.057 102.426H156.687V108.516H162.057V102.426Z" fill="#00BF63"/>
<path d="M142.141 110.791H133.467V107.483H130.55C130.55 106.324 130.55 105.376 130.415 104.154H127.518V114.247H130.512V110.876H133.313V114.015H142.102L142.141 110.791Z" fill="#00BF63"/>
<path d="M143.126 76.3201V84.3479H139.552V80.5342H132.366V84.4954H128.754V76.3201H143.126Z" fill="#00BF63"/>
<path d="M188.193 67.7444V75.1612H184.929V71.516H181.76V75.119H184.967V82.4515H181.606V86.2442H178.477V64.1202H181.606V67.7444H188.193Z" fill="#00BF63"/>
<path d="M178.863 103.016H188.193V97.6434H183.673V92.439H174.304V97.5591H178.901V103.08L178.863 103.016Z" fill="#00BF63"/>
<path d="M83.1846 116.354L87.7821 116.017V121.179H83.2425V116.354H83.1846Z" fill="#00BF63"/>
<path d="M97.0352 116.354L101.613 116.08V121.221H97.0931V116.354H97.0352Z" fill="#00BF63"/>
<path d="M200.344 102.974H204.787V108.052H200.382V102.911L200.344 102.974Z" fill="#00BF63"/>
<path d="M153.518 135.064H149.52V108.284H153.518V135.064Z" fill="#00BF63"/>
<path d="M102.985 126.299H128.483V116.038H102.985V126.299Z" fill="#00BF63"/>
<path d="M147.878 148.107V141.786H137.833V138.92V120.631V115.785H128.928V120.631H121.742V138.92H128.928V148.086H135.824V148.107H147.878Z" fill="#00BF63"/>
<path d="M168.741 166.08V158.031H144.537V147.812H152.128H160.087V139.363V130.935H152.128V139.363H144.537H136.578V147.812V158.031H128.619V166.08V172.844V184.032H144.537H168.741V172.844H144.537V166.08H168.741Z" fill="#00BF63"/>
<path d="M83.8415 124.361V131.925H77.1191V164.626H84.8847V131.841H106.346V124.361H83.8415Z" fill="#00BF63"/>
<path d="M181.548 158.874H187.923V151.647H181.548V158.874Z" fill="#00BF63"/>
<path d="M195.07 139.889V157.441H199.262V139.889H195.07Z" fill="#00BF63"/>
<path d="M204.883 146.421H189.43V150.952H204.883V146.421Z" fill="#00BF63"/>
<path d="M210.505 157.462H183.809V161.719H210.505V157.462Z" fill="#00BF63"/>
<path d="M208.65 164.479H212.784V169.241H208.65V174.045H217.131V178.933H225.669V169.241H217.382V164.626H221.38V159.822H208.65V164.479Z" fill="#00BF63"/>
<path d="M163.602 149.877H158.444V155.735H163.602V149.877Z" fill="#00BF63"/>
<path d="M180.621 149.877H175.463V155.735H180.621V149.877Z" fill="#00BF63"/>
<path d="M176.236 154.365H162.811V158.811H176.236V154.365Z" fill="#00BF63"/>
<path d="M165.167 158.2V167.702H185.469V158.2H165.167ZM171.947 164.099H167.717V159.422H171.947V164.099Z" fill="#00BF63"/>
<path d="M181.625 111.149H158.638V117.723H181.625V133.653H186.86V117.723V111.149H181.625Z" fill="#00BF63"/>
<path d="M158.715 130.977V124.171H182.185C182.185 126.573 182.378 128.785 182.475 130.977H170.634V137.698H164.549V130.977H158.715Z" fill="#00BF63"/>
<path d="M143.706 208.916V211.803H141.04V208.916H143.706Z" fill="#00BF63"/>
<path d="M219.815 125.667V128.09H216.782V139.363H219.815V141.807H225.881V125.667H219.815Z" fill="#00BF63"/>
<path opacity="0.29" d="M161.709 31.6718H32.4385V260.181H161.709V31.6718Z" fill="url(#paint0_linear_37_139)"/>
<path opacity="0.64" d="M161.709 31.6718V260.181" stroke="#0C386B" stroke-width="1.23" stroke-miterlimit="10"/>
<defs>
<linearGradient id="paint0_linear_37_139" x1="32.4385" y1="145.937" x2="215.218" y2="145.937" gradientUnits="userSpaceOnUse">
<stop offset="0.01" stop-color="#46E840" stop-opacity="0.42"/>
<stop offset="1" stop-color="#05924E"/>
</linearGradient>
</defs>
</svg>
