<svg width="17" height="18" viewBox="0 0 17 18" fill="none" xmlns="http://www.w3.org/2000/svg">
<path d="M6.21289 16.3544V13.7476C6.21287 13.087 6.74504 12.5503 7.40422 12.5462H9.82457C10.4867 12.5462 11.0234 13.0841 11.0234 13.7476V16.3469C11.0234 16.9198 11.4847 17.3854 12.0564 17.3896H13.7077C14.4789 17.3916 15.2192 17.086 15.7653 16.5402C16.3113 15.9944 16.6182 15.2534 16.6182 14.4805V7.07561C16.6182 6.45132 16.342 5.85915 15.8642 5.45862L10.2544 0.962776C9.27375 0.176403 7.87322 0.201806 6.92165 1.02322L1.43249 5.45862C0.932051 5.84734 0.632945 6.44127 0.618164 7.07561V14.473C0.618164 16.0838 1.92122 17.3896 3.52863 17.3896H5.1422C5.41747 17.3916 5.68215 17.2834 5.87751 17.0891C6.07287 16.8947 6.18273 16.6303 6.18273 16.3544H6.21289Z" fill="#00BF63"/>
</svg>
