<svg width="21" height="20" viewBox="0 0 21 20" fill="none" xmlns="http://www.w3.org/2000/svg">
<path d="M1.61816 7.36646C1.61816 8.65838 1.80373 10.646 3.47383 12.4348C4.95837 14.0248 9.8759 17.6025 10.0615 17.8012C10.247 17.9006 10.4326 18 10.6182 18C10.8037 18 10.9893 17.9006 11.1749 17.8012C11.3604 17.6025 16.278 14.1242 17.7625 12.4348C19.4326 10.646 19.6182 8.65838 19.6182 7.36646C19.6182 4.38509 17.3914 2 14.6079 2C13.1233 2 11.6388 2.89441 10.7109 4.28571C9.78311 2.89441 8.29858 2 6.62847 2C3.93775 2 1.61816 4.38509 1.61816 7.36646Z" fill="#00BF63"/>
</svg>
