<svg width="21" height="20" viewBox="0 0 21 20" fill="none" xmlns="http://www.w3.org/2000/svg">
<g clip-path="url(#clip0_37_116)">
<path d="M8.74341 3.125H4.99341C4.30305 3.125 3.74341 3.68464 3.74341 4.375V8.125C3.74341 8.81536 4.30305 9.375 4.99341 9.375H8.74341C9.43376 9.375 9.99341 8.81536 9.99341 8.125V4.375C9.99341 3.68464 9.43376 3.125 8.74341 3.125Z" fill="#00BF63"/>
<path d="M8.74341 10.625H4.99341C4.30305 10.625 3.74341 11.1846 3.74341 11.875V15.625C3.74341 16.3154 4.30305 16.875 4.99341 16.875H8.74341C9.43376 16.875 9.99341 16.3154 9.99341 15.625V11.875C9.99341 11.1846 9.43376 10.625 8.74341 10.625Z" fill="#00BF63"/>
<path d="M16.2434 3.125H12.4934C11.8031 3.125 11.2434 3.68464 11.2434 4.375V8.125C11.2434 8.81536 11.8031 9.375 12.4934 9.375H16.2434C16.9338 9.375 17.4934 8.81536 17.4934 8.125V4.375C17.4934 3.68464 16.9338 3.125 16.2434 3.125Z" fill="#00BF63"/>
<path d="M11.8684 14.375C12.0342 14.375 12.1931 14.3091 12.3103 14.1919C12.4275 14.0747 12.4934 13.9158 12.4934 13.75V11.25C12.4934 11.0842 12.4276 10.9253 12.3104 10.8081C12.1931 10.6908 12.0342 10.625 11.8684 10.625C11.7026 10.625 11.5437 10.6908 11.4265 10.8081C11.3093 10.9253 11.2434 11.0842 11.2434 11.25V13.75C11.2434 13.9158 11.3093 14.0747 11.4265 14.1919C11.5437 14.3091 11.7027 14.375 11.8684 14.375Z" fill="#00BF63"/>
<path d="M16.8684 11.875H14.9934V11.25C14.9934 11.0842 14.9276 10.9253 14.8104 10.8081C14.6931 10.6908 14.5342 10.625 14.3684 10.625C14.2026 10.625 14.0437 10.6908 13.9265 10.8081C13.8093 10.9253 13.7434 11.0842 13.7434 11.25V15.625H11.8684C11.7026 15.625 11.5437 15.6908 11.4265 15.8081C11.3093 15.9253 11.2434 16.0842 11.2434 16.25C11.2434 16.4158 11.3093 16.5747 11.4265 16.6919C11.5437 16.8092 11.7026 16.875 11.8684 16.875H14.3684C14.5342 16.875 14.6931 16.8091 14.8103 16.6919C14.9275 16.5747 14.9934 16.4158 14.9934 16.25V13.125H16.8684C17.0342 13.125 17.1931 13.0592 17.3104 12.9419C17.4276 12.8247 17.4934 12.6658 17.4934 12.5C17.4934 12.3342 17.4276 12.1753 17.3104 12.0581C17.1931 11.9408 17.0342 11.875 16.8684 11.875ZM16.8684 14.375C16.7027 14.375 16.5437 14.4409 16.4265 14.5581C16.3093 14.6753 16.2434 14.8342 16.2434 15V16.25C16.2434 16.4158 16.3093 16.5747 16.4265 16.6919C16.5437 16.8092 16.7026 16.875 16.8684 16.875C17.0342 16.875 17.1931 16.8092 17.3104 16.6919C17.4276 16.5747 17.4934 16.4158 17.4934 16.25V15C17.4934 14.8342 17.4275 14.6753 17.3103 14.5581C17.1931 14.4409 17.0342 14.375 16.8684 14.375Z" fill="#00BF63"/>
</g>
<defs>
<clipPath id="clip0_37_116">
<rect width="20" height="20" fill="white" transform="translate(0.618164)"/>
</clipPath>
</defs>
</svg>
