<svg width="21" height="30" viewBox="0 0 21 30" fill="none" xmlns="http://www.w3.org/2000/svg">
<circle cx="11" cy="25.5" r="4" fill="#00BF63"/>
<path d="M15.75 4H15V3.25C15 2.8 14.7 2.5 14.25 2.5C13.8 2.5 13.5 2.8 13.5 3.25V4H7.5V3.25C7.5 2.8 7.2 2.5 6.75 2.5C6.3 2.5 6 2.8 6 3.25V4H5.25C3.975 4 3 4.975 3 6.25V7H18V6.25C18 4.975 17.025 4 15.75 4ZM3 15.25C3 16.525 3.975 17.5 5.25 17.5H15.75C17.025 17.5 18 16.525 18 15.25V8.5H3V15.25ZM14.25 10C14.7 10 15 10.3 15 10.75C15 11.2 14.7 11.5 14.25 11.5C13.8 11.5 13.5 11.2 13.5 10.75C13.5 10.3 13.8 10 14.25 10ZM14.25 13C14.7 13 15 13.3 15 13.75C15 14.2 14.7 14.5 14.25 14.5C13.8 14.5 13.5 14.2 13.5 13.75C13.5 13.3 13.8 13 14.25 13ZM10.5 10C10.95 10 11.25 10.3 11.25 10.75C11.25 11.2 10.95 11.5 10.5 11.5C10.05 11.5 9.75 11.2 9.75 10.75C9.75 10.3 10.05 10 10.5 10ZM10.5 13C10.95 13 11.25 13.3 11.25 13.75C11.25 14.2 10.95 14.5 10.5 14.5C10.05 14.5 9.75 14.2 9.75 13.75C9.75 13.3 10.05 13 10.5 13ZM6.75 10C7.2 10 7.5 10.3 7.5 10.75C7.5 11.2 7.2 11.5 6.75 11.5C6.3 11.5 6 11.2 6 10.75C6 10.3 6.3 10 6.75 10ZM6.75 13C7.2 13 7.5 13.3 7.5 13.75C7.5 14.2 7.2 14.5 6.75 14.5C6.3 14.5 6 14.2 6 13.75C6 13.3 6.3 13 6.75 13Z" fill="#00BF63"/>
</svg>
