<svg width="20" height="30" viewBox="0 0 20 30" fill="none" xmlns="http://www.w3.org/2000/svg">
<path d="M17.5 15.4167V16.25C17.4997 16.4709 17.4118 16.6827 17.2556 16.8389C17.0993 16.9951 16.8876 17.083 16.6667 17.0833H3.33333C3.11242 17.083 2.90065 16.9951 2.74444 16.8389C2.58823 16.6827 2.50033 16.4709 2.5 16.25V15.4167C2.50033 15.1957 2.58823 14.984 2.74444 14.8278C2.90065 14.6716 3.11242 14.5837 3.33333 14.5833H16.6667C16.8876 14.5837 17.0993 14.6716 17.2556 14.8278C17.4118 14.984 17.4997 15.1957 17.5 15.4167ZM16.6667 13.75H3.33333C3.33573 12.1998 3.87761 10.6988 4.86599 9.50449C5.85436 8.31023 7.22759 7.49722 8.75 7.20499V6.66666C8.75033 6.33524 8.88213 6.01749 9.11648 5.78314C9.35083 5.54879 9.66858 5.41699 10 5.41666C10.331 5.41819 10.6481 5.55038 10.8822 5.78447C11.1163 6.01856 11.2485 6.33561 11.25 6.66666V7.20499C12.7724 7.49722 14.1456 8.31023 15.134 9.50449C16.1224 10.6988 16.6643 12.1998 16.6667 13.75ZM10 7.08332C10.1408 7.08332 10.2783 7.09582 10.4167 7.10416V6.66666C10.4171 6.61296 10.4068 6.55973 10.3862 6.51012C10.3657 6.46051 10.3354 6.41555 10.2971 6.37791C10.2589 6.33742 10.2129 6.30518 10.1618 6.28318C10.1107 6.26117 10.0556 6.24988 10 6.24999C9.88949 6.24999 9.78351 6.29389 9.70537 6.37203C9.62723 6.45017 9.58333 6.55615 9.58333 6.66666V7.10416C9.72167 7.09582 9.85958 7.08332 10 7.08332Z" fill="#00BF63"/>
<circle cx="10" cy="26" r="4" fill="#00BF63"/>
</svg>
