<svg width="21" height="20" viewBox="0 0 21 20" fill="none" xmlns="http://www.w3.org/2000/svg">
<path d="M2.61816 7.69565C2.61816 8.82609 2.78311 10.5652 4.26765 12.1304C5.58724 13.5217 9.95837 16.6522 10.1233 16.8261C10.2883 16.913 10.4532 17 10.6182 17C10.7831 17 10.9481 16.913 11.113 16.8261C11.278 16.6522 15.6491 13.6087 16.9687 12.1304C18.4532 10.5652 18.6182 8.82609 18.6182 7.69565C18.6182 5.08696 16.6388 3 14.1646 3C12.845 3 11.5254 3.78261 10.7006 5C9.8759 3.78261 8.55631 3 7.07177 3C4.68002 3 2.61816 5.08696 2.61816 7.69565Z" fill="#717171" fill-opacity="0.39"/>
</svg>
