<svg width="21" height="20" viewBox="0 0 21 20" fill="none" xmlns="http://www.w3.org/2000/svg">
<g clip-path="url(#clip0_8_531)">
<path d="M8.74316 3.125H4.99316C4.30281 3.125 3.74316 3.68464 3.74316 4.375V8.125C3.74316 8.81536 4.30281 9.375 4.99316 9.375H8.74316C9.43352 9.375 9.99316 8.81536 9.99316 8.125V4.375C9.99316 3.68464 9.43352 3.125 8.74316 3.125Z" fill="#717171" fill-opacity="0.39"/>
<path d="M8.74316 10.625H4.99316C4.30281 10.625 3.74316 11.1846 3.74316 11.875V15.625C3.74316 16.3154 4.30281 16.875 4.99316 16.875H8.74316C9.43352 16.875 9.99316 16.3154 9.99316 15.625V11.875C9.99316 11.1846 9.43352 10.625 8.74316 10.625Z" fill="#717171" fill-opacity="0.39"/>
<path d="M16.2432 3.125H12.4932C11.8028 3.125 11.2432 3.68464 11.2432 4.375V8.125C11.2432 8.81536 11.8028 9.375 12.4932 9.375H16.2432C16.9335 9.375 17.4932 8.81536 17.4932 8.125V4.375C17.4932 3.68464 16.9335 3.125 16.2432 3.125Z" fill="#717171" fill-opacity="0.39"/>
<path d="M11.8682 14.375C12.0339 14.375 12.1929 14.3091 12.3101 14.1919C12.4273 14.0747 12.4932 13.9158 12.4932 13.75V11.25C12.4932 11.0842 12.4273 10.9253 12.3101 10.8081C12.1929 10.6908 12.0339 10.625 11.8682 10.625C11.7024 10.625 11.5434 10.6908 11.4262 10.8081C11.309 10.9253 11.2432 11.0842 11.2432 11.25V13.75C11.2432 13.9158 11.309 14.0747 11.4262 14.1919C11.5434 14.3091 11.7024 14.375 11.8682 14.375Z" fill="#717171" fill-opacity="0.39"/>
<path d="M16.8682 11.875H14.9932V11.25C14.9932 11.0842 14.9273 10.9253 14.8101 10.8081C14.6929 10.6908 14.5339 10.625 14.3682 10.625C14.2024 10.625 14.0434 10.6908 13.9262 10.8081C13.809 10.9253 13.7432 11.0842 13.7432 11.25V15.625H11.8682C11.7024 15.625 11.5434 15.6908 11.4262 15.8081C11.309 15.9253 11.2432 16.0842 11.2432 16.25C11.2432 16.4158 11.309 16.5747 11.4262 16.6919C11.5434 16.8092 11.7024 16.875 11.8682 16.875H14.3682C14.5339 16.875 14.6929 16.8091 14.8101 16.6919C14.9273 16.5747 14.9932 16.4158 14.9932 16.25V13.125H16.8682C17.0339 13.125 17.1929 13.0592 17.3101 12.9419C17.4273 12.8247 17.4932 12.6658 17.4932 12.5C17.4932 12.3342 17.4273 12.1753 17.3101 12.0581C17.1929 11.9408 17.0339 11.875 16.8682 11.875ZM16.8682 14.375C16.7024 14.375 16.5434 14.4409 16.4262 14.5581C16.309 14.6753 16.2432 14.8342 16.2432 15V16.25C16.2432 16.4158 16.309 16.5747 16.4262 16.6919C16.5434 16.8092 16.7024 16.875 16.8682 16.875C17.0339 16.875 17.1929 16.8092 17.3101 16.6919C17.4273 16.5747 17.4932 16.4158 17.4932 16.25V15C17.4932 14.8342 17.4273 14.6753 17.3101 14.5581C17.1929 14.4409 17.0339 14.375 16.8682 14.375Z" fill="#717171" fill-opacity="0.39"/>
</g>
<defs>
<clipPath id="clip0_8_531">
<rect width="20" height="20" fill="white" transform="translate(0.618164)"/>
</clipPath>
</defs>
</svg>
