<svg width="20" height="21" viewBox="0 0 20 21" fill="none" xmlns="http://www.w3.org/2000/svg">
<path d="M17.5 15.9167V16.75C17.4997 16.9709 17.4118 17.1827 17.2556 17.3389C17.0993 17.4951 16.8876 17.583 16.6667 17.5833H3.33333C3.11242 17.583 2.90065 17.4951 2.74444 17.3389C2.58823 17.1827 2.50033 16.9709 2.5 16.75V15.9167C2.50033 15.6957 2.58823 15.484 2.74444 15.3278C2.90065 15.1716 3.11242 15.0837 3.33333 15.0833H16.6667C16.8876 15.0837 17.0993 15.1716 17.2556 15.3278C17.4118 15.484 17.4997 15.6957 17.5 15.9167ZM16.6667 14.25H3.33333C3.33573 12.6998 3.87761 11.1988 4.86599 10.0045C5.85436 8.81023 7.22759 7.99722 8.75 7.70499V7.16666C8.75033 6.83524 8.88213 6.51749 9.11648 6.28314C9.35083 6.04879 9.66858 5.91699 10 5.91666C10.331 5.91819 10.6481 6.05038 10.8822 6.28447C11.1163 6.51856 11.2485 6.83561 11.25 7.16666V7.70499C12.7724 7.99722 14.1456 8.81023 15.134 10.0045C16.1224 11.1988 16.6643 12.6998 16.6667 14.25ZM10 7.58332C10.1408 7.58332 10.2783 7.59582 10.4167 7.60416V7.16666C10.4171 7.11296 10.4068 7.05973 10.3862 7.01012C10.3657 6.96051 10.3354 6.91555 10.2971 6.87791C10.2589 6.83742 10.2129 6.80518 10.1618 6.78318C10.1107 6.76117 10.0556 6.74988 10 6.74999C9.88949 6.74999 9.78351 6.79389 9.70537 6.87203C9.62723 6.95017 9.58333 7.05615 9.58333 7.16666V7.60416C9.72167 7.59582 9.85958 7.58332 10 7.58332Z" fill="#717171" fill-opacity="0.39"/>
</svg>
