<svg width="21" height="20" viewBox="0 0 21 20" fill="none" xmlns="http://www.w3.org/2000/svg">
<path d="M15.75 3.5H15V2.75C15 2.3 14.7 2 14.25 2C13.8 2 13.5 2.3 13.5 2.75V3.5H7.5V2.75C7.5 2.3 7.2 2 6.75 2C6.3 2 6 2.3 6 2.75V3.5H5.25C3.975 3.5 3 4.475 3 5.75V6.5H18V5.75C18 4.475 17.025 3.5 15.75 3.5ZM3 14.75C3 16.025 3.975 17 5.25 17H15.75C17.025 17 18 16.025 18 14.75V8H3V14.75ZM14.25 9.5C14.7 9.5 15 9.8 15 10.25C15 10.7 14.7 11 14.25 11C13.8 11 13.5 10.7 13.5 10.25C13.5 9.8 13.8 9.5 14.25 9.5ZM14.25 12.5C14.7 12.5 15 12.8 15 13.25C15 13.7 14.7 14 14.25 14C13.8 14 13.5 13.7 13.5 13.25C13.5 12.8 13.8 12.5 14.25 12.5ZM10.5 9.5C10.95 9.5 11.25 9.8 11.25 10.25C11.25 10.7 10.95 11 10.5 11C10.05 11 9.75 10.7 9.75 10.25C9.75 9.8 10.05 9.5 10.5 9.5ZM10.5 12.5C10.95 12.5 11.25 12.8 11.25 13.25C11.25 13.7 10.95 14 10.5 14C10.05 14 9.75 13.7 9.75 13.25C9.75 12.8 10.05 12.5 10.5 12.5ZM6.75 9.5C7.2 9.5 7.5 9.8 7.5 10.25C7.5 10.7 7.2 11 6.75 11C6.3 11 6 10.7 6 10.25C6 9.8 6.3 9.5 6.75 9.5ZM6.75 12.5C7.2 12.5 7.5 12.8 7.5 13.25C7.5 13.7 7.2 14 6.75 14C6.3 14 6 13.7 6 13.25C6 12.8 6.3 12.5 6.75 12.5Z" fill="#717171" fill-opacity="0.39"/>
</svg>
