<svg width="21" height="20" viewBox="0 0 21 20" fill="none" xmlns="http://www.w3.org/2000/svg">
<path d="M8.51355 16.0866V13.7864C8.51353 13.2036 8.97918 12.73 9.55596 12.7263H11.6738C12.2531 12.7263 12.7228 13.201 12.7228 13.7864V16.0799C12.7228 16.5854 13.1264 16.9963 13.6266 17H15.0715C15.7463 17.0017 16.3941 16.7321 16.8719 16.2505C17.3496 15.7689 17.6182 15.115 17.6182 14.4331V7.89938C17.6182 7.34853 17.3765 6.82603 16.9584 6.47262L12.0498 2.5057C11.1918 1.81184 9.96633 1.83426 9.13372 2.55904L4.3307 6.47262C3.89282 6.81561 3.6311 7.33966 3.61816 7.89938V14.4265C3.61816 15.8478 4.75834 17 6.16482 17H7.57669C7.81755 17.0017 8.04915 16.9063 8.22009 16.7348C8.39103 16.5633 8.48716 16.33 8.48716 16.0866H8.51355Z" fill="#717171" fill-opacity="0.39"/>
</svg>
